<?xml version="1.0" encoding="utf-8"?>
<!-- Generator: Adobe Illustrator 23.0.3, SVG Export Plug-In . SVG Version: 6.00 Build 0)  -->
<svg version="1.1" id="Layer_1" xmlns="http://www.w3.org/2000/svg" xmlns:xlink="http://www.w3.org/1999/xlink" x="0px" y="0px"
	 viewBox="0 0 50 84.7" style="enable-background:new 0 0 50 84.7;" xml:space="preserve">
<style type="text/css">
	.st0{fill:#292929;}
</style>
<g id="vGJIqX.tif">
	<g>
		<path class="st0" d="M50,72.7c-16.7,0-33.3,0-50,0C0,52.4,0,32.2,0,12c16.7,0,33.3,0,50,0C50,32.2,50,52.4,50,72.7z M5.4,17.4
			c0,16.7,0,33.3,0,49.9c13.1,0,26.2,0,39.3,0c0-16.7,0-33.3,0-49.9C31.5,17.4,18.5,17.4,5.4,17.4z"/>
		<path class="st0" d="M41.1,20.9c0,6.6,0,13.1,0,19.7c-10.7,0-21.4,0-32.2,0c0-6.6,0-13.1,0-19.7C19.6,20.9,30.3,20.9,41.1,20.9z"
			/>
		<path class="st0" d="M8.9,44.3c10.7,0,21.4,0,32.2,0c0,6.5,0,13,0,19.5c-10.7,0-21.4,0-32.2,0C8.9,57.3,8.9,50.8,8.9,44.3z
			 M35.8,48.7c-7.2,0-14.4,0-21.5,0c0,1.2,0,2.3,0,3.5c7.2,0,14.3,0,21.5,0C35.8,51,35.8,49.9,35.8,48.7z M14.2,59.3
			c4.8,0,9.6,0,14.4,0c0-1.2,0-2.3,0-3.5c-4.8,0-9.6,0-14.4,0C14.2,57,14.2,58.1,14.2,59.3z M32.2,59.3c1.2,0,2.3,0,3.5,0
			c0-1.2,0-2.3,0-3.5c-1.2,0-2.3,0-3.5,0C32.2,57,32.2,58.1,32.2,59.3z"/>
	</g>
</g>
</svg>
