<?xml version="1.0" encoding="utf-8"?>
<!-- Generator: Adobe Illustrator 23.0.3, SVG Export Plug-In . SVG Version: 6.00 Build 0)  -->
<svg version="1.1" id="Capa_1" xmlns="http://www.w3.org/2000/svg" xmlns:xlink="http://www.w3.org/1999/xlink" x="0px" y="0px"
	 viewBox="0 0 60 46.4" style="enable-background:new 0 0 60 46.4;" xml:space="preserve">
<style type="text/css">
	.st0{fill:#292929;}
</style>
<g>
	<path class="st0" d="M11.5,42.9h-0.9V20.3H5.1v22.5H4.2c-0.7,0-1.3,0.6-1.3,1.3v0.9c0,0.7,0.6,1.3,1.3,1.3h7.4
		c0.7,0,1.3-0.6,1.3-1.3v-0.9C12.9,43.5,12.3,42.9,11.5,42.9z"/>
	<path class="st0" d="M56.3,42.9h-0.9V20.3h-5.5v22.5h-0.9c-0.7,0-1.3,0.6-1.3,1.3v0.9c0,0.7,0.6,1.3,1.3,1.3h7.4
		c0.7,0,1.3-0.6,1.3-1.3v-0.9C57.6,43.5,57,42.9,56.3,42.9z"/>
	<polygon class="st0" points="22.4,0 22.4,0 13.9,0 13.9,0 20.9,17.5 29.4,17.5 22.4,0 	"/>
	<polygon class="st0" points="39.1,0 30.5,0 37.6,17.5 46.1,17.5 39.1,0 	"/>
	<path class="st0" d="M5.8,0H1.3C0.6,0,0,0.6,0,1.3v15c0,0.5,0.3,1,0.8,1.2h12L5.8,0z"/>
	<path class="st0" d="M58.7,0H47.2l7,17.5h5.1c0.4-0.2,0.7-0.7,0.7-1.2v-15C60,0.6,59.4,0,58.7,0z"/>
</g>
</svg>
