<?xml version="1.0" encoding="utf-8"?>
<!-- Generator: Adobe Illustrator 23.0.3, SVG Export Plug-In . SVG Version: 6.00 Build 0)  -->
<svg version="1.1" id="Layer_1" xmlns="http://www.w3.org/2000/svg" xmlns:xlink="http://www.w3.org/1999/xlink" x="0px" y="0px"
	 viewBox="0 0 50 50" style="enable-background:new 0 0 50 50;" xml:space="preserve">
<style type="text/css">
	.st0{fill:#292929;}
</style>
<path class="st0" d="M25,0C11.2,0,0,11.2,0,25s11.2,25,25,25s25-11.2,25-25S38.8,0,25,0z M43.1,16.1h-6.8c-0.7-3.7-1.8-6.9-3.1-9.5
	C37.5,8.5,41,11.9,43.1,16.1L43.1,16.1z M25,4.8c1.9,0,4.9,4.2,6.4,11.3H18.6C20.1,9,23.1,4.8,25,4.8z M4.8,25c0-1.4,0.1-2.7,0.4-4
	h7.8c-0.1,1.3-0.2,2.7-0.2,4c0,1.4,0.1,2.7,0.2,4H5.2C5,27.7,4.8,26.4,4.8,25z M6.9,33.9h6.8c0.7,3.7,1.8,6.9,3.1,9.5
	C12.5,41.5,9,38.1,6.9,33.9z M13.7,16.1H6.9c2.1-4.2,5.6-7.6,9.9-9.5C15.5,9.2,14.4,12.4,13.7,16.1L13.7,16.1z M25,45.2
	c-1.9,0-4.9-4.2-6.4-11.3h12.8C29.9,41,26.9,45.2,25,45.2L25,45.2z M32.1,29H17.9c-0.1-1.3-0.2-2.6-0.2-4s0.1-2.7,0.2-4h14.1
	c0.1,1.3,0.2,2.6,0.2,4S32.2,27.7,32.1,29z M33.2,43.4c1.4-2.6,2.5-5.9,3.1-9.5h6.8C41,38.1,37.5,41.5,33.2,43.4z M36.9,29
	c0.1-1.3,0.2-2.7,0.2-4c0-1.4-0.1-2.7-0.2-4h7.8c0.3,1.3,0.4,2.7,0.4,4c0,1.4-0.1,2.7-0.4,4H36.9z"/>
</svg>
