<?xml version="1.0" encoding="utf-8"?>
<!-- Generator: Adobe Illustrator 23.0.3, SVG Export Plug-In . SVG Version: 6.00 Build 0)  -->
<svg version="1.1" id="Layer_1" xmlns="http://www.w3.org/2000/svg" xmlns:xlink="http://www.w3.org/1999/xlink" x="0px" y="0px"
	 viewBox="0 0 40.5 45" style="enable-background:new 0 0 40.5 45;" xml:space="preserve">
<style type="text/css">
	.st0{fill:#CBD7E2;}
</style>
<path id="ic_event_available_24px" class="st0" d="M30.4,22.6l-2.4-2.4l-11,11l-4.8-4.8l-2.4,2.4l7.2,7.2L30.4,22.6z M36,4.5h-2.2V0
	h-4.5v4.5h-18V0H6.8v4.5H4.5C2,4.5,0,6.5,0,9c0,0,0,0,0,0l0,31.5C0,43,2,45,4.5,45H36c2.5,0,4.5-2,4.5-4.5V9
	C40.5,6.5,38.5,4.5,36,4.5z M36,40.5H4.5V15.8H36V40.5z"/>
</svg>
