<?xml version="1.0" encoding="utf-8"?>
<!-- Generator: Adobe Illustrator 23.0.3, SVG Export Plug-In . SVG Version: 6.00 Build 0)  -->
<svg version="1.1" id="Layer_1" xmlns="http://www.w3.org/2000/svg" xmlns:xlink="http://www.w3.org/1999/xlink" x="0px" y="0px"
	 viewBox="0 0 1920 677.6" style="enable-background:new 0 0 1920 677.6;" xml:space="preserve">
<style type="text/css">
	.st0{clip-path:url(#SVGID_2_);}
	.st1{fill:#FFFFFF;}
	.st2{clip-path:url(#SVGID_4_);}
	.st3{opacity:0.1;fill:#369BD6;enable-background:new    ;}
</style>
<g>
	<defs>
		<path id="SVGID_1_" d="M928.9,166.3c503.3,189.2,923.2-79.9,989.6-126V0H1.6v150.5C227.5-11.9,386.5-37.6,928.9,166.3z"/>
	</defs>
	<clipPath id="SVGID_2_">
		<use xlink:href="#SVGID_1_"  style="overflow:visible;"/>
	</clipPath>
	<g class="st0">
		<rect x="0" y="0" class="st1" width="1916.9" height="286.4"/>
		<g id="Footer" transform="translate(-163.203 69.345)">
			<g>
				<g>
					<defs>
						<rect id="SVGID_3_" x="163.2" y="-69.3" width="1920" height="677.6"/>
					</defs>
					<clipPath id="SVGID_4_">
						<use xlink:href="#SVGID_3_"  style="overflow:visible;"/>
					</clipPath>
					<g id="Mask_Group_1" class="st2">
						<g id="Group_88">
							<path id="Path_2" class="st3" d="M149.3-3.9c0,0,352.9-194.1,1009.1,124.7C1549.2,364.9,2089.3,22,2089.3,22v745.3H169.2
								L149.3-3.9z"/>
						</g>
					</g>
				</g>
			</g>
			<path id="Path_504" class="st3" d="M1515,135.3c81.8-31.6-44.4-67.9-120.4-47.2S1433.2,166.9,1515,135.3z"/>
			<path id="Path_505" class="st3" d="M1358.2,87.1c21.8-23-8.9-42-28.9-26.1C1309.3,76.8,1336.3,110.1,1358.2,87.1z"/>
		</g>
	</g>
</g>
</svg>
