<?xml version="1.0" encoding="utf-8"?>
<!-- Generator: Adobe Illustrator 23.0.3, SVG Export Plug-In . SVG Version: 6.00 Build 0)  -->
<svg version="1.1" id="Layer_1" xmlns="http://www.w3.org/2000/svg" xmlns:xlink="http://www.w3.org/1999/xlink" x="0px" y="0px"
	 viewBox="0 0 1000 1000" style="enable-background:new 0 0 1000 1000;" xml:space="preserve">
<style type="text/css">
	.st0{opacity:0.1;fill:#369BD6;}
	.st1{fill:#FBCAC1;}
	.st2{opacity:0.1;fill:#010101;enable-background:new    ;}
	.st3{fill:#2A7ABF;}
	.st4{fill:none;stroke:#1E8040;stroke-miterlimit:10;}
	.st5{fill:#3EB366;}
	.st6{fill:#FEBF10;}
</style>
<path class="st0" d="M415.7,209.1c-46.9,21-101.9,20.9-156.1,17.6c-54.2-3.3-109.3-9.4-160.6,0.4c-33,6.3-66.4,22-77.4,57.3
	c-10.6,34,2.2,76.7,17,114.8c11.1,28.7,24.1,58.2,45.1,79.6c14.6,14.9,32.1,24.7,47.6,38.1c53.9,46.8,74.6,128.1,78.6,198.8
	c1.9,33.2,1.2,66.1,6.7,99.6c5.5,33.5,18.2,68.6,41.3,93.8c23,24.9,53.3,36.9,81.9,41.6c58.1,9.6,112.3-7,163.3-26.8
	c112.8-43.9,218-104,322.9-164.1c38.8-22.2,77.8-44.6,112.1-74c19-16.4,37.2-36.2,42.7-64.2c7-35.7-10.1-81.1-39.9-106
	c-49.9-41.8-118.8-23-164-72.2c-24.8-27-34-66.7-36.5-102.4c-5.2-76.5,11.7-154.7-22.7-227.6c-23.6-50-70.7-88.1-116.3-94.1
	c-47.8-6.3-95,21.9-100.3,75.6C495.9,150.3,457.1,190.5,415.7,209.1z"/>
<path class="st1" d="M424.7,627.7c0,0,117.7-14.1,158.8-36.5s347.1-32.9,347.1,36.5s-351.8,100-351.8,100l-184.7-10.6L424.7,627.7z"
	/>
<path class="st2" d="M424.7,627.7c0,0,117.7-14.1,158.8-36.5s347.1-32.9,347.1,36.5s-351.8,100-351.8,100l-184.7-10.6L424.7,627.7z"
	/>
<path class="st3" d="M458.8,614.7l-24.7,71.8L47,691.2v-84.5c0-12.7,9.4-23.5,22-25.2c45.6-6.3,153.8-13.3,243.9,42.6
	C312.9,624.2,451.8,607.7,458.8,614.7z"/>
<path class="st2" d="M458.8,614.6l-19.9,57.9c-2.9,8.3-10.7,14-19.5,14.1l-351.3,4.3C56.5,691,47,681.6,47,670v-67.3
	c0-10.4,7.6-19.1,17.8-20.7c42-6.3,150.3-15.3,242.2,38.5c3.9,2.3,8.4,3.3,12.9,2.7C348.2,620,452.7,608.5,458.8,614.6z"/>
<path class="st4" d="M672.2,368.2c-10.2,0.6-19.3,6.9-23.3,16.3c-5.8,14.1,1.7,30.6,12.9,40.9s25.7,16.1,38.9,23.9
	c17.7,10.4,33.5,24.8,42.4,43.2s9.8,41.4-0.6,59c-9.6,16.4-27.2,26.2-43.9,35.2"/>
<path class="st4" d="M719.3,282.3c-10.2,0.6-19.3,6.9-23.3,16.3c-5.8,14.1,1.7,30.6,12.9,40.9c11.3,10.3,25.7,16.1,38.9,23.9
	c17.7,10.4,33.5,24.8,42.4,43.2s9.8,41.4-0.6,59c-9.6,16.4-27.2,26.2-43.9,35.2"/>
<path class="st4" d="M874.1,302c-8.4-5.8-19.4-6.3-28.4-1.4c-13.2,7.6-17.4,25.3-14.8,40.3s10.5,28.5,16.1,42.7
	c7.6,19,11.4,40.1,7,60.1s-17.6,38.7-36.6,46.3c-17.7,7.1-37.5,4.1-56.3,1"/>
<ellipse class="st5" cx="734.7" cy="463.9" rx="28.2" ry="13.7"/>
<ellipse class="st5" cx="795.9" cy="452.1" rx="28.2" ry="13.7"/>
<ellipse class="st5" cx="805.3" cy="503.9" rx="28.2" ry="13.7"/>
<ellipse class="st5" cx="799.4" cy="374.5" rx="28.2" ry="13.7"/>
<ellipse class="st5" cx="728.8" cy="366.2" rx="28.2" ry="13.7"/>
<ellipse class="st5" cx="760.6" cy="336.8" rx="28.2" ry="13.7"/>
<ellipse class="st5" cx="830" cy="342.7" rx="28.2" ry="13.7"/>
<ellipse class="st5" cx="881.8" cy="381.5" rx="28.2" ry="13.7"/>
<ellipse class="st5" cx="699.4" cy="313.3" rx="28.2" ry="13.7"/>
<ellipse class="st5" cx="717" cy="268.6" rx="28.2" ry="13.7"/>
<ellipse class="st5" cx="880.6" cy="301.5" rx="28.2" ry="13.7"/>
<ellipse class="st5" cx="620.5" cy="409.8" rx="28.2" ry="13.7"/>
<ellipse class="st5" cx="718.2" cy="402.7" rx="28.2" ry="13.7"/>
<ellipse class="st5" cx="846.5" cy="413.3" rx="28.2" ry="13.7"/>
<ellipse class="st5" cx="778.2" cy="418" rx="28.2" ry="13.7"/>
<ellipse class="st5" cx="782.9" cy="300.3" rx="28.2" ry="13.7"/>
<ellipse class="st5" cx="661.7" cy="373.3" rx="28.2" ry="13.7"/>
<ellipse class="st5" cx="678.2" cy="426.2" rx="28.2" ry="13.7"/>
<path class="st6" d="M529.5,618.9c-0.1-3.5,10.4-6.3,11.4-9.8c1-3.4-5.4-8.4-3.5-11.7c2-3.3,4.3-6.5,7.1-9.6
	c2.5-2.8,10.6-2.6,13.8-5.3c3.2-2.4,6.5-4.7,10.1-6.9c3.4-2.2,8.2-2.8,12.1-4.9c3.7-2,3.1-9,7.3-10.8c4-1.7,10.1-0.5,14.4-2.1
	c4.1-1.5,6.2-6.7,10.6-8.1c4.3-1.3,9.6-0.9,14.1-2c4.4-1.1,9.3-1,13.8-2c4.4-0.9,7.7-6,12.4-6.8c4.5-0.7,9.8,0.9,14.5,0.3
	c4.6-0.6,9.9,3.7,14.6,3.2c4.6-0.4,8.9-2.5,13.6-2.7c4.6-0.2,9.1-1.9,13.8-1.9c4.7-0.1,9.5-3.5,14.1-3.4c4.7,0.1,9.1,5,13.7,5.2
	c4.7,0.2,10.2-5.1,14.8-4.7c4.7,0.4,8.5,5.5,13,6c4.6,0.6,10.6-3.2,15-2.4c4.6,0.8,7.4,6.7,11.8,7.6c4.5,1,10.1-0.6,14.4,0.6
	c4.5,1.2,9.9,0.9,14,2.2c4.4,1.4,7.5,4.9,11.5,6.5c4.2,1.7,6.2,5.9,10,7.8c4,1.9,10,1.6,13.6,3.7c3.7,2.2,10.6,2.2,13.8,4.6
	c3.3,2.6,4.7,6.9,7.4,9.7c2.8,2.9-2.5,9.2-0.5,12.3c2,3.2,10.3,4.3,11.4,7.7c1.1,3.5,1.7,7.1,1.8,10.7c0.1,3.5-7,6.4-7.9,9.8
	c-1,3.4,4.3,8.1,2.4,11.4c-1.9,3.1-1.5,7.9-4.2,10.9c-2.5,2.8-9,4.1-12.2,6.7c-3.1,2.5-8.6,3.3-12.2,5.7c-3.4,2.2-2.9,8.8-6.8,10.9
	c-3.7,2-9,2.9-13.1,4.8c-4,1.7-9.6,1.6-13.9,3.1c-4.1,1.5-10.7-1.2-15.1,0.2c-4.3,1.3-7.7,4-12.2,5.2c-4.4,1.1-6.3,8.9-10.8,9.9
	c-4.4,0.9-9.9-0.4-14.6,0.4c-4.5,0.7-10.7-5.3-15.4-4.7c-4.6,0.6-7.8,8.8-12.5,9.3c-4.6,0.4-9.8-3.7-14.5-3.5
	c-4.6,0.2-9.3-2.2-14-2.1c-4.7,0.1-9.3,3.6-13.9,3.5c-4.7-0.1-8.9-4.5-13.5-4.7c-4.7-0.2-10.3,6.7-14.9,6.3
	c-4.7-0.4-8.4-5.7-12.9-6.2c-4.6-0.6-10.4,2.8-14.9,2.1c-4.6-0.8-7.5-6.4-11.9-7.3c-4.5-1-7.4-4.9-11.7-6
	c-4.5-1.2-12.6,4.9-16.8,3.5c-4.4-1.4-8.1-3.9-12.2-5.5c-4.2-1.7-10.8-0.7-14.6-2.5c-4-1.9-5.1-7.3-8.6-9.4c-3.7-2.2-9.8-2.8-13-5.2
	c-3.3-2.6-3.9-7.2-6.5-10c-2.8-2.9-2.8-7-4.7-10c-2-3.2-7.4-5.5-8.5-8.9C532.7,626.3,529.5,622.4,529.5,618.9z"/>
<path class="st1" d="M477.6,658.3c0,0,133-68.2,218.9-42.4s205.9-18.8,220-3.5c14.1,15.3,34.1,180-135.3,189.4
	s-314.2-28.2-314.2-28.2L477.6,658.3z"/>
<path class="st3" d="M445.4,650.7c0.8,0.2,1.5,0.3,2.3,0.2c8.2-0.4,50.9-1.5,48.8,15.6c-2.4,18.8-4.7,164.7-18.8,168.3
	c-12.4,3.1-148.6,11.9-182.1,14.1c-4.9,0.3-9.8,0.4-14.7,0.1l-210.6,0.1c-16.9,0-30.5-14-29.9-30.9L33.9,645
	c-0.6-15.8,11.8-29.1,27.6-29.7c57.7-2.2,188.6-2.8,259.3,31.5c1.1,0.5,2.2,0.8,3.4,0.8C338.1,647.5,429.4,646.5,445.4,650.7z"/>
</svg>
