<?xml version="1.0" encoding="utf-8"?>
<!-- Generator: Adobe Illustrator 23.0.3, SVG Export Plug-In . SVG Version: 6.00 Build 0)  -->
<svg version="1.1" id="Layer_1" xmlns="http://www.w3.org/2000/svg" xmlns:xlink="http://www.w3.org/1999/xlink" x="0px" y="0px"
	 viewBox="0 0 1418.3 1081" style="enable-background:new 0 0 1418.3 1081;" xml:space="preserve">
<style type="text/css">
	.st0{clip-path:url(#SVGID_2_);}
	.st1{fill:#2A7ABF;}
	.st2{fill:#454277;}
	.st3{fill:#0C66AB;}
	.st4{opacity:0.1;}
	.st5{fill:#010101;}
	.st6{fill:#FBCAC1;}
	.st7{fill:#DFE5EE;}
	.st8{opacity:5.000000e-02;fill:#010101;enable-background:new    ;}
	.st9{opacity:0.1;fill:#010101;enable-background:new    ;}
	.st10{fill:#292929;}
	.st11{opacity:5.000000e-02;}
	.st12{fill:#D42028;}
	.st13{fill:#F0F5FC;}
	.st14{fill:#FEBF10;}
	.st15{fill:#A9A8A8;}
	.st16{opacity:0.1;fill:none;stroke:#010101;stroke-miterlimit:10;enable-background:new    ;}
	.st17{fill:#3EB366;}
	.st18{fill:none;stroke:#545562;stroke-miterlimit:10;}
	.st19{opacity:0.2;fill:#010101;enable-background:new    ;}
	.st20{opacity:0.5;fill:#C5DDEE;enable-background:new    ;}
	.st21{fill:#403E56;}
</style>
<title>Hero-02</title>
<g>
	<defs>
		<rect id="SVGID_1_" x="1.4" width="1417" height="1080"/>
	</defs>
	<clipPath id="SVGID_2_">
		<use xlink:href="#SVGID_1_"  style="overflow:visible;"/>
	</clipPath>
	<g class="st0">
		<g id="Group_25-2">
			<ellipse id="Ellipse_3" class="st1" cx="831.5" cy="982.6" rx="26.9" ry="4.5"/>
			<g id="Group_17">
				<path id="Path_70" class="st1" d="M475.8,853.8c0,0,444.3-84.7,934,0S232.5,925.5,475.8,853.8z"/>
				<path id="Path_71" class="st1" d="M844.1,867.6c0.8,10.1-9.1,17.8-18.5,21.5s-20.2,6-26.7,13.8c-1.8,2-3,4.6-3.2,7.3
					c-0.3,5.9,5.2,10.4,10.5,13.1c15.2,7.5,32.7,8.5,49.4,11.4s34.3,8.9,43.9,22.9c4.5,6.5,6.9,14.3,11.9,20.5
					c8,9.8,21.7,13.6,34.2,11.9s23.9-8.2,33.7-16.1c11-8.9,21.1-20,34.8-23.5c23.6-6.1,45.6,12.1,68.1,21.4
					c27.2,11.2,58.1,9.3,86.7,2.3c6.4-1.6,12.9-3.5,18.3-7.2c6.3-4.3,10.8-10.7,16.7-15.5c14.6-11.9,35.2-12.4,54-12.3l54.7,0.3
					c10.8,0.1,22.3-0.1,31.4-6c9.3-6.1,14.2-17.7,13.6-28.7s-6.1-21.5-13.9-29.4c-17.3-17.6-43.3-22.6-67.8-26
					c-117.5-16.2-236.7-14.9-355.4-13.5c-19.8,0.2-39.8,0.4-59.5,3.2c-4.9,0.7-25.3,1.7-27.2,6.9C832,850.6,843.6,861.6,844.1,867.6
					z"/>
				<ellipse id="Ellipse_5" class="st1" cx="705.1" cy="962.1" rx="40.2" ry="6.8"/>
				<ellipse id="Ellipse_6" class="st1" cx="737.1" cy="1018.5" rx="40.2" ry="6.8"/>
				<ellipse id="Ellipse_7" class="st1" cx="612.1" cy="924.3" rx="26.9" ry="4.5"/>
				<path id="Path_72" class="st1" d="M848.1,971.7c1.8-1.5,3.2-3.5,3.8-5.8c0.5-2.3-0.5-5-2.7-5.9c-2.5-0.9-5.1,0.8-7.1,2.5
					s-4.3,3.7-6.9,3.3c2.7-2.5,4-6.2,3.2-9.8c-0.1-0.7-0.4-1.4-0.9-2c-1.4-1.5-3.8-0.8-5.5,0.3c-5.2,3.7-6.7,10.7-6.7,17.1
					c-0.5-2.3-0.1-4.7-0.1-7s-0.7-5-2.6-6.2c-1.2-0.7-2.6-1-4-0.9c-2.3-0.1-4.9,0.2-6.5,1.9c-2,2.1-1.5,5.7,0.3,8s4.3,3.8,6.8,5.4
					c1.9,1.2,3.6,2.7,4.8,4.6c0.2,0.3,0.3,0.5,0.4,0.8h14.6C842.4,976.3,845.4,974.2,848.1,971.7z"/>
			</g>
			<ellipse id="Ellipse_10" class="st1" cx="1055.6" cy="1025.7" rx="90.8" ry="15.3"/>
			<g id="Group_23">
				<g id="Group_21">
					<path id="Path_73" class="st2" d="M1002.4,786.2c0,0-16.8,22.1-30.7,22.3s-22.1,9.3-15.5,15s78.7-3.3,78.7-3.3
						s0.7-27.1-5.6-31.1S1002.4,786.2,1002.4,786.2z"/>
					<path id="Path_74" class="st2" d="M1182.8,812.7c0,0,2.6,17.5-5.4,29.4s14.3,16.5,14.3,16.5s16.2,4.5,17.4-11.5
						s0.8-28.2-0.7-29.5s-2.8-10.3-2.8-10.3L1182.8,812.7z"/>
					<path id="Path_75" class="st3" d="M1182.1,819.3c0,0-23.4-40.8-33.9-51.3s-14.1-24.3-14.1-24.3s-14.6-87.1-33.7-89.7
						s-71.7,42.3-71.7,42.3l3.8,94.8c-11.4,13.2-33.8-0.8-33.8-0.8s-1.2-25.7-7.2-73s8.8-46.3,8.8-46.3s48.2-61.5,67-65.6
						c10.1-2.2,16.9-10.1,21.1-16.8c2.1-3.4,3.8-7.1,5.2-10.8l80.1,8.6l-7.1,66.4c0,0-1,87.1,3.9,88.1s35.2,59.8,37.2,67.8
						S1182.1,819.3,1182.1,819.3z"/>
					<g id="Group_18" class="st4">
						<path id="Path_76" class="st5" d="M1096.6,654.3c-0.9-0.5-1.8-0.8-2.8-1c-19.2-2.6-71.7,42.3-71.7,42.3l3.7,94.8
							c-3.1,3.6-7.6,5.6-12.3,5.7c6.8,1.6,14.6,1.5,20-4.8l-3.8-94.8C1029.8,696.4,1074.7,658,1096.6,654.3z"/>
						<path id="Path_77" class="st5" d="M1208.8,808.8c-1.9-8-32.3-66.8-37.2-67.8s-3.9-88.2-3.9-88.2l7.1-66.4l-7.7-0.8L1160,652
							c0,0-1,87.1,3.9,88.1s35.2,59.8,37.2,67.8c1.3,5.4-10.8,8.3-18.9,9.7l1,1.7C1183.2,819.4,1210.7,816.8,1208.8,808.8z"/>
					</g>
					<path id="Path_78" class="st6" d="M1221.2,474.2c0,0-75.8-2.6-61.9-12.7c8.6-6.3,12.2-18.6,13.8-27.1c0.6-3,1-6,1.1-9.1
						c0,0,40.4-4,30.5,11c-2.6,4-2.7,8.4-1.4,12.9C1206.8,461.8,1221.2,474.2,1221.2,474.2z"/>
					<path id="Path_79" class="st7" d="M1138.8,456c-11.8,7.6-19.8,19.9-21.9,33.7c-3.6,23.5-6.6-0.7-6.6-0.7s-10.5,10-13.7,9.1
						s-2.7,35.2,14.6,39.9s30.9-71.1,30.9-71.1L1138.8,456z"/>
					<path id="Path_80" class="st8" d="M1138.8,456c-11.8,7.6-19.8,19.9-21.9,33.7c-3.6,23.5-6.6-0.7-6.6-0.7s-10.5,10-13.7,9.1
						s-2.7,35.2,14.6,39.9s30.9-71.1,30.9-71.1L1138.8,456z"/>
					<path id="Path_81" class="st6" d="M1112.5,489.2c0,0-14.1-44.8-36-21.6s26.4,22.9,26.4,22.9L1112.5,489.2z"/>
					<path id="Path_82" class="st9" d="M1204.7,436.4c-2.6,4-2.7,8.4-1.4,12.9c-12.1,1.6-24-4.3-30.2-14.8c0.6-3,1-6,1.1-9.1
						C1174.3,425.3,1214.7,421.3,1204.7,436.4z"/>
					<circle id="Ellipse_8" class="st6" cx="1199.4" cy="418" r="30.4"/>
					<path id="Path_83" class="st9" d="M1173.7,586.3l-1,9.7c-8.8-2.4-69.5-18.1-82.4-8.6c-0.6,0.5-1.3,0.9-1.9,1.2
						c2.1-3.4,3.8-7.1,5.2-10.8L1173.7,586.3z"/>
					<path id="Path_84" class="st7" d="M1236.9,509.2c-4,15.7-18.7,29.1-29.6,37.2c-4,3-8.2,5.8-12.5,8.3
						c-7.8,5.2-13.8,12.6-17.2,21.2c-2.3,5.6-3.5,11.6-3.6,17.6c0,0-69.6-19.1-83.4-8.9c-7.3,5.3-6.1-2.2-3.4-10.6
						c2.7-8,6.5-15.6,11.3-22.5c3.8-5.5,8.6-13.6,10.1-21.1c1.9-10,14.9-47.9,21-65.3c3.2-9.5,9.8-17.5,18.5-22.5
						c5.6-3.2,16.1-3.7,23.4-2.1c0,0-2.4,7.9,8.5,9.2c1.2,0.1,2.3,0.4,3.5,0.6c4.3,1,15,3,19.8-0.4l9.8,6.6
						C1213.1,456.7,1243.6,483.3,1236.9,509.2z"/>
					<path id="Path_85" class="st9" d="M1204.9,404.4c0.6-1.4,0.3-3-0.8-4c-1.1-1-2.3-1.8-3.7-2.3l-6.6-3c-2.2-0.9-4.3-2.1-6.1-3.6
						c-1.9-1.6-2.9-3.9-2.8-6.3c0.2-2.4,1.8-4.3,3.5-5.9c1.3-1.3,2.7-2.4,4.2-3.5c1.2-1,2.6-1.6,4.1-1.9c3.3-0.4,6.1,2.3,9.4,3.1
						c4.9,1.1,9.6-2.2,14.5-3.3c5.8-1.2,12.2,1.1,16.3,5.3c4.1,4.4,6.4,10.3,6.4,16.3c0,3.2-0.4,6.5,0.8,9.4
						c0.6,1.4,1.4,2.5,1.9,3.9c0.5,1.8,0.6,3.6,0.4,5.4c0,2.5-0.3,5-0.8,7.5c-1.8,7.6-7.8,13.7-14.7,17.4c-4.1,2.2-8.5,3.7-12.2,6.4
						c-0.9,0.8-1.9,1.4-2.9,2c-2.1,1-4.6,0.8-6.5-0.5c-1.3-0.9-2.1-2.3-2.2-3.9c0.1-1.5,1.1-2.9,1.9-4.2c2.1-3.5,2.6-8.3-0.2-11.3
						c-1.2-1.3-2.9-2-4.1-3.3c-1.9-2.2-2.2-5.3-2.2-8.2c-0.2-5.4-0.3-11,1.9-15.9"/>
					<path id="Path_86" class="st10" d="M1205.3,400c-1.1-1-2.3-1.8-3.7-2.3l-6.6-3c-2.2-0.9-4.3-2.1-6.1-3.6
						c-1.9-1.5-2.9-3.9-2.8-6.3c0.2-2.4,1.8-4.3,3.5-5.9c1.3-1.3,2.8-2.4,4.2-3.5c1.2-1,2.6-1.6,4.1-1.9c3.3-0.4,6.1,2.3,9.4,3.1
						c4.9,1.1,9.6-2.2,14.5-3.3c6-1.1,12.1,0.9,16.3,5.3c4.1,4.4,6.4,10.3,6.4,16.3c0,3.2-0.4,6.5,0.8,9.4c0.6,1.4,1.4,2.5,1.9,3.9
						c0.5,1.8,0.6,3.6,0.4,5.4c0,2.5-0.3,5-0.8,7.5c-1.8,7.6-7.8,13.7-14.7,17.4c-4,2.2-8.5,3.7-12.2,6.4c-0.9,0.8-1.9,1.4-2.9,2
						c-2.1,1-4.6,0.7-6.5-0.6c-1.3-0.9-2.1-2.3-2.2-3.9c0.1-1.5,1.1-2.9,1.9-4.2c2.1-3.5,2.6-8.3-0.2-11.3c-1.2-1.3-2.9-2-4.1-3.3
						c-1.9-2.2-2.2-5.3-2.2-8.2c-0.2-5.4-1.1-10.5,1.2-15.4"/>
					<path id="Path_87" class="st9" d="M1226,523.4c-4.4,5.1-10.8,12.8-18.6,23c-4,3-8.2,5.8-12.5,8.3c-7.8,5.2-13.8,12.6-17.2,21.2
						c-23.7,1.2-52.3-45.9-52.3-45.9l18.8-19.6l32,22.9l10.4-22.3c5.6-12,17.2-20.2,30.4-21.5h0.5c6.7-0.6,10.5,3.4,12.7,8.4
						C1233.8,506.4,1232.2,516.4,1226,523.4z"/>
					<g id="Group_19" class="st11">
						<path id="Path_88" class="st5" d="M1166.6,440.1c0,0-2.4,7.9,8.5,9.2c1.2,0.2,2.3,0.4,3.5,0.6c3.2,0.8,6.5,1.3,9.8,1.5
							c-1.9-0.3-3.7-0.7-4.9-1c-1.1-0.3-2.3-0.5-3.5-0.6c-10.8-1.4-8.5-9.2-8.5-9.2c-2.1-0.4-4.3-0.7-6.5-0.8
							C1165.6,439.9,1166.1,440,1166.6,440.1z"/>
						<path id="Path_89" class="st5" d="M1213.1,456.7l-9.8-6.6c-0.7,0.5-1.6,0.9-2.4,1.2l7.3,4.9c0,0,30.5,26.6,23.8,52.5
							c-4,15.7-18.7,29.1-29.6,37.2c-4,3-8.2,5.8-12.5,8.3c-7.8,5.2-13.8,12.6-17.2,21.2c-2.2,5.4-3.4,11.1-3.6,16.8
							c3.1,0.8,4.9,1.3,4.9,1.3c0.1-6.1,1.3-12,3.6-17.6c3.5-8.7,9.5-16.1,17.3-21.2c4.3-2.5,8.5-5.3,12.5-8.3
							c10.8-8.1,25.5-21.5,29.6-37.2C1243.6,483.3,1213.1,456.7,1213.1,456.7z"/>
						<path id="Path_90" class="st5" d="M1085.7,584.1l-0.5,0.4c0.3,2.3,1.8,2.8,5.5,0.2c4.3-3.2,14-3.5,25.3-2.5
							C1102.6,580.6,1090.6,580.5,1085.7,584.1z"/>
					</g>
					<path id="Path_91" class="st8" d="M1105.1,540.4c0,0,5.6,14.5,13.3,19.7c6.2,4.4,12.2,9.1,17.9,14.1"/>
					
						<rect id="Rectangle_12" x="1065.8" y="488.4" transform="matrix(0.1063 -0.9943 0.9943 0.1063 488.5414 1533.9209)" class="st12" width="63.6" height="13.5"/>
					
						<rect id="Rectangle_13" x="1014.4" y="589.7" transform="matrix(0.1063 -0.9943 0.9943 0.1063 372.5287 1616.774)" class="st13" width="142.6" height="23"/>
					
						<rect id="Rectangle_14" x="1020.2" y="596.2" transform="matrix(0.1063 -0.9943 0.9943 0.1063 377.1704 1623.1765)" class="st8" width="142.6" height="11.2"/>
					
						<rect id="Rectangle_15" x="1090" y="521.7" transform="matrix(0.1063 -0.9943 0.9943 0.1063 446.582 1563.276)" class="st9" width="5.9" height="23"/>
					
						<rect id="Rectangle_16" x="1091.3" y="516.8" transform="matrix(0.1063 -0.9943 0.9943 0.1063 457.5799 1556.2979)" class="st9" width="6.5" height="13.5"/>
					<path id="Path_92" class="st14" d="M1060,517.2l69.7,7.5c3.9,0.4,6.7,3.9,6.3,7.8l0,0c-0.4,3.9-3.9,6.7-7.8,6.3c0,0,0,0,0,0
						l-69.7-7.5c-3.9-0.4-6.7-3.9-6.3-7.8l0,0C1052.6,519.6,1056.1,516.8,1060,517.2z"/>
					<path id="Path_93" class="st15" d="M928.8,845.7c0,0-0.6-56.5,55.4-79.5l13-24.7l13.6-33l28.9-6.5l8.2-34.8
						c0,0,31.8-11.2,52.4-7.1l4.1,7.1c0,0,53-0.6,55.4,28.3c0,0,5.3,26.5,13,31.2c0,0,13-3,25.9,15.9l14.1,48.3
						c0,0,37,34.8,25.8,66.6c0,0-15.3,21.8-93.1,7.1c0,0-83.1,25.3-127.3-9.4C1018.4,855.1,944.8,869.3,928.8,845.7z"/>
					<path id="Path_94" class="st16" d="M966,836.9c0,0,11.8-16.5,11.2-28.3s2.8-40.5,2.8-40.5"/>
					<path id="Path_95" class="st16" d="M1009,792.7c0,0,11.8-21.8,10.6-33.6c0,0,12.4-22.4,21.8-20.6"/>
					<path id="Path_96" class="st16" d="M1073.8,730.8c0,0,32.4-11.8,34.2-21.2"/>
					<path id="Path_97" class="st16" d="M1085.5,757.9c0,0,34.2-15.3,34.2-19.4h17.1c0,0,24.7,32.4,21.8,46.5"/>
					<path id="Path_98" class="st16" d="M1125.6,781.5c0,0-33-2.4-44.8,7.1s-33,14.1-33,14.1s-12.4,26.5-17.1,31.2
						s-12.4,21.2-12.4,21.2"/>
					<path id="Path_99" class="st16" d="M1125.6,812.7c0,0,3.5,12.4,8.2,19.4s11.8,32.4,11.8,32.4"/>
					<path id="Path_100" class="st16" d="M1181,848.7c0,0,7.5,20.8,14,21"/>
					<path id="Path_101" class="st16" d="M1132,759.3c0,0,19.4,5.3,27.6,18s32.9,24.3,32.9,24.3"/>
					<path id="Path_102" class="st16" d="M1140.3,696.7c0,0,0,27.1,7.7,27.1s24.7,3,24.7,3"/>
					<path id="Path_103" class="st16" d="M1102.8,664.5c0,0-2,46.8-12,58.9"/>
					<g id="Group_20" class="st11">
						<path id="Path_104" class="st5" d="M1211.6,790.3l-14.1-48.3c-13-18.8-25.9-15.9-25.9-15.9c-7.7-4.7-13-31.2-13-31.2
							c-2.3-28.9-55.4-28.3-55.4-28.3l-4.1-7.1c-5.6-1-11.4-1.2-17.1-0.6c1.4,0.1,2.8,0.3,4.2,0.6l4.1,7.1c0,0,53-0.6,55.4,28.3
							c0,0,5.3,26.5,13,31.2c0,0,13-3,25.9,15.9l14.1,48.3c0,0,37.1,34.7,25.9,66.5c0,0-7.6,10.8-39,12c42.4,1.6,52-12,52-12
							C1248.7,825.1,1211.6,790.3,1211.6,790.3z"/>
						<path id="Path_105" class="st5" d="M1004.3,854.5c-12.5,2.2-25.1,3.6-37.7,4.1c14.8,0.6,30.1-1,40-2.4
							C1005.8,855.7,1005,855.1,1004.3,854.5z"/>
						<path id="Path_106" class="st5" d="M1131.5,864c-18.1,5.1-36.8,8-55.6,8.8c27.2,1,52.9-4.7,63.5-7.4
							C1136.8,865,1134.2,864.5,1131.5,864z"/>
					</g>
					
						<rect id="Rectangle_17" x="1072" y="488.7" transform="matrix(0.1063 -0.9943 0.9943 0.1063 494.3974 1534.6053)" class="st8" width="57.7" height="7.1"/>
					<path id="Path_107" class="st9" d="M1107.7,464.3l-0.5,4.6c-4.3,2.8-9.9,2.2-13.5-1.5l0.5-4.6L1107.7,464.3z"/>
					<circle id="Ellipse_9" class="st12" cx="1101.4" cy="459.5" r="10.6"/>
					<path id="Path_108" class="st8" d="M1111.9,460.6c-0.6,5.8-5.8,10-11.7,9.4c0,0,0,0,0,0l2.3-21.1
						C1108.3,449.6,1112.5,454.8,1111.9,460.6L1111.9,460.6L1111.9,460.6z"/>
					<path id="Path_109" class="st6" d="M1148.3,512.5l-7.4,12l-7.1-6.1l-9.7-8.4c0,0-17.9,1.4-29.4-15.9
						c-4.9-7.4-1.1-11.7,4.9-14.1c10.1-4,21.7-0.9,28.5,7.6L1148.3,512.5z"/>
					<path id="Path_110" class="st9" d="M1148.3,512.5l-7.4,12l-7.1-6.1l10.4-10.9L1148.3,512.5z"/>
					<path id="Path_111" class="st7" d="M1188.9,509l-10.4,22.3l-32-22.9l-18.7,19.6c0,0,43,70.7,67.2,36.6
						c14.7-20.7,26.5-35.1,33.5-43.2c6.2-7.1,7.8-17,4.1-25.7c-2.2-5.1-6.1-9-12.7-8.4l-0.5,0C1206.1,488.7,1194.5,496.9,1188.9,509
						z"/>
				</g>
				<g id="Group_22">
					<path id="Path_112" class="st17" d="M727.2,653.6c0,0,30.3,30.3,13.2,75.2s29.3,119.5,29.3,119.5l-1.5-0.2
						c-62.1-11-93-82-58.5-134.8C722.7,693.6,733.2,670.6,727.2,653.6z"/>
					<path id="Path_113" class="st9" d="M727.2,654.1c0,0,30.3,30.2,13.2,75.2s29.3,119.5,29.3,119.5l-1.5-0.2
						c-62.1-11-93-82.1-58.5-134.9C722.7,694.1,733.2,671.1,727.2,654.1z"/>
					<path id="Path_114" class="st18" d="M727.2,653.6c0,0,17.1,37.1,0,67.3s-2.9,115.2,42.5,127.4"/>
					<path id="Path_115" class="st17" d="M673.4,776c0,0,34.6-5.5,37.7,25.4s66.4,35.2,66.4,35.2l-1.2,0.8
						c-52.2,34.3-102.1,21.8-94.6-23.7C684.4,796.8,684.2,779.8,673.4,776z"/>
					<path id="Path_116" class="st18" d="M673.4,776c0,0,26.8,5.9,24.6,30.2s39.8,53.6,79.5,30.4"/>
					<path id="Path_117" class="st15" d="M804.2,839.2c0,0-27.2-5.5-34.5-12.7s-39.9-19.9-43.5-10.8s-48.9,39.8-18.1,45.3
						s72.5,7.2,81.6,3.6S804.2,839.2,804.2,839.2z"/>
					<path id="Path_118" class="st19" d="M708.1,857.6c30.8,5.4,72.5,7.2,81.6,3.6c6.9-2.8,11.7-16,13.6-22.2l0.9,0.2
						c0,0-5.4,21.8-14.5,25.4s-50.8,1.8-81.6-3.6c-8.9-1.6-11.4-5.2-10.5-9.9C698.4,854.1,701.5,856.4,708.1,857.6z"/>
				</g>
			</g>
			<g id="Group_24">
				<path id="Path_119" class="st20" d="M1001.6,317.9c0,0,0.8,54.7,28.2,56.1C1029.8,374,1043,355,1001.6,317.9z"/>
				<path id="Path_120" class="st20" d="M984.5,337.7c0,0,21.2,50.4,47.1,41.5C1031.7,379.3,1036.8,356.6,984.5,337.7z"/>
				<path id="Path_121" class="st6" d="M1032.2,347c0,0,0.9,13.2-7.2,13.5c0,0,8.7,7.8,11.5,7.6s5.2-2,5.4-2.7s-2-1.8-2-1.8
					s-4.6-1.1,2.6-11.2L1032.2,347z"/>
				<circle id="Ellipse_11" class="st6" cx="1038.4" cy="346.5" r="9"/>
				
					<ellipse id="Ellipse_12" transform="matrix(0.3166 -0.9485 0.9485 0.3166 381.1124 1214.3892)" class="st12" cx="1033.4" cy="342.7" rx="11.1" ry="7.9"/>
				
					<ellipse id="Ellipse_13" transform="matrix(0.3166 -0.9485 0.9485 0.3166 383.1351 1206.7274)" class="st12" cx="1029.1" cy="337.5" rx="11.1" ry="7.9"/>
				
					<ellipse id="Ellipse_14" transform="matrix(0.3166 -0.9485 0.9485 0.3166 389.394 1195.1041)" class="st12" cx="1024.1" cy="327.3" rx="5.6" ry="4"/>
				<path id="Path_122" class="st6" d="M1042.1,364c0,0,3.4-3.4,11.6-3s31-19.2,31-19.2s4.2-14.9,6.1-9.3S1087,346,1087,346
					l-13.9,12.2c-2.6,2.3-5.5,4.2-8.6,5.6c-7.1,3.2-19.8,8.9-20.8,8.6C1042.4,372,1042.1,364,1042.1,364z"/>
				<path id="Path_123" class="st6" d="M1010.7,418.2c0,0-7.3,29.8-8.9,32.2s-5.5,7.3-7.4,24.4s-5.7,14.8-5.7,14.8l9.3,8.4
					c0,0,2.4-19.6,4.8-24.5s5.6-15.5,10-22s11.5-26.5,11.5-26.5L1010.7,418.2z"/>
				<path id="Path_124" class="st9" d="M1010.7,418.2c0,0-7.3,29.8-8.9,32.2s-5.5,7.3-7.4,24.4s-5.7,14.8-5.7,14.8l9.3,8.4
					c0,0,2.4-19.6,4.8-24.5s5.6-15.5,10-22s11.5-26.5,11.5-26.5L1010.7,418.2z"/>
				<path id="Path_125" class="st21" d="M998.9,494.3c-1,0.3-3.4,0.2-6-5.5c0,0-1.2-4.2-4.4-1.5s-1.9,3.5-1.1,5.7
					s7.6,16.8,12.1,17.8c0.2,0,0.3,0.1,0.5,0.1c4.5,0,0.2-6.4,0.2-6.4s-1.8-7.1-1-9.9c0-0.1,0-0.3-0.1-0.3H998.9z"/>
				<path id="Path_126" class="st6" d="M1003.7,412.1c0,0-10.2,11.4-14.9,17.4c-2.4,3.2-6.6,3-10,2.2c-4.2-1.1-8.6-1.2-12.8-0.4
					c-5.7,1.1-13.2,2-17.1,0c-6.8-3.4-4.8,9.8-4.8,9.8s12.7-3,22.8-0.3s21,5.1,27.8,0.6s24.9-20.1,24.9-20.1L1003.7,412.1z"/>
				<path id="Path_127" class="st21" d="M944.9,439.5c0,0-2.6-3.5,0.9-5c1.9-0.7,3.7-1.8,5.2-3.2c0,0-3.1-6.7-5.7-4.5
					s-14.2,11.9-13.8,16.2s1.8,5.9,5.2,2.5s9.6-4.9,9.6-4.9L944.9,439.5z"/>
				<path id="Path_128" class="st1" d="M1040.1,365.2c0,0-1.9,1.9-11.7-3.8c-2.6-1.6-6-1.2-8.2,0.9c-2.2,2.2-3.7,6-0.6,12.3
					c0,0,5.1,11.9-0.2,14.3s20.2,4.1,20.2,4.1s-2.4-3.1,2.4-8.3c3.8-4.1,4.5-6.9,3.5-9.5c-0.6-1.6-0.7-3.4-0.5-5.1
					c0.3-2.4,0.1-5.7-2.7-6.8c0,0-2.9-1.2-3.4-0.5S1040.9,365.1,1040.1,365.2z"/>
				<path id="Path_129" class="st6" d="M1025.3,368.3c0.1-0.5,0.2-1,0.3-1.5c0.3-1.7,0.9-6-2-6.2c-3.7-0.3-10.3,7-10.3,7
					s-6.2,8.5-11.5,9.4s-21.6,9.1-21.6,9.1s-11.1-0.7-8.3,3.3s9,1.1,9,1.1l14.5-3.2c5.1-1.1,9.8-3.3,14-6.5c3.7-2.8,8.3-6,10.7-6.7
					c1.5-0.4,2.8-1.3,3.7-2.5C1024.5,370.7,1025,369.5,1025.3,368.3z"/>
				<path id="Path_130" class="st1" d="M1021.6,389c0,0-15-7.3-27.4,0.3s-17.8,2.4-17.7,4.3s26.1,33,46,36.9
					c12.1,2.4,18.7,3.2,22.1,3.4c1.4,0.1,2.8-0.3,4-1.1c0.7-0.5,1.4-0.8,2.2-1c1.7-0.4,2.6-2.1,2.2-3.8l0,0v-0.1
					c-2.8-9.6-10.6-35.2-14.5-37.2C1033.5,388.4,1021.6,389,1021.6,389z"/>
				
					<ellipse id="Ellipse_15" transform="matrix(0.3166 -0.9485 0.9485 0.3166 391.8561 1218.5167)" class="st12" cx="1041.6" cy="337.3" rx="4.1" ry="5.8"/>
			</g>
		</g>
	</g>
</g>
</svg>
