<?xml version="1.0" encoding="utf-8"?>
<!-- Generator: Adobe Illustrator 23.0.3, SVG Export Plug-In . SVG Version: 6.00 Build 0)  -->
<svg version="1.1" id="Layer_1" xmlns="http://www.w3.org/2000/svg" xmlns:xlink="http://www.w3.org/1999/xlink" x="0px" y="0px"
	 viewBox="0 0 1418.3 1081" style="enable-background:new 0 0 1418.3 1081;" xml:space="preserve">
<style type="text/css">
	.st0{opacity:0.1;clip-path:url(#SVGID_2_);fill:#159EE9;}
	.st1{clip-path:url(#SVGID_4_);fill:url(#Path_62-2_1_);}
	.st2{opacity:0.1;clip-path:url(#SVGID_6_);fill:#2A7ABF;enable-background:new    ;}
	.st3{clip-path:url(#SVGID_8_);}
	.st4{clip-path:url(#SVGID_10_);}
	.st5{clip-path:url(#SVGID_12_);}
	.st6{fill:#FEBF10;}
	.st7{fill:url(#Path_63_1_);}
	.st8{opacity:0.25;fill:#77B4DA;enable-background:new    ;}
	.st9{fill:#B7D6ED;}
	.st10{opacity:0.5;fill:#F3F9FD;enable-background:new    ;}
</style>
<title>Hero-01</title>
<g>
	<g>
		<defs>
			<rect id="SVGID_1_" x="2.4" width="1416" height="1079"/>
		</defs>
		<clipPath id="SVGID_2_">
			<use xlink:href="#SVGID_1_"  style="overflow:visible;"/>
		</clipPath>
		<path id="Shadow" class="st0" d="M125.4-2c0,0,53.7,41,0,79.4c-71.6,51.2-158.2,124.1-109,244.5c89.4,205,418.7,94.5,394.5,303.9
			s330.9,95.3,441.2,180.5s-43.7,201.7,160.4,232.9s407.9-58.1,407.9-58.1V-2H125.4z"/>
	</g>
	<g>
		<defs>
			<rect id="SVGID_3_" x="2.4" width="1416" height="1079"/>
		</defs>
		<clipPath id="SVGID_4_">
			<use xlink:href="#SVGID_3_"  style="overflow:visible;"/>
		</clipPath>
		
			<linearGradient id="Path_62-2_1_" gradientUnits="userSpaceOnUse" x1="1701.6519" y1="706.0102" x2="1701.6519" y2="705.0103" gradientTransform="matrix(1394.05 0 0 -1032.6 -2371464.5 729024.125)">
			<stop  offset="0" style="stop-color:#A4D0EF"/>
			<stop  offset="1" style="stop-color:#369BD6"/>
		</linearGradient>
		<path id="Path_62-2" class="st1" d="M342.9-2c0,0-392.8,129.9-303.4,334.9s377.7,71.9,391.4,274.9s311,113.3,421.2,198.5
			s-35.6,187.5,168.4,218.7c204,31.2,399.9-78.5,399.9-78.5V-2H342.9z"/>
	</g>
	<g>
		<defs>
			<rect id="SVGID_5_" x="2.4" width="1416" height="1079"/>
		</defs>
		<clipPath id="SVGID_6_">
			<use xlink:href="#SVGID_5_"  style="overflow:visible;"/>
		</clipPath>
		<path id="Path_133" class="st2" d="M1012.4,790.7c0,0,7-17.5-147-96.8s-185.7-182.6-169-292.7S430.8,288.3,437,161.6
			S547.8-2,547.8-2H1294c0,0-219.6,19.1-187.5,224s117.9,84.6,79.7,304.6s-64.7,264.1-64.7,264.1L1012.4,790.7z"/>
	</g>
	<g>
		<defs>
			<rect id="SVGID_7_" x="2.4" width="1416" height="1079"/>
		</defs>
		<clipPath id="SVGID_8_">
			<use xlink:href="#SVGID_7_"  style="overflow:visible;"/>
		</clipPath>
		<g class="st3">
			<g>
				<defs>
					<rect id="SVGID_9_" x="2.4" y="-1" width="1417" height="1080"/>
				</defs>
				<clipPath id="SVGID_10_">
					<use xlink:href="#SVGID_9_"  style="overflow:visible;"/>
				</clipPath>
				<g class="st4">
					<g id="Group_25">
						<g id="Group_16">
							<g>
								<g>
									<defs>
										<path id="SVGID_11_" d="M341.9-1c0,0-392.8,129.9-303.4,334.9s377.7,71.9,391.4,274.9s311,113.3,421.2,198.5
											s-35.7,187.5,168.4,218.7c204,31.2,401.9-61.5,401.9-61.5l-1-948L341.9-1z"/>
									</defs>
									<clipPath id="SVGID_12_">
										<use xlink:href="#SVGID_11_"  style="overflow:visible;"/>
									</clipPath>
									<g class="st5">
										<g id="Group_15">
											<circle id="Ellipse_4" class="st6" cx="432.4" cy="348.5" r="86"/>
											<g id="Group_14">
												
													<linearGradient id="Path_63_1_" gradientUnits="userSpaceOnUse" x1="1701.2386" y1="706.0568" x2="1702.2286" y2="705.6868" gradientTransform="matrix(1489.3101 0 0 -723.12 -2533513.25 511040.9688)">
													<stop  offset="0.18" style="stop-color:#F3F3F3"/>
													<stop  offset="1" style="stop-color:#FFFFFF"/>
												</linearGradient>
												<path id="Path_63" class="st7" d="M1652.8,820.1c-6,5.4-12.4,10.5-19,15.2c-15.7,11-32.7,20.2-50.5,27.2
													c-48-1.2-97.2,11.3-163.2,18.9c-57.2,6.5-115.1,1.5-170.3-14.6c-2.6-0.8-5.4-1.5-8.4-2.3c-46-12,33,48-57.2,37.4
													C974.4,873.5,993,935,929.4,924.5c-13.7-2.2-59.4-9.4-73-11c-353.1-37.1-212-5.9-242.7,6.3l-243-84.6l-207.2-72.6
													L604.1,198L809,432.6v-0.9l66-90.5l34-46.7l155.1,177.8l43.8-96.8l303.5,247.6l16.9,13.8l17.1,14l5.4,4.5L1613,787.8
													L1652.8,820.1z"/>
												<path id="Path_64" class="st8" d="M554.4,280.5l51-68l151,183l-153-155L554.4,280.5z"/>
												<path id="Path_65" class="st8" d="M1219.3,902.5c-15,0-13,3-35-1l-367-457L1219.3,902.5z"/>
												<path id="Path_66" class="st8" d="M876.4,357.5l33-47l143,162l-145-140L876.4,357.5z"/>
												<path id="Path_67" class="st8" d="M1071.3,481.5l391,440l-36,20L1071.3,481.5z"/>
											</g>
											<path id="Path_69" class="st9" d="M1056.3,290c2-38.1,33.5-68,71.7-68c2.2,0,4.3,0.1,6.5,0.3
												c26.5-45.5,84.8-61,130.4-34.5c14.3,8.3,26.2,20.2,34.5,34.5c1.8-0.1,3.6-0.2,5.4-0.2c38.2,0,69.7,29.9,71.7,68"/>
											<path id="Path_68" class="st10" d="M1290.5,254c1.1-21.2,18.6-37.7,39.8-37.7c1.2,0,2.4,0.1,3.6,0.2
												c14.7-25.3,47.1-33.8,72.3-19.1c7.9,4.6,14.5,11.2,19.1,19.1c1-0.1,2-0.1,3-0.1c21.2,0,38.7,16.6,39.8,37.7"/>
										</g>
									</g>
								</g>
							</g>
						</g>
					</g>
				</g>
			</g>
		</g>
	</g>
</g>
</svg>
