<?xml version="1.0" encoding="utf-8"?>
<!-- Generator: Adobe Illustrator 23.0.3, SVG Export Plug-In . SVG Version: 6.00 Build 0)  -->
<svg version="1.1" id="f1248760-b706-401a-9a88-490bc0db237b"
	 xmlns="http://www.w3.org/2000/svg" xmlns:xlink="http://www.w3.org/1999/xlink" x="0px" y="0px" viewBox="0 0 1000 1000"
	 style="enable-background:new 0 0 1000 1000;" xml:space="preserve">
<style type="text/css">
	.st0{opacity:0.1;fill:#159EE9;enable-background:new    ;}
	.st1{fill:#3DB366;}
	.st2{fill:#B1CEE0;}
	.st3{opacity:0.1;enable-background:new    ;}
	.st4{fill:#F8F8F8;}
	.st5{opacity:0.5;fill:#063E67;}
	.st6{fill:#063E67;}
	.st7{fill:#0B7BCE;}
	.st8{fill:#FFCAC0;}
	.st9{fill:#2F2E41;}
	.st10{fill:#FFB9B9;}
	.st11{fill:url(#SVGID_1_);}
	.st12{fill:url(#SVGID_2_);}
	.st13{fill:#82B2D6;}
	.st14{fill:#FFC1C7;}
	.st15{fill:url(#SVGID_3_);}
	.st16{opacity:5.000000e-02;fill:#2F2E41;enable-background:new    ;}
	.st17{fill:url(#SVGID_4_);}
	.st18{fill:#D50F25;}
</style>
<title>player</title>
<path class="st0" d="M550,74.6c192.7,57.5,413.9,32.2,370,226.6C811.1,783-245.2,860.5,302,495.3
	c-74.5-182.7-158.9-173.1-151.9-300.6C160.8-2.3,357.2,17.1,550,74.6z"/>
<path class="st1" d="M198.3,563.9c-6.9,12.4-12.2,27.1-15.8,43.4l0.3-1.1l57.5,61.7c-3.5-21.4-5.8-41.8-7.4-60.1l-34.9-43
	L198.3,563.9z"/>
<path class="st1" d="M229.7,530c-0.6,0.3-1.2,0.7-1.8,1.1c-11.6,7.1-21.3,18.2-29.1,32l33.8,41.6C229.2,564.2,229.6,534.9,229.7,530
	z"/>
<path class="st1" d="M269.8,782.4c-1.6-4.2-3.2-8.6-4.7-13L265,770l-84-56.5c1.3,7.6,2.8,15.1,4.7,22.7l0.1-1.2L269.8,782.4z"/>
<path class="st1" d="M252.9,728.7c-4.7-18.2-8.7-37.3-12.1-57.3l-58.6-62.9c-4.2,20-6,40.4-5.5,60.8l0.2-1.2L252.9,728.7z"/>
<path class="st1" d="M330.1,568.7l-88,101.4c2.4,14.3,5.3,29.6,9.1,45.5l100.5-110.5c-6.1-13.2-13.5-25.8-22.1-37.5L330.1,568.7z"/>
<path class="st1" d="M352.2,606.2l0.5,1.1L251.8,718.2c0.9,3.8,1.9,7.7,2.9,11.5l103.2-110.2l0.5,1.1
	C356.4,615.6,354.4,610.8,352.2,606.2z"/>
<path class="st1" d="M264.2,766.9c-3.8-11.1-7.3-22.8-10.5-34.9l-76.9-61.4c0.4,13.9,1.7,27.8,4,41.5l0.1-1.2L264.2,766.9z"/>
<path class="st1" d="M206.3,787.2c37.2,59.5,110.6,93.6,128.8,101.3c-16.3-16-30.9-35.7-43.7-59L206.3,787.2z"/>
<path class="st1" d="M273,786.1c5.4,13.8,11.7,27.3,18.7,40.4l81.4-109.7l0.6,1.2c0.6-13.3,0.2-26.7-1-40L273,786.1z"/>
<path class="st1" d="M287.3,529.8c-19-9.6-38.8-10.3-56.8-0.3l0.7,0.3c0,0.4-0.8,30.9,2.8,74.7L287.3,529.8z"/>
<path class="st1" d="M186.1,737.7c1.2,4.7,2.5,9.3,3.9,14c3.6,11.8,8.7,23.2,15.2,33.7l0.1-1.2l84.3,41.9
	c-6.3-11.8-11.9-24-16.9-36.4l-1.5-3.9L186.1,737.7z"/>
<path class="st1" d="M328.9,566.6c-12.5-16.6-26.4-28.9-40.7-36.4l0.5,1.1l-54.5,76.5c1.6,18,3.9,38.2,7.3,59.4L328.9,566.6z"/>
<path class="st1" d="M339.4,890c1.9-5.4,30.8-90.3,34.2-170.3l-80.8,108.9C305.5,851.6,320.8,872.7,339.4,890z"/>
<path class="st1" d="M372.4,675c-1.1-10.9-3.2-21.6-6.3-32.1c-2.2-7.3-4.6-14.3-7.2-21.1L255.5,732.3c4.6,17.4,10.2,34.6,16.6,51.4
	h0.1L372.4,675z"/>
<path class="st1" d="M27.6,706.1c-1.3,15.4-0.5,30.9,2.4,46.1l-0.1-1.1l77.1,34.3C95.4,767,85.2,749.2,76.6,733l-48.9-25.9
	L27.6,706.1z"/>
<path class="st1" d="M43.2,662.6c-0.4,0.6-0.8,1.1-1.2,1.7c-7.8,11.1-12.5,25.1-14.2,40.9l47.4,25C56.1,694.3,45,667.2,43.2,662.6z"
	/>
<path class="st1" d="M179,879.1c-3.2-3.3-6.3-6.6-9.4-10.1l0.2,0.5l-99.4-19c4.1,6.5,8.5,12.8,13.2,19l-0.4-1.2L179,879.1z"/>
<path class="st1" d="M142.4,836.3c-11.4-14.9-22.6-30.9-33.6-48l-78.5-34.9c4,20,10.3,39.5,18.8,58.1l-0.3-1.1L142.4,836.3z"/>
<path class="st1" d="M150.7,658.8l-41.2,127.8c7.8,12.2,16.5,25.2,26.2,38.3l49.2-141.1c-10.8-9.8-22.5-18.4-35-25.8L150.7,658.8z"
	/>
<path class="st1" d="M185.8,684.7l0.9,0.9l-49.4,141.6c2.3,3.2,4.7,6.3,7.2,9.5l51.7-141.9l0.9,0.9
	C193.4,691.7,189.6,688.1,185.8,684.7z"/>
<path class="st1" d="M167.8,867c-7.9-8.8-15.6-18.1-23.3-28l-94.8-26.3c5.8,12.6,12.5,24.8,19.9,36.6l-0.3-1.2L167.8,867z"/>
<path class="st2" d="M122.5,908.4c57.6,40.2,138.4,42.7,158.2,42.7c-21.3-8.3-42.5-20.7-63.3-37.1L122.5,908.4z"/>
<path class="st3" d="M198.3,563.9c-6.9,12.4-12.2,27.1-15.8,43.4l0.3-1.1l57.5,61.7c-3.5-21.4-5.8-41.8-7.4-60.1l-34.9-43
	L198.3,563.9z"/>
<path class="st3" d="M229.7,530c-0.6,0.3-1.2,0.7-1.8,1.1c-11.6,7.1-21.3,18.2-29.1,32l33.8,41.6C229.2,564.2,229.6,534.9,229.7,530
	z"/>
<path class="st3" d="M269.8,782.4c-1.6-4.2-3.2-8.6-4.7-13L265,770l-84-56.5c1.3,7.6,2.8,15.1,4.7,22.7l0.1-1.2L269.8,782.4z"/>
<path class="st3" d="M252.9,728.7c-4.7-18.2-8.7-37.3-12.1-57.3l-58.6-62.9c-4.2,20-6,40.4-5.5,60.8l0.2-1.2L252.9,728.7z"/>
<path class="st3" d="M330.1,568.7l-88,101.4c2.4,14.3,5.3,29.6,9.1,45.5l100.5-110.5c-6.1-13.2-13.5-25.8-22.1-37.5L330.1,568.7z"/>
<path class="st3" d="M352.2,606.2l0.5,1.1L251.8,718.2c0.9,3.8,1.9,7.7,2.9,11.5l103.2-110.2l0.5,1.1
	C356.4,615.6,354.4,610.8,352.2,606.2z"/>
<path class="st3" d="M264.2,766.9c-3.8-11.1-7.3-22.8-10.5-34.9l-76.9-61.4c0.4,13.9,1.7,27.8,4,41.5l0.1-1.2L264.2,766.9z"/>
<path class="st3" d="M206.3,787.2c37.2,59.5,110.6,93.6,128.8,101.3c-16.3-16-30.9-35.7-43.7-59L206.3,787.2z"/>
<path class="st3" d="M273,786.1c5.4,13.8,11.7,27.3,18.7,40.4l81.4-109.7l0.6,1.2c0.6-13.3,0.2-26.7-1-40L273,786.1z"/>
<path class="st3" d="M287.3,529.8c-19-9.6-38.8-10.3-56.8-0.3l0.7,0.3c0,0.4-0.8,30.9,2.8,74.7L287.3,529.8z"/>
<path class="st3" d="M186.1,737.7c1.2,4.7,2.5,9.3,3.9,14c3.6,11.8,8.7,23.2,15.2,33.7l0.1-1.2l84.3,41.9
	c-6.3-11.8-11.9-24-16.9-36.4l-1.5-3.9L186.1,737.7z"/>
<path class="st3" d="M328.9,566.6c-12.5-16.6-26.4-28.9-40.7-36.4l0.5,1.1l-54.5,76.5c1.6,18,3.9,38.2,7.3,59.4L328.9,566.6z"/>
<path class="st3" d="M339.4,890c1.9-5.4,30.8-90.3,34.2-170.3l-80.8,108.9C305.5,851.6,320.8,872.7,339.4,890z"/>
<path class="st3" d="M372.4,675c-1.1-10.9-3.2-21.6-6.3-32.1c-2.2-7.3-4.6-14.3-7.2-21.1L255.5,732.3c4.6,17.4,10.2,34.6,16.6,51.4
	h0.1L372.4,675z"/>
<path class="st1" d="M183.4,881.3c10.4,10.6,21.5,20.6,33.1,29.9l31.8-132.9l1,0.9c-4.7-12.5-10.2-24.7-16.6-36.4L183.4,881.3z"/>
<path class="st1" d="M96.1,639.9c-21.3-1.3-39.7,5.7-52.4,22h0.8c0.2,0.4,11.4,28.8,31.9,67.7L96.1,639.9z"/>
<path class="st1" d="M84.5,870.8c2.9,3.8,5.9,7.6,9,11.4c7.9,9.5,17.1,17.9,27.2,25l-0.4-1.1l94,5.5c-10.4-8.4-20.4-17.4-29.8-26.9
	l-3-3L84.5,870.8z"/>
<path class="st1" d="M148.8,657.4c-18-10.3-35.6-16.3-51.7-17.5l0.9,0.8l-20.1,91.7c8.5,16,18.5,33.6,30,51.8L148.8,657.4z"/>
<path class="st1" d="M285.2,950.8c-0.4-5.7-7.1-95.1-35.3-170.1l-31.6,131.9C239,928.8,261.4,942.2,285.2,950.8z"/>
<path class="st1" d="M231.3,740.1c-5.3-9.6-11.5-18.6-18.4-27.1c-4.9-5.9-9.9-11.4-14.9-16.6l-51.8,142.2
	c11.1,14.2,22.9,27.8,35.4,40.7h0.1L231.3,740.1z"/>
<path class="st1" d="M564.9,736.6c-13.2-5.2-28.5-8.6-45.1-10.1l1.1,0.2l-53.8,65c20.8-6.2,40.7-11.2,58.6-15.1l38.1-40.2
	L564.9,736.6z"/>
<path class="st1" d="M602.6,763.4c-0.4-0.6-0.8-1.2-1.3-1.7c-8.6-10.5-20.8-18.8-35.5-24.7l-36.9,38.9
	C568.6,767.3,597.7,763.9,602.6,763.4z"/>
<path class="st1" d="M357.5,835.8c4-2.2,8.1-4.3,12.3-6.4h-0.6l45.1-90.6c-7.3,2.2-14.6,4.8-21.9,7.6l1.2-0.1L357.5,835.8z"/>
<path class="st1" d="M408.6,812.1c17.4-7,35.8-13.5,55.3-19.4l54.8-66.2c-20.4-1.6-40.8-0.8-61,2.5h1.2L408.6,812.1z"/>
<path class="st1" d="M577.2,867.9l-112-74.1c-13.9,4.2-28.7,9.1-43.9,14.9l122.6,85.4c12.3-7.7,23.8-16.7,34.3-26.8L577.2,867.9z"/>
<path class="st1" d="M542.9,894.7l-1.1,0.6l-123.1-85.7c-3.7,1.4-7.3,2.9-11,4.4l122.7,88l-1.1,0.6
	C534.1,900.1,538.6,897.5,542.9,894.7z"/>
<path class="st1" d="M372.2,828.3c10.6-5.2,21.6-10.2,33.2-14.9l50.9-84.2c-13.7,2.2-27.3,5.3-40.6,9.3h1.2L372.2,828.3z"/>
<path class="st1" d="M344.5,773.5c-54.2,44.6-78.4,121.8-83.7,140.8c13.7-18.2,31.4-35.3,52.8-51L344.5,773.5z"/>
<path class="st1" d="M354.2,839.5c-13,7.2-25.6,15.1-37.7,23.8l119.4,66.5l-1.1,0.7c13.3-1.2,26.5-3.2,39.5-6.1L354.2,839.5z"/>
<path class="st1" d="M610.2,820.4c7-20.1,5.2-39.8-7.1-56.4l-0.2,0.8c-0.4,0-30.8,3.2-73.7,12.5L610.2,820.4z"/>
<path class="st1" d="M391,747.1c-4.5,1.8-8.9,3.6-13.4,5.6c-11.2,5.1-21.8,11.6-31.4,19.4l1.2-0.1l-30.6,89
	c10.9-7.7,22.2-14.9,33.9-21.5c1.2-0.7,2.5-1.4,3.7-2L391,747.1z"/>
<path class="st1" d="M579.1,866.5c14.8-14.5,25.3-29.9,30.8-45.1l-1,0.7L526,778c-17.7,3.9-37.4,8.8-57.9,14.9L579.1,866.5z"/>
<path class="st1" d="M259.9,918.8c5.6,1.1,93.5,18.8,173.3,11.8l-118.5-66C293.5,880.2,274.6,898.1,259.9,918.8z"/>
<path class="st1" d="M477.3,923.6c10.6-2.5,21-6,31-10.4c7-3.1,13.6-6.4,20-9.9l-123-88.2c-16.7,6.8-33,14.6-48.8,23.2v0.1
	L477.3,923.6z"/>
<g>
	<g>
		<polygon class="st4" points="530.2,196.4 134.2,196.4 134.2,326.4 149.2,326.4 149.2,360.4 183.2,326.4 530.2,326.4 		"/>
	</g>
</g>
<g>
	<g>
		<polygon class="st4" points="530.2,546.4 134.2,546.4 134.2,676.4 149.2,676.4 149.2,710.4 183.2,676.4 530.2,676.4 		"/>
	</g>
</g>
<g>
	<g>
		<polygon class="st4" points="204.2,372.4 600.2,372.4 600.2,502.4 585.2,502.4 585.2,536.4 551.2,502.4 204.2,502.4 		"/>
	</g>
</g>
<rect x="180.2" y="217.9" class="st5" width="304" height="12"/>
<rect x="180.2" y="240.9" class="st5" width="152" height="12"/>
<circle class="st5" cx="197.2" cy="287.9" r="17"/>
<rect x="240.2" y="391.9" class="st6" width="304" height="12"/>
<rect x="240.2" y="414.9" class="st6" width="152" height="12"/>
<circle class="st6" cx="257.2" cy="461.9" r="17"/>
<rect x="180.2" y="567.9" class="st5" width="304" height="12"/>
<rect x="180.2" y="590.9" class="st5" width="152" height="12"/>
<circle class="st5" cx="197.2" cy="637.9" r="17"/>
<polygon class="st6" points="170.2,398 156.6,421.7 183.9,421.7 "/>
<polygon class="st6" points="170.2,473.6 183.9,449.9 156.6,449.9 "/>
<circle class="st6" cx="170.2" cy="435.8" r="8.9"/>
<polygon class="st5" points="564.2,223.9 550.6,247.6 577.9,247.6 "/>
<polygon class="st5" points="564.2,299.5 577.9,275.8 550.6,275.8 "/>
<circle class="st5" cx="564.2" cy="261.7" r="8.9"/>
<polygon class="st5" points="564.2,574 550.6,597.7 577.9,597.7 "/>
<polygon class="st5" points="564.2,649.6 577.9,625.9 550.6,625.9 "/>
<circle class="st5" cx="564.2" cy="611.8" r="8.9"/>
<path class="st7" d="M519.5,885.1c-250.4,0-468.4,3.3-468.3,39.8c0.2,56.8,217.9,36.2,468.3,36.2s453.5-32.5,453.5-48
	S769.9,885.1,519.5,885.1z"/>
<path class="st8" d="M639.6,361.7l-31.7-45.1c-2,1.6-31.3-84.7-41.6-79.8C546.6,246.1,586,326,586,326l24.5,32.1L639.6,361.7z"/>
<path class="st8" d="M834.2,577.8c0,0-22.8,44.2-29.4,45.5s-6.7-40.2-6.7-40.2s13.4-12,18.7-10.7S834.2,577.8,834.2,577.8z"/>
<path class="st9" d="M796.1,897.8c0,0,50-4.6,44.6,11.6S808,920.8,800,931.2c-10.8,13.8-38.9,0.8-36.3-5.3
	c2.3-5.5,4.2-18.3,10.9-27.2S796.1,897.8,796.1,897.8z"/>
<path class="st9" d="M643.3,917.2c-5.8,4.5-5.8,14.3,0.2,18.5c3.8,2.6,11.4,3.3,19.1,3.8c22.1,1.6,17.9-3.2,35.4-0.7
	c31.2,4.6,26.9-28.8,20.4-33.7s-31,0.1-44.9,4.1C665.4,911.8,650.3,911.8,643.3,917.2z"/>
<path class="st9" d="M794.1,591.6c0,0,10.7,7.4,13.4,53.3s-1.3,97.7-2.7,109.5s1.3,29.6,4,38.5s-6.7,77-6.7,77c4,9.5,4,20.1,0,29.6
	c-6.7,16.3-26.8,32.6-32.1,16.3c-0.3-5.6-1.6-11.2-4-16.3c-4-8.9,2.7-44.4,2.7-44.4s-5.4-56.3-4-71.1S748.6,681.9,746,667.1
	s-1.3-26.6-2.7-22.2s-25.4,127.3-25.4,127.3s2.7,78.5,1.3,88.8s5.4,31.1,1.3,38.5s-9.9,23-26.8,17.8c-20-6.2-12-22.2-13.4-29.6
	s0-16.3,0-28.1s-10.7-78.5-5.4-88.8s2.7-23.7,1.3-47.4s-2.7-137.7,10.7-158.4S794.1,591.6,794.1,591.6z"/>
<circle class="st10" cx="761.3" cy="305.5" r="32.1"/>
<path class="st8" d="M782,318.2c0,0-1.3,48.2,5.4,56.2s-57.6-6.7-57.6-6.7s14.7-30.8,5.4-50.9S782,318.2,782,318.2z"/>
<linearGradient id="SVGID_1_" gradientUnits="userSpaceOnUse" x1="804.8" y1="489.5374" x2="846.5318" y2="489.5374">
	<stop  offset="0.181" style="stop-color:#F2F2F2"/>
	<stop  offset="1" style="stop-color:#FFFFFF"/>
</linearGradient>
<path class="st11" d="M830.2,394.5h9.4c0,0,5.4,30.8,4,49.5s-1.3,62.9-1.3,62.9s5.4,10.7,4,20.1s-4,34.8-4,34.8s-1.3,36.1-26.8,17.4
	c0,0-8-4-4-21.4s-2.7-36.1-2.7-36.1s4-12,2.7-20.1s-6.7-33.5-6.7-33.5L830.2,394.5z"/>
<path class="st9" d="M759.1,343.8c-0.1-2.4-1.6-4.6-3.8-5.5c-1.5-0.5-3-0.8-4.6-0.9c-4.6-0.6-9.2-2.3-11.9-5.7
	c-3.5-4.6-2.6-11.1-5.4-16.2c-1.3-2-2.8-3.9-4.3-5.7c-4.9-6.6-5.8-15.1-6.3-23.1c-0.2-1.6,0-3.3,0.5-4.8c0.8-1.4,1.9-2.7,3.1-3.8
	c2-2.3,3.1-5.3,3-8.4c-0.1-6.2,8.8-10.4,15.1-12.6s13.1-2.5,19.9-2.6c3.9-0.1,7.9,0,11.4,1.4c2,0.9,4,2,5.7,3.4
	c7.4,5.4,14.4,12.1,16.9,20.6c1,3.9,1.4,7.8,1.4,11.8c0.1,1.2-0.1,2.4-0.5,3.6c-0.9,1.8-3,2.8-4.4,4.3c-2.5,2.8-2.1,7-2.4,10.6
	c-0.8,7.7-5.3,14.5-12,18.4c-1.4,0.7-2.6,1.5-3.7,2.6c-0.8,1.1-1.5,2.3-2.1,3.6C772,340.2,765.3,343.6,759.1,343.8z"/>
<linearGradient id="SVGID_2_" gradientUnits="userSpaceOnUse" x1="608.1362" y1="483.5364" x2="839.7" y2="483.5364">
	<stop  offset="0.181" style="stop-color:#F2F2F2"/>
	<stop  offset="1" style="stop-color:#FFFFFF"/>
</linearGradient>
<path class="st12" d="M808.9,477.2l30.8-81.6c-0.1,0.2-42.9-21.2-45.6-26.6c0,0-2.7-10.7-18.7-13.4c-16-2.7-35.1-5.4-41,0
	s-8.6,12-12.6,12h-18.7l-0.1,0.1l0,0c0,0-9.4-4-22.8,0s-20.1,2.7-25.4,1.3s-22.9-21.6-22.9-21.6s-8.9-8.5-19.6,2.2
	s2.6,29.9,2.6,29.9s-0.2,12.3,23.9,20.3s34.8,20.1,34.8,20.1h0.2c1.1,1.3,14.5,18.6,10.6,49.4c-4,32.1-10.7,91-10.7,91
	c10.7,14.3,20.1,29.5,28.1,45.5c13.4,26.8,105.7,24.1,100.4-22.8c0,0-6.7-12-4-22.8S808.9,477.2,808.9,477.2z"/>
<path class="st3" d="M283.4,813.4c101.9,0,185.2,13,185.2,72.7s-82,41.3-184,41.3S99.4,945.9,99.4,886.1S181.5,813.4,283.4,813.4z"
	/>
<path class="st7" d="M283.4,802.2c101.9,0,185.2,13,185.2,72.7s-82,41.3-184,41.3S99.4,934.7,99.4,874.9S181.5,802.2,283.4,802.2z"
	/>
<path class="st8" d="M440,694c0,0,53.4,17.4,55.2,9.9s-44-11.8-44-11.8l-3.8-4.4L440,694z"/>
<path class="st13" d="M353.1,705.8c11.2,11.2,74.5,13,74.5,13L440,694c-26.7,7.4-75.7-9.9-75.7-9.9S342,694.6,353.1,705.8z"/>
<path class="st9" d="M353.1,705.8c11.2,11.2,74.5,13,74.5,13L440,694c-26.7,7.4-75.7-9.9-75.7-9.9S342,694.6,353.1,705.8z"/>
<ellipse transform="matrix(0.1602 -0.9871 0.9871 0.1602 -177.4358 827.5152)" class="st14" cx="397.6" cy="518" rx="32.9" ry="32.9"/>
<path class="st14" d="M375.1,534.1c2.8-0.7,7.8,1.1,10.8,1.3c4,0.2,8.1,0.1,12.1,0l22.2-0.6c-2.2,7-6.7,13-10.3,19.4s-6.2,14-4.2,21
	c-19-1.8-37.8-4.6-56.5-8.4c6-3,11.4-7,15.9-11.9c1.7-1.8,3.1-3.8,4.3-5.9C372,543.7,369.1,535.5,375.1,534.1z"/>
<linearGradient id="SVGID_3_" gradientUnits="userSpaceOnUse" x1="269.1053" y1="805.1893" x2="535.6062" y2="805.1893">
	<stop  offset="0.181" style="stop-color:#F2F2F2"/>
	<stop  offset="1" style="stop-color:#FFFFFF"/>
</linearGradient>
<path class="st15" d="M344.4,694l13.7,47.8c0,0,60.2,10.5,102.4,1.9s41,37.2,41,37.2l18,89.4c0,0,9.9,14.9,9.9,21.1
	s6.2,16.8,6.2,16.8c0.6,12.4-42.8,9.3-41,0s-5-16.1-5-16.1l-13-29.8c-14.9-27.3-17.4-55.2-18-65.2s-27.9,3.1-27.9,3.1
	s-50.3,13-117.9,5.6s-36.6-80-36.6-80l18.6-22.3L344.4,694z"/>
<path class="st16" d="M344.4,694l13.7,47.8c0,0,60.2,10.5,102.4,1.9s41,37.2,41,37.2l18,89.4c0,0,9.9,14.9,9.9,21.1
	s6.2,16.8,6.2,16.8c0.6,12.4-42.8,9.3-41,0s-5-16.1-5-16.1l-13-29.8c-14.9-27.3-17.4-55.2-18-65.2s-27.9,3.1-27.9,3.1
	s-50.3,13-117.9,5.6s-36.6-80-36.6-80l18.6-22.3L344.4,694z"/>
<linearGradient id="SVGID_4_" gradientUnits="userSpaceOnUse" x1="275.2963" y1="759.3337" x2="592.9214" y2="759.3337">
	<stop  offset="0.181" style="stop-color:#F2F2F2"/>
	<stop  offset="1" style="stop-color:#FFFFFF"/>
</linearGradient>
<path class="st17" d="M367.4,718.2c24.9-4.8,49.5-10.8,73.8-18c36.6-11.2,50.9,9.9,50.9,9.9l50.3,49l50.3,45.9
	c3.1,23-27.3,16.1-32.3,16.1s-13.7-12.4-13.7-12.4c-13-4.3-45.3-27.9-45.3-27.9s-0.6-5-6.7-25.6s-37.3-4.8-37.3-4.8
	s-62.7,29.8-72.6,40.3s-52.1,11.2-84.4,8.1s-24.2-73.2-24.2-73.2c31.6-45.3,88.4-24,88.4-24L367.4,718.2z"/>
<path class="st9" d="M538,905.6c4.3-2.5,6.2,3.7,6.2,3.7l17.4,8.1c0,0,19.2-2.5,23,7.4s-21.7,14.9-27.9,14.3s-31,2.5-31,2.5
	s-21.1,2.5-31-1.2s1.9-33.5,1.9-33.5C521.3,917.4,533.7,908.1,538,905.6z"/>
<path class="st9" d="M596.4,805.1c5,8.7,17.4,8.7,17.4,8.7c16.8-0.5,18.8,2.6,18.8,4.1c0,0.8,0,1.5,0.2,2.3
	c2.6,11.5-14.3,17.2-20.3,17.8c-6.2,0.6-22.3,5-43.4,7.4s-8.1-26.7-8.1-26.7C577.8,828.7,596.4,805.1,596.4,805.1z"/>
<path class="st9" d="M401.5,636.9c1.9,31-24.8,39.1-24.8,39.1s-0.6,10.5-5.6,13s-8.7,17.4-8.7,17.4l-86.3,19.2
	c0,0,24.8-127.2,62.1-155.1s81.9,0,81.9,0S399.7,605.9,401.5,636.9z"/>
<path class="st9" d="M389.1,609.6c0,0,25.4,72,29.2,84.4s21.7,13,31,6.8s-6.2-43.4-6.2-43.4l-7.4-31c-1.9-39.1-15.5-54.6-15.5-54.6
	h-23L389.1,609.6z"/>
<path class="st18" d="M386.9,481.6c2.3-6.4,10.1-9.3,16.8-8.2s12.4,5.3,17.6,9.6c26.3,22.2,46.4,55.7,41,89.7
	c-1.9,0.2-3.7,1.1-5,2.6c1.8,3.5,4.4,6.5,7.5,8.8l-13.1,0.1l2.2,10.6c-19.5-6.7-33.6-25.7-53.8-29.3c-12.2-2.2-24.6,1.7-36.4,5.6
	l-37.6,12.3l22.3-20c-6.6,1.3-13.3,1.5-20,0.6c14.8-6,20.8-23.5,23.9-39.2s5.4-33,17.3-43.7c9.5-8.2,22.8-10.4,34.4-5.6"/>
</svg>
