<?xml version="1.0" encoding="utf-8"?>
<!-- Generator: Adobe Illustrator 23.0.3, SVG Export Plug-In . SVG Version: 6.00 Build 0)  -->
<svg version="1.1" id="f1248760-b706-401a-9a88-490bc0db237b"
	 xmlns="http://www.w3.org/2000/svg" xmlns:xlink="http://www.w3.org/1999/xlink" x="0px" y="0px" viewBox="0 0 1000 1000"
	 style="enable-background:new 0 0 1000 1000;" xml:space="preserve">
<style type="text/css">
	.st0{opacity:0.1;fill:#159EE9;enable-background:new    ;}
	.st1{fill:#3DB366;}
	.st2{fill:#B1CEE0;}
	.st3{opacity:0.1;enable-background:new    ;}
	.st4{fill:#F8F8F8;}
	.st5{fill:#D50F25;}
	.st6{fill:#FFBF00;}
	.st7{opacity:0.25;fill:#333333;enable-background:new    ;}
	.st8{fill:#063E67;}
	.st9{opacity:0.25;fill:#063E67;}
	.st10{fill:#0B7BCE;}
	.st11{fill:url(#SVGID_1_);}
	.st12{fill:#FFCAC0;}
	.st13{fill:#2F2E41;}
	.st14{fill:url(#SVGID_2_);}
	.st15{fill:url(#SVGID_3_);}
	.st16{fill:url(#SVGID_4_);}
	.st17{fill:#F2F2F2;}
	.st18{fill:#1F628D;}
	.st19{fill:url(#SVGID_5_);}
	.st20{fill:url(#SVGID_6_);}
</style>
<title>narrator</title>
<path class="st0" d="M598.7,112.8C758.5,235,784.8,458.3,657.5,611.7s-515.1,252.4-519.9,56.4C132.9,470.8,27.1,286,78.9,169.2
	C158.9-11.2,439-9.3,598.7,112.8z"/>
<path class="st1" d="M263.4,389.7l2.7,55.3c11,14.7,22.8,31.4,34.5,49.7l1.7-84.3l0.9,0.6c-13.5-9.7-27.3-17.1-40.7-21.8
	L263.4,389.7z"/>
<path class="st1" d="M264.2,442.5l-2.6-53.5c-15.1-5.1-29.7-6.8-43.1-4.5c-0.7,0.1-1.4,0.3-2.1,0.4
	C219.9,388.5,239.7,410,264.2,442.5z"/>
<path class="st2" d="M385.9,508.4l0.9,0.8c-3.7-6.9-7.5-13.5-11.6-20l-24.9,98.1l-0.4-0.4c1.8,4.3,3.5,8.6,5.1,12.8L385.9,508.4z"/>
<path class="st1" d="M347.9,452.6l0.9,0.7c-13.2-15.6-28.2-29.6-44.6-41.7l-1.7,85.9c10.9,17.2,20.6,34.1,29.2,50.8L347.9,452.6z"/>
<path class="st1" d="M167.1,479.5c1.4,14.5,4.3,28.8,8.5,42.7l148.6,15.3c-7.8-14.3-15.8-27.7-23.5-40l-133.2-16.9L167.1,479.5z"/>
<path class="st1" d="M181,538.2l-0.4-1.2l150.5,13.4c-1.8-3.6-3.7-7.1-5.5-10.5l-149.2-15.4l-0.4-1.2
	C177.5,528.2,179.2,533.2,181,538.2z"/>
<path class="st1" d="M373.4,487.2l0.9,0.8c-7.5-11.7-15.7-22.9-24.7-33.6l-16.4,97c5.7,11.1,10.8,22.1,15.4,33L373.4,487.2z"/>
<path class="st1" d="M370.3,649.3c6,25.9,8.2,50.3,6.7,73.1c8.4-17.9,40.4-92.2,28.4-161.4L370.3,649.3z"/>
<path class="st1" d="M208.6,590.5c8,10.7,16.6,20.9,25.9,30.5l-0.4-1.3L368,647.2c-3.5-14.4-7.8-28.7-13-42.6L208.6,590.5z"/>
<path class="st1" d="M263,443.4c-26.5-35.1-47.4-57.3-47.7-57.6l0.3-0.7c-20.1,4.6-34.3,18.3-42.1,38.1L263,443.4z"/>
<path class="st1" d="M356.2,603c0.5,1.3,1,2.6,1.5,4c4.6,12.6,8.5,25.4,11.7,38.4l34.9-87.4l0.9,0.9c-2.2-12.2-5.9-24-11.1-35.2
	c-2.1-4.4-4.2-8.7-6.5-13L356.2,603z"/>
<path class="st1" d="M299.1,495.1c-11.6-18.1-23.3-34.6-34.2-49.1l-91.6-20.7l-0.3-1.2c-5.7,15.1-7.8,33.6-6.1,54.2L299.1,495.1z"/>
<path class="st1" d="M368.6,649.5l-132.9-27.3c55.9,57.4,134,101.3,139,104.1C377.1,701,374.4,675.1,368.6,649.5z"/>
<path class="st1" d="M354.1,602.3L354.1,602.3c-6.4-16.9-13.6-33.4-21.8-49.5l-150.8-13.4c2.6,6.8,5.5,13.6,8.7,20.6
	c4.7,9.9,10.3,19.3,16.7,28.1L354.1,602.3z"/>
<path class="st2" d="M595.3,588.9l-38.6,39.7c-3.2,18-7.4,38.2-12.7,59.2l62.8-56.3l0.2,1.1c-2.2-16.5-6.2-31.6-11.9-44.6
	L595.3,588.9z"/>
<path class="st2" d="M557.2,625.4l37.4-38.4c-6.5-14.5-15.3-26.4-26.1-34.5c-0.6-0.4-1.1-0.8-1.7-1.2
	C566.4,556.3,564.2,585.4,557.2,625.4z"/>
<path class="st2" d="M592.1,759.4v1.2c2.5-7.4,4.8-14.7,6.7-22.2l-88.7,48.8v-0.6c-1.9,4.3-3.9,8.4-5.9,12.5L592.1,759.4z"/>
<path class="st2" d="M606.9,693.6l0.1,1.2c2.4-20.3,2.4-40.8,0-61.1l-64,57.4c-5.1,19.7-10.8,38.4-17.1,56L606.9,693.6z"/>
<path class="st2" d="M463.9,579.8c-9.6,10.9-18.1,22.8-25.4,35.4l90.3,119c5.2-15.4,9.5-30.5,13.1-44.5l-78.6-108.9L463.9,579.8z"/>
<path class="st2" d="M430.5,630.1l0.6-1.1L524,748.1c1.4-3.8,2.7-7.5,3.9-11.2l-90.6-119.5l0.6-1.1
	C435.4,620.7,432.9,625.3,430.5,630.1z"/>
<path class="st2" d="M599.2,735.8v1.2c3.5-13.4,6-27.1,7.7-40.9l-82.1,54.3c-4.3,11.8-8.8,23-13.6,33.8L599.2,735.8z"/>
<path class="st1" d="M478.5,844.2c-14.8,22-31.2,40.4-48.8,54.8c18.8-6.1,94.9-33.4,137.3-89.4L478.5,844.2z"/>
<path class="st1" d="M411.1,685.9c-2.4,13.1-3.9,26.4-4.5,39.8l0.7-1.2l71.2,116.6c8.2-12.4,15.6-25.3,22.2-38.6L411.1,685.9z"/>
<path class="st2" d="M555.8,625.2c7.5-43.3,9.5-73.8,9.5-74.2l0.8-0.3c-17.1-11.6-36.8-12.6-56.6-4.8L555.8,625.2z"/>
<path class="st1" d="M502.7,802.3c-0.6,1.3-1.3,2.5-1.9,3.8c-6.1,12-12.8,23.6-20.1,34.8l87.7-34.2v1.2c7.4-9.9,13.5-20.7,18.1-32.2
	c1.8-4.5,3.5-9,5.1-13.6L502.7,802.3z"/>
<path class="st2" d="M542.6,687c5.3-20.8,9.4-40.7,12.6-58.5l-47.4-81.1l0.6-1c-14.9,6.1-29.9,17.2-43.8,32.6L542.6,687z"/>
<path class="st1" d="M477.2,843.1l-70.7-115.7c-3.8,80,17.4,167.1,18.8,172.7C445.4,884.5,462.5,864.8,477.2,843.1z"/>
<path class="st3" d="M478.5,844.2c-14.8,22-31.2,40.4-48.8,54.8c18.8-6.1,94.9-33.4,137.3-89.4L478.5,844.2z"/>
<path class="st3" d="M411.1,685.9c-2.4,13.1-3.9,26.4-4.5,39.8l0.7-1.2l71.2,116.6c8.2-12.4,15.6-25.3,22.2-38.6L411.1,685.9z"/>
<path class="st3" d="M502.7,802.3c-0.6,1.3-1.3,2.5-1.9,3.8c-6.1,12-12.8,23.6-20.1,34.8l87.7-34.2v1.2c7.4-9.9,13.5-20.7,18.1-32.2
	c1.8-4.5,3.5-9,5.1-13.6L502.7,802.3z"/>
<path class="st3" d="M477.2,843.1l-70.7-115.7c-3.8,80,17.4,167.1,18.8,172.7C445.4,884.5,462.5,864.8,477.2,843.1z"/>
<path class="st2" d="M501.8,800.2L501.8,800.2c8-16.2,15.1-32.8,21.3-49.7l-93.2-119.3c-3.2,6.5-6.2,13.3-9.1,20.4
	c-4,10.2-7.1,20.7-9.2,31.4L501.8,800.2z"/>
<path class="st1" d="M126.8,619.4l38.1,40.2c17.9,3.9,37.8,8.9,58.6,15.1l-53.8-65l1.1-0.2c-15.4,1.2-30.6,4.6-45.1,10.1
	L126.8,619.4z"/>
<path class="st1" d="M161.7,658.9L124.8,620c-14.8,5.9-27,14.2-35.5,24.7c-0.4,0.5-0.9,1.1-1.3,1.7
	C92.9,646.9,122,650.3,161.7,658.9z"/>
<path class="st2" d="M297,629.5l1.2,0.1c-7.3-2.8-14.5-5.4-21.9-7.6l45.1,90.6h-0.6c4.2,2.1,8.3,4.2,12.3,6.4L297,629.5z"/>
<path class="st1" d="M231.8,612h1.2c-20.2-3.2-40.6-4.1-61-2.5l54.8,66.2c19.5,5.9,37.9,12.4,55.3,19.4L231.8,612z"/>
<path class="st1" d="M112.3,750.3c10.5,10.1,22,19,34.3,26.8l122.6-85.4c-15.2-5.8-30-10.7-43.9-14.9l-112,74.1L112.3,750.3z"/>
<path class="st1" d="M161.2,785.7l-1.1-0.6l122.7-88c-3.7-1.5-7.4-3-11-4.4l-123.1,85.7l-1.1-0.6C152,780.5,156.5,783.1,161.2,785.7
	z"/>
<path class="st1" d="M273.7,621.5h1.2c-13.3-4-26.9-7.1-40.6-9.3l50.9,84.2c11.6,4.7,22.6,9.7,33.2,14.9L273.7,621.5z"/>
<path class="st2" d="M377.1,746.4c21.4,15.7,39.1,32.8,52.8,51c-5.3-19.1-29.5-96.2-83.7-140.8L377.1,746.4z"/>
<path class="st1" d="M216.2,807.4c13,2.9,26.2,5,39.5,6.1l-1.1-0.7L374,746.3c-12.1-8.7-24.7-16.6-37.7-23.8L216.2,807.4z"/>
<path class="st1" d="M161.4,660.4c-43-9.3-73.3-12.4-73.7-12.5l-0.2-0.8c-12.3,16.6-14.1,36.2-7.1,56.4L161.4,660.4z"/>
<path class="st2" d="M336.2,720.6c1.2,0.7,2.5,1.4,3.7,2c11.7,6.5,23,13.7,33.9,21.5l-30.6-89l1.2,0.1c-9.6-7.8-20.2-14.3-31.4-19.4
	c-4.4-2-8.9-3.9-13.4-5.6L336.2,720.6z"/>
<path class="st1" d="M222.6,676c-20.6-6.1-40.3-11-57.9-14.9l-82.9,44.1l-1-0.7c5.5,15.1,16,30.5,30.8,45.1L222.6,676z"/>
<path class="st2" d="M375.9,747.7l-118.5,66c79.8,7,167.7-10.7,173.3-11.8C416,781.2,397.1,763.2,375.9,747.7z"/>
<path class="st1" d="M334.1,721.3L334.1,721.3c-15.8-8.6-32.1-16.4-48.8-23.3l-123,88.2c6.4,3.5,13,6.8,20,9.9
	c10,4.4,20.4,7.9,31,10.4L334.1,721.3z"/>
<g>
	<g>
		<g>
			<g>
				<rect x="391.6" y="193.4" class="st4" width="543.8" height="610.8"/>
			</g>
		</g>
	</g>
</g>
<g>
	<g>
		<rect x="391.6" y="147.5" class="st4" width="543.8" height="52.2"/>
	</g>
</g>
<circle class="st5" cx="429.2" cy="170.5" r="8.9"/>
<circle class="st6" cx="454.6" cy="170.5" r="8.9"/>
<circle class="st1" cx="480.1" cy="170.5" r="8.9"/>
<rect x="391.6" y="193.4" class="st7" width="543.8" height="6.4"/>
<rect x="491.5" y="241.4" class="st8" width="158.6" height="169.4"/>
<rect x="688.2" y="241.4" class="st8" width="158.6" height="169.4"/>
<rect x="470.6" y="440.1" class="st9" width="393.5" height="13"/>
<rect x="470.6" y="473.3" class="st9" width="393.5" height="13"/>
<rect x="470.6" y="506.5" class="st9" width="393.5" height="13"/>
<rect x="470.6" y="539.6" class="st9" width="393.5" height="13"/>
<rect x="470.6" y="572.8" class="st9" width="393.5" height="13"/>
<rect x="470.6" y="606" class="st9" width="393.5" height="13"/>
<rect x="470.6" y="639.2" class="st9" width="393.5" height="13"/>
<rect x="470.6" y="672.3" class="st9" width="393.5" height="13"/>
<rect x="470.6" y="705.5" class="st9" width="393.5" height="13"/>
<rect x="470.6" y="738.7" class="st9" width="393.5" height="13"/>
<path class="st10" d="M623.4,162.9v11.5h-1.8v-0.5c-0.3,0.2-0.6,0.4-0.9,0.5c-0.4,0.1-0.7,0.2-1.1,0.2c-0.7,0-1.3-0.2-1.9-0.5
	c-0.5-0.4-0.9-0.8-1.2-1.4c-0.5-1.3-0.5-2.7,0-4c0.3-0.6,0.7-1.1,1.2-1.4c0.6-0.4,1.2-0.6,1.9-0.5c0.7,0,1.4,0.2,2,0.6v-4.3h1.8
	V162.9z M621.1,172.3c0.4-0.5,0.5-1.2,0.5-1.8s-0.2-1.3-0.5-1.8c-0.3-0.4-0.9-0.6-1.4-0.6c-0.6,0-1.1,0.2-1.4,0.7
	c-0.7,1-0.7,2.4,0,3.4c0.3,0.4,0.8,0.7,1.4,0.7C620.2,173,620.7,172.8,621.1,172.3L621.1,172.3z"/>
<path class="st10" d="M625.2,173.9c-0.4-0.5-0.6-1.1-0.6-1.7c0-0.6,0.2-1.2,0.7-1.6c0.5-0.4,1.1-0.7,1.7-0.9
	c0.6-0.2,1.3-0.3,1.9-0.3c0.1-0.6-0.3-1.2-0.9-1.3c-0.1,0-0.3,0-0.4,0c-0.3,0-0.7,0-1,0.1c-0.4,0.1-0.7,0.2-1.1,0.4l-0.2-1.5
	c0.9-0.4,1.8-0.7,2.8-0.7c0.8-0.1,1.5,0.2,2.1,0.7c0.5,0.6,0.8,1.5,0.7,2.3v2.1c0,0.4,0,0.7,0.1,0.8s0.1,0.3,0.2,0.3
	s0.2,0.1,0.4,0.1h0.2l-0.2,1.6h-0.7c-0.4,0-0.7-0.1-1.1-0.2c-0.3-0.2-0.5-0.4-0.7-0.6c-0.3,0.3-0.6,0.5-1,0.6
	c-0.4,0.2-0.9,0.2-1.3,0.2C626.2,174.5,625.6,174.4,625.2,173.9z M628.2,172.9c0.2-0.1,0.5-0.2,0.6-0.4v-1.7c-0.6,0-1.1,0.2-1.6,0.4
	c-0.4,0.1-0.7,0.5-0.7,1c0,0.2,0.1,0.5,0.2,0.7c0.2,0.1,0.5,0.2,0.8,0.2C627.7,173.1,627.9,173,628.2,172.9z"/>
<path class="st10" d="M638.7,167.5c0.5,0.8,0.8,1.7,0.7,2.6v4.3h-1.9v-4.2c0-0.6-0.1-1.1-0.4-1.6c-0.3-0.4-0.7-0.5-1.2-0.5
	c-0.6,0-1.1,0.2-1.4,0.7v5.5h-1.9v-7.6h1.8v0.5c0.6-0.4,1.3-0.7,2-0.7C637.2,166.5,638.1,166.9,638.7,167.5z"/>
<path class="st10" d="M642,173.9c-0.3-0.4-0.5-0.9-0.5-1.4v-4.2h-1.1l0.2-1.6h0.9V165l1.9-0.2v1.9h1.7v1.6h-1.7v3.5
	c0,0.4,0,0.7,0.1,0.8c0,0.1,0.1,0.3,0.2,0.3c0,0,0,0,0.1,0c0.3,0.1,0.5,0.1,0.8,0.1h0.5l-0.2,1.6h-1.4
	C642.9,174.5,642.4,174.3,642,173.9z"/>
<path class="st10" d="M646.3,166.7h1.8v0.8c0.2-0.3,0.5-0.6,0.9-0.7c0.3-0.2,0.7-0.3,1.1-0.3h0.3l-0.1,1.9c-0.2-0.1-0.5-0.1-0.7-0.1
	c-0.3,0-0.6,0.1-0.9,0.2c-0.3,0.1-0.5,0.3-0.6,0.5v5.2h-1.9v-7.5L646.3,166.7z"/>
<path class="st10" d="M658,166.7v7.6h-1.8v-0.5c-0.2,0.2-0.5,0.3-0.8,0.4c-1.2,0.5-2.5,0.1-3.4-0.8c-0.5-0.8-0.8-1.7-0.8-2.7v-4.1
	h1.9v4.1c0,0.6,0.1,1.1,0.4,1.6c0.3,0.4,0.7,0.5,1.2,0.5s1.1-0.2,1.4-0.6v-5.6h1.9L658,166.7L658,166.7z"/>
<path class="st10" d="M662.1,173.8l-3.2-7.1h2.1l2,4.9l2-4.9h2.1l-4.8,11.3h-1.9L662.1,173.8z"/>
<path class="st10" d="M669.3,174c-0.6-0.3-1.1-0.9-1.4-1.5c-0.3-0.6-0.5-1.3-0.5-2s0.1-1.4,0.4-2c0.3-0.6,0.7-1.1,1.3-1.4
	c0.6-0.4,1.3-0.5,2-0.5c0.6,0,1.2,0.1,1.8,0.4c0.5,0.3,0.9,0.7,1.1,1.2c0.2,0.5,0.4,1.1,0.4,1.7c0,0.3,0,0.7-0.1,1h-4.9
	c0.1,0.6,0.3,1.1,0.8,1.5c0.4,0.3,1,0.5,1.5,0.5c0.8,0,1.6-0.2,2.3-0.6l0.1,1.6c-0.3,0.2-0.7,0.3-1.1,0.4c-0.5,0.1-0.9,0.2-1.4,0.2
	C670.8,174.5,670,174.4,669.3,174z M672.5,169.7c0-0.4-0.1-0.8-0.3-1.1s-0.6-0.5-1-0.5s-0.8,0.1-1.1,0.4c-0.3,0.3-0.5,0.7-0.6,1.1h3
	L672.5,169.7z"/>
<path class="st10" d="M681.7,167.5c0.5,0.8,0.8,1.7,0.7,2.6v4.3h-1.9v-4.2c0-0.6-0.1-1.1-0.4-1.6c-0.3-0.4-0.7-0.5-1.2-0.5
	c-0.6,0-1.1,0.2-1.4,0.7v5.5h-1.9v-7.6h1.8v0.5c0.6-0.4,1.3-0.7,2-0.7C680.2,166.5,681.1,166.9,681.7,167.5z"/>
<path class="st10" d="M684,172.3h2v2.1h-2V172.3z"/>
<path class="st10" d="M688.9,174c-0.6-0.3-1.1-0.8-1.4-1.4c-0.7-1.2-0.7-2.8,0-4c0.3-0.6,0.8-1.1,1.4-1.4c0.7-0.4,1.4-0.5,2.2-0.5
	c0.7,0,1.4,0.2,2,0.5l-0.2,1.5c-0.5-0.3-1.1-0.4-1.7-0.4c-0.6,0-1.3,0.2-1.7,0.7c-0.8,1-0.8,2.4,0,3.4c0.4,0.5,1.1,0.7,1.7,0.7
	c0.6,0,1.2-0.2,1.7-0.5l0.2,1.6c-0.3,0.2-0.7,0.3-1,0.3c-0.4,0.1-0.8,0.1-1.2,0.1C690.2,174.5,689.5,174.3,688.9,174z"/>
<path class="st10" d="M695.8,174c-0.6-0.4-1-0.8-1.4-1.4c-0.7-1.2-0.7-2.8,0-4c0.3-0.6,0.8-1.1,1.4-1.5c0.6-0.4,1.4-0.5,2.1-0.5
	c0.7,0,1.4,0.2,2.1,0.5c0.6,0.4,1.1,0.9,1.4,1.5c0.7,1.2,0.7,2.8,0,4c-0.3,0.6-0.8,1.1-1.4,1.4c-0.6,0.4-1.4,0.5-2.1,0.5
	S696.4,174.3,695.8,174z M699.4,172.3c0.4-0.5,0.6-1.1,0.5-1.7c0-0.6-0.2-1.3-0.5-1.8c-0.4-0.4-0.9-0.7-1.5-0.7s-1.1,0.2-1.5,0.7
	s-0.6,1.2-0.5,1.8c0,0.6,0.2,1.2,0.5,1.7c0.4,0.4,0.9,0.7,1.5,0.7C698.4,172.9,699,172.7,699.4,172.3L699.4,172.3z"/>
<path class="st3" d="M126.8,619.4l38.1,40.2c17.9,3.9,37.8,8.9,58.6,15.1l-53.8-65l1.1-0.2c-15.4,1.2-30.6,4.6-45.1,10.1
	L126.8,619.4z"/>
<path class="st3" d="M161.7,658.9L124.8,620c-14.8,5.9-27,14.2-35.5,24.7c-0.4,0.5-0.9,1.1-1.3,1.7
	C92.9,646.9,122,650.3,161.7,658.9z"/>
<path class="st3" d="M231.8,612h1.2c-20.2-3.2-40.6-4.1-61-2.5l54.8,66.2c19.5,5.9,37.9,12.4,55.3,19.4L231.8,612z"/>
<path class="st3" d="M112.3,750.3c10.5,10.1,22,19,34.3,26.8l122.6-85.4c-15.2-5.8-30-10.7-43.9-14.9l-112,74.1L112.3,750.3z"/>
<path class="st3" d="M161.2,785.7l-1.1-0.6l122.7-88c-3.7-1.5-7.4-3-11-4.4l-123.1,85.7l-1.1-0.6C152,780.5,156.5,783.1,161.2,785.7
	z"/>
<path class="st3" d="M273.7,621.5h1.2c-13.3-4-26.9-7.1-40.6-9.3l50.9,84.2c11.6,4.7,22.6,9.7,33.2,14.9L273.7,621.5z"/>
<path class="st3" d="M216.2,807.4c13,2.9,26.2,5,39.5,6.1l-1.1-0.7L374,746.3c-12.1-8.7-24.7-16.6-37.7-23.8L216.2,807.4z"/>
<path class="st3" d="M161.4,660.4c-43-9.3-73.3-12.4-73.7-12.5l-0.2-0.8c-12.3,16.6-14.1,36.2-7.1,56.4L161.4,660.4z"/>
<path class="st3" d="M222.6,676c-20.6-6.1-40.3-11-57.9-14.9l-82.9,44.1l-1-0.7c5.5,15.1,16,30.5,30.8,45.1L222.6,676z"/>
<path class="st3" d="M334.1,721.3L334.1,721.3c-15.8-8.6-32.1-16.4-48.8-23.3l-123,88.2c6.4,3.5,13,6.8,20,9.9
	c10,4.4,20.4,7.9,31,10.4L334.1,721.3z"/>
<path class="st10" d="M714,167.5c0.5,0.8,0.8,1.7,0.7,2.6v4.2h-1.9v-4.1c0-0.6-0.1-1.1-0.3-1.6c-0.5-0.6-1.5-0.7-2.1-0.1l-0.1,0.1
	c-0.3,0.4-0.4,0.9-0.4,1.4v4.2H708v-4c0.1-0.6-0.1-1.1-0.4-1.6c-0.3-0.3-0.7-0.5-1.1-0.5c-0.6,0-1.1,0.2-1.5,0.7v5.5h-1.9v-7.6h1.6
	l0.1,0.6c0.6-0.5,1.4-0.7,2.2-0.7c0.9,0,1.7,0.4,2.2,1.1c0.3-0.3,0.6-0.6,1-0.8s0.9-0.3,1.4-0.3C712.5,166.6,713.4,166.9,714,167.5z
	"/>
<path class="st10" d="M698.1,926.8c0,25.7-138.8,46.5-310,46.5s-310-20.8-310-46.5c0-18.2,69.6-33.9,171-41.6
	c41.8-3.2,89.1-4.9,139-4.9c20.5,0,40.6,0.3,60,0.9C590.6,885.4,698.1,904.2,698.1,926.8z"/>
<ellipse class="st3" cx="348.1" cy="921.8" rx="119" ry="14.5"/>
<ellipse class="st6" cx="347.6" cy="812.3" rx="112.5" ry="120"/>
<rect x="313.1" y="883.3" class="st5" width="70" height="64"/>
<linearGradient id="SVGID_1_" gradientUnits="userSpaceOnUse" x1="470.6" y1="911.9" x2="513.6" y2="911.9">
	<stop  offset="0.181" style="stop-color:#F2F2F2"/>
	<stop  offset="1" style="stop-color:#FFFFFF"/>
</linearGradient>
<polygon class="st11" points="474.6,898.9 470.6,920.9 496.6,924.9 513.6,914.9 512.6,898.9 "/>
<path class="st12" d="M343.6,485.8c0,0-2,23-7,24s11,41,11,41h24l19-5l-9-22c0,0-12-16-3-29S343.6,485.8,343.6,485.8z"/>
<path class="st3" d="M343.6,485.8c0,0-2,23-7,24s11,41,11,41h24l19-5l-9-22c0,0-12-16-3-29S343.6,485.8,343.6,485.8z"/>
<path class="st13" d="M293.6,661.8c0,0-26,50-5,60s26,9,26,12s-4,2-2,7s-4,25,2,37s4,21,4,21s0,1,2,5s3,7,2,9s-7,15-1,18s37,5,40,0
	s-3-8,0-11s5-4,3-6s-4-27-4-27s5-29,3-33s-5-8-3-11s4-2,5-6s3-13,3-13l11-1l26,5c0,0,29,32,61,42c0,0,9,9,12,9s3,0,2,2s-4,2-2,4
	s5-1,3,2s-4,3-2,5s-1,13-1,14s-9,95-6,97s45,8,48,0s-2-18-2-18s15-120,11-128s-18-44-93-67c0,0-21-4-21-7s-2-22-6-23s-27-2-27-2
	l-29,9l-40-7L293.6,661.8z"/>
<path class="st13" d="M328.6,829.8l-5,18c0,0-4,29,1,36c3.9,5.5,10.9,12.2,23.9,13.4c7.5,0.7,14.5-3.9,16.8-11.1
	c0.1-0.4,0.2-0.9,0.3-1.3c0-2-3-26-3-26l-5-25l-1-7L328.6,829.8z"/>
<path class="st13" d="M474.6,915.8c0,0-5-5-6,0s-5,26,2,27s74,11,81,7s20-10,12-13s-31-12-31-12s-13-17-15-18s-13,1-18,5
	S474.6,915.8,474.6,915.8z"/>
<circle class="st12" cx="367.6" cy="475.8" r="31"/>
<linearGradient id="SVGID_2_" gradientUnits="userSpaceOnUse" x1="287.2663" y1="588.7964" x2="414.6434" y2="588.7964">
	<stop  offset="0.181" style="stop-color:#F2F2F2"/>
	<stop  offset="1" style="stop-color:#FFFFFF"/>
</linearGradient>
<path class="st14" d="M364.6,545.8l-12-13l-13.3-26c0,0-9.7-3-11.7,2s-38,21-38,21s9,84,5,92s-11,40-5,43s34,0,43,4s35,4,42-1
	s9-9,16-6c6,2.6,19.9-84.8,23.9-110.8c0.7-4.5-1.2-8.9-4.9-11.5c-9-6.3-25.1-17.1-28-15.7C377.6,525.8,364.6,545.8,364.6,545.8z"/>
<linearGradient id="SVGID_3_" gradientUnits="userSpaceOnUse" x1="392.0809" y1="595.3237" x2="424.6" y2="595.3237">
	<stop  offset="0.181" style="stop-color:#F2F2F2"/>
	<stop  offset="1" style="stop-color:#FFFFFF"/>
</linearGradient>
<path class="st15" d="M407.6,541.8L407.6,541.8c4.8,1.2,8.4,5.3,8.9,10.2l8.1,72.8c0,0-20,43-30,14S407.6,541.8,407.6,541.8z"/>
<linearGradient id="SVGID_4_" gradientUnits="userSpaceOnUse" x1="389.5297" y1="646.8865" x2="436.1713" y2="646.8865">
	<stop  offset="0.181" style="stop-color:#F2F2F2"/>
	<stop  offset="1" style="stop-color:#FFFFFF"/>
</linearGradient>
<path class="st16" d="M405.6,631.8l22-6c0,0,4,28,8,28s-14,16-23,14s-22-9-23-14s9-26,9-26L405.6,631.8z"/>
<path class="st13" d="M344.2,489.2c2.1-4.6,1.7-10.1,3.5-14.9c3.3-9.2,13.4-13.9,22.6-10.6h0.1c1.5,0.5,2.9,1.3,4.2,2.2
	c2.2,1.6,4.5,3.8,7.2,3.5c2.9-0.3,5.6-3.6,8.3-2.4c3,1.3,2.2,6.7,5.2,8c1.6,0.7,3.5-0.4,4.4-1.8c0.8-1.6,1.2-3.3,1.3-5
	c0.4-4.3,0.8-8.8-1.1-12.6c-0.8-1.3-1.5-2.7-2-4.1c-0.3-1.3-0.5-2.7-0.4-4c0-5-0.4-10.2-2.9-14.6c-2.8-4.8-8-7.9-13.4-9.2
	s-11.1-1.1-16.6-0.7c-9.2,0.8-18.7,2.4-25.9,8.1c-1,0.7-1.8,1.6-2.5,2.6c-0.6,1.2-1.1,2.5-1.3,3.8c-1.6,6.4-3.9,12.5-7,18.3
	c-1.5,2.5-2.7,5.1-3.6,7.8c-0.9,2.8-0.6,5.8,0.9,8.3c1.3,1.9,3.4,3,5,4.5s2.4,4.6,4.2,5.7c1.6,1,3.5,0.3,5.1,1.4
	C341.6,485,341.8,488.1,344.2,489.2z"/>
<path class="st17" d="M369.6,560.8l3-6c0,0,44,13,53,25c0,0,22-14,34-12l12,2l-37,33l-47-4L369.6,560.8z"/>
<path class="st18" d="M367.6,554.8l-41,57l59,29c0,0,5.5,3,9.8,0l39.2-18l37-53l-37,19c0,0-4-8-12-4L367.6,554.8z"/>
<path class="st12" d="M430.6,655.8l8-21c0,0,18-23,8-34s-21,32-21,32L430.6,655.8z"/>
<path class="st12" d="M338.3,652.5l17.5-14.2c0,0,27.1-10.9,24-25.4S345.6,630,345.6,630L338.3,652.5z"/>
<path class="st3" d="M295.1,551.3h-1c0,0-15.5-18.5-18.5,6.5s-13,108,13,111s44.5-12.5,44.5-12.5s19-29,12-29c-3.4,0-12.6-1.5-21-1
	c-9,0.6-17,3.1-16.5,0.5C308.6,621.8,323.1,558.3,295.1,551.3z"/>
<linearGradient id="SVGID_5_" gradientUnits="userSpaceOnUse" x1="266.1951" y1="599.6737" x2="347.7111" y2="599.6737">
	<stop  offset="0.181" style="stop-color:#F2F2F2"/>
	<stop  offset="1" style="stop-color:#FFFFFF"/>
</linearGradient>
<path class="st19" d="M293.6,531.8l-4-2c0,0-16,3-19,28s-13,108,13,111s61-4,61-4s7-38,0-38s-43,5-42,0S321.6,538.8,293.6,531.8z"/>
<linearGradient id="SVGID_6_" gradientUnits="userSpaceOnUse" x1="416.07" y1="645.4" x2="434.07" y2="645.4">
	<stop  offset="0.181" style="stop-color:#F2F2F2"/>
	<stop  offset="1" style="stop-color:#FFFFFF"/>
</linearGradient>
<polygon class="st20" points="416.1,644.4 427.1,627.4 434.1,655.4 416.1,663.4 "/>
</svg>
