<?xml version="1.0" encoding="utf-8"?>
<!-- Generator: Adobe Illustrator 23.0.3, SVG Export Plug-In . SVG Version: 6.00 Build 0)  -->
<svg version="1.1" id="Layer_1" xmlns="http://www.w3.org/2000/svg" xmlns:xlink="http://www.w3.org/1999/xlink" x="0px" y="0px"
	 viewBox="0 0 1000 1000" style="enable-background:new 0 0 1000 1000;" xml:space="preserve">
<style type="text/css">
	.st0{fill:#0B7BCE;}
	.st1{opacity:0.1;fill:#159EE9;enable-background:new    ;}
	.st2{opacity:0.1;fill:#0B7BCE;enable-background:new    ;}
	.st3{fill:#3DB366;}
	.st4{opacity:0.1;}
	.st5{fill:#010101;}
	.st6{fill:#333333;}
	.st7{opacity:0.1;fill:#010101;enable-background:new    ;}
	.st8{fill:none;stroke:#545562;stroke-miterlimit:10;}
	.st9{opacity:0.2;fill:#F5F6F6;enable-background:new    ;}
	.st10{fill:#A9A8A8;}
	.st11{opacity:0.2;fill:#010101;enable-background:new    ;}
	.st12{fill:#4E4A82;}
	.st13{fill:url(#SVGID_1_);}
	.st14{fill:#F9BCC6;}
	.st15{fill:#D50F25;}
	.st16{opacity:0.1;fill:#333333;enable-background:new    ;}
	.st17{fill:#FFCAC0;}
	.st18{fill:#F3F1F2;}
</style>
<ellipse class="st0" cx="513.7" cy="912.4" rx="305.7" ry="38.4"/>
<g>
	<path class="st1" d="M994.2,609.5c0.1-66.8-24.1-129.4-64.9-168c0.6-7.1,0.8-14.2,0.9-21.4c0-113-67.7-204.6-151.2-204.6
		c-25.7,0-51,8.8-73.4,25.7C646.5,189.4,569.3,158,484.9,158c-137.3,0-255.5,83.1-307.9,202.4c-2.9-0.2-5.8-0.4-8.8-0.4
		C84.7,360,17,451.6,17,564.6c-0.1,39.9,8.6,79,24.9,112.5l0,0c0,101.7,71.9,184.1,160.6,184.1h643.3c69.6,0,126.1-64.7,126.1-144.5
		l0,0C986.6,684.3,994.3,647.3,994.2,609.5z"/>
	<path class="st2" d="M604.5,655.6c18.9-1.4,42.3-18.5,60.5-26.1c21.6-8.9,43.2-17.5,64.9-25.7c75.6-28.7,152.1-53.2,229.3-73.4
		c7.2-1.9,14.4-3.7,21.7-5.5c-11.3-32.5-28.7-60.4-50.6-81.1c0.6-7.1,0.8-14.3,0.9-21.4c0-113-67.7-204.6-151.2-204.6
		c-25.7,0-51,8.8-73.4,25.7c-59.1-51.9-136.3-83.3-220.7-83.3C366,160.1,260.7,223.5,201,319l280.4,63.2l172,38.8
		c-196.1,7.8-392.7,15.6-588.2-2.8C12,486.9,2.6,596.3,42.9,679.2l0,0c0,4.1,0.1,8.1,0.4,12.2c5,1.9,9.8,3.7,14.1,5
		c69.3,19.5,138.9,35.9,209.1,49c-51.7,42.5-114.6,48.5-174.3,66.5c28.9,31.8,68.1,51.3,111.3,51.3h643.3
		c69.7,0,126.1-64.7,126.1-144.5l0,0c10.5-23,17.4-48.5,20.5-75.1C864.5,660.1,734,645.7,604.5,655.6z"/>
</g>
<g>
	<circle class="st3" cx="627.8" cy="609.1" r="102.2"/>
	<circle class="st3" cx="519.1" cy="581.2" r="102.2"/>
	<circle class="st3" cx="399.4" cy="582.2" r="102.2"/>
	<circle class="st3" cx="360.5" cy="609.1" r="102.2"/>
	<circle class="st3" cx="294.7" cy="618.1" r="102.2"/>
	<circle class="st3" cx="267.8" cy="537.3" r="102.2"/>
	<circle class="st3" cx="297.7" cy="443.5" r="102.2"/>
	<circle class="st3" cx="354.5" cy="443.5" r="102.2"/>
	<circle class="st3" cx="387.4" cy="401.7" r="102.2"/>
	<circle class="st3" cx="471.2" cy="447.5" r="102.2"/>
	<circle class="st3" cx="666.7" cy="537.3" r="102.2"/>
	<circle class="st3" cx="607.9" cy="486.4" r="102.2"/>
	<circle class="st3" cx="570" cy="435.6" r="102.2"/>
	<circle class="st3" cx="498.2" cy="358.8" r="102.2"/>
	<circle class="st3" cx="631.8" cy="443.5" r="102.2"/>
	<g class="st4">
		<circle class="st5" cx="627.8" cy="609.1" r="102.2"/>
		<circle class="st5" cx="519.1" cy="581.2" r="102.2"/>
		<circle class="st5" cx="399.4" cy="582.2" r="102.2"/>
		<circle class="st5" cx="360.5" cy="609.1" r="102.2"/>
		<circle class="st5" cx="294.7" cy="618.1" r="102.2"/>
		<circle class="st5" cx="267.8" cy="537.3" r="102.2"/>
		<circle class="st5" cx="297.7" cy="443.5" r="102.2"/>
		<circle class="st5" cx="354.5" cy="443.5" r="102.2"/>
		<circle class="st5" cx="387.4" cy="401.7" r="102.2"/>
		<circle class="st5" cx="471.2" cy="447.5" r="102.2"/>
		<circle class="st5" cx="666.7" cy="537.3" r="102.2"/>
		<circle class="st5" cx="607.9" cy="486.4" r="102.2"/>
		<circle class="st5" cx="570" cy="435.6" r="102.2"/>
		<circle class="st5" cx="498.2" cy="358.8" r="102.2"/>
		<circle class="st5" cx="631.8" cy="443.5" r="102.2"/>
	</g>
	<path class="st6" d="M544.4,752.6l33.5-103.3l30.9,11.6c31,74.8-31.5,127.3-31.5,127.3L544.4,752.6z"/>
	<path class="st7" d="M547.1,749.1l32.9,35.6c0,0,1.5-1.2,3.9-3.6L555.1,750l32.9-101.4l-7.4-2.8L547.1,749.1z"/>
	<path class="st3" d="M707.5,817.3c23.2,35.5,2.5,83.2-39.3,90.6l-1,0.2c0,0,31.1-50.2,19.7-80.3s8.9-50.5,8.9-50.5
		C691.7,788.7,698.8,804.1,707.5,817.3z"/>
	<path class="st8" d="M667.2,908.1c30.5-8.2,40-65.2,28.5-85.6c-11.5-20.3,0-45.2,0-45.2"/>
	<path class="st3" d="M726.3,884.9c5.1,30.6-28.5,38.9-63.6,15.9l-0.8-0.5c0,0,42.5-2.9,44.6-23.7s25.3-17.1,25.3-17.1
		C724.6,862.1,724.5,873.5,726.3,884.9z"/>
	<path class="st9" d="M726.3,884.9c5.1,30.6-28.5,38.9-63.6,15.9l-0.8-0.5c0,0,42.5-2.9,44.6-23.7s25.3-17.1,25.3-17.1
		C724.6,862.1,724.5,873.5,726.3,884.9z"/>
	<path class="st8" d="M661.9,900.2c26.7,15.6,54.9-4.1,53.4-20.4c-1.5-16.3,16.5-20.3,16.5-20.3"/>
	<path class="st6" d="M403.9,680.5c74.7-19.5,66.6-97.5,66.6-97.5l61.7,8.1c0,0,3.2,58.5,0,94.2c-1.4,15,13.3,38.9,30.8,61.5
		c24,31.1,46.1,63.7,64.6,98.3c3.2,5.9,7.1,10.3,11.8,10.7c16.2,1.6,37.4,19.5,37.4,19.5l30.9,37.4l-297.4,6.5l29-19.3
		c9.8-6.5,21-10.8,32.7-12.4l0,0c11.6-1.6,20.7-10.7,22.2-22.2c9.5-74.7-49.1-146.7-61-155.7c-7-5.2-12.1-4.4-15.3-2.5
		c-5.8,3.6-12.3,5.9-19.1,6.9c-38.2,4.7-95.6-2.8-95.6-2.8l-8.1-32.5C295.1,678.9,329.2,700,403.9,680.5z"/>
	<path class="st3" d="M532.9,915.7c2.5-2.5,4.3-5.9,5.2-9.8c0.7-3.9-0.6-8.4-3.6-9.9c-3.3-1.6-6.9,1.3-9.6,4.2
		c-2.7,2.9-5.8,6.2-9.3,5.6c3.7-4.2,5.3-10.5,4.4-16.6c-0.2-1.2-0.6-2.4-1.2-3.4c-1.9-2.5-5.2-1.4-7.4,0.5c-7,6.2-9,18.1-9,28.8
		c-0.7-3.9-0.1-7.9-0.1-11.8s-0.9-8.4-3.6-10.5c-1.7-1.1-3.5-1.7-5.4-1.6c-3.1-0.2-6.7,0.3-8.8,3.1c-2.7,3.6-2,9.6,0.3,13.5
		c2.3,3.9,5.9,6.4,9.1,9.2c2.6,1.9,4.8,4.6,6.5,7.8c0.2,0.4,0.4,0.9,0.5,1.4h19.8C525.1,923.5,529.2,919.9,532.9,915.7z"/>
	<g class="st4">
		<path class="st5" d="M350.9,715.3c-25.8-1.1-47.7-3.9-47.7-3.9l-8.1-32.5c0,0,34.1,21.1,108.9,1.6s66.6-97.5,66.6-97.5l61.7,8.1
			c0,0,0.2,3,0.4,8l-11.8-1.5c0,0,8.2,78.1-66.6,97.5s-108.9-1.7-108.9-1.7L350.9,715.3z"/>
		<path class="st5" d="M485.2,917.7l-74.8,1.6l29-19.3c9.8-6.5,21-10.8,32.7-12.4l0,0c11.5-1.5,20.6-10.6,22.2-22.2
			c7-55.2-23.1-108.9-44.1-136.9c4.7-0.6,9.4-1.5,14-2.7c0,0,6.5-11.4,19.5-1.6c11.9,9,70.5,81.1,61,155.8
			c-1.5,11.5-10.6,20.6-22.2,22.2l0,0c-11.7,1.6-22.9,5.8-32.7,12.4L485.2,917.7z"/>
	</g>
	<path class="st10" d="M537.9,937.7c11.5,4.6,64.3,2.3,103.3-4.6s-18.4-45.9-23-57.4c-4.6-11.5-45.9,4.6-55.1,13.8
		s-43.6,16.1-43.6,16.1S526.4,933.2,537.9,937.7z"/>
	<path class="st11" d="M654.4,920.6c1.2,5.9-2,10.6-13.3,12.6c-39,6.9-91.8,9.2-103.3,4.6s-18.4-32.1-18.4-32.1l1.2-0.2
		c2.4,7.8,8.5,24.6,17.2,28.1c11.5,4.6,64.3,2.3,103.3-4.6C649.5,927.4,653.5,924.4,654.4,920.6z"/>
	<path class="st3" d="M748.8,698.5c-2.1,0-3.7,5.2-3.7,11.5c0.1,4.1,1.5,8.1,3.8,11.5c2.3-3.4,3.6-7.4,3.7-11.5
		C752.5,703.6,750.8,698.4,748.8,698.5z"/>
	<path class="st3" d="M466.5,692.9c-2.1,0-3.7,5.2-3.7,11.5c0.1,4.1,1.4,8.1,3.7,11.5c2.3-3.4,3.6-7.4,3.7-11.5
		C470.2,698,468.6,692.9,466.5,692.9z"/>
	<path class="st3" d="M768.1,810.6c-1.7,1.2,0,6.4,3.7,11.5c2.5,3.2,5.9,5.7,9.8,7.1c-0.1-4.1-1.4-8.1-3.7-11.5
		C774.2,812.6,769.7,809.4,768.1,810.6z"/>
	<path class="st3" d="M584.8,707.8c-2.1,0-3.7,5.2-3.7,11.5c0.1,4.1,1.4,8.1,3.7,11.5c2.3-3.4,3.6-7.4,3.7-11.5
		C588.6,712.9,586.9,707.8,584.8,707.8z"/>
	<path class="st3" d="M536.2,734.4c-1.8,1-0.7,6.3,2.5,11.8c2.2,3.5,5.3,6.3,9,8.1c0.3-4.1-0.5-8.2-2.5-11.8
		C542,737.1,538,733.4,536.2,734.4z"/>
	<path class="st3" d="M518.6,837.6c-1.4-1.5-6.3,0.8-10.9,5.1c-2.9,2.9-4.9,6.6-5.8,10.6c4.1-0.6,7.9-2.4,10.9-5.1
		C517.4,843.9,520.1,839.1,518.6,837.6z"/>
	<path class="st7" d="M518.6,837.6c-1.4-1.5-6.3,0.8-10.9,5.1c-2.9,2.9-4.9,6.6-5.8,10.6c4.1-0.6,7.9-2.4,10.9-5.1
		C517.4,843.9,520.1,839.1,518.6,837.6z"/>
	<path class="st3" d="M586.6,831.1c-1.4-1.5-6.3,0.8-11,5.1c-2.9,2.9-4.9,6.6-5.8,10.6c4.1-0.6,7.9-2.4,11-5.1
		C585.5,837.3,588.1,832.6,586.6,831.1z"/>
	<path class="st7" d="M586.6,831.1c-1.4-1.5-6.3,0.8-11,5.1c-2.9,2.9-4.9,6.6-5.8,10.6c4.1-0.6,7.9-2.4,11-5.1
		C585.5,837.3,588.1,832.6,586.6,831.1z"/>
	<path class="st3" d="M599.7,900c-1.4-1.5-6.3,0.8-11,5.1c-2.9,2.9-5,6.6-5.9,10.6c4.1-0.6,7.9-2.4,11-5.1
		C598.5,906.3,601.1,901.5,599.7,900z"/>
	<path class="st7" d="M599.7,900c-1.4-1.5-6.3,0.8-11,5.1c-2.9,2.9-5,6.6-5.9,10.6c4.1-0.6,7.9-2.4,11-5.1
		C598.5,906.3,601.1,901.5,599.7,900z"/>
	<path class="st3" d="M387,745.1c-1.5-1.5-5.5,0-9,3.3s-3.8,8.7-3.8,8.7s5.5,0,9-3.3C386.7,750.5,388.4,746.6,387,745.1z"/>
	<path class="st7" d="M387,745.1c-1.5-1.5-5.5,0-9,3.3s-3.8,8.7-3.8,8.7s5.5,0,9-3.3C386.7,750.5,388.4,746.6,387,745.1z"/>
	<path class="st7" d="M587.4,759l1.2,15.5l-2.2,0.2c-4-6.1-1.9-15.9-1.9-15.9L587.4,759z"/>
	<path class="st7" d="M637.8,823.6l5,9.5l3.5-4c-2.4-0.5-6.9-9.7-6.9-9.7L637.8,823.6z"/>
	<path class="st12" d="M637.6,823.8l5,9.5l3.5-4c-2.4-0.5-6.9-9.7-6.9-9.7L637.6,823.8z"/>
	<path class="st7" d="M607.9,763.1c0,2.6-3.2,3.7-3.2,3.7"/>
	<path class="st10" d="M705.6,921.6c5.7,2.3,31.9,1.1,51.3-2.3c19.4-3.4-9.1-22.6-11.4-28.3c-2.3-5.7-22.8,2.3-27.4,6.8
		c-4.6,4.5-21.7,7.9-21.7,7.9S699.9,919.3,705.6,921.6z"/>
	<path class="st11" d="M763.6,913.1c0.6,2.9-1,5.2-6.6,6.2c-19.4,3.4-45.6,4.5-51.3,2.3c-5.7-2.3-9.1-15.9-9.1-15.9l0.6-0.1
		c1.2,3.9,4.2,12.1,8.6,13.9c5.7,2.3,31.9,1.1,51.3-2.3C761.1,916.5,763.1,915,763.6,913.1z"/>
	<circle class="st3" cx="627.8" cy="586.2" r="102.2"/>
	<circle class="st3" cx="519.1" cy="558.2" r="102.2"/>
	<circle class="st3" cx="399.4" cy="559.2" r="102.2"/>
	<circle class="st3" cx="360.5" cy="586.2" r="102.2"/>
	<circle class="st3" cx="294.7" cy="595.2" r="102.2"/>
	<circle class="st3" cx="267.8" cy="514.4" r="102.2"/>
	<circle class="st3" cx="297.7" cy="420.6" r="102.2"/>
	<circle class="st3" cx="354.5" cy="420.6" r="102.2"/>
	<circle class="st3" cx="387.4" cy="378.7" r="102.2"/>
	<circle class="st3" cx="471.2" cy="424.6" r="102.2"/>
	<circle class="st3" cx="666.7" cy="514.4" r="102.2"/>
	<circle class="st3" cx="607.9" cy="463.5" r="102.2"/>
	<circle class="st3" cx="570" cy="412.6" r="102.2"/>
	<circle class="st3" cx="498.2" cy="335.8" r="102.2"/>
	<circle class="st3" cx="631.8" cy="420.6" r="102.2"/>
	<path class="st7" d="M576.8,471.5c57.6-80,152.8-34.9,152.8-34.9"/>
	<path class="st7" d="M353.5,438.4c20.7-96.4,126-93.2,126-93.2"/>
	<path class="st7" d="M195.8,589.1c57.6-80,152.8-34.8,152.8-34.8"/>
</g>
<g>
	
		<linearGradient id="SVGID_1_" gradientUnits="userSpaceOnUse" x1="6.9261" y1="98.6533" x2="6.9261" y2="98.8449" gradientTransform="matrix(1 0 0 -1 326.8642 882.76)">
		<stop  offset="0" style="stop-color:#818181;stop-opacity:0.25"/>
		<stop  offset="0.54" style="stop-color:#818181;stop-opacity:0.12"/>
		<stop  offset="1" style="stop-color:#818181;stop-opacity:0.1"/>
	</linearGradient>
	<path class="st13" d="M333.4,783.9c0.2,0.2,0.5,0.2,0.8,0.1C333.9,784,333.7,784,333.4,783.9z"/>
	<path class="st14" d="M363.4,795.6l-0.8,4.3l-0.6,3.3l-1.1,6l-10.6,7.4c0,0-1-0.8-2.5-2.1c-4.4-3.6-13.5-10.9-20.3-14.8
		c-1.7-1.1-3.6-2-5.6-2.6L363.4,795.6z"/>
	<path class="st7" d="M363.4,795.6l-0.8,4.3c-2.3,0.1-4.7,0-7-0.4l-24.8,0.4c-1.2-0.1-2.3-0.2-3.3-0.3c-1.7-1.1-3.6-2-5.6-2.6
		L363.4,795.6z"/>
	<path class="st15" d="M355.5,798.8c0,0,12.4,2.1,13.1-3.2c0.7-5.3-6.4-8.1-12.4-8.5c-6-0.4-42.2,2.1-42.2,2.1s-6.4,8.5,16.7,9.9
		L355.5,798.8z"/>
	<path class="st7" d="M363.4,795.6l-0.8,4.3l-0.6,3.3l-1.1,6l-10.6,7.4c0,0-1-0.8-2.5-2.1c-4.4-3.6-13.5-10.9-20.3-14.8
		c-1.7-1.1-3.6-2-5.6-2.6L363.4,795.6z"/>
	<path class="st7" d="M363.4,795.6l-0.8,4.3c-2.3,0.1-4.7,0-7-0.4l-24.8,0.4c-1.2-0.1-2.3-0.2-3.3-0.3c-1.7-1.1-3.6-2-5.6-2.6
		L363.4,795.6z"/>
	<path class="st7" d="M355.5,798.8c0,0,12.4,2.1,13.1-3.2c0.7-5.3-6.4-8.1-12.4-8.5c-6-0.4-42.2,2.1-42.2,2.1s-6.4,8.5,16.7,9.9
		L355.5,798.8z"/>
	<rect x="317.8" y="623.9" class="st6" width="64.9" height="77"/>
	<rect x="317.8" y="623.9" class="st16" width="64.9" height="77"/>
	<path class="st17" d="M241.6,755.7c-1.1,0.3-2.4,1.3-4,2.8c-6.6,6.5-15.9,21.7-15.9,21.7c-12-14.3,1.3-25.6,7-29.4
		c1.4-0.9,2.3-1.4,2.3-1.4L241.6,755.7z"/>
	<path class="st17" d="M362.7,648.2c0,0,3.2,22.4,14.2,27.7c11,5.3-14.2,15.3-14.2,15.3l-34.4-12.8c0,0,19.5-6.4,15.6-25.2
		L362.7,648.2z"/>
	<path class="st17" d="M325.8,782.7l-0.8,4.3l-0.6,3.3l-1.1,6l-10.6,7.4c0,0-1-0.8-2.5-2.1c-4.4-3.6-13.5-10.9-20.3-14.8
		c-1.7-1.1-3.6-2-5.6-2.6L325.8,782.7z"/>
	<path class="st7" d="M325.8,782.7l-0.8,4.3c-2.3,0.1-4.7,0-7-0.4l-24.8,0.4c-1.2-0.1-2.3-0.2-3.3-0.3c-1.7-1.1-3.6-2-5.6-2.6
		L325.8,782.7z"/>
	<path class="st15" d="M317.9,785.9c0,0,12.4,2.1,13.1-3.2c0.7-5.3-6.4-8.2-12.4-8.5c-6-0.3-42.2,2.1-42.2,2.1s-6.4,8.5,16.7,9.9
		L317.9,785.9z"/>
	<path class="st7" d="M324.4,790.2l-1.1,6l-10.6,7.4c0,0-1-0.8-2.5-2.1l14.1-11.5L324.4,790.2z"/>
	<path class="st6" d="M394.6,871.4c-0.5-0.2-1-0.5-1.5-0.8l-1.3-1.7l-17.1-21.8v0.4c-0.1,3.6-1.4,32.5-11,35.1
		c-10.3,2.8-22.7,3.5-28.4-15.6c-5.7-19.2-16-61-26.6-63.5l15.8-13c0,0,10.5,12.2,14.7,23.9c-0.2-0.7-7.4-34.5-1.4-40.4h51.8
		c0,0,8,22.8,13.5,34.1c4.3,8.8,10.7,29.5,14.8,43.5C422,865.6,407.7,877.8,394.6,871.4z"/>
	<path class="st7" d="M393.2,780.5c-8,4.7-43.1,2.8-54.6,2l-3.1-0.2c-0.3,0,0.1-0.2,0.1-0.2l0.3-3.2l8.5-21.6l45.6-26.4
		c-0.9,2.8-1.2,7-1.2,11.9C389,758.5,393.2,780.5,393.2,780.5z"/>
	<path class="st18" d="M393.2,779.5c-8,4.7-43.1,2.8-54.6,2l-3.1-0.2H335l0.6-0.1l2.8-0.7l6-24.1l45.6-26.4c-0.9,2.8-1.2,7-1.2,11.9
		C389,757.4,393.2,779.5,393.2,779.5z"/>
	<path class="st7" d="M388.8,741.7c-9.3,2.1-29.7,8.4-37.5,23.5c-5.2,10.1-9.6,14.4-12.7,16.2l-3.1-0.2l0.1-0.2l2.8-0.7l6-24.1
		l45.6-26.4C389,732.6,388.7,736.8,388.8,741.7z"/>
	<path class="st7" d="M231,749.3l10.6,6.4c-1.1,0.3-2.4,1.3-4,2.8c-0.9-2.6-6.5-6.2-9-7.7C230.1,749.8,231,749.3,231,749.3z"/>
	<path class="st7" d="M333.6,781.7c-0.2,0.1-0.5,0.1-0.7-0.1C333.1,781.7,333.4,781.7,333.6,781.7z"/>
	<path class="st0" d="M357.7,674.4c0,0-9.6,1.1-16.3-6c0,0-28.4,8.2-38,26.6c-9.6,18.5-74.9,54.6-74.9,54.6s11.3,6.4,10.3,9.6
		l42.9-24.8c0,0,15.3-11,19.5-13.5c4.3-2.5,27.7-17.7,32.6,23.8c5,41.5,0,36.6,0,36.6s7.1,2.5,17.4-17.4s42.2-24.5,42.2-24.5
		l1.7-20.9c0,0,6.3-13.9,1.5-19.7c-1.5-1.7-2.5-3.8-2.8-6c-0.8-5.3,0-14.2,11.3-21.5c17.4-11.3,24.1-20.6,24.1-20.6
		s0.4-6.7-10.3-9.9c-10.6-3.2-53.9-20.6-53.9-20.6l-1.4,6l34.1,24.1c0,0-17,13.8-30.5,13.5C367.3,663.8,369.7,674.1,357.7,674.4z"/>
	<path class="st7" d="M364.3,657.9c-0.8-2.9-1.5-5.8-2-8.7l-18.8,5c0.8,3.6,0.7,7.3-0.4,10.8C350.9,667.1,359.3,664.3,364.3,657.9
		L364.3,657.9z"/>
	<circle class="st17" cx="348.6" cy="644.4" r="20.2"/>
	<path class="st7" d="M359.4,598.4c5.6,0.6,11,3,16.5,4.4c1.4,0.4,2.9,0.5,4.3,0.2c2.1-0.7,3.9-2.9,6.1-2.8c1.4,0,2.6,1,3.7,1.9
		c1.8,1.4,3.5,2.9,5.1,4.5c3.8,4.1,6.2,9.7,9.7,14.2c3.5,4.5,9,8,13.9,5.9c-3.4,13.1-14.4,23.1-26.3,23.9c-4.7,0.3-9.6-0.7-14.2,0.7
		c-1.1,0.5-2.4,0.8-3.6,0.9c-2.6,0-4.8-2.4-6.4-4.8c-3.9-5.6-7-11.9-11.3-16.9c-1.4-1.7-3.1-3.3-5.2-3.6c-2-0.3-3.9,0.7-5.7,1.6
		c-3,1.6-6,3.2-8.4,5.8c-2.3,2.6-3.8,6.6-2.8,10.2c0.5,1.9,1.7,3.7,1.7,5.7c0,3.2-2.8,5.6-3.4,8.7c-0.1,1.3-0.2,2.6-0.1,4
		c-0.3,4.3-3.1,7.8-6,10.5c-1.1,1.1-2.4,2.2-2.7,3.8c-0.2,1.1,0,2.3-0.1,3.4c-0.4,2.8-3.2,4.2-5.7,4.6c-2.9,0.4-5.8,0.1-8.5-1
		c3.5-1.6,5.6-6.3,4.8-10.5c-1.1-5.8-6.9-9.9-6.4-15.8c0.3-1.8,0.8-3.5,1.6-5.2c1.3-3.2,2.2-6.5,2.7-9.8c0.6-2.6,0.5-5.3-0.2-7.8
		c-0.7-2.3-2.2-4.1-3.5-6c-1.7-2.6-3.1-5.4-4.1-8.4c-0.4-0.9-0.5-1.8-0.4-2.8c0.3-1.1,0.9-2.1,1.7-2.9c3.2-3.3,6.6-6.8,10.8-7.7
		c2-0.3,4.1-0.4,6.1-0.2c3.6,0.1,7.1,0,10.6-0.5c2.9-0.3,7.8-0.3,10.3-2.2c2.3-1.7,3.6-4,6.4-5.1C353.2,598.3,356.3,598,359.4,598.4
		z"/>
	<path class="st7" d="M370.6,807.3c0,0,11.7,23.1,8.2,30.2"/>
	<path class="st7" d="M391.9,869l-17.1-21.8v0.4c0,0-1-7,2.3-4.7c7.2,5.2,18.6,13.7,18.8,15.1C396.1,859.5,393.5,865.4,391.9,869z"
		/>
	<g class="st4">
		<path class="st5" d="M367.6,663.8c0,0,1.4,6-3.2,9c7.2-1.2,7.5-6.8,7.3-9.3C370.3,663.7,369,663.8,367.6,663.8z"/>
		<path class="st5" d="M232.8,748.2c0,0,65.3-36.2,74.9-54.6c6.9-13.2,23.4-21.2,32.2-24.6c-6.4,2.2-28,10.4-36.1,26
			c-9.6,18.5-74.9,54.6-74.9,54.6L232.8,748.2z"/>
		<path class="st5" d="M380.3,661c11.1-3.5,21.7-12.1,21.7-12.1L368,624.7l0.8-3.3l-3.3-1.3l-1.4,6l34.1,24.1
			C392.7,654.6,386.7,658.2,380.3,661z"/>
		<path class="st5" d="M380.5,742.7c4.4-1.5,8.8-2.6,13.4-3.4l0.1-0.7C389.4,739.7,384.9,741,380.5,742.7z"/>
		<path class="st5" d="M339.2,779.9h-0.3c-0.2,0.1-0.5,0.1-0.7-0.1c0.2,0.1,0.5,0.1,0.7,0.1c1.2-0.7,2.9-6-0.7-36.6
			c-3.9-32.7-19.3-30.2-27.7-26.4c8.6-2.4,20.5-0.3,23.8,27.8c3.7,30.7,1.9,36,0.7,36.6C336.5,781.3,338,780.8,339.2,779.9z"/>
		<path class="st5" d="M335,781.3c-0.3,0-0.5,0-0.7-0.1C334.5,781.4,334.8,781.5,335,781.3z"/>
	</g>
	<path class="st6" d="M359.4,597.7c5.6,0.6,11,3,16.5,4.4c1.4,0.4,2.9,0.5,4.3,0.2c2.1-0.7,3.9-2.9,6.1-2.8c1.4,0,2.6,1,3.7,1.9
		c1.8,1.4,3.5,2.9,5.1,4.5c3.8,4.1,6.2,9.7,9.7,14.2c3.5,4.5,9,8,13.9,5.9c-3.4,13.1-14.4,23.1-26.3,23.9c-4.7,0.3-9.6-0.7-14.2,0.7
		c-1.1,0.5-2.4,0.8-3.6,0.9c-2.6,0-4.8-2.4-6.4-4.8c-3.9-5.6-7-11.9-11.3-16.9c-1.4-1.7-3.1-3.3-5.2-3.6c-2-0.3-3.9,0.7-5.7,1.6
		c-3,1.6-6,3.2-8.4,5.8c-2.3,2.6-3.8,6.6-2.8,10.2c0.5,1.9,1.7,3.7,1.7,5.7c0,3.2-2.8,5.6-3.4,8.7c-0.1,1.3-0.2,2.6-0.1,4
		c-0.3,4.3-3.1,7.8-6,10.5c-1.1,1.1-2.4,2.2-2.7,3.8c-0.2,1.1,0,2.3-0.1,3.4c-0.4,2.8-3.2,4.2-5.7,4.6c-2.9,0.4-5.8,0.1-8.5-1
		c3.5-1.6,5.6-6.3,4.8-10.5c-1.1-5.8-6.9-9.9-6.4-15.8c0.3-1.8,0.8-3.5,1.6-5.2c1.3-3.2,2.2-6.5,2.7-9.8c0.6-2.6,0.5-5.3-0.2-7.8
		c-0.7-2.3-2.2-4.1-3.5-6c-1.7-2.6-3.1-5.4-4.1-8.4c-0.4-0.9-0.5-1.8-0.4-2.8c0.3-1.1,0.9-2.1,1.7-2.9c3.2-3.3,6.6-6.8,10.8-7.7
		c2-0.3,4.1-0.4,6.1-0.2c3.6,0.1,7.1,0,10.6-0.5c2.9-0.3,7.8-0.3,10.3-2.2c2.3-1.7,3.6-4,6.4-5.1
		C353.2,597.7,356.3,597.3,359.4,597.7z"/>
</g>
<ellipse class="st0" cx="239.5" cy="954.2" rx="100.4" ry="27.9"/>
</svg>
