<?xml version="1.0" encoding="utf-8"?>
<!-- Generator: Adobe Illustrator 23.0.3, SVG Export Plug-In . SVG Version: 6.00 Build 0)  -->
<svg version="1.1" id="Layer_1" xmlns="http://www.w3.org/2000/svg" xmlns:xlink="http://www.w3.org/1999/xlink" x="0px" y="0px"
	 viewBox="0 0 496 512" style="enable-background:new 0 0 496 512;" xml:space="preserve">
<g>
	<path d="M248,8C111,8,0,119,0,256s111,248,248,248s248-111,248-248S385,8,248,8z M248,456c-110.3,0-200-89.7-200-200
		S137.7,56,248,56s200,89.7,200,200S358.3,456,248,456z"/>
</g>
<circle cx="248" cy="346" r="42"/>
<path d="M208.6,134.6l6.8,136c0.3,6.4,5.6,11.4,12,11.4h41.2c6.4,0,11.7-5,12-11.4l6.8-136c0.3-6.9-5.1-12.6-12-12.6h-54.8
	C213.8,122,208.3,127.7,208.6,134.6z"/>
</svg>
