<?xml version="1.0" encoding="utf-8"?>
<!-- Generator: Adobe Illustrator 23.0.3, SVG Export Plug-In . SVG Version: 6.00 Build 0)  -->
<svg version="1.1" id="Layer_1" xmlns="http://www.w3.org/2000/svg" xmlns:xlink="http://www.w3.org/1999/xlink" x="0px" y="0px"
	 viewBox="0 0 496 512" style="enable-background:new 0 0 496 512;" xml:space="preserve">
<path d="M200.3,248c12.4-18.7,15.1-37.3,15.7-56c-0.5-18.7-3.3-37.3-15.7-56c-8-12-25.1-11.4-32.7,0c-12.4,18.7-15.1,37.3-15.7,56
	c0.5,18.7,3.3,37.3,15.7,56C175.7,260,192.8,259.4,200.3,248z M328.3,248c12.4-18.7,15.1-37.3,15.7-56c-0.5-18.7-3.3-37.3-15.7-56
	c-8-12-25.1-11.4-32.7,0c-12.4,18.7-15.1,37.3-15.7,56c0.5,18.7,3.3,37.3,15.7,56C303.7,260,320.8,259.4,328.3,248z M248,8
	C111,8,0,119,0,256s111,248,248,248s248-111,248-248S385,8,248,8z M248,456c-110.3,0-200-89.7-200-200S137.7,56,248,56
	s200,89.7,200,200S358.3,456,248,456z"/>
</svg>
