<?xml version="1.0" encoding="utf-8"?>
<!-- Generator: Adobe Illustrator 23.0.3, SVG Export Plug-In . SVG Version: 6.00 Build 0)  -->
<svg version="1.1" id="Layer_1" xmlns="http://www.w3.org/2000/svg" xmlns:xlink="http://www.w3.org/1999/xlink" x="0px" y="0px"
	 viewBox="0 0 576 512" style="enable-background:new 0 0 576 512;" xml:space="preserve">
<style type="text/css">
	.st0{fill:#FFFFFF;}
</style>
<path class="st0" d="M528,288H384v-32h64c42.6,0,64.2-51.7,33.9-81.9l-160-160c-18.8-18.8-49.1-18.7-67.9,0l-160,160
	c-30.1,30.1-8.7,81.9,34,81.9h64v32H48c-26.5,0-48,21.5-48,48v128c0,26.5,21.5,48,48,48h480c26.5,0,48-21.5,48-48V336
	C576,309.5,554.5,288,528,288z M128,208L288,48l160,160H336v160h-96V208H128z M528,464H48V336h144v32c0,26.5,21.5,48,48,48h96
	c26.5,0,48-21.5,48-48v-32h144V464z M488,400c0,13.3-10.7,24-24,24s-24-10.7-24-24s10.7-24,24-24S488,386.7,488,400z"/>
</svg>
