<?xml version="1.0" encoding="utf-8"?>
<!-- Generator: Adobe Illustrator 23.0.4, SVG Export Plug-In . SVG Version: 6.00 Build 0)  -->
<svg version="1.1" id="Layer_1" xmlns="http://www.w3.org/2000/svg" xmlns:xlink="http://www.w3.org/1999/xlink" x="0px" y="0px"
	 viewBox="0 0 400 300" style="enable-background:new 0 0 400 300;" xml:space="preserve">
<style type="text/css">
	.st0{opacity:0.1;enable-background:new    ;}
	.st1{fill:#010101;}
</style>
<g class="st0">
	<g>
		<g>
			<path class="st1" d="M330.5,242c0-0.9,0-65.1,0-66c0-13.6-11.1-24.8-24.8-24.8c-3.2,0-6.3,0.6-9.1,1.7
				c-2.9-10.5-12.5-18.2-23.9-18.2c-3.2,0-6.3,0.6-9.1,1.7c-2.9-10.5-12.5-18.2-23.9-18.2c-11.4,0-21,7.7-23.9,18.2
				c-2.8-1.1-5.9-1.7-9.1-1.7c-13.6,0-24.8,11.1-24.8,24.8V176c0,0,0,0,0,0c-10,7.5-16.5,19.5-16.5,33v33c0,22.4,13,42.7,33,52.2
				v7.5c-9.6,3.4-16.5,12.6-16.5,23.3v16.5c0,4.6,3.7,8.2,8.2,8.2h115.5c4.6,0,8.2-3.7,8.2-8.2v-16.5c0-10.8-6.9-19.9-16.5-23.3
				v-7.5C317.5,284.7,330.5,264.4,330.5,242z M297.5,176c0-4.5,3.7-8.2,8.3-8.2c4.5,0,8.2,3.7,8.2,8.2v16.5c0,4.5-3.7,8.2-8.2,8.2h0
				c-4.5,0-8.2-3.7-8.2-8.2V176z M264.5,159.5c0-4.5,3.7-8.2,8.3-8.2c4.5,0,8.2,3.7,8.2,8.2c0,3.5,0,29.5,0,33
				c0,4.5-3.7,8.2-8.2,8.2h0c-4.5,0-8.2-3.7-8.2-8.2V159.5z M231.5,143c0-4.5,3.7-8.2,8.2-8.2s8.2,3.7,8.2,8.2c0,6,0,21.1,0,26.2
				c-2.6-0.9-5.4-1.4-8.2-1.4h-8.3V143z M198.5,159.5c0-4.5,3.7-8.2,8.2-8.2s8.2,3.7,8.2,8.2v8.2h-8.2c-2.8,0-5.6,0.3-8.2,0.8V159.5
				z M297.5,333.3h-99v-8.2c0-4.5,3.7-8.2,8.2-8.2h82.5c4.5,0,8.2,3.7,8.2,8.2V333.3z M286.5,280.9c-3.3,1.2-5.5,4.3-5.5,7.8v11.6
				h-66v-11.6c0-3.5-2.2-6.6-5.5-7.8c-16.4-5.8-27.5-21.4-27.5-38.9v-33c0-13.6,11.1-24.8,24.8-24.8h33c4.5,0,8.2,3.7,8.2,8.2
				c0,4.5-3.7,8.2-8.2,8.2h-33c-4.6,0-8.2,3.7-8.2,8.2s3.7,8.2,8.2,8.2c22.7,0,41.2,18.5,41.2,41.2c0,4.6,3.7,8.2,8.2,8.2
				c4.6,0,8.2-3.7,8.2-8.2c0-16.6-7-31.6-18.3-42.1c3.8-1,7.2-3,10-5.5c4.4,3.9,10.2,6.3,16.5,6.3s12.1-2.4,16.5-6.3
				c4.4,3.9,10.2,6.3,16.5,6.3c2.9,0,5.7-0.5,8.2-1.4V242C314,259.5,302.9,275.1,286.5,280.9z"/>
		</g>
	</g>
	<g>
		<g>
			<path class="st1" d="M256.2,68.2c-4.6,0-8.2,3.7-8.2,8.2v25.3c0,4.6,3.7,8.2,8.2,8.2c4.6,0,8.2-3.7,8.2-8.2V76.5
				C264.5,71.9,260.8,68.2,256.2,68.2z"/>
		</g>
	</g>
	<g>
		<g>
			<path class="st1" d="M328.1,87.7c-3.2-3.2-8.4-3.2-11.7,0l-16.5,16.5c-3.2,3.2-3.2,8.4,0,11.7c3.2,3.2,8.4,3.2,11.7,0l16.5-16.5
				C331.3,96.1,331.3,90.9,328.1,87.7z"/>
		</g>
	</g>
	<g>
		<g>
			<path class="st1" d="M371.8,184.3h-16.5c-4.6,0-8.2,3.7-8.2,8.2s3.7,8.2,8.2,8.2h16.5c4.6,0,8.2-3.7,8.2-8.2
				S376.3,184.3,371.8,184.3z"/>
		</g>
	</g>
	<g>
		<g>
			<path class="st1" d="M140.8,184.3h-16.5c-4.6,0-8.2,3.7-8.2,8.2s3.7,8.2,8.2,8.2h16.5c4.6,0,8.2-3.7,8.2-8.2
				S145.3,184.3,140.8,184.3z"/>
		</g>
	</g>
	<g>
		<g>
			<path class="st1" d="M212.6,104.2l-16.5-16.5c-3.2-3.2-8.4-3.2-11.7,0c-3.2,3.2-3.2,8.4,0,11.7l16.5,16.5c3.2,3.2,8.4,3.2,11.7,0
				C215.8,112.6,215.8,107.4,212.6,104.2z"/>
		</g>
	</g>
	<g>
		<g>
			<path class="st1" d="M160.9,127.4l-16.5-8.2c-4.1-2-9-0.4-11.1,3.7c-2,4.1-0.4,9,3.7,11.1l16.5,8.2c4.1,2,9,0.4,11.1-3.7
				C166.7,134.4,165,129.4,160.9,127.4z"/>
		</g>
	</g>
	<g>
		<g>
			<path class="st1" d="M362.6,122.8c-2-4.1-7-5.7-11.1-3.7l-16.5,8.2c-4.1,2-5.7,7-3.7,11.1c2,4.1,7,5.7,11.1,3.7l16.5-8.2
				C363,131.8,364.7,126.9,362.6,122.8z"/>
		</g>
	</g>
</g>
</svg>
