<?xml version="1.0" encoding="utf-8"?>
<!-- Generator: Adobe Illustrator 23.0.4, SVG Export Plug-In . SVG Version: 6.00 Build 0)  -->
<svg version="1.1" id="Layer_1" xmlns="http://www.w3.org/2000/svg" xmlns:xlink="http://www.w3.org/1999/xlink" x="0px" y="0px"
	 viewBox="0 0 400 300" style="enable-background:new 0 0 400 300;" xml:space="preserve">
<style type="text/css">
	.st0{opacity:0.1;fill:#010101;enable-background:new    ;}
</style>
<path class="st0" d="M267.5,125C205.4,125,155,175.3,155,237.5S205.4,350,267.5,350S380,299.6,380,237.5S329.6,125,267.5,125z
	 M267.5,320.9c-46.1,0-83.5-37.3-83.5-83.5c0-46.1,37.3-83.5,83.5-83.5c46.1,0,83.5,37.3,83.5,83.5
	C351,283.6,313.6,320.9,267.5,320.9z M267.5,179.4c-32.1,0-58.1,26-58.1,58.1s26,58.1,58.1,58.1s58.1-26,58.1-58.1
	S299.6,179.4,267.5,179.4z M267.5,266.5c-16,0-29-13-29-29s13-29,29-29s29,13,29,29S283.5,266.5,267.5,266.5z"/>
</svg>
