<?xml version="1.0" encoding="utf-8"?>
<!-- Generator: Adobe Illustrator 23.0.4, SVG Export Plug-In . SVG Version: 6.00 Build 0)  -->
<svg version="1.1" id="Layer_1" xmlns="http://www.w3.org/2000/svg" xmlns:xlink="http://www.w3.org/1999/xlink" x="0px" y="0px"
	 viewBox="0 0 400 300" style="enable-background:new 0 0 400 300;" xml:space="preserve">
<style type="text/css">
	.st0{opacity:0.1;fill:#010101;enable-background:new    ;}
</style>
<path class="st0" d="M293.4,166.1l7.5,22.5l-41.1,41.1c-4.3,4.3-4.3,11.1,0,15.4c4.3,4.3,11.1,4.3,15.4,0l41.1-41.1l22.5,7.5
	c3.4,1.1,7,0.2,9.5-2.3l28.9-28.9c4.9-4.9,2.9-13.2-3.6-15.4l-25.2-8.4l-8.4-25.2c-2.2-6.6-10.5-8.5-15.4-3.6l-28.9,28.9
	C293.1,159.1,292.3,162.8,293.4,166.1z M259.3,209.8l25-25l-1-2.9c-5.1-1.4-10.3-2.5-15.8-2.5c-32.1,0-58.1,26-58.1,58.1
	s26,58.1,58.1,58.1s58.1-26,58.1-58.1c0-5.5-1-10.8-2.5-15.8l-2.9-1l-25,25c-3.6,12-14.6,20.8-27.7,20.8c-16,0-29-13-29-29
	C238.5,224.3,247.3,213.3,259.3,209.8L259.3,209.8z M374.8,203.5l-16.1,16.1c-2.5,2.5-5.5,4.3-8.7,5.5c0.6,4.1,1,8.2,1,12.4
	c0,46.1-37.3,83.5-83.5,83.5c-46.1,0-83.5-37.3-83.5-83.5c0-46.1,37.3-83.5,83.5-83.5c4.3,0,8.4,0.4,12.5,1c1.2-3.2,2.8-6.2,5.3-8.7
	l16.1-16.1c-11-3.5-22.4-5.3-34-5.2C205.4,125,155,175.3,155,237.5S205.4,350,267.5,350S380,299.6,380,237.5
	C380,225.6,378.1,214.2,374.8,203.5L374.8,203.5z"/>
</svg>
