<?xml version="1.0" encoding="utf-8"?>
<!-- Generator: Adobe Illustrator 23.0.4, SVG Export Plug-In . SVG Version: 6.00 Build 0)  -->
<svg version="1.1" id="Layer_1" xmlns="http://www.w3.org/2000/svg" xmlns:xlink="http://www.w3.org/1999/xlink" x="0px" y="0px"
	 viewBox="0 0 512 512" style="enable-background:new 0 0 512 512;" xml:space="preserve">
<path d="M256,8C119,8,8,119,8,256s111,248,248,248s248-111,248-248S393,8,256,8z M426.5,288.9l-35.8,85c-3.6,8.6-5.5,17.9-5.5,27.2
	v2.1c0,9.7-7.8,17.5-17.5,17.5H192.4c-9.7,0-17.5-7.8-17.5-17.5v-4.9c0-10-4.3-19.6-11.8-26.2l-81.6-72.5
	c-15-13.4-23.5-32.4-23.5-52.4v-48.5c0-19.6,16-35.4,35.6-35.1c19.2,0.4,34.5,16.4,34.5,35.6v35.1l5.8,5.2v-99.3
	c0-19.6,16-35.4,35.6-35.1c19.2,0.4,34.5,16.4,34.5,35.6v22.8h5.8v-35.1c0-19.6,16-35.4,35.6-35.1c19.2,0.4,34.5,16.4,34.5,35.6
	v34.5h5.8v-23.4c0-19.6,16-35.4,35.6-35.1c19.2,0.4,34.5,16.4,34.5,35.6v22.8h5.8c0-19.6,16-35.4,35.6-35.1
	c19.2,0.3,34.5,16.4,34.5,35.6v97.5C432,271,430.2,280.2,426.5,288.9z"/>
</svg>
