<?xml version="1.0" encoding="utf-8"?>
<!-- Generator: Adobe Illustrator 23.0.3, SVG Export Plug-In . SVG Version: 6.00 Build 0)  -->
<svg version="1.1" id="Layer_1" xmlns="http://www.w3.org/2000/svg" xmlns:xlink="http://www.w3.org/1999/xlink" x="0px" y="0px"
	 viewBox="0 0 1000 844.3" style="enable-background:new 0 0 1000 844.3;" xml:space="preserve">
<style type="text/css">
	.st0{opacity:0.1;fill:#159EE9;enable-background:new    ;}
	.st1{opacity:0.1;clip-path:url(#SVGID_2_);fill:#159EE9;enable-background:new    ;}
	.st2{fill:#FFCAC0;}
	.st3{fill:#D50F25;}
	.st4{fill:#333333;}
	.st5{opacity:0.1;fill:#010101;enable-background:new    ;}
	.st6{fill:#0B7BCE;}
	.st7{fill:#F4F4F4;}
	.st8{clip-path:url(#SVGID_4_);}
	.st9{fill-rule:evenodd;clip-rule:evenodd;fill:#52A1DC;}
	.st10{fill-rule:evenodd;clip-rule:evenodd;fill:#3793D7;}
	.st11{fill-rule:evenodd;clip-rule:evenodd;fill:#8CC1E8;}
	.st12{fill-rule:evenodd;clip-rule:evenodd;fill:#1580D0;}
	.st13{opacity:0.29;fill-rule:evenodd;clip-rule:evenodd;fill:#E6E6E6;enable-background:new    ;}
	.st14{fill:#5CA7DE;}
	.st15{fill:#1580D0;}
	.st16{fill:#A2CDEC;}
	.st17{fill:#1C84D1;}
	.st18{fill:#52A1DC;}
	.st19{fill:#8AC0E7;}
	.st20{fill:#3E97D8;}
	.st21{fill:#FFBF00;}
	.st22{fill:#3DB366;}
	.st23{fill:#52BB77;}
</style>
<g>
	<path class="st0" d="M308.8,127.7c33.9-30.2,87.1-36.4,135.6-34c152.3,7.6,289.7,81.1,408.6,164.2c43,30.1,85.4,62.5,113.4,104
		c56.9,84.4,40,201.3-39.1,270.8c-26.9,23.7-59.5,41.8-93,57.9c-59.5,28.6-123.8,51.5-191.4,58c-48.2,4.7-97,0.9-144.9-5.6
		c-133.8-18.2-265.2-58.3-375.3-127C74.4,585.9,28.9,548.5,9,499.8S1.8,389.3,51.1,360.5c20.4-11.9,44.8-17.3,68.7-22.4
		c35.1-7.5,70.9-14.8,102.6-29.9c32.8-15.6,71.5-45.9,65.1-80.5C280.5,190.5,275,157.9,308.8,127.7z"/>
	<circle class="st0" cx="812.9" cy="141.7" r="23.6"/>
	<circle class="st0" cx="917.8" cy="199.6" r="18.6"/>
	<circle class="st0" cx="143.8" cy="199.6" r="59.6"/>
	<circle class="st0" cx="912.3" cy="116.6" r="6.6"/>
</g>
<g>
	<g>
		<defs>
			<path id="SVGID_1_" d="M308.8,127.7c33.9-30.2,87.1-36.4,135.6-34c152.3,7.6,289.7,81.1,408.6,164.2c43,30.1,85.4,62.5,113.4,104
				c56.9,84.4,40,201.3-39.1,270.8c-26.9,23.7-59.5,41.8-93,57.9c-59.5,28.6-123.8,51.5-191.4,58c-48.2,4.7-97,0.9-144.9-5.6
				c-133.8-18.2-265.2-58.3-375.3-127C74.4,585.9,28.9,548.5,9,499.8S1.8,389.3,51.1,360.5c20.4-11.9,44.8-17.3,68.7-22.4
				c35.1-7.5,70.9-14.8,102.6-29.9c32.8-15.6,71.5-45.9,65.1-80.5C280.5,190.5,275,157.9,308.8,127.7z"/>
		</defs>
		<clipPath id="SVGID_2_">
			<use xlink:href="#SVGID_1_"  style="overflow:visible;"/>
		</clipPath>
		<path class="st1" d="M82.4,728.8c4,2.5,8.1,4.8,12.2,6.9l409.9-253.6l5.5,10.2L272.1,753.4l60.6-0.4l198.5-228.4l7.3,6.4
			l-47.2,220.9l68.3-0.5L552.3,528h16.9l123.2,222.5l65.6-0.4l-175.3-233l20,0.9l305.2,221.3c13.9-5.8,26.7-14,38-24.2L594.6,510.5
			l10.8-6.5l385.2,126c0.9-6.6,1.3-13.3,1.3-20c1.1-2.2,2.1-4.4,3.1-6.6c6.1-13.4,10.8-27.4,14.1-41.8c0.7-3.2,1.4-6.5,2-9.8
			l-408.2-59.3l-11.4-14.6l415.1-31.6c-9.3-33.4-25.7-62.7-47.1-85.4l-0.3-0.4l-375.1,114l10.5-25.6l345-173
			c-9-40-28.2-74.9-54-100.4l-291,265.4L588,422l168.4-287.7c-18.5,3.9-36.1,11.5-51.8,22.4c-1.6-1.2-3.2-2.5-4.9-3.7
			c-3.6-2.7-7.3-5.3-11-7.9L563,399.5l-13.3,1.6L539.4,84.3c-12.1-2.1-24.5-3.7-37-4.7l0,0c-10.2-0.8-20.4-1.2-30.8-1.2l65.8,289
			l-7.2,6.5L301,117.4c-48.7,23.8-90.6,57.5-122.6,98.2l325.4,168.3L504,408L33.7,316c-0.6,0.6-1.2,1.2-1.8,1.7
			c-36.8,36.2-60.2,91.6-59.7,153.7c0,1.8,0,3.6,0.1,5.3l531.8-50.2l0.2,25l-492,193.4C26.3,679.7,50.8,709.1,82.4,728.8L82.4,728.8
			z"/>
	</g>
</g>
<g>
	<path class="st2" d="M508.5,227.5c-2.5,2.2-5.5,3.7-8.8,4.6l-14.9,5.3c-8.1,2.9-16.6,5.8-25.1,4.8c-4.8-0.6-25.2-3.6-28.3-7.3
		c-4.7-5.8,11.8-14.2,17.4-19.1c1.3-0.9,2.5-2,3.5-3.1c2.1-2.6,1.8-6.2,1.5-9.4c-1.1-8.2-1.4-16.5-1.1-24.8c0.2-2,0.4-3.9,0.8-5.9
		c2.1-9.7,11.1-6.1,18.2-3.6c8.6,2.8,16.8,6.4,24.7,10.7c2.4,1.2,4.5,3,6.1,5.2c3.1,4.7,1.9,10.9,1.4,16.8c-0.4,4.6-0.4,9,2.5,12.4
		c1.5,1.3,2.8,2.7,4,4.2C511.8,221.6,511,225.2,508.5,227.5z"/>
	<path class="st2" d="M302.4,75.9c2.1-9.3,2.6-18.9,5.1-28.2c1.8-6,4-11.9,6.6-17.6l9.3-21.6c0.8-2.6,2.4-4.8,4.4-6.6
		c2.2-1.3,4.7-2,7.2-1.9c9.1-0.3,18.6,2.5,24.8,9.2c6.2,6.7,8.1,17.5,3.2,25.1c-5.9,9.2-18.7,11-26.4,18.8
		c-4.9,4.9-7.3,11.8-8.7,18.6c-3.8,17.7-2.5,36-3.7,54c-0.4,5.6-1.5,12-6.3,14.9c-2.9,1.4-6.2,2.1-9.4,1.8l-13.8,0.2
		c-2.3,0-10.7,1.5-12.2-0.3c-2.7-3.1,3.4-18.2,4.6-21.6c2.5-7.5,5.5-14.8,8.4-22.2C297.8,91.9,302.4,83,302.4,75.9z"/>
	<path class="st3" d="M587.4,736.8c-3.2,12.2-12.7,21.6-17.6,33.2c-7.4,17.4-4.1,38.6-14.5,54.3c-3.4,4.8-7.5,9-12.1,12.5
		c-2.6,2.2-5.4,4.1-8.4,5.7c-3.1,1.7-6.8,2.2-10.2,1.3c-4.4-1.5-7.1-6.3-7.6-10.9c-0.2-1.5-0.2-3,0-4.6c0.4-3.1,1.1-6.2,2.1-9.2
		c2.5-8.5,5-17,7.6-25.6c1.6-4.6,2.6-9.4,3-14.3c0.3-5.3-3.1-12.2-1.7-17.1c0.7-2.2,3.1-4.2,4.2-6.1c1.6-2.7,2.8-5.6,3.6-8.6
		c1.7-5.9,2.9-12.1,6.5-17.1c2.4-2.9,5.1-5.5,8.2-7.7c2.3-2,4.9-3.5,7.8-4.4c2.8-0.5,5.7-0.4,8.4,0.4c3.6,0.8,7.1,1.8,10.5,3h0.2
		c4.2,1.5,8.7,3.8,10,8.1C588.1,731.9,588,734.4,587.4,736.8z"/>
	<path class="st3" d="M811.2,478.2c-0.1,3.3-0.5,6.9-3.1,8.9c-2.2,1.4-4.8,2-7.4,1.7h-0.6c-7.5,0-15.1-0.4-22.3,1.9
		c-5.4,1.8-10.4,5.1-16,5.7c-7.8,0.9-15.1-3.4-21.9-7.1c-6.5-3.5-13.1-6.6-19.9-9.5c-4.5-1.8-13.6-3-15.7-7.9
		c-0.7-2.3-1.4-4.7-1.9-7c-0.4-1.1-0.8-2.1-1.3-3.1c-1.3-2.1-2.1-4.5-2.4-7c0-2.5,0.9-4.8,2.4-6.7c3.5-4.1,8.4-6.7,13.8-7.1
		c5.3-0.4,10.6-0.1,15.9,0.8l51.8,7.4c4,0.6,8,1.1,11.9,2.1c3.7,0.6,7.3,2.2,10.3,4.5C811,461.2,811.5,470.2,811.2,478.2z"/>
	<path class="st4" d="M765.7,491.6c-6.3,13.3-1.8,29.1-2.9,43.8c-1,8.3-2.8,16.4-5.6,24.3c-2.4,7.8-4.9,15.7-8,23.3
		c-2.6,6.3-5.7,12.6-8.1,19.1c-3.8,10.3-6.3,21.8-14.1,29.4c-3.6,17.2-8.1,36-22.3,46.4c-12.3,9.1-29.4,9.4-43.8,3.9
		c-14.4-5.5-26-16-36.3-27.3s-19.5-23.7-30.5-34.2c-6.3-5.9-13.1-11.4-20.1-16.5c-7.1-5.2-14.5-10-22-14.6
		c-4.6-3.2-9.8-5.4-15.2-6.6c-4.5-0.9-9.1,0-12.9,2.5c-0.9,0.6-1.7,1.3-2.3,2.1c-1.9,2.6-3.3,5.5-4.2,8.6
		c-8.8,23-32.5,34.8-51.5,50.5l-17.3,14.3c-2.4,2-5,4.8-3.8,7.7c0.8,1.4,2.1,2.5,3.6,3.1c10.1,5,21.9,7,30.1,14.5
		c3,2.8,5.9,6.4,10,6.6c2.2-0.1,4.3-0.6,6.3-1.4c6.4-1.7,13.3-0.4,18.5,3.7c1.5,1.4,3.2,2.6,5,3.5c1.6,0.4,3.2,0.5,4.8,0.3
		c4.5-0.3,9.2-0.7,13.3,1.3c4,2,7.3,6.7,12,7c2.3,0.2,5-0.6,7.2-0.4c1.2,0,2.4,0.7,3,1.7c0.5,1.2,0.8,2.4,1,3.6
		c0.9,3,3.8,4.8,5.7,7.2c2.9,3.7,3.3,8.8,3,13.6c-1,14.8-7.5,28.7-18.4,38.7c-3.1,3.2-7,5.3-11.3,6.3c-4.4,0.9-9-1.1-11.2-5
		c-0.5-1.6-1.2-3.2-2.1-4.6c-3.4-3.7-11,0.2-14.1-3.7c-1.9-2.5-0.5-6.5-2.4-9s-6.3-2.1-9.7-2.3c-4-0.2-7.7-2.1-11.6-3.1
		c-6.3-1.6-12.9-1-19.4-1.5c-5.4-0.5-10.7-1.3-15.9-2.5l-26.8-5.5c-17-3.5-34.1-7-50.4-13.2c-6.2-2.4-12.5-5.3-16.8-10.3
		c-3.5-4.4-5.8-9.7-6.6-15.4c-3.8-22.4,16.4-41.6,18.9-64.2c0.9-8.2,4.2-16,7.3-23.7c5.7-13.7,11.4-27.4,17.1-41.1
		c0.9-2.6,2.1-5,3.6-7.3c2.4-2.9,5.1-5.6,8.1-7.9c8-7.2,13.7-16.6,16.5-27c0.2-1.2,0.7-2.2,1.4-3.2c0.7-0.6,1.6-1.2,2.4-1.6
		c3.1-2,4.4-5.9,3.2-9.4c2.7-0.2,4.8-2.4,5-5.1c-0.2-1.1-0.1-2.3,0.2-3.4c0.5-1.1,1.8-1.6,2.5-2.6c1.2-1.6,0.8-3.8,0.6-5.8
		c-0.1-1.3-0.1-2.5,0-3.8c0.5-4.5,2.5-8.6,5.6-11.8c5-4.9,12.2-3.7,19.1-4.8c6.9-1.5,13.7-3.7,20.2-6.5c18.3-7.2,37.5-11.6,57-13.2
		c19.7-1.5,39.4,1.6,57.6,9.2c2.6,1.1,5.1,2.5,7.4,4.2c1.6,1.2,2.9,2.8,3.9,4.6c0.8,2.2,1.7,4.4,2.9,6.5c2.3,3.1,6.5,4.1,9,7
		c2.5,2.9,2.7,7.8,4.7,11.4c2.9,5.1,9.7,7.5,11.7,13.1c0.6,1.8,0.7,3.7,1.2,5.5c1.1,4.6,4.5,8.2,7.6,11.8
		c11,13.2,18.1,29.2,20.4,46.3c0.7-10.7,7.8-20.1,16.8-26c2.4-1.6,5.2-3.3,5.7-6.2c0.6-3.6-2.9-6.8-2.7-10.5c0.3-1.8,1-3.5,2.1-4.9
		c4-5.8,8.4-11.3,13.2-16.6c2.6-2.8,5.5-6.3,4.4-10.1c-0.8-2.8-3.7-4.4-5.3-6.9c-1.9-3-1.8-6.8,0.2-9.7c1.5-2,3.8-3.4,4.5-5.8
		c0.8-2.8-1-5.8-0.4-8.7c0.8-2.3,2.3-4.3,4.3-5.6c2.8-2.5,6-4.6,9.4-6.2c5.6-2.1,11.7-1.3,17.6-0.5c9.8,1.4,20.9,3.5,26.4,11.7
		C766.5,478.3,768.3,486.1,765.7,491.6z"/>
	<path class="st5" d="M811.2,478.2c-0.1,3.3-0.5,6.9-3.1,8.9c-2.2,1.4-4.8,2-7.4,1.7h-0.6c0.9-4.4,6.2-6.9,7.1-11.3
		c0.3-2.8-0.5-5.5-2.3-7.6c-4.5-6.1-11.7-9.4-18.9-11.9c-20.3-7-42.1-8.6-63.2-4.7c-5.7,0.9-11.3,2.7-16.6,5.1
		c-1.7,1.1-3.4,2.3-5,3.6c-1.3-2.1-2.1-4.5-2.4-7c0-2.5,0.9-4.8,2.4-6.7c3.5-4.1,8.4-6.7,13.8-7.1c5.3-0.4,10.6-0.1,15.9,0.8
		l51.8,7.4c4,0.6,8,1.1,11.9,2.1c3.7,0.6,7.3,2.2,10.3,4.5C811,461.2,811.5,470.2,811.2,478.2z"/>
	<path class="st5" d="M587.4,736.8c-3.2,12.2-12.7,21.6-17.6,33.2c-7.4,17.4-4.1,38.6-14.5,54.3c-3.4,4.8-7.5,9-12.1,12.5
		c-2.6,2.2-5.4,4.1-8.4,5.7c-3.1,1.7-6.8,2.2-10.2,1.3c-4.4-1.5-7.1-6.3-7.6-10.9c-0.2-1.5-0.2-3,0-4.6l0.1,0.3
		c1.8,4.4,4.8,9,9.5,9.8c3.6,0.3,7.1-1,9.7-3.4c6.9-5.6,11-13.9,14.8-21.9c3-5.8,5.4-11.9,7.1-18.2c0.8-3.6,1.2-7.2,2.1-10.8
		c4-17.4,17.6-31.6,20.6-49.2c0.2-1.2,0.3-2.5,0.2-3.7c-0.4-1.6-1-3.1-1.8-4.6c-0.7-1.6-1.3-3.3-1.6-5.1c4.2,1.5,8.7,3.8,10,8.1
		C588.2,732,588.1,734.5,587.4,736.8z"/>
	<path class="st5" d="M555.6,706.6c-1.9,5.1-5.2,9.6-9.5,13c-6,4.6-13,7.6-20.4,8.8c-3.5,0.9-7.1,0.8-10.5-0.1
		c-4.7-1.6-8-6-12.8-7.3c-3.4-0.9-7.1-0.1-10.5-0.6c-6.2-0.9-11-5.6-16-9.4c-15.3-11.5-35.5-15.3-50.8-26.8c-0.7-0.4-1.2-1-1.6-1.7
		c-0.3-0.8-0.4-1.6-0.3-2.4c0.1-7,1.6-13.9,4.6-20.2c2.4-4.4,5.3-8.6,8.7-12.3c13.7-16.8,27.5-33.8,44-48c6.9-6,14.4-11.5,23.1-14.2
		c4.8-1.5,14.4-2.9,20.3-0.4c-0.9,0.6-1.7,1.3-2.3,2.1c-1.9,2.6-3.3,5.5-4.2,8.6c-8.9,23-32.6,34.9-51.5,50.5l-17.3,14.3
		c-2.4,2-5,4.8-3.8,7.7c0.8,1.4,2.1,2.5,3.6,3.1c10.1,5,21.9,7,30.1,14.5c3,2.8,5.9,6.4,10,6.6c2.2-0.1,4.3-0.6,6.3-1.4
		c6.4-1.7,13.3-0.4,18.5,3.7c1.5,1.4,3.2,2.6,5,3.5c1.6,0.4,3.2,0.5,4.8,0.3c4.5-0.3,9.2-0.7,13.3,1.3c4,2,7.3,6.7,12,7
		C550.7,707.1,553.4,706.3,555.6,706.6z"/>
	<path class="st6" d="M362.1,421.1c-4,2.6-8.2,5.5-9.9,9.9c-1.3,3.6-0.7,7.8-2.3,11.3s-5.3,6-6.1,9.8c-0.6,2.8,0.5,5.7,0,8.4
		c-0.5,1.4-0.9,2.9-1.2,4.4c-0.2,3.1,2.5,5.7,5.1,7.4c11.4,7.4,25.5,8.9,38.2,4.2c5.6-2.1,10.7-5.5,16.1-8.2
		c5.3-3,11.3-4.5,17.3-4.2c3.5,0.4,6.8,1.6,10.3,2.1c3.5,0.7,7.1-0.4,9.6-2.9c1.1-1.5,1.8-3.2,2.1-5c2.9-11.5,1.6-23.8-1.2-35.4
		c-2.8-11.6-7-22.8-9.9-34.3c-2.1-8.6-3.7-17.3-7.2-25.4s-9.4-15.6-17.7-18.7c-0.7-0.3-1.4-0.4-2.1-0.3c-0.5,0.2-1,0.6-1.4,1
		c-6.5,6.9-11.5,15.2-14.4,24.3c-3.3,10.1-4.2,20.8-7.2,30.9c-1.3,4.2-3,9.8-6.3,13.1C370.6,416.7,365.9,418.7,362.1,421.1z"/>
	<path class="st5" d="M441.5,458.3c-0.4,1.8-1.1,3.5-2.2,5c-2.5,2.5-6.1,3.6-9.6,2.8c-3.4-0.4-6.8-1.7-10.2-2.1
		c-6.1-0.3-12.1,1.2-17.3,4.2c-5.4,2.7-10.5,6-16.1,8.2c-8.2,3.1-17.1,3.6-25.5,1.5c-4.5-1.1-8.8-3-12.6-5.6
		c-2.7-1.7-5.3-4.2-5.1-7.4c0.3-1.5,0.7-2.9,1.2-4.4c0.5-2.8-0.5-5.7,0-8.4c0.8-3.8,4.5-6.3,6.1-9.8s1-7.7,2.3-11.3
		c1.6-4.5,5.9-7.4,9.9-9.9c4-2.6,8.8-4.6,11.9-7.7c0.4-0.5,0.8-1,1.1-1.6c2.3-3.6,4-7.5,5-11.6c3.1-10.1,3.9-20.8,7.2-30.9
		c3-9,7.9-17.3,14.5-24.3c0.3-0.5,0.8-0.8,1.3-1c0.7-0.1,1.4-0.1,2.1,0.3c8.2,3.1,14.2,10.6,17.7,18.7s5,16.8,7.2,25.4
		c2.9,11.5,7.2,22.8,9.9,34.4S444.4,446.8,441.5,458.3z"/>
	<path class="st5" d="M504,201.8c-20.5,6.5-42.6-3.5-51.2-23.1c0.2-2,0.4-3.9,0.8-5.9c2.1-9.7,11.1-6.1,18.2-3.6
		c8.6,2.8,16.8,6.4,24.7,10.7c2.4,1.2,4.5,3,6.1,5.2C505.8,189.7,504.5,195.9,504,201.8z"/>
	<path class="st5" d="M605.5,474c0,3.5-4.7,4.6-8.2,4.4c-12.6-0.7-25-4.2-37.5-3.2c-15.8,1.4-30.3,10.2-46.2,11
		c-6.1,0.3-12.3-0.6-18.3,0.5c-7.8,1.5-14.7,6.2-22.7,6.9c-6.9,0.6-13.7-2-20.6-1.7c-4.8,0.3-9.5,1.6-13.7,3.9
		c0.5-4.5,2.5-8.6,5.6-11.8c5-4.9,12.2-3.7,19.1-4.8c6.9-1.5,13.7-3.7,20.2-6.5c18.3-7.2,37.5-11.6,57-13.2
		c19.6-1.6,39.4,1.6,57.6,9.1c2.6,1.1,5.1,2.5,7.4,4.2C605.4,473.2,605.5,473.6,605.5,474z"/>
	<path class="st7" d="M471.9,236.4l-17-6.3l-7.2-2.7c-2.9-1.2-6-2-9.2-2.4c-8.2-0.6-16,4.9-20.4,11.9s-6.1,15.4-7.5,23.5
		c-1.9,11.1-3.6,22.3-4.9,33.5c-1.4,10.1-2.2,20.4-2.2,30.6c0.5,26,6,51.7,12.1,77.1c3,11.2,5.2,22.7,6.7,34.2
		c0.5,4.8,0.7,9.5,1.2,14.3c0.5,5.4,1.4,10.7,2.3,16l5.1,30.2c6.3-4.5,13.5-8.4,21.2-8.6c6.9-0.3,13.7,2.3,20.6,1.7
		c7.9-0.7,14.9-5.4,22.7-6.8c6-1.1,12.2-0.2,18.3-0.5c15.8-0.8,30.4-9.6,46.1-11c12.5-1.1,24.9,2.4,37.5,3.1
		c3.5,0.2,8.2-0.9,8.2-4.4c0-2.4-2.4-4.1-4.6-5.3c-10-6-19.5-12.8-28.5-20.3c-8.3-6.6-16.7-13.3-22.4-22.2
		c-13.7-21.4-9-50.2-20.7-72.8c-9.5-18.3,0-42.3,0-62.9c0-10.3,0-20.7-2.4-30.7c-1.5-5.6-3.4-11.1-5.6-16.4l-8.2-20.7
		c-0.2-0.6-0.5-1.2-1-1.6c-0.6-0.4-1.2-0.6-1.9-0.6c-4.9-0.3-9.8,1.3-13.6,4.4c-3.8,3.1-6.3,7.6-10.1,10.9
		C482.3,235.1,477,238.3,471.9,236.4z"/>
	<path class="st6" d="M499.3,224.5c1.3-5.8,2.8-11.8,6.6-16.3c3.8-4.5,10.9-6.9,15.8-3.7c5.6,3.7,5.9,12.1,10.7,16.8
		c4.2,4,10.5,4.4,16.2,4.9c10.3,0.9,20.4,3.3,30,7.1c1.9,0.6,3.6,1.6,5,3c2.6,3,2.1,7.6,3.4,11.3c1.8,4.8,6.7,7.8,8.6,12.6
		c2.1,5.3,0,11.2-1.8,16.7c-3.2,9.8-5.2,19.9-8.3,29.8s-7.5,19.5-14.7,26.9c-3.2,3.3-8,6.3-12.2,4.4l-1.6,11.7c-0.5,2.5-0.5,5,0,7.5
		s2.4,4.5,4.9,5.2c0.3,1.8,2.2,2.7,3.8,3.7c4.8,3.3,6,9.8,2.7,14.6c0,0,0,0.1-0.1,0.1c-1.3,1.8-3.3,3.2-3.9,5.3
		c-0.9,3.1,1.3,6.3,4,8s6,2.5,8.7,4.1c5.8,3.3,8.9,9.9,10.8,16.2c1.5,4.8,2.7,10,6.3,13.5c1.4,1.3,3.1,2.3,4.4,3.7
		c2.3,2.7,3.6,6.1,3.8,9.7c0.6,4.4-0.4,8.9-2.7,12.6c-4.2,6-12.1,7.8-18.9,10.5c-11.2,4.6-20.4,12.8-30.2,19.8
		c-4,3.2-8.7,5.5-13.8,6.5c-6.8,0.9-13.5-2.1-20.4-2.4c-4.1,0-8.2,0.6-12.2,1.6l-12.6,2.7c0.7-9.8-4.7-19.6-7.7-28.9
		c-5.7-17.5-6.7-36.3-5.4-54.7c1.3-18.4,5.1-36.5,8.8-54.6c2.6-12.6,2.3-25.8,6.3-38.1c3.7-11.8,9-23.1,11-35.4
		C508.1,260.9,494.8,244.1,499.3,224.5z"/>
	<path class="st6" d="M595,263.4c1.2,2.1,2,4.4,2.4,6.8c1,3.7,2.8,7.1,5.3,10c2.1,1.9,4,4,5.6,6.3c1.9,3.7,1.2,8.1,2.1,12.1
		c1.1,4.4,4.1,8.1,4.5,12.6c0,1.3,0.1,2.6,0.4,3.8c1.4,5.1,8.9,6.3,10.5,11.4c1.1,3.3-0.8,6.9-0.4,10.4c0.3,1.1,0.3,2.2,0.2,3.3
		c-0.5,1.2-1.3,2.3-2.4,3.1c-7,6.7-11.8,15.2-13.8,24.6s-3.1,18.9-3.2,28.5l-8.2-10.9c-0.9-1.3-2-2.5-3.3-3.4
		c-1.1-0.6-2.3-0.9-3.3-1.6c-3.1-1.8-4.3-5.5-5.5-8.9c-3.3-9.3-8.3-18-14.7-25.5c-3.3-3.9-7.2-7.9-8-13c-0.2-2.3-0.1-4.7,0.4-7
		c2.1-13.8,4.4-27.9,11.1-40.1c3.1-5.7,7.2-10.9,10.2-16.7C586.8,265.4,589.7,255.4,595,263.4z"/>
	<path class="st6" d="M387.5,276.6c0,1.8-0.4,3.5-1.3,5c-1.6,1.9-4.2,2.7-6.6,2.1s-4.7-1.7-6.6-3.1c-5.9-3.7-11.7-7.4-17.6-11.1
		c-3.3-2-6.4-4.1-9.4-6.5c-4.6-3.9-8.8-8.3-12.5-13.1c-10.2-12.6-19.3-26.3-30.6-37.9c-3.1-3.2-6.3-6.2-9.3-9.5
		c-4.1-4.8-7.8-9.8-11.2-15.1c-3.3-4.9-6.7-10.2-6.1-16.1c0.3-3.3,1.9-6.3,2.4-9.6s-0.8-7.2-3.9-8.1c-0.4-0.1-0.8-0.2-1.1-0.2
		c-0.6-0.1-1.2-0.2-1.8-0.4c-2.9-1.2-2.5-5.7-0.4-8.1s5.2-3.7,7.1-6.3c0.9-1.5,1.9-3,3-4.4c1.4-1.2,3.1-2.1,4.9-2.5
		c12.1-3.6,25-4.1,37.3-1.4c2.1,0.5,4.5,1.3,5.1,3.3c0.3,1,0.3,2,0,3c-0.9,4.1-1.5,8.4-1.6,12.6c0,0.9,0,1.8,0.1,2.7
		c1,8.9,6.8,16.5,12.4,23.4c6.7,8.3,13.5,16.5,20.3,24.7c3.7,4.8,7.8,9.2,12.3,13.1c4.2,3.5,9.7,6.3,12.9,10.8
		c2.7,3.6,1.8,8.6,2.1,12.9C388.3,250.2,388.4,263.4,387.5,276.6z"/>
	<path class="st2" d="M654.7,364.3c2.1-2,4-4.2,5.6-6.6c1.8-3,3.2-6.1,4.2-9.4l12.2-34.6c1.9-5.5,3.9-11,6.3-16.3
		c2.5-5.7,5.5-11.3,8.3-16.8c7.1-14.6,12.6-30,16.3-45.8c0.7-2.2,0.9-4.5,0.7-6.7c-0.6-3.6-3.3-6.5-6-9.1c-2.6-2.9-5.7-5.3-9-7.4
		c-3.4-2.1-7.4-2.7-11.2-1.8c-5.4,1.6-8.8,7.1-10,12.6s-0.8,11.2-1.3,16.8c-0.8,8.1-3.5,15.9-4.2,24c-0.4,4.7,0,9.4-0.6,14.1
		c-1,6.1-3.2,12-6.3,17.4c-6.8,12.8-16.1,24.1-27.2,33.4c-3,2.3-5.8,4.9-8.2,7.8c-2,3-3.3,6.3-3.9,9.8c-1.4,5.3-0.8,11,1.7,15.9
		c3.4,5.8,10,8.4,16.3,9.7C646.9,373.3,648.8,370.4,654.7,364.3z"/>
	<path class="st5" d="M526.1,408.2c-2.5,2.2-3.4,5.8-2.2,8.9c0.5,1,22.2-3.2,24.5-3.5c5.7-0.8,15.8-0.4,19.6-5.7
		c6.9-9.3-14.4-7.2-18.3-6.9C542.3,401.7,531.8,402.8,526.1,408.2z"/>
	<path class="st6" d="M328.7,136.9c-0.9,4.1-1.5,8.4-1.6,12.6c-6.3,1.3-12.9-0.8-18.9-2.9l-17.4-5.9c-2.2-1.4-5.1-0.9-6.6,1.2
		c-2.8,2.9-6.6,8.4-10.5,11.7c-0.6-0.1-1.2-0.2-1.8-0.4c-2.9-1.2-2.5-5.7-0.4-8.1s5.2-3.7,7.1-6.3c0.9-1.5,1.9-3,3-4.4
		c1.4-1.2,3.1-2.1,4.9-2.5c12.1-3.6,25-4.1,37.3-1.4c2.1,0.5,4.5,1.3,5.1,3.3C329.1,134.8,329,135.9,328.7,136.9z"/>
	<path class="st5" d="M328.7,136.9c-0.9,4.1-1.5,8.4-1.6,12.6c-6.3,1.3-12.9-0.8-18.9-2.9l-17.4-5.9c-2.2-1.4-5.1-0.9-6.6,1.2
		c-2.8,2.9-6.6,8.4-10.5,11.7c-0.6-0.1-1.2-0.2-1.8-0.4c-2.9-1.2-2.5-5.7-0.4-8.1s5.2-3.7,7.1-6.3c0.9-1.5,1.9-3,3-4.4
		c1.4-1.2,3.1-2.1,4.9-2.5c12.1-3.6,25-4.1,37.3-1.4c2.1,0.5,4.5,1.3,5.1,3.3C329.1,134.8,329,135.9,328.7,136.9z"/>
	<path class="st5" d="M487.8,536.3c3,1,6.3,2.5,7.3,5.5l-24.4-6.2l-12.6-3.2c-2.2-0.6-10.2-1.2-11.7-3c-2.1-2.6,5.4-0.8,6.7-0.6
		c4.1,0.6,8.2,1.2,12.2,2C473.1,532.1,480.4,534.4,487.8,536.3z"/>
	<path class="st5" d="M497.2,557.8c-2.1-1.4-8.1-1.2-10.7-1.9c-3.8-0.9-7.5-2.1-11.2-3.3c-7.6-2.5-15-5.3-22.8-7.1
		c-1.4-0.3-6.3-0.4-6.1-2.2c0.2-1.8,4.9-2.4,6-2.5c6.9-0.5,15.5,2.7,21.9,5C482.4,548.8,490.2,552.8,497.2,557.8z"/>
	<path class="st5" d="M481.8,517c-7.7-2.1-14.7-6.9-22.7-7.8c-2.1,0.1-4.1-0.5-5.8-1.8c-0.9-0.9-1.6-2.1-1.9-3.4
		c5.3-0.3,11.5,2,16.3,4.1c2.7,1.1,5.2,2.5,7.7,4.1C477.2,513.3,479.9,516.4,481.8,517z"/>
	<path class="st6" d="M629,328.7c-2.7,18.1,8.3,35.4,25.8,40.7c-1,5-6.2,7.7-9.8,11.3c-5.1,5-7.8,12.5-13.8,16.2
		c-6.8,4.2-15.4,2.6-23.1,0.8c-0.7-0.1-1.3-0.4-1.8-0.9c-0.2-0.3-0.3-0.5-0.3-0.8c-2.5-9.3-4.2-19.3-1.6-28.6
		c2.1-8,7.2-14.7,11.2-21.8C619.4,338.5,619.8,331,629,328.7z"/>
	<path class="st6" d="M440.9,208.1c-8.1,0.6-16,3-23.1,7c-4.7,2.7-9.6,6.3-14.9,5.7c-3.2-0.4-6.3-2.1-9.4-1.3
		c-1.7,0.7-3.4,1.7-4.8,2.9c-1.5,1.2-3.5,1.5-5.3,0.8l-2.1,29.1c-0.8,11.1-1.6,22.4,1.1,33.2c1.4,5.5,4.4,10.5,4.7,16.1
		c0.3,5.6-0.2,11.3,0.2,17c0.4,5.2,1.5,10.4,1.8,15.6c0.6,9.9-1.9,19.7-4.2,29.3c-3.6,14.2-5.7,28.7-12.6,41.5
		c-1.9,3.6-4.2,7.2-4.2,11.2c0,0.5,0,1,0.1,1.5c-2.1,1.2-4.1,2.3-5.8,3.4c-4,2.6-8.3,5.5-9.9,9.9c-1.3,3.6-0.7,7.8-2.3,11.3
		c-1.6,3.5-5.3,6-6.1,9.8c-0.6,2.8,0.5,5.7,0,8.4c-0.5,1.4-0.9,2.9-1.2,4.4c-0.2,3.2,2.5,5.7,5.1,7.4c3.9,2.5,8.1,4.4,12.6,5.6
		l12.6-49.9l0,0c11.4-21.2,21-43.3,28.5-66.2c2.1-7.5,4.9-14.8,8.2-21.8c2.4-4,4.5-8.1,6.3-12.4c1.9-5.3,2.1-11,3-16.6
		c1.1-6.5,2.8-13,4.9-19.2c2.3-6.8,4.9-13.5,5.4-20.6c0.7-10.1-3-20.8,0.9-30.2c1.7-3.5,3.8-6.8,6.4-9.7
		c5.4-6.6,10.4-13.6,15.8-20.3C449.8,208.1,445.1,207.8,440.9,208.1z"/>
	<path class="st4" d="M556,144.7L556,144.7c-7.9,22-32.1,33.4-54.1,25.5l-25.7-9.2c-22-7.9-33.4-32.1-25.5-54.1l0,0
		c7.9-22,32.1-33.4,54.1-25.5l25.7,9.2C552.5,98.5,563.9,122.7,556,144.7z"/>
	
		<ellipse transform="matrix(0.7071 -0.7071 0.7071 0.7071 38.8864 392.4083)" class="st2" cx="493.1" cy="149.3" rx="49.8" ry="49.8"/>
	<path class="st5" d="M539,142.7c8.3-7.4,19.2-22.1,20-33.4c0.5-4.8-1.2-9.6-4.8-13c-3.1-2.1-6.5-3.5-10.2-4.1
		c-13.1-3.4-25.5-9.2-36.4-17.2c-5.2-3.7-10.2-8-16.3-10.1c-6.1-2.1-13.7-1.3-17.7,3.8c-1.9,2.6-2.8,5.9-5.5,7.7
		c-5.8,4-13.7-3.1-20.4-1.3c-4.5,1.3-7,6.4-6.8,11.1s2.4,9,4.6,13.1l9.9,18.7c4.6,8.6,10.6,18.3,20.3,19.6c5,0.7,10.2-1.1,15.2-0.3
		c5.5,0.8,10.1,4.5,15.1,7C515.4,149.2,530.7,150.1,539,142.7z"/>
	<path class="st4" d="M539.4,141.5c8.3-7.4,19.2-22.1,20-33.4c0.5-4.8-1.2-9.6-4.8-13c-3.1-2.1-6.5-3.5-10.2-4.1
		c-13.1-3.4-25.5-9.2-36.4-17.2c-5.2-3.7-10.2-8-16.3-10.1c-6.1-2.1-13.7-1.3-17.7,3.8c-1.9,2.6-2.8,5.9-5.5,7.7
		c-5.8,4-13.7-3.1-20.4-1.3c-4.5,1.3-7,6.4-6.8,11.1s2.4,9,4.6,13.1l9.9,18.7c4.6,8.6,10.6,18.3,20.3,19.6c5,0.7,10.2-1.1,15.2-0.3
		c5.5,0.8,10.1,4.5,15.1,7C515.9,147.8,531.2,148.8,539.4,141.5z"/>
</g>
<g>
	<defs>
		<path id="SVGID_3_" d="M308.8,127.7c33.9-30.2,87.1-36.4,135.6-34c152.3,7.6,289.7,81.1,408.6,164.2c43,30.1,85.4,62.5,113.4,104
			c56.9,84.4,40,201.3-39.1,270.8c-26.9,23.7-59.5,41.8-93,57.9c-59.5,28.6-123.8,51.5-191.4,58c-48.2,4.7-97,0.9-144.9-5.6
			c-133.8-18.2-265.2-58.3-375.3-127C74.4,585.9,28.9,548.5,9,499.8S1.8,389.3,51.1,360.5c20.4-11.9-62.7-42.2-38.8-47.3
			c35.1-7.5,35.1-114.8,66.8-129.9c32.8-15.6,154.4-22.5,148-57.1C220.1,89,275,157.9,308.8,127.7z"/>
	</defs>
	<clipPath id="SVGID_4_">
		<use xlink:href="#SVGID_3_"  style="overflow:visible;"/>
	</clipPath>
	<g class="st8">
		<path class="st9" d="M153.3,545.6l-40.2,115.8l12,6.3l12,6.3l72.4-98.9c-5.4,0.1-16.9-3.6-29.4-10.1l-0.5-0.2l-0.9-0.5l0,0
			l-0.9-0.5l0,0C165.9,557.5,156.3,550.1,153.3,545.6"/>
		<path class="st10" d="M186.2,551.1c16.6,8.7,28.7,19.2,26.8,22.9c-1.9,3.7-17-0.1-34-9c-16.6-8.7-28.7-19.2-26.8-22.9
			C154.4,537.9,169.7,542.4,186.2,551.1"/>
		<path class="st11" d="M133.8,601.7l-5.7,16.4l27.3,30.8l8.9-12.4L133.8,601.7z M145.7,568l-5.7,16.4l34.8,38.8l8.9-12.4L145.7,568
			z M153.3,545.6l-2,4.8l41.9,46.7l8.9-12.4l-13.4-15.9c-2.3-1.2-5.3-2.2-8.1-3.6l0,0l-0.5-0.2l0,0l-0.5-0.2l0,0l-0.5-0.2l-0.5-0.2
			l-0.5-0.2l0,0C165.9,557.5,156.3,550.1,153.3,545.6z M122,635.5l23.7,26.5l-8.4,11.5l-2.3-1.2l-18.4-20.8L122,635.5z"/>
		<path class="st12" d="M181.9,559.4c9.7,5.1,17.9,10.6,22.5,15.3c-6.3-1.5-15.7-4.7-25.4-9.8c-9.7-5.1-17.9-10.6-22.5-15.3
			C163,550.7,172.2,554.3,181.9,559.4"/>
		<path class="st13" d="M165,555.8l-39.4,112.1l-0.5-0.2l-7.4-3.9l40.1-113.5C159.9,552,162.5,553.9,165,555.8"/>
		<path class="st14" d="M200.7,309.6c4.1-7.8,8.7-16.6,6.6-25.9c-1.7-6.8-9.3-12.5-14.6-17c-16.7-15.2-23.5-34.7-6.9-53
			c-2.4,2.3-5.2,4.3-7.8,7.1c-16.6,18.3-9.8,37.7,6.9,53c5.5,5.2,11.9,9.8,14.6,17c3.1,8.7-2.7,18.6-6.6,25.9
			C194.6,313.5,199.3,312.4,200.7,309.6"/>
		<path class="st14" d="M167.7,487.9c4.3-3.6,8.3-8,4.9-13.9c-2.5-4.2-8.5-6.2-12.6-8.4c-4.1-2.2-9.9-5.8-12.6-9.6
			c-2-2.8,3.2-9.5,4.9-11.5c1.9-3.7,5.5-9.4,4.5-14.1c-0.4-2.6-4.1-5.7-5.9-7.8c-7.6-13.4-1.1-27,8.9-37.1c-1.4,1.6-6.5,0.1-7.9,1.7
			c-10.2,10.5-15.3,22.5-8.9,37.1c1.3,3.1,4.3,5.2,5.9,7.8c1.6,3.8-2.8,10.9-4.5,14.1s-6,8-4.9,11.5c1.3,4.2,9.4,7.9,12.6,9.6
			c4.6,2.4,9.2,4.8,12.6,8.4c4.3,5.2-1.4,10.4-4.9,13.9C161.9,487.8,166.3,489.5,167.7,487.9"/>
		<path class="st15" d="M161.8,303.3c1.3-5.8,0.2-9.3-4.9-12c-3.9-2.6-6.9-4.8-4.7-10.1c-1.2,2.3-2.4,4.6-3.9,7.4
			c-2,4.8-0.1,7,4.2,9.9c4.8,3.1,6.6,6.4,5.1,12.7C158.7,308.1,161,305.8,161.8,303.3"/>
		<path class="st16" d="M137.8,517.4c-6-3.1-10.7-2.1-15.8,1.1c-5.9,3.4-11,5.4-18.2,3.4c1.6,0.3,1,7,3.1,7.5
			c6.5,2.2,11.4,0.7,16.6-2.5c5.9-3.4,10.8-4.9,17.2-1.5C139,523.9,139.6,518.4,137.8,517.4"/>
		<path class="st17" d="M200.4,444.6c16.9-5.3,5.6-24.1,17.4-34.3c-0.2,0.5-5.9-5.5-6.2-5c-11.4,10.5-0.6,29.1-17.4,34.3
			C195.4,439.6,198.8,445.5,200.4,444.6"/>
		<path class="st18" d="M285.9,549.3c6.6-3.6,11.7-4.4,17.7,1c4.8,4.3,8.4,9.7,15.4,8.7c1.4-0.4,2.5-6.9,3.9-7.4
			c-6.8,0.6-10.4-3.7-14.7-7.7c-5.7-5.9-11.3-6.5-18.3-2C287.6,543.8,288,548.7,285.9,549.3"/>
		<path class="st19" d="M85.9,388.6c5,5,5.8,11.3,7.8,17.6c2.2,8.2,8.4,10.9,16.5,11c1.6,0.3,3.8-6.2,5-6.2
			c-8.1-0.2-13.7-3.1-16.5-11c-2-6.3-2.5-13.1-7.8-17.6C91.4,382.7,85.9,388.6,85.9,388.6"/>
		<path class="st20" d="M273.3,515.1c-11.7,2.1-24.8,4.6-35.3-3.3c1.1,1.2,0,0-0.7-0.9c-0.7-0.9-1.4-1.9-2-2.8
			c-1.6-2.6-3.2-5.2-5.9-6.6c-10.4-6-18.8,11.3-27,14.6c-11,4.2-22.6-10.7-27.6-18c-1.6-2.6,2.7,3.8,3.4,4.7
			c5.7,8.3,11.8,16.8,22,19.7c12.5,4.2,17.7-12.5,28.4-15c2.6-0.4,5.1,0.3,7.4,1.5c-2.3-1.2-0.7-0.9,0.7,0.9c1.6,2.6,3.4,4.7,5,7.3
			c7.9,10.6,25.7,7,36.7,5.1C276.6,522.2,274,514.9,273.3,515.1"/>
		<path class="st14" d="M316.4,501.3c10.7,0.9,26.4-7.9,18.5-19.6c-1.4-1.9-0.1-6.5-1.2-7.7c11.2,11.2,21.3,4.1,33.3-0.7
			c12.9-5.6,23.5-2.3,34.1,6.7c1.6,1.4,0.1,6.5,1.2,7.7c-10.5-9-20.9-11.6-34.1-6.7c-12.4,4.6-21.9,12.6-33.3,0.7l-1.2-7.7
			c3.6,5.4,4.4,11.7,5.2,18c1.9,12.1-10.8,18.4-21.1,17.7C317.4,509.5,316.8,501.5,316.4,501.3"/>
		<path class="st18" d="M406.3,280.6c-8.8-3.4-13.1,2.5-20.6,5.6c-3.1,1.3-7-0.1-9.5-2c-1.6-1.4-9.2,5.2-11.7,5.6
			c-5.1,0.8-8.6-0.4-13.7-1.9c-5.6-1.7-11.9,2.6-16.4,5.5c-11.1,7.7-18.1,21.1-26.9,31.1l-6.2-5c10-12.4,18-27.6,33-35
			c7-3.4,11.4-0.5,17.9,0.6c6.5,1.1,11-3,15.5-7.1l0,0c5.5,4.1,9.9,4.6,15.3,1c5.4-3.6,9.4-5.6,16.3-3.2
			C402.2,276.1,403.8,279.9,406.3,280.6"/>
		<path class="st17" d="M318.6,350.3c-1.8-5.6-4.9-9.6-10.2-11.8c-0.5-0.2-3.6,6.9-3.9,7.4c5.3,2.2,8.5,6.2,10.2,11.8
			c-0.2-0.7,1.7-3.2,1.9-3.7C317.2,353.1,319.1,350.6,318.6,350.3"/>
		<path class="st6" d="M373.2,447.7c-3.6-4.3-8.9-6.5-14.1-5.6c-0.7,0.2-1.7,3.2-1.9,3.7c-0.2,0.5-1.2,3.5-1.9,3.7
			c5.6-0.6,11.1,1.1,14.1,5.6C368.7,454.2,373.9,448.7,373.2,447.7"/>
		<path class="st6" d="M380.6,512.1c-6.1,1.5-11.9,2.6-17.7-1c0,0-4.1,6.7-3.9,7.4c5.7,3.6,11.6,2.6,17.7,1c0.7-0.2,1.7-3.2,1.9-3.7
			C378.9,515.3,380.1,511.9,380.6,512.1"/>
		<path class="st16" d="M132.7,360.9c-3.8,5-10.6,4.4-16.2,6.2c-0.7,0.2-1.7,3.2-1.9,3.7c-0.2,0.5-1.2,3.5-1.9,3.7
			c5.6-1.8,12.4-1.2,16.2-6.2C130.5,366.2,131.1,363,132.7,360.9"/>
		<path class="st6" d="M256.4,246.1c4.1,5.7,8.6,11.6,16,13.1c0.5,0.2,3.2-7.2,3.9-7.4c-7.4-1.5-11.5-7.2-16-13.1
			C260.7,240.1,255.8,245.1,256.4,246.1"/>
		<path class="st16" d="M174.7,320.1c4.8,5.4,2.5,13.1,7.3,18.5c1.1,1.2,7-2.2,8.2-1c-4.8-5.4-2.5-13.1-7.3-18.5
			C181.7,317.9,175.4,321,174.7,320.1"/>
		<path class="st18" d="M274.7,349c-7.7,3.6-18.7,5.5-23.5,13.5c0.2-0.5,6.9,3.6,7.2,3.2c4.8-8,15.3-10.2,23.5-13.5
			C280.9,352.9,276.8,348.4,274.7,349"/>
		<path class="st21" d="M88.5,446.4c7.4,1.5,9.7,15.1,11.7,21.4c3.5,10.1,7.5,21.6,16.9,27.1c0.5,0.2,5-6.2,5.5-5.9
			c-9.9-5.8-13.4-17-16.9-27.1c-2.2-5.9-4.3-19.9-11.7-21.4C92.3,440.2,89.6,446.4,88.5,446.4"/>
		<path class="st22" d="M338.1,543.8c14.7,0.1,14.8,18.9,25.8,24.7l3.9-7.4c-11.3-5.3-11.9-24.4-25.8-24.7
			C340.8,536.5,339.3,543.9,338.1,543.8"/>
		<path class="st6" d="M243.2,552.2c6.6,7.6,19.3,12.5,24.9,0.7c1-1.8-2.9-5.6-2.4-7.7c-5.3,11.3-18,6.4-24.9-0.7
			C242.6,546.6,241.9,550.3,243.2,552.2"/>
		<path class="st16" d="M282.4,571.6c7.1,5.5,5.1,11.5,7.3,19.7c2.4,10.1,13.9,14.9,22.2,19.3l3.9-7.4c-9.2-4.8-18.7-9.2-22.2-19.3
			c-2.9-8,0.7-13.7-7.3-19.7C286.5,564.9,281.9,571.4,282.4,571.6"/>
		<path class="st19" d="M222.4,369.2c4.8-6.9,1.9-12.5,2.5-20.4c0.7-10.2,11.9-14.9,11.2-25.8c-0.4-3.7-2.2-7-2.6-10.8
			c-0.9-4,1.6-8.6,3.5-12.3c4.6-8.8,13.5-14.6,21.3-20.5c-0.2,0.5-5.7-5.9-5.9-5.5c-7.6,5.4-14.6,11.1-19.7,18.5
			c-5.7,7.6-5.2,14.3-2.5,22.8c2.8,10.3-7.3,17.3-10.7,26.1c-1,3-0.1,7,0.5,10.2c0.6,4.4-0.2,8.1-2.8,12
			C216.2,364.2,222.6,368.7,222.4,369.2"/>
		<path class="st16" d="M361.5,404c-6.9,7.5-11.2,15.8-20.4,21c-4.2,2.5-10.7,1.4-15.4,2.5c-6.5,1.3-8.3,5.7-9.1,11.7
			c-1,5.3-4.5,6.4-9.5,8c-5.4,1.3-6.6,5.9-9.5,10.3c-6.5,10.1-19.8,13.1-30.4,17.6l3.1,7.5c9.9-4.2,22.5-7,29.4-15.7
			c2.4-3.4,3.9-8.5,7.7-11.3c4.5-2.9,9.3-1,12-7.2c2.4-4.6,0.9-8.4,5.6-11.8c4.7-3.4,12.4-2.3,17.5-3.1
			c10.5-2.1,15.9-14.6,22.5-21.7C365.1,410.6,360.6,404.7,361.5,404"/>
		<path class="st19" d="M361.3,366.3c-3.5,9.9-8.8,7.7-17.6,7.8c-8.4,0.3-12.5,10.5-18.9,14.8c0.2-0.5,5,6.1,5.7,5.9
			c6.4-4.3,9.6-12.6,17.5-14.3c8.9-2.4,15.3,3.3,19-8.2C367.1,371.1,360.6,367.7,361.3,366.3"/>
		<path class="st6" d="M120.9,323c7.8,6.4,17,11.3,24.8,17.7c7.3,6.2,10,12.3,20.7,10.9c1.9-0.2,2.5-6.9,3.9-7.4
			c-9.3,1-13.7-3.1-19.1-9.4c-7.5-8.1-17.9-12.9-26.4-19.1C125,316.3,120.4,322.7,120.9,323"/>
		<path class="st17" d="M212.5,467.4c11-4.2,22.1,1.6,33.5,1.1c0.5,0.2,0.6-7.9,1.3-8.1c-11.4,0.5-22-5.1-33.5-1.1
			C212.5,459.7,214,467,212.5,467.4"/>
		<path class="st22" d="M298.5,380.9c-4.1,9-11,16.5-16.3,25.5c0,0,6.7,4.1,7.4,3.9c5.1-8.5,11.9-16.1,16.3-25.5
			C305.4,384.5,298.5,380.9,298.5,380.9"/>
		<path class="st20" d="M178.1,375.3c4.1,5.7,5.6,12.9,11.8,16.8c0.5,0.2,3.3-0.6,4-0.9c0.7-0.2,3.5-1.1,4-0.9
			c-6.9-3.6-7.7-11.1-11.8-16.8C185.3,372.6,178.7,376.2,178.1,375.3"/>
		<path class="st21" d="M275.7,297.8c1.7,6.8-3.7,12.7-2.3,20c0.4,1.4,7.4,1.5,7.4,2.7c-1.7-6.8,3.7-12.7,2.3-20
			C283.1,299.4,276.1,299.3,275.7,297.8"/>
		<path class="st3" d="M250.7,398.1c1.7,6.8-3.7,12.7-2.3,20c0.4,1.4,7.4,1.5,7.4,2.7c-1.7-6.8,3.7-12.7,2.3-20
			C257.6,399.4,251.1,399.5,250.7,398.1"/>
		<path class="st17" d="M265.1,443.3c6.6,7.6,19.3,12.5,24.9,0.7c1-1.8-2.9-5.6-2.4-7.7c-5.3,11.3-18,6.4-24.6-1.2
			C264.3,437,263.3,441.2,265.1,443.3"/>
		<path class="st16" d="M227.1,259.4c4.7-4.6,5.5-9.4,4-15.5c-1-7-1.9-12.1,2.4-18.1c-1.2,1.1-7.2-0.8-7.9,0.5
			c-4.1,5.5-4.2,10.2-2.9,16.7s0.9,11.7-4,16.7C220.4,258.8,225.7,261,227.1,259.4"/>
		<path class="st21" d="M296,507.7c-5.6-0.6-10.4-3.7-12.6-8.4c-0.2-0.7,1.7-3.2,1.9-3.7c0.2-0.5,2.2-3,1.9-3.7
			c2.7,4.9,7.3,8.5,12.6,8.4C298.9,501,297.2,507.7,296,507.7"/>
		<path class="st21" d="M232,597.7c-3.9-3.8-5.6-9.4-4.6-14.7c0.2-0.5,3.1-1.3,3.8-1.6c0.2-0.5,3.5-1.1,3.8-1.6
			c-1,5.3,0.7,10.9,4.6,14.7C238.9,593.6,233.4,598.4,232,597.7"/>
		<path class="st14" d="M311.4,470.5c2.3,0,3.9,0.3,5.6,1.7c1.6,1.4,2,4,2.2,5.9l0.5-0.9c0.5-0.9,1-1.8,1.2-2.3
			c0.5-0.9,1.9-2.5,1.9-3.7c0-2.3-0.2-4.2-1.8-5.6c-1.4-1.9-4.1-2.2-6-2c-0.5-0.2-1.7,3.2-1.9,3.7
			C313.1,467.3,311.8,470.7,311.4,470.5"/>
		<path class="st14" d="M226.7,384.4c1.4,1.9,2.5,3.1,4.6,3.6c2.1,0.5,4.4-0.6,6.1-1.5l-0.5,0.9c-0.5,0.9-1,1.8-1.2,2.3
			c-0.5,0.9-1,3-1.9,3.7c-1.9,1.4-3.5,2.3-5.6,1.8c-2.3,0-4.1-2.2-5-3.8c-0.5-0.2,1.7-3.2,1.9-3.7
			C225,387.6,227.2,384.6,226.7,384.4"/>
		<path class="st17" d="M68.5,422.9c1.4,1.9,2.5,3.1,4.6,3.6c2.1,0.5,4.4-0.6,6.1-1.5l-0.5,0.9c-0.5,0.9-1,1.8-1.2,2.3
			c-0.5,0.9-1,3-1.9,3.7c-1.9,1.4-3.5,2.3-5.6,1.8c-2.3,0-4.1-2.2-5-3.8c-0.5-0.2,1.7-3.2,1.9-3.7C66.8,426.2,68.5,422.9,68.5,422.9
			"/>
		<path class="st23" d="M286.1,618.2c1.4,1.9,2.5,3.1,4.6,3.6c2.1,0.5,4.4-0.6,6.1-1.5l-0.5,0.9c-0.5,0.9-1,1.8-1.2,2.3
			c-0.5,0.9-1,3-1.9,3.7c-1.9,1.4-3.5,2.3-5.6,1.8c-2.3,0-4.1-2.2-5-3.8c-0.5-0.2,1.7-3.2,1.9-3.7
			C284.5,621.4,286.1,618.2,286.1,618.2"/>
		<path class="st20" d="M174,429c1.4,1.9,2.5,3.1,4.6,3.6s4.4-0.6,6.1-1.5l-0.5,0.9c-0.5,0.9-1,1.8-1.2,2.3c-0.5,0.9-1,3-1.9,3.7
			c-1.9,1.4-3.5,2.3-5.6,1.8c-2.3,0-4.1-2.2-5-3.8c-0.5-0.2,1.7-3.2,1.9-3.7C172.3,432.2,174,429,174,429"/>
		<path class="st18" d="M343.9,593.3c1.4,1.9,2.5,3.1,4.6,3.6c2.1,0.5,4.4-0.6,6.1-1.5l-0.5,0.9c-0.5,0.9-1,1.8-1.2,2.3
			c-0.5,0.9-1,3-1.9,3.7c-1.9,1.4-3.5,2.3-5.6,1.8c-2.3,0-4.1-2.2-5-3.8c-0.5-0.2,1.7-3.2,1.9-3.7
			C342.2,596.5,343.9,593.3,343.9,593.3"/>
		<path class="st6" d="M64.1,489.4c1.4,1.9,2.5,3.1,4.6,3.6c2.1,0.5,4.4-0.6,6.1-1.5l-0.5,0.9c-0.5,0.9-1,1.8-1.2,2.3
			c-0.5,0.9-1,3-1.9,3.7c-1.9,1.4-3.5,2.3-5.6,1.8c-2.3,0-4.1-2.2-5-3.8c-0.5-0.2,1.7-3.2,1.9-3.7C62.4,492.6,64.6,489.6,64.1,489.4
			"/>
		<path class="st23" d="M421.7,359.8c1.4,1.9,2.5,3.1,4.6,3.6c2.1,0.5,4.4-0.6,6.1-1.5l-0.5,0.9c-0.5,0.9-1,1.8-1.2,2.3
			c-0.5,0.9-1,3-1.9,3.7c-1.9,1.4-3.5,2.3-5.6,1.8c-2.3,0-4.1-2.2-5-3.8c-0.5-0.2,1.7-3.2,1.9-3.7
			C419.6,362.8,421.7,359.8,421.7,359.8"/>
	</g>
	<g class="st8">
		<path class="st9" d="M827.8,593.3l86.3,87.1l10.9-8l10.9-8L879,555.9c-2.2,4.9-10.7,13.6-22,21.9l-0.4,0.3l-0.8,0.6l0,0l-0.8,0.6
			l0,0C844,587.3,833.1,592.7,827.8,593.3"/>
		<path class="st10" d="M847.3,566.2c15.1-11.1,29.9-17.3,32.3-14c2.5,3.4-7.6,15.2-23.1,26.6c-15.1,11.1-29.9,17.3-32.3,14
			C821.4,589,832.1,577.3,847.3,566.2"/>
		<path class="st11" d="M869.6,635.6l12.2,12.3l39.7-11l-7.2-13.4L869.6,635.6z M844.6,610.1l12.2,12.3l50.2-14.2l-7.2-13.4
			L844.6,610.1z M827.8,593.3l3.5,3.9l60.3-17.1l-7.2-13.4l-20.1,5.1c-2.1,1.5-4.3,3.8-6.8,5.6l0,0l-0.4,0.3l0,0l-0.4,0.3l0,0
			l-0.4,0.3l-0.4,0.3l-0.4,0.3l0,0C844,587.3,833.1,592.7,827.8,593.3z M894.7,661l34.2-9.6l6.6,12.6l-2.1,1.5l-26.8,7.4L894.7,661z
			"/>
		<path class="st12" d="M852.8,573.8c8.8-6.5,17.4-11.4,23.7-13.5c-4.1,4.9-11.2,12-20,18.5c-8.8,6.5-17.4,11.4-23.7,13.5
			C836.6,586.9,844,580.2,852.8,573.8"/>
		<path class="st13" d="M842.1,587.4l83.3,84.7l-0.4,0.3l-6.7,4.9l-84.2-86C836.5,590.2,839.3,588.8,842.1,587.4"/>
		<path class="st14" d="M632.8,451.2c-5.2-7.1-11.1-15.1-20.4-17.3c-6.9-1.4-15.3,2.8-21.7,5.6c-21,8.3-41.5,5.9-50.6-17.1
			c1,3.1,1.6,6.6,2.9,10.1c9.1,23,29.6,25.4,50.6,17.1c7.1-2.6,14-6.4,21.7-5.6c9.1,1,15.5,10.6,20.4,17.3
			C633.5,458.4,634.6,453.7,632.8,451.2"/>
		<path class="st14" d="M782.4,555c-1.4-5.4-3.5-11-10.3-10.5c-4.9,0.4-9.3,4.9-13.1,7.6c-3.8,2.8-9.5,6.3-14.1,7.1
			c-3.4,0.6-7.1-7.1-8.2-9.5c-2.5-3.4-6-9.1-10.7-10.2c-2.5-0.8-6.9,1.2-9.6,1.9c-15.4,1-24.7-10.9-29.4-24.3c0.8,2-2.8,5.9-2,7.9
			c4.9,13.8,13.5,23.7,29.4,24.3c3.3,0.1,6.6-1.6,9.6-1.9c4.1,0.3,8.6,7.3,10.7,10.2c2.2,2.9,4.6,8.9,8.2,9.5
			c4.4,0.7,11.2-5,14.1-7.1c4.2-3.1,8.4-6.1,13.1-7.6c6.6-1.6,8.8,5.8,10.3,10.5C779.7,560.2,783.2,557,782.4,555"/>
		<path class="st15" d="M614,479.1c-4.6-3.7-8.3-4.3-12.9-0.9c-4.1,2.3-7.3,4.1-11.1-0.2c1.5,2.1,3.1,4.2,4.9,6.7
			c3.5,3.9,6.2,3.2,10.7,0.5c4.9-3,8.7-3.1,13.6,1C616.9,484,615.9,480.9,614,479.1"/>
		<path class="st16" d="M795.6,594.9c-5.5,4-6.6,8.7-6,14.7c0.4,6.8,0,12.3-5,17.8c1-1.3,6.7,2.2,8.1,0.5c4.8-4.8,5.6-9.9,5.1-16
			c-0.4-6.8,0.3-11.9,6.2-16.2C802.1,596.6,797.3,593.7,795.6,594.9"/>
		<path class="st17" d="M757.9,506.6c2.7-17.4-19.2-15.6-23.2-30.8c0.3,0.4-7.5,2.9-7.2,3.3c4.4,14.8,25.9,13.3,23.2,30.8
			C751.2,508.9,757.9,508.5,757.9,506.6"/>
		<path class="st18" d="M889.5,476c-0.3-7.5,1.2-12.5,8.7-15.4c6-2.4,12.4-3.3,14.6-10c0.2-1.5-5.1-5.3-4.9-6.7
			c-2.5,6.3-7.9,7.7-13.4,9.8c-7.8,2.5-10.8,7.3-9.9,15.6C885.3,472,889.9,473.8,889.5,476"/>
		<path class="st19" d="M657.2,584.8c6.7-2.3,12.7-0.3,19.2,0.7c8.3,1.7,13.5-2.8,17.2-10c1-1.3-3.9-6.2-3.3-7.2
			c-3.7,7.2-8.8,10.9-17.2,10c-6.5-1-12.9-3.5-19.2-0.7C654.2,577.3,657.2,584.8,657.2,584.8"/>
		<path class="st20" d="M853.2,472.2c-3.3,11.4-6.7,24.3-18.5,30.3c1.6-0.5,0,0-1.1,0.2c-1.1,0.2-2.3,0.4-3.4,0.6
			c-3,0.3-6,0.6-8.6,2.4c-10,6.6,1.8,21.9,1.2,30.7c-1.1,11.7-19.5,15.6-28.3,16.8c-3,0.3,4.6-0.8,5.7-1c9.9-1.4,20.2-3.2,27.4-11
			c9.3-9.4-3.4-21.4-1-32.2c0.8-2.5,2.5-4.4,4.6-6c-2.1,1.5-1.1,0.2,1.1-0.2c3-0.3,5.7-1,8.8-1.2c13-2.4,17.6-20,20.8-30.7
			C861.1,472.3,853.4,471.5,853.2,472.2"/>
		<path class="st14" d="M859.9,341.4c8.1-7,12.9-24.4-1.1-27c-2.3-0.3-4.7-4.5-6.4-4.5c15.8-0.2,17.9-12.4,22.7-24.3
			c5-13.1,14.8-18.5,28.6-19.7c2.1-0.1,4.7,4.5,6.4,4.5c-13.8,1.2-22.9,6.9-28.6,19.7c-5.4,12.1-6.3,24.5-22.7,24.3l-6.4-4.5
			c6.4,1.2,11.5,5,16.5,8.9c10,7.2,5.6,20.6-2,27.5C866.4,346.4,860.4,341.2,859.9,341.4"/>
		<path class="st18" d="M722,153.7c-6.9,6.4-3.5,12.9-4,21c-0.1,3.3-3.2,6.2-6,7.6c-2,0.8,0.6,10.5-0.2,13c-1.5,5-4.1,7.5-7.7,11.5
			c-4,4.2-2.9,11.8-2.3,17.1c2,13.3,10.9,25.5,16.1,37.9l-7.2,3.3c-6.7-14.4-16.8-28.3-16.8-45c0.1-7.8,4.6-10.5,8.4-15.8
			c3.8-5.4,2.1-11.2,0.4-17.1l0,0c6.1-3.2,8.5-6.9,7.6-13.3c-0.9-6.5-0.9-10.9,4.4-16.1C716.2,155.4,720.2,155.7,722,153.7"/>
		<path class="st17" d="M725.3,359c-5.8-0.9-10.8,0.2-15.1,4c-0.4,0.3,4.6,6.3,4.9,6.7c4.3-3.8,9.3-4.9,15.1-4
			c-0.7-0.1-2.2-2.9-2.5-3.4C727.1,361.5,725.7,358.7,725.3,359"/>
		<path class="st6" d="M836.8,352.8c-5.4,1.4-9.7,5.2-11.3,10.2c-0.1,0.7,2.2,2.9,2.5,3.4c0.3,0.4,2.6,2.6,2.5,3.4
			c1.9-5.3,5.9-9.5,11.3-10.2C840.5,359.7,837.9,352.6,836.8,352.8"/>
		<path class="st6" d="M893.5,357.9c-1.3,6.1-2.9,11.8-8.7,15.4c0,0,4.2,6.6,4.9,6.7c5.8-3.6,7.4-9.3,8.7-15.4
			c0.1-0.7-2.2-2.9-2.5-3.4C895.7,360.8,893.1,358.2,893.5,357.9"/>
		<path class="st16" d="M652.9,530.5c2.8,5.7-0.7,11.4-1.6,17.3c-0.1,0.7,2.2,2.9,2.5,3.4c0.3,0.4,2.6,2.6,2.5,3.4
			c0.9-5.8,4.4-11.6,1.6-17.3C656.7,534.8,654,532.9,652.9,530.5"/>
		<path class="st6" d="M587.7,351.6c6.9-1.2,14.2-2.6,18.8-8.6c0.4-0.3-5-6-4.9-6.7c-4.6,6-11.5,7.1-18.8,8.6
			C584.2,345.1,586.5,351.8,587.7,351.6"/>
		<path class="st16" d="M634.7,474.9c7-1.9,12.9,3.5,19.9,1.6c1.6-0.5,1.1-7.3,2.7-7.8c-7,1.9-12.9-3.5-19.9-1.6
			C635.9,467.6,635.9,474.7,634.7,474.9"/>
		<path class="st18" d="M688.4,397.9c-0.2,8.5-3.3,19.2,1.8,27.1c-0.3-0.4,6.3-4.6,6-5c-5.1-7.9-2.4-18.2-1.8-27.1
			C694.6,394,688.7,395.7,688.4,397.9"/>
		<path class="st21" d="M710.2,607.9c4.6-6,17.8-2.1,24.4-1.1c10.6,1.3,22.6,2.8,31.8-3.3c0.4-0.3-3.3-7.2-2.9-7.5
			c-9.5,6.3-21.2,4.5-31.8,3.3c-6.2-0.6-19.7-4.9-24.4,1.1C706.3,601.7,710.7,606.8,710.2,607.9"/>
		<path class="st22" d="M911.1,404.2c6.5-13.1,23.5-4.9,33.5-12.3l-4.9-6.7c-9.8,7.8-27.2-0.1-33.5,12.3
			C905.7,398.5,911.6,403.1,911.1,404.2"/>
		<path class="st6" d="M873.3,515.5c9.7-2.6,19.7-11.8,11.6-22c-1.2-1.7-6.3,0.1-8-1.2c7.8,9.8-2.2,19-11.6,22
			C868.1,513.6,871,515.9,873.3,515.5"/>
		<path class="st16" d="M866.4,428.7c8.1-4,12.6,0.5,20.9,2.1c10.1,2.3,19.5-5.9,27.1-11.4l-4.9-6.7c-8.4,6.1-16.5,12.7-27.1,11.4
			c-8.4-0.9-12-6.7-20.9-2.1C862.2,422.1,866,429.1,866.4,428.7"/>
		<path class="st19" d="M695.6,355.7c-4.1-7.3-10.4-7.2-17.2-11.2c-8.9-5.1-8.1-17.3-18.3-21.4c-3.5-1.3-7.3-1.1-10.8-2.4
			c-3.9-1-7-5.2-9.5-8.5c-5.8-8-7.2-18.6-9-28.2c0.3,0.4-7.8,2.5-7.5,2.9c1.6,9.2,3.5,18,7.9,25.8c4.3,8.5,10.6,10.9,19.3,12.3
			c10.5,2,12.3,14.2,18.7,21.1c2.3,2.2,6.2,3.2,9.4,4.1c4.2,1.4,7.2,3.7,9.6,7.8C688.3,359.1,695.3,355.3,695.6,355.7"/>
		<path class="st16" d="M828,270.6c-1.5,10.1-0.5,19.4-5.2,28.8c-2.1,4.4-8.1,7.2-11.4,10.7c-4.7,4.7-3.7,9.3-1,14.8
			c2.1,5-0.2,7.9-3.4,11.9c-3.7,4.1-2.2,8.6-2.2,13.8c0.3,12-9.1,21.9-15.4,31.5l6.8,4.5c5.8-9,14.7-18.4,15.6-29.4
			c0.1-4.2-1.5-9.3,0.1-13.6c2.1-4.9,7.2-6,5.9-12.7c-0.6-5.2-4-7.4-1.9-12.9s9-8.8,12.8-12.4c7.5-7.6,5-21,6.6-30.5
			C834.7,274.1,827.6,271.7,828,270.6"/>
		<path class="st19" d="M745.5,301c7.4,7.5,3.1,11.3-0.7,19.2c-3.4,7.7,3.9,15.9,4.9,23.5c-0.3-0.4,7.7-1.8,7.8-2.5
			c-1.1-7.6-7.1-14.1-5.2-22c1.8-9,9.7-12.3,1-20.7C752.3,297.9,746.4,302.2,745.5,301"/>
		<path class="st6" d="M574.2,532.3c9.2-4.2,17.6-10.3,26.8-14.5c8.8-3.9,15.4-3.6,18.9-13.8c0.6-1.8-5.1-5.3-4.9-6.7
			c-3.2,8.8-8.8,10.9-16.9,13c-10.5,3.2-19.5,10.4-28.8,15.3C570,525.7,573.8,532.6,574.2,532.3"/>
		<path class="st17" d="M783.7,505.7c1.1-11.7,11.1-19.1,15.7-29.6c0.4-0.3-6.8-4-6.7-4.8c-4.6,10.5-14.3,17.5-15.7,29.6
			C776.7,502.4,783.9,504.3,783.7,505.7"/>
		<path class="st22" d="M743.8,390.5c6.3,7.7,10,17.2,15.7,25.9c0,0,6.6-4.2,6.7-4.9c-5.4-8.3-9.2-17.8-15.7-25.9
			C750.1,385.9,743.8,390.5,743.8,390.5"/>
		<path class="st20" d="M685.8,496.2c6.9-1.2,14,0.7,20.2-3.2c0.4-0.3,0.9-3.2,1-3.9c0.1-0.7,0.6-3.6,1-3.9
			c-6.3,4.6-13.3,2-20.2,3.2C686.6,488.5,686.9,496,685.8,496.2"/>
		<path class="st21" d="M659.2,374.4c6.9,1.4,9.8,9,16.9,10.8c1.5,0.2,4.6-6,5.7-5.4c-6.9-1.4-9.8-9-16.9-10.8
			C663.9,368.4,660.7,374.7,659.2,374.4"/>
		<path class="st3" d="M738.2,441c6.9,1.4,9.8,9,16.9,10.8c1.5,0.2,4.6-6,5.7-5.4c-6.9-1.4-9.8-9-16.9-10.8
			C742.5,435.3,739.7,441.2,738.2,441"/>
		<path class="st17" d="M800.9,438.2c9.7-2.6,19.7-11.8,11.6-22c-1.2-1.7-6.3,0.1-8-1.2c7.8,9.8-2.2,19-11.9,21.6
			C794.9,436.2,798.2,438.9,800.9,438.2"/>
		<path class="st16" d="M603.3,401.1c-2-6.3-6-9.1-12.2-10.4c-6.7-2.2-11.7-3.7-15.2-10.2c0.5,1.6-3.9,6.1-3,7.4
			c3.2,6.1,7.3,8.2,13.7,9.9c6.4,1.7,10.9,4.3,13.2,11C599.8,406.9,604.1,403.1,603.3,401.1"/>
		<path class="st21" d="M856.5,448.5c-3,4.8-7.9,7.7-13.1,7.6c-0.7-0.1-2.2-2.9-2.5-3.4c-0.3-0.4-1.7-3.2-2.5-3.4
			c5.6-0.2,10.9-2.8,13.1-7.6C851.8,443,857.1,447.5,856.5,448.5"/>
		<path class="st21" d="M909.2,545.6c-5.1,1.8-10.9,0.9-15.3-2.4c-0.3-0.4,0.1-3.3,0.3-4.1c-0.3-0.4,0.6-3.6,0.3-4.1
			c4.3,3.3,10.1,4.2,15.3,2.4C908.6,537.7,910.5,544.7,909.2,545.6"/>
		<path class="st14" d="M830,418.4c1.1-2.1,2-3.4,4-4.2c2-0.8,4.5-0.1,6.2,0.6l-0.6-0.8c-0.6-0.8-1.2-1.7-1.5-2.1
			c-0.6-0.8-1.4-2.8-2.5-3.4c-2.1-1.1-3.8-1.7-5.8-0.9c-2.3,0.4-3.8,2.8-4.4,4.5c-0.4,0.3,2.2,2.9,2.5,3.4
			C827.8,415.4,830.4,418.1,830,418.4"/>
		<path class="st14" d="M715.4,456.5c2.3-0.4,3.9-0.9,5.2-2.5c1.4-1.6,1.4-4.2,1.3-6.1l0.6,0.8c0.6,0.8,1.2,1.7,1.5,2.1
			c0.6,0.8,2.3,2.2,2.5,3.4c0.4,2.3,0.5,4.2-0.9,5.8c-1.1,2.1-3.8,2.8-5.7,2.8c-0.4,0.3-2.2-2.9-2.5-3.4
			C717.5,459.4,715.8,456.1,715.4,456.5"/>
		<path class="st17" d="M680.3,615.5c2.3-0.4,3.9-0.9,5.2-2.5c1.4-1.6,1.4-4.2,1.3-6.1l0.6,0.8c0.6,0.8,1.2,1.7,1.5,2.1
			c0.6,0.8,2.3,2.2,2.5,3.4c0.4,2.3,0.5,4.2-0.9,5.8c-1.1,2.1-3.8,2.8-5.7,2.8c-0.4,0.3-2.2-2.9-2.5-3.4
			C682.5,618.5,680.3,615.5,680.3,615.5"/>
		<path class="st23" d="M951.5,506c2.3-0.4,3.9-0.9,5.2-2.5c1.4-1.6,1.4-4.2,1.3-6.1l0.6,0.8c0.6,0.8,1.2,1.7,1.5,2.1
			c0.6,0.8,2.3,2.2,2.5,3.4c0.4,2.3,0.5,4.2-0.9,5.8c-1.1,2.1-3.8,2.8-5.7,2.8c-0.4,0.3-2.2-2.9-2.5-3.4
			C953.6,509,951.5,506,951.5,506"/>
		<path class="st20" d="M732.2,523.4c2.3-0.4,3.9-0.9,5.2-2.5c1.4-1.6,1.4-4.2,1.3-6.1l0.6,0.8c0.6,0.8,1.2,1.7,1.5,2.1
			c0.6,0.8,2.3,2.2,2.5,3.4c0.4,2.3,0.5,4.2-0.9,5.8c-1.1,2.1-3.8,2.8-5.7,2.8c-0.4,0.3-2.2-2.9-2.5-3.4
			C734.3,526.4,732.2,523.4,732.2,523.4"/>
		<path class="st18" d="M954.5,443.2c2.3-0.4,3.9-0.9,5.2-2.5c1.4-1.6,1.4-4.2,1.3-6.1l0.6,0.8c0.6,0.8,1.2,1.7,1.5,2.1
			c0.6,0.8,2.3,2.2,2.5,3.4c0.4,2.3,0.5,4.2-0.9,5.8c-1.1,2.1-3.8,2.8-5.7,2.8c-0.4,0.3-2.2-2.9-2.5-3.4
			C956.7,446.2,954.5,443.2,954.5,443.2"/>
		<path class="st6" d="M738.1,648.7c2.3-0.4,3.9-0.9,5.2-2.5c1.4-1.6,1.4-4.2,1.3-6.1l0.6,0.8c0.6,0.8,1.2,1.7,1.5,2.1
			c0.6,0.8,2.3,2.2,2.5,3.4c0.4,2.3,0.5,4.2-0.9,5.8c-1.1,2.1-3.8,2.8-5.7,2.8c-0.4,0.3-2.2-2.9-2.5-3.4
			C740.2,651.6,738.5,648.4,738.1,648.7"/>
		<path class="st23" d="M779.1,270.5c2.3-0.4,3.9-0.9,5.2-2.5c1.4-1.6,1.4-4.2,1.3-6.1l0.6,0.8c0.6,0.8,1.2,1.7,1.5,2.1
			c0.6,0.8,2.3,2.2,2.5,3.4c0.4,2.3,0.5,4.2-0.9,5.8c-1.1,2.1-3.8,2.8-5.7,2.8c-0.4,0.3-2.2-2.9-2.5-3.4
			C780.9,273.8,779.1,270.5,779.1,270.5"/>
	</g>
</g>
</svg>
