<?xml version="1.0" encoding="utf-8"?>
<!-- Generator: Adobe Illustrator 23.0.3, SVG Export Plug-In . SVG Version: 6.00 Build 0)  -->
<svg version="1.1" id="Layer_1" xmlns="http://www.w3.org/2000/svg" xmlns:xlink="http://www.w3.org/1999/xlink" x="0px" y="0px"
	 viewBox="0 0 50 50" style="enable-background:new 0 0 50 50;" xml:space="preserve">
<style type="text/css">
	.st0{opacity:0.25;fill:#31628A;enable-background:new    ;}
	.st1{fill:none;}
</style>
<path id="ic_face_24px" class="st0" d="M17.5,24.4c-1.7,0-3.1,1.4-3.1,3.1s1.4,3.1,3.1,3.1s3.1-1.4,3.1-3.1l0,0
	C20.6,25.8,19.2,24.4,17.5,24.4z M32.5,24.4c-1.7,0-3.1,1.4-3.1,3.1s1.4,3.1,3.1,3.1s3.1-1.4,3.1-3.1l0,0
	C35.6,25.8,34.2,24.4,32.5,24.4z M25,0C11.2,0,0,11.2,0,25s11.2,25,25,25s25-11.2,25-25C50,11.2,38.8,0,25,0z M25,45
	C14,45,5,36,5,25c0-0.7,0-1.4,0.1-2.1c5.9-2.6,10.6-7.4,13-13.4C22.8,16.1,30.4,20,38.5,20c1.9,0,3.8-0.2,5.6-0.6
	c3.1,10.6-2.9,21.7-13.5,24.8C28.9,44.7,26.9,45,25,45z"/>
<path class="st1" d="M456.4,368.5c-0.4,1.3-0.8,2.5-1.3,3.8"/>
</svg>
