<?xml version="1.0" encoding="utf-8"?>
<!-- Generator: Adobe Illustrator 23.0.3, SVG Export Plug-In . SVG Version: 6.00 Build 0)  -->
<svg version="1.1" id="Layer_1" xmlns="http://www.w3.org/2000/svg" xmlns:xlink="http://www.w3.org/1999/xlink" x="0px" y="0px"
	 viewBox="0 0 55 42.5" style="enable-background:new 0 0 55 42.5;" xml:space="preserve">
<style type="text/css">
	.st0{opacity:0.25;fill:#31628A;enable-background:new    ;}
</style>
<path id="ic_import_contacts_24px" class="st0" d="M50,1.3C47.2,0.4,44.2,0,41.2,0c-4.9,0-10.1,1-13.8,3.8C23.9,1,18.6,0,13.8,0
	S3.6,1,0,3.8v36.6c0,0.7,0.6,1.2,1.2,1.2c0.2,0,0.4-0.1,0.6-0.1c3.7-1.7,7.8-2.6,11.9-2.8c4.9,0,10.1,1,13.8,3.8
	c4.2-2.3,8.9-3.6,13.8-3.8c4.1-0.1,8.2,0.8,11.9,2.6c0.2,0.1,0.4,0.1,0.6,0.1c0.7,0,1.2-0.6,1.2-1.2V3.8C53.5,2.6,51.8,1.8,50,1.3z
	 M50,35c-2.8-0.9-5.8-1.3-8.8-1.2c-4.8,0.1-9.5,1.4-13.8,3.8V8.8c4.2-2.3,8.9-3.6,13.8-3.8c3,0,5.9,0.4,8.8,1.2V35z"/>
</svg>
