<?xml version="1.0" encoding="utf-8"?>
<!-- Generator: Adobe Illustrator 23.0.3, SVG Export Plug-In . SVG Version: 6.00 Build 0)  -->
<svg version="1.1" id="Layer_1" xmlns="http://www.w3.org/2000/svg" xmlns:xlink="http://www.w3.org/1999/xlink" x="0px" y="0px"
	 viewBox="0 0 25.9 5" style="enable-background:new 0 0 25.9 5;" xml:space="preserve">
<style type="text/css">
	.st0{fill:#159EE9;}
</style>
<path id="Divider" class="st0" d="M25.5,1.8c-0.7-0.9-1.7-1.5-2.9-1.5c-1.1,0-2.2,0.6-2.9,1.5c-0.4,0.6-1,0.9-1.6,0.9
	c-0.7,0-1.3-0.4-1.6-0.9c-0.7-1-1.9-1.7-3.2-1.7c-0.2,0-0.3,0-0.5,0c-1.1,0.2-2.1,0.8-2.7,1.7C9.9,2.4,9.3,2.7,8.7,2.7
	S7.5,2.3,7.2,1.8C6.4,0.7,5.1,0,3.7,0C3.2,0,2.6,0.1,2.1,0.4C1.9,0.5,1.7,0.6,1.5,0.7c-0.1,0-0.1,0.1-0.2,0.2
	c-0.4,0.3-0.7,0.6-1,0.9L0,2.3l1.8,1.3l0.3-0.4c0.4-0.6,1-0.9,1.6-0.9c0.7,0,1.3,0.4,1.6,0.9c0.8,1.1,2,1.7,3.3,1.8
	c1.3,0,2.6-0.7,3.3-1.8c0.2-0.3,0.6-0.6,0.9-0.7c0.1-0.1,0.3-0.1,0.5-0.1c0.6,0,1.1,0.3,1.4,0.8c0.8,1.1,2,1.8,3.4,1.8
	s2.6-0.7,3.4-1.8c0.2-0.4,0.6-0.6,1.1-0.6c0.4,0,0.8,0.3,1.1,0.6L24,3.6l1.8-1.3L25.5,1.8z"/>
</svg>
