<?xml version="1.0" encoding="utf-8"?>
<!-- Generator: Adobe Illustrator 23.0.3, SVG Export Plug-In . SVG Version: 6.00 Build 0)  -->
<svg version="1.1" id="b49c538b-d2f0-4d56-8d1f-7f4005552b2e"
	 xmlns="http://www.w3.org/2000/svg" xmlns:xlink="http://www.w3.org/1999/xlink" x="0px" y="0px" viewBox="0 0 809.8 872.2"
	 style="enable-background:new 0 0 809.8 872.2;" xml:space="preserve">
<style type="text/css">
	.st0{opacity:0.1;fill:#159EE9;enable-background:new    ;}
	.st1{fill:#3F3D56;}
	.st2{fill:#0A6FB9;}
	.st3{fill:#0B7BCE;}
	.st4{opacity:0.1;enable-background:new    ;}
	.st5{fill:#FFCAC0;}
	.st6{fill:#D50F25;}
	.st7{fill:#2F2E41;}
	.st8{fill:#063E67;}
	.st9{fill:#82B2D6;}
	.st10{fill:#3DB366;}
	.st11{fill:none;stroke:#535461;stroke-miterlimit:10;}
	.st12{fill:#A8A8A8;}
	.st13{opacity:0.2;enable-background:new    ;}
	.st14{fill:#D50F25;enable-background:new    ;}
	.st15{fill:#FFBF00;enable-background:new    ;}
	.st16{fill:#159EE9;enable-background:new    ;}
	.st17{opacity:0.1;fill:#82B2D6;enable-background:new    ;}
</style>
<path class="st0" d="M508,98.7c5.5,36.6,44.6,51.6,74.7,54.5c29.1,2.7,59-3.8,88.5-10c20-4.2,40.5-8.3,59.9-4.4
	c46.9,9.5,74.7,65.6,74.7,121.4c0,258.9-83.8,358-112.1,406.4c-64.5,110.3-95-47.1-193.2,22.4c-35.1,24.9-71.8,47.4-110.5,61.4
	c-54.3,19.6-111,21.7-165.8,16.4c-30.8-3-61.5-8.3-89.5-21.3C52.5,707.3,4.1,598.3,22.7,493.1c4.1-23.2,10.4-59,16.1-91.4
	c14.3-81,43.4-158.8,86.8-228.7c29.9-48.3,68.2-95.6,113.1-121.3C275.5,30.6,415-0.6,450.4,16.1C485.8,32.9,502.2,59.4,508,98.7z"/>
<title>completed</title>
<path class="st1" d="M705.6,745.5c-23.7,84.3-206.2,162.5-400.3,108S-20.9,632.6,2.7,548.3s194.2-54.5,388.3,0
	S729.2,661.3,705.6,745.5z"/>
<path class="st2" d="M705.6,745.5c-23.7,84.3-206.2,162.5-400.3,108S-20.9,632.6,2.7,548.3s194.2-54.5,388.3,0
	S729.2,661.3,705.6,745.5z"/>
<ellipse transform="matrix(0.2702 -0.9628 0.9628 0.2702 -364.3666 813.0691)" class="st3" cx="354.1" cy="646.9" rx="158.5" ry="365"/>
<ellipse class="st4" cx="520.7" cy="678.2" rx="115.7" ry="36.3"/>
<g>
	<path class="st5" d="M570.2,617.5c0,0,5.9,25.6,15,31.1s-22.3,15.9-22.3,15.9s-13.7,8.5-17.3,11.6s-18.8,9.6-16.3,4.8
		s6.9-14.2,13.9-21.9s16.1-21.5,8.2-32.3C543.4,616,570.2,617.5,570.2,617.5z"/>
	<path class="st6" d="M538.4,306.7l-3.1-1.1c0,0-7.9-1.1-15.2,8.1S496.2,351,496.2,351l-6.2,14.5l21.8,0.7l16.4-36.1L538.4,306.7z"
		/>
	<path class="st4" d="M538.4,306.7l-3.1-1.1c0,0-7.9-1.1-15.2,8.1S496.2,351,496.2,351l-6.2,14.5l21.8,0.7l16.4-36.1L538.4,306.7z"
		/>
	<path class="st7" d="M535.1,530c0,0,12.4,2.7,10.3,12.3c-2.1,9.6,13,22,14.4,24.1s3.5,3,2.2,6.2s30.7,48.1,24.3,52.2
		c-6.4,4.1-58,20-62.7,16.8S515.3,534,515.3,534L535.1,530z"/>
	<path class="st7" d="M535.1,530c0,0,12.4,2.7,10.3,12.3c-2.1,9.6,13,22,14.4,24.1s3.5,3,2.2,6.2s30.7,48.1,24.3,52.2
		c-6.4,4.1-58,20-62.7,16.8S515.3,534,515.3,534L535.1,530z"/>
	<path class="st5" d="M506.8,643.4c0,0-7.7,25.1-2.5,34.4c5.2,9.3-27.3,2.6-27.3,2.6s-16.1,0.5-20.7,1.4s-21.1-1.1-16.5-4
		c4.6-3,13.1-8.8,23-12s24.7-10.6,23.2-23.9C484.4,628.7,506.8,643.4,506.8,643.4z"/>
	<path class="st7" d="M492.4,392.9c4.3-3,9.4-4.6,14.6-4.5c8.5,0.3,36.2,6.9,35.4,8.2c-0.8,1.2-1.6,2.3-2.5,3.3c0,0,1.8,8,1,8.8
		s15.1,18.9,5.8,57.8c-9.2,38.9-8.2,65.8-8.2,65.8s3.7,114.1-6.9,116.4s-52.7,0.8-54.6-3.7c-2-4.5,6-144.4,6-144.4s0.9-70.4,3-78.9
		C488,413.1,492.4,392.9,492.4,392.9z"/>
	<circle class="st5" cx="540.8" cy="267.1" r="26.5"/>
	<path class="st5" d="M536.8,284.6c0,0,16.4,16-3.8,28.5c-14.2,8.7,34.4-6.8,34.4-6.8s-10.1-25.8-8.6-31.8
		C560.3,268.6,536.8,284.6,536.8,284.6z"/>
	<path class="st6" d="M540.9,309.7c0,0,22.8-10.4,26.5-6.7c3.7,3.7,19.9,19.1,2.3,46.4c-17.6,27.3-21,47.7-24,50s-4.8-3-4.8-3
		s-8.6-7.8-14.2-7.8c-5.6,0-29.6,2.6-29.6,2.6l6.7-26.6c0,0-3.3-21,7.9-31.4c11.2-10.4,23.5-27.6,23.5-27.6l6.3-1.2l-4.2,5.3
		C537.4,309.8,536.8,311.4,540.9,309.7z"/>
	<path class="st5" d="M488.6,367.7c0,0-9.8,13.2-3.3,18.1s20.1-3.5,20.1-3.5s31.4,21.9,31,9s-23-21.8-23-21.8l-15.2,0.4l2.3-7.6
		l-6.4-0.7L488.6,367.7z"/>
	<path class="st4" d="M488.6,367.7c0,0-9.8,13.2-3.3,18.1s20.1-3.5,20.1-3.5s31.4,21.9,31,9s-23-21.8-23-21.8l-15.2,0.4l2.3-7.6
		l-6.4-0.7L488.6,367.7z"/>
	<path class="st5" d="M554.2,342.3c0,0-61.8,47.6-65.7,30.9c-2.6-10.9-0.6-37.6,1.1-55c1.2-12.7,6.9-24.5,16-33.4
		c3.7-3.6,7.1-5.9,8.9-4.2c4.8,4.7-11.3,23.6-11.3,23.6s-2.6,38.4,2.6,42.8c0,0,19.1-18.5,23.1-18.2
		C532.7,329.1,554.2,342.3,554.2,342.3z"/>
	<path class="st7" d="M595.1,291.8c-5.1-7.6-9.2-19.9-13.7-30.7c-1.5-3.5-2.8-7-4.1-10.6c-2.6-7.2-14.1-16.4-29.1-16.4
		c-17.2,0-31.1,8.6-31.1,15.9c0,6,9.5,11,22.5,12.6c-4.6,10.2-7.3,21.5-7.3,29.2c0,17.4,14.1,10,31.4,10
		C581,301.9,604.7,306.3,595.1,291.8z"/>
	<path class="st6" d="M567.4,312.6c0,0,11,28-13.7,34.4c0,0-4.8-6.7-12.8-7.8c-7.9-1.1-14.9-9.3-14.9-9.3s16.2-22.8,28.8-23.2
		C567.4,306.3,567.4,312.6,567.4,312.6z"/>
</g>
<path class="st8" d="M356.5,534.4h-87.8v-86.6h87.9L356.5,534.4z M355.3,403.9H270c0-134.5,127.8-126.6,127.8-211.7
	c0-46.9-38.4-84.4-85.2-84.4s-85.2,40.5-85.2,85.8h-85.2C142,99.5,218,23.2,312,23c0.2,0,0.4,0,0.6,0C406.7,23,483,98.1,483,192.1
	C483,298.5,355.2,310.7,355.3,403.9L355.3,403.9z"/>
<ellipse transform="matrix(0.3226 -0.9465 0.9465 0.3226 -452.7886 513.4631)" class="st4" cx="132.3" cy="573.1" rx="40.4" ry="83.7"/>
<g>
	<path class="st9" d="M93.3,278.7c0,0,41.8,41.8,18.2,103.9S152,547.9,152,547.9s-0.7-0.1-2-0.3C64.1,532.4,21.4,434.2,69.2,361.2
		C86.9,334,101.5,302.2,93.3,278.7z"/>
	<path class="st10" d="M93.3,279.4c0,0,41.8,41.8,18.2,103.9S152,548.6,152,548.6s-0.7-0.1-2-0.3C64.1,533.1,21.4,434.8,69.2,361.8
		C86.9,334.7,101.5,302.8,93.3,279.4z"/>
	<path class="st11" d="M93.3,278.7c0,0,23.6,51.3,0,93.1S89.3,531,152,547.9"/>
	<path class="st10" d="M18.7,447.9c0,0,47.7-7.6,52.1,35.2s91.8,48.7,91.8,48.7l-1.6,1.1c-72.2,47.4-141.2,30.2-130.8-32.8
		C34,476.8,33.7,453.3,18.7,447.9z"/>
	<path class="st11" d="M18.7,447.9c0,0,37.1,8.1,34,41.8s55,74.1,109.9,42.1"/>
	<path class="st12" d="M199.7,535.4c0,0-37.6-7.5-47.7-17.5s-55.1-27.6-60.2-15c-5.1,12.6-67.7,55.1-25,62.6s100.3,10,112.8,5
		S199.7,535.4,199.7,535.4z"/>
	<path class="st13" d="M66.8,560.8c42.6,7.5,100.3,10,112.8,5c9.6-3.8,16.2-22.2,18.8-30.7l1.2,0.3c0,0-7.5,30.1-20.1,35.1
		s-70.2,2.5-112.8-5c-12.3-2.2-15.8-7.3-14.5-13.7C53.3,555.9,57.6,559.2,66.8,560.8z"/>
</g>
<path class="st14" d="M186.5,367.5h-17.8v-17.6h17.8V367.5z M186.2,341h-17.3c0-27.3,26-25.7,26-43c0-9.5-7.8-17.2-17.3-17.2l0,0
	c-9.5,0.2-17.1,7.9-17.3,17.4H143c0.2-19.1,15.9-34.4,35-34.2c18.7,0.2,33.8,15.2,34.2,33.9C212.2,319.5,186.2,322,186.2,341
	L186.2,341z"/>
<path class="st15" d="M668.1,524.9h-17.8v-17.6h17.8V524.9z M667.9,498.4h-17.3c0-27.3,26-25.7,26-43c0-9.5-7.8-17.2-17.3-17.1l0,0
	c-9.5,0.2-17.2,7.9-17.4,17.4h-17.3c0.2-19.1,15.9-34.4,35-34.2c18.7,0.2,33.8,15.2,34.2,33.9C693.8,477,667.9,479.5,667.9,498.4z"
	/>
<path class="st16" d="M311.5,231.3h-12.9v-12.7h12.9V231.3z M311.3,212.1h-12.5c0-19.8,18.8-18.6,18.8-31.1
	c0-6.9-5.6-12.5-12.5-12.4l0,0c-6.9,0.1-12.4,5.7-12.5,12.6H280c-0.1-13.9,11.1-25.1,25-25.2s25.1,11.1,25.2,25
	C330.1,196.6,311.3,198.4,311.3,212.1z"/>
<path class="st17" d="M544.5,190.1h-7.3v-7.2h7.3V190.1z M544.4,179.2h-7.1c0-11.2,10.6-10.5,10.6-17.6c0-3.9-3.1-7-7-7h-0.1
	c-3.9,0.1-7,3.2-7.1,7.1h-7.1c0.2-7.8,6.7-14,14.5-13.9c7.5,0.2,13.6,6.2,13.9,13.7C555,170.4,544.4,171.5,544.4,179.2z"/>
</svg>
