<?xml version="1.0" encoding="utf-8"?>
<!-- Generator: Adobe Illustrator 23.0.3, SVG Export Plug-In . SVG Version: 6.00 Build 0)  -->
<svg version="1.1" id="Layer_1" xmlns="http://www.w3.org/2000/svg" xmlns:xlink="http://www.w3.org/1999/xlink" x="0px" y="0px"
	 viewBox="0 0 500 145.1" style="enable-background:new 0 0 500 145.1;" xml:space="preserve">
<style type="text/css">
	.st0{fill:#FFFFFF;}
	.st1{fill:#063E67;}
</style>
<g>
	<path class="st0" d="M0,35h21.2c6,0,11.2,1.1,15.5,3.2c4.3,2.2,7.6,5.3,9.9,9.4c2.3,4.1,3.4,9,3.4,14.7c0,5.8-1.1,10.7-3.4,14.8
		c-2.3,4.1-5.5,7.3-9.9,9.4c-4.3,2.2-9.5,3.3-15.6,3.3H0V35z M20.4,80.1c11.7,0,17.6-5.9,17.6-17.8c0-11.8-5.9-17.6-17.6-17.6H12
		v35.4H20.4z"/>
	<path class="st0" d="M99.8,89.8l-5.2-12.2H68.9l-5.2,12.2H51.5L76.7,35h9.7l25.2,54.8H99.8z M76.6,30.3h-8.6l10.2-10.8h6.7
		l10.2,10.8h-8.6l-4.9-5.5L76.6,30.3z M70.5,12.3c1.6-1.6,3.6-2.3,5.9-2.3c0.9,0,1.8,0.1,2.6,0.3c0.8,0.2,1.9,0.6,3.3,1
		c0.8,0.3,1.5,0.6,2.3,0.8c0.8,0.2,1.5,0.3,2.1,0.3c2.1,0,3.2-0.8,3.4-2.3h4.9c0,2.3-0.8,4.2-2.5,5.7c-1.6,1.6-3.6,2.3-5.9,2.3
		c-1,0-1.9-0.1-2.8-0.4c-0.9-0.3-1.9-0.6-3.1-1.1c-0.8-0.3-1.5-0.6-2.3-0.8c-0.8-0.2-1.5-0.3-2.1-0.3c-2.1,0-3.2,0.8-3.4,2.5H68
		C68,15.9,68.8,13.9,70.5,12.3z M72.9,68.5h17.7l-8.9-20.6L72.9,68.5z"/>
	<path class="st0" d="M152.5,35h11.3v54.8h-8.9l-27.3-35v35h-11.2V35h8.9l27.3,34.9V35z"/>
	<path class="st0" d="M209.1,89.8V44.7H192V35h46.5v9.8h-17.2v45.1H209.1z"/>
	<path class="st0" d="M291.2,89.8h-12.7l-7-18.3c-0.6-1.4-1.4-2.4-2.6-3c-1.2-0.6-2.6-0.8-4.4-0.8h-7.8v22.1h-11.9V35h24.4
		c6.4,0,11.2,1.4,14.5,4.2c3.3,2.8,4.9,6.8,4.9,11.9c0,3.6-1,6.8-2.9,9.4c-1.9,2.6-4.7,4.5-8.3,5.6c3.2,0.7,5.6,2.9,7,6.7
		L291.2,89.8z M267.5,58.5c3.4,0,6-0.6,7.5-1.7c1.6-1.2,2.4-3,2.4-5.4s-0.8-4.3-2.4-5.4c-1.6-1.2-4.1-1.7-7.5-1.7h-10.9v14.3H267.5z
		"/>
	<path class="st0" d="M305.1,84.6c-4-4-6-9.8-6-17.4V35h11.8v32.7c0,4.4,1,7.7,3,10c2,2.3,4.9,3.4,8.7,3.4s6.7-1.1,8.7-3.4
		c2-2.3,3-5.6,3-10V35h11.9v32.2c0,7.6-2,13.4-6,17.4c-4,4-9.9,6-17.5,6C315,90.5,309.1,88.5,305.1,84.6z"/>
	<path class="st0" d="M404.9,35l-22.7,33.6v21.3h-12V68.5L347.5,35h13.6l14.9,23.4L391.2,35H404.9z"/>
	<path class="st0" d="M406.3,89.8V35h37.8v9.3H418v12.9h24.5v9.4H418v13.9h26.1v9.3H406.3z M421.7,30.3h-8.8l10.2-12.1h6.7
		l10.2,12.1h-8.8l-4.8-6.6L421.7,30.3z M421.1,95h10.7v10.2h-10.7V95z"/>
	<path class="st0" d="M488.7,35H500v54.8h-8.9l-27.3-35v35h-11.2V35h8.9l27.3,34.9V35z"/>
</g>
<g>
	<path class="st1" d="M178.5,124.9l-1.5-3.5h-7.4l-1.5,3.5h-2.7l6.8-15h2.2l6.8,15H178.5z M170.5,119.3h5.5l-2.8-6.4L170.5,119.3z"
		/>
	<path class="st1" d="M187.1,124.9v-15h2.7v12.8h7v2.2H187.1z"/>
	<path class="st1" d="M203.1,109.9h6.5c1.6,0,2.9,0.4,3.8,1.2s1.4,1.8,1.4,3.2s-0.5,2.4-1.4,3.2c-0.9,0.8-2.2,1.2-3.8,1.2h-3.8v6.3
		h-2.7V109.9z M209.3,116.6c0.9,0,1.7-0.2,2.1-0.6c0.5-0.4,0.7-0.9,0.7-1.7c0-0.7-0.2-1.3-0.7-1.7c-0.5-0.4-1.2-0.6-2.2-0.6h-3.5
		v4.5H209.3z"/>
	<path class="st1" d="M231.8,109.9h2.7v15h-2.7v-6.5h-7.7v6.5h-2.7v-15h2.7v6.3h7.7V109.9z"/>
	<path class="st1" d="M253.5,124.9l-1.5-3.5h-7.4l-1.5,3.5h-2.7l6.8-15h2.2l6.8,15H253.5z M245.5,119.3h5.5l-2.8-6.4L245.5,119.3z"
		/>
	<path class="st1" d="M275.6,124.9v-12.8h-4.9v-2.2h12.6v2.2h-4.9v12.8H275.6z"/>
	<path class="st1" d="M289.3,124.9v-15h10.1v2.2H292v4.2h6.9v2.2H292v4.4h7.4v2.2H289.3z"/>
	<path class="st1" d="M307.8,124.7c-1-0.3-1.9-0.8-2.6-1.3l0.9-2c0.7,0.5,1.5,1,2.3,1.2c0.8,0.3,1.7,0.4,2.6,0.4
		c1,0,1.8-0.2,2.4-0.5c0.6-0.4,0.9-0.9,0.9-1.5c0-0.6-0.3-1-0.8-1.3c-0.5-0.3-1.4-0.6-2.6-0.9c-1.9-0.4-3.3-0.9-4.1-1.6
		c-0.9-0.6-1.3-1.6-1.3-2.8c0-0.9,0.2-1.7,0.7-2.4c0.5-0.7,1.2-1.2,2-1.6c0.9-0.4,1.9-0.6,3.1-0.6c1.1,0,2.1,0.2,3,0.5
		c1,0.3,1.7,0.8,2.3,1.3l-0.9,2c-1.3-1.1-2.8-1.6-4.4-1.6c-1,0-1.7,0.2-2.3,0.6c-0.6,0.4-0.8,0.9-0.8,1.6c0,0.6,0.2,1,0.7,1.4
		c0.5,0.3,1.4,0.6,2.6,0.9c1.3,0.3,2.3,0.6,3.1,1c0.8,0.3,1.4,0.8,1.8,1.3c0.4,0.5,0.6,1.2,0.6,2c0,0.9-0.2,1.7-0.7,2.4
		c-0.5,0.7-1.2,1.2-2.1,1.6c-0.9,0.4-2,0.5-3.2,0.5C309.9,125.1,308.8,125,307.8,124.7z"/>
	<path class="st1" d="M327,124.9v-12.8h-4.9v-2.2h12.6v2.2h-4.9v12.8H327z"/>
</g>
</svg>
