<svg id="f1248760-b706-401a-9a88-490bc0db237b" xmlns="http://www.w3.org/2000/svg" viewBox="0 0 1000 1000"><defs><style>.cls-1,.cls-3{fill:#c4dcef;}.cls-1{opacity:0.5;}.cls-1,.cls-11{isolation:isolate;}.cls-2{fill:#b1cee0;}.cls-4{fill:#82b2d6;}.cls-5{fill:#1f628d;}.cls-6{fill:#ffb9b9;}.cls-7{fill:#2f2e41;}.cls-8{fill:#76b3da;}.cls-9{fill:#20618d;}.cls-10{fill:#3f3d56;}.cls-11{opacity:0.1;}.cls-12{fill:#ffc1c7;}</style></defs><title>player</title><path class="cls-1" d="M550,74.59c192.7,57.5,413.9,32.2,370,226.6C811.13,783-245.17,860.49,302,495.29c-74.5-182.7-158.9-173.1-151.9-300.6C160.83-2.31,357.23,17.09,550,74.59Z"/><path class="cls-2" d="M198.33,563.89c-6.9,12.4-12.2,27.1-15.8,43.4l.3-1.1,57.5,61.7c-3.5-21.4-5.8-41.8-7.4-60.1l-34.9-43Z"/><path class="cls-2" d="M229.73,530a17.39,17.39,0,0,0-1.8,1.1c-11.6,7.1-21.3,18.2-29.1,32l33.8,41.6C229.23,564.19,229.63,534.89,229.73,530Z"/><path class="cls-2" d="M269.83,782.39c-1.6-4.2-3.2-8.6-4.7-13l-.1.6-84-56.5c1.3,7.6,2.8,15.1,4.7,22.7l.1-1.2Z"/><path class="cls-2" d="M252.93,728.69q-7.05-27.3-12.1-57.3l-58.6-62.9a264.25,264.25,0,0,0-5.5,60.8l.2-1.2Z"/><path class="cls-2" d="M330.13,568.69l-88,101.4c2.4,14.3,5.3,29.6,9.1,45.5l100.5-110.5a217.17,217.17,0,0,0-22.1-37.5Z"/><path class="cls-2" d="M352.23,606.19l.5,1.1-100.9,110.9c.9,3.8,1.9,7.7,2.9,11.5l103.2-110.2.5,1.1C356.43,615.59,354.43,610.79,352.23,606.19Z"/><path class="cls-2" d="M264.23,766.89c-3.8-11.1-7.3-22.8-10.5-34.9l-76.9-61.4a305.18,305.18,0,0,0,4,41.5l.1-1.2Z"/><path class="cls-2" d="M206.33,787.19c37.2,59.5,110.6,93.6,128.8,101.3q-24.45-24-43.7-59Z"/><path class="cls-2" d="M273,786.09a378.68,378.68,0,0,0,18.7,40.4l81.4-109.7.6,1.2a296.91,296.91,0,0,0-1-40Z"/><path class="cls-2" d="M287.33,529.79c-19-9.6-38.8-10.3-56.8-.3l.7.3c0,.4-.8,30.9,2.8,74.7Z"/><path class="cls-2" d="M186.13,737.69c1.2,4.7,2.5,9.3,3.9,14a145.82,145.82,0,0,0,15.2,33.7l.1-1.2,84.3,41.9a375.23,375.23,0,0,1-16.9-36.4l-1.5-3.9Z"/><path class="cls-2" d="M328.93,566.59c-12.5-16.6-26.4-28.9-40.7-36.4l.5,1.1-54.5,76.5c1.6,18,3.9,38.2,7.3,59.4Z"/><path class="cls-2" d="M339.43,890c1.9-5.4,30.8-90.3,34.2-170.3l-80.8,108.9C305.53,851.59,320.83,872.69,339.43,890Z"/><path class="cls-2" d="M372.43,675a175.27,175.27,0,0,0-6.3-32.1c-2.2-7.3-4.6-14.3-7.2-21.1l-103.4,110.5a521.37,521.37,0,0,0,16.6,51.4h.1Z"/><path class="cls-2" d="M27.63,706.09a166.7,166.7,0,0,0,2.4,46.1l-.1-1.1,77.1,34.3c-11.6-18.4-21.8-36.2-30.4-52.4l-48.9-25.9Z"/><path class="cls-2" d="M43.23,662.59c-.4.6-.8,1.1-1.2,1.7-7.8,11.1-12.5,25.1-14.2,40.9l47.4,25C56.13,694.29,45,667.19,43.23,662.59Z"/><path class="cls-2" d="M179,879.09c-3.2-3.3-6.3-6.6-9.4-10.1l.2.5-99.4-19c4.1,6.5,8.5,12.8,13.2,19l-.4-1.2Z"/><path class="cls-2" d="M142.43,836.29q-17.1-22.35-33.6-48l-78.5-34.9a264.66,264.66,0,0,0,18.8,58.1l-.3-1.1Z"/><path class="cls-2" d="M150.73,658.79l-41.2,127.8c7.8,12.2,16.5,25.2,26.2,38.3l49.2-141.1a214.87,214.87,0,0,0-35-25.8Z"/><path class="cls-2" d="M185.83,684.69l.9.9-49.4,141.6c2.3,3.2,4.7,6.3,7.2,9.5l51.7-141.9.9.9C193.43,691.69,189.63,688.09,185.83,684.69Z"/><path class="cls-2" d="M167.83,867c-7.9-8.8-15.6-18.1-23.3-28l-94.8-26.3a323.93,323.93,0,0,0,19.9,36.6l-.3-1.2Z"/><path class="cls-2" d="M122.53,908.39c57.6,40.2,138.4,42.7,158.2,42.7-21.3-8.3-42.5-20.7-63.3-37.1Z"/><path class="cls-2" d="M183.43,881.29a361.55,361.55,0,0,0,33.1,29.9l31.8-132.9,1,.9a284.33,284.33,0,0,0-16.6-36.4Z"/><path class="cls-2" d="M96.13,639.89c-21.3-1.3-39.7,5.7-52.4,22h.8c.2.4,11.4,28.8,31.9,67.7Z"/><path class="cls-2" d="M84.53,870.79q4.35,5.7,9,11.4a143.3,143.3,0,0,0,27.2,25l-.4-1.1,94,5.5a361.65,361.65,0,0,1-29.8-26.9l-3-3Z"/><path class="cls-2" d="M148.83,657.39c-18-10.3-35.6-16.3-51.7-17.5l.9.8-20.1,91.7c8.5,16,18.5,33.6,30,51.8Z"/><path class="cls-2" d="M285.23,950.79c-.4-5.7-7.1-95.1-35.3-170.1l-31.6,131.9C239,928.79,261.43,942.19,285.23,950.79Z"/><path class="cls-2" d="M231.33,740.09a184.57,184.57,0,0,0-18.4-27.1c-4.9-5.9-9.9-11.4-14.9-16.6l-51.8,142.2a508.29,508.29,0,0,0,35.4,40.7h.1Z"/><path class="cls-2" d="M564.93,736.59c-13.2-5.2-28.5-8.6-45.1-10.1l1.1.2-53.8,65c20.8-6.2,40.7-11.2,58.6-15.1l38.1-40.2Z"/><path class="cls-2" d="M602.63,763.39a19.23,19.23,0,0,0-1.3-1.7c-8.6-10.5-20.8-18.8-35.5-24.7l-36.9,38.9C568.63,767.29,597.73,763.89,602.63,763.39Z"/><path class="cls-2" d="M357.53,835.79c4-2.2,8.1-4.3,12.3-6.4h-.6l45.1-90.6c-7.3,2.2-14.6,4.8-21.9,7.6l1.2-.1Z"/><path class="cls-2" d="M408.63,812.09q26.1-10.5,55.3-19.4l54.8-66.2a254.05,254.05,0,0,0-61,2.5h1.2Z"/><path class="cls-2" d="M577.23,867.89l-112-74.1c-13.9,4.2-28.7,9.1-43.9,14.9l122.6,85.4a211.13,211.13,0,0,0,34.3-26.8Z"/><path class="cls-2" d="M542.93,894.69l-1.1.6-123.1-85.7c-3.7,1.4-7.3,2.9-11,4.4l122.7,88-1.1.6C534.13,900.09,538.63,897.49,542.93,894.69Z"/><path class="cls-2" d="M372.23,828.29c10.6-5.2,21.6-10.2,33.2-14.9l50.9-84.2a314,314,0,0,0-40.6,9.3h1.2Z"/><path class="cls-2" d="M344.53,773.49c-54.2,44.6-78.4,121.8-83.7,140.8,13.7-18.2,31.4-35.3,52.8-51Z"/><path class="cls-2" d="M354.23,839.49a379.2,379.2,0,0,0-37.7,23.8l119.4,66.5-1.1.7a308.86,308.86,0,0,0,39.5-6.1Z"/><path class="cls-2" d="M610.23,820.39c7-20.1,5.2-39.8-7.1-56.4l-.2.8c-.4,0-30.8,3.2-73.7,12.5Z"/><path class="cls-2" d="M391,747.09c-4.5,1.8-8.9,3.6-13.4,5.6a146.81,146.81,0,0,0-31.4,19.4l1.2-.1-30.6,89a387.18,387.18,0,0,1,33.9-21.5c1.2-.7,2.5-1.4,3.7-2Z"/><path class="cls-2" d="M579.13,866.49c14.8-14.5,25.3-29.9,30.8-45.1l-1,.7L526,778c-17.7,3.9-37.4,8.8-57.9,14.9Z"/><path class="cls-2" d="M259.93,918.79c5.6,1.1,93.5,18.8,173.3,11.8l-118.5-66C293.53,880.19,274.63,898.09,259.93,918.79Z"/><path class="cls-2" d="M477.33,923.59a179.27,179.27,0,0,0,31-10.4c7-3.1,13.6-6.4,20-9.9l-123-88.2a494.61,494.61,0,0,0-48.8,23.2v.1Z"/><polygon class="cls-3" points="530.23 196.39 134.23 196.39 134.23 326.39 149.23 326.39 149.23 360.39 183.23 326.39 530.23 326.39 530.23 196.39"/><polygon class="cls-3" points="530.23 546.39 134.23 546.39 134.23 676.39 149.23 676.39 149.23 710.39 183.23 676.39 530.23 676.39 530.23 546.39"/><polygon class="cls-3" points="204.23 372.39 600.23 372.39 600.23 502.39 585.23 502.39 585.23 536.39 551.23 502.39 204.23 502.39 204.23 372.39"/><rect class="cls-4" x="180.23" y="217.89" width="304" height="12"/><rect class="cls-4" x="180.23" y="240.89" width="152" height="12"/><circle class="cls-4" cx="197.23" cy="287.89" r="17"/><rect class="cls-5" x="240.23" y="391.89" width="304" height="12"/><rect class="cls-5" x="240.23" y="414.89" width="152" height="12"/><circle class="cls-5" cx="257.23" cy="461.89" r="17"/><rect class="cls-4" x="180.23" y="567.89" width="304" height="12"/><rect class="cls-4" x="180.23" y="590.89" width="152" height="12"/><circle class="cls-4" cx="197.23" cy="637.89" r="17"/><polygon class="cls-5" points="170.23 397.99 156.63 421.69 183.93 421.69 170.23 397.99"/><polygon class="cls-5" points="170.23 473.59 183.93 449.89 156.63 449.89 170.23 473.59"/><circle class="cls-5" cx="170.23" cy="435.79" r="8.9"/><polygon class="cls-4" points="564.23 223.89 550.63 247.59 577.93 247.59 564.23 223.89"/><polygon class="cls-4" points="564.23 299.49 577.93 275.79 550.63 275.79 564.23 299.49"/><circle class="cls-4" cx="564.23" cy="261.69" r="8.9"/><polygon class="cls-4" points="564.23 573.99 550.63 597.69 577.93 597.69 564.23 573.99"/><polygon class="cls-4" points="564.23 649.59 577.93 625.89 550.63 625.89 564.23 649.59"/><circle class="cls-4" cx="564.23" cy="611.79" r="8.9"/><path class="cls-5" d="M519.53,885.09c-250.4,0-468.4,3.3-468.3,39.8.2,56.8,217.9,36.2,468.3,36.2s453.5-32.5,453.5-48S769.93,885.09,519.53,885.09Z"/><path class="cls-6" d="M639.63,361.69l-31.7-45.1c-2,1.6-31.3-84.7-41.6-79.8C546.63,246.09,586,326,586,326l24.5,32.1Z"/><path class="cls-6" d="M834.23,577.79s-22.8,44.2-29.4,45.5-6.7-40.2-6.7-40.2,13.4-12,18.7-10.7S834.23,577.79,834.23,577.79Z"/><path class="cls-7" d="M796.13,897.79s50-4.6,44.6,11.6-32.7,11.4-40.7,21.8c-10.8,13.8-38.9.8-36.3-5.3,2.3-5.5,4.2-18.3,10.9-27.2S796.13,897.79,796.13,897.79Z"/><path class="cls-7" d="M643.33,917.19c-5.8,4.5-5.8,14.3.2,18.5,3.8,2.6,11.4,3.3,19.1,3.8,22.1,1.6,17.9-3.2,35.4-.7,31.2,4.6,26.9-28.8,20.4-33.7s-31,.1-44.9,4.1C665.43,911.79,650.33,911.79,643.33,917.19Z"/><path class="cls-8" d="M794.13,591.59s10.7,7.4,13.4,53.3-1.3,97.7-2.7,109.5,1.3,29.6,4,38.5-6.7,77-6.7,77a38,38,0,0,1,0,29.6c-6.7,16.3-26.8,32.6-32.1,16.3a43.43,43.43,0,0,0-4-16.3c-4-8.9,2.7-44.4,2.7-44.4s-5.4-56.3-4-71.1-16.1-102.1-18.7-116.9-1.3-26.6-2.7-22.2-25.4,127.3-25.4,127.3,2.7,78.5,1.3,88.8,5.4,31.1,1.3,38.5-9.9,23-26.8,17.8c-20-6.2-12-22.2-13.4-29.6s0-16.3,0-28.1-10.7-78.5-5.4-88.8,2.7-23.7,1.3-47.4-2.7-137.7,10.7-158.4S794.13,591.59,794.13,591.59Z"/><circle class="cls-6" cx="761.33" cy="305.49" r="32.1"/><path class="cls-6" d="M782,318.19s-1.3,48.2,5.4,56.2-57.6-6.7-57.6-6.7,14.7-30.8,5.4-50.9S782,318.19,782,318.19Z"/><path class="cls-9" d="M794.13,369s-2.7-10.7-18.7-13.4-35.1-5.4-41,0-8.6,12-12.6,12h-18.7l-29.4,52.2s14.7,17.4,10.7,49.5-10.7,91-10.7,91a299.39,299.39,0,0,1,28.1,45.5c13.4,26.8,105.7,24.1,100.4-22.8,0,0-6.7-12-4-22.8s10.7-83,10.7-83l30.8-81.6C839.63,395.79,796.83,374.39,794.13,369Z"/><path class="cls-9" d="M830.23,394.49h9.4s5.4,30.8,4,49.5-1.3,62.9-1.3,62.9,5.4,10.7,4,20.1-4,34.8-4,34.8-1.3,36.1-26.8,17.4c0,0-8-4-4-21.4s-2.7-36.1-2.7-36.1,4-12,2.7-20.1-6.7-33.5-6.7-33.5Z"/><path class="cls-9" d="M709.73,371.69l-6.7-4s-9.4-4-22.8,0-20.1,2.7-25.4,1.3-22.9-21.6-22.9-21.6-8.9-8.5-19.6,2.2,2.6,29.9,2.6,29.9-.2,12.3,23.9,20.3,34.8,20.1,34.8,20.1h26.8Z"/><path class="cls-10" d="M759.13,343.79a6.26,6.26,0,0,0-3.8-5.5,17.86,17.86,0,0,0-4.6-.9c-4.6-.6-9.2-2.3-11.9-5.7-3.5-4.6-2.6-11.1-5.4-16.2a60.72,60.72,0,0,0-4.3-5.7c-4.9-6.6-5.8-15.1-6.3-23.1a11.12,11.12,0,0,1,.5-4.8,16.14,16.14,0,0,1,3.1-3.8,12.22,12.22,0,0,0,3-8.4c-.1-6.2,8.8-10.4,15.1-12.6s13.1-2.5,19.9-2.6c3.9-.1,7.9,0,11.4,1.4a25.29,25.29,0,0,1,5.7,3.4c7.4,5.4,14.4,12.1,16.9,20.6a47.58,47.58,0,0,1,1.4,11.8,8.75,8.75,0,0,1-.5,3.6c-.9,1.8-3,2.8-4.4,4.3-2.5,2.8-2.1,7-2.4,10.6a24.24,24.24,0,0,1-12,18.4,13.73,13.73,0,0,0-3.7,2.6,21.22,21.22,0,0,0-2.1,3.6C772,340.19,765.33,343.59,759.13,343.79Z"/><path class="cls-11" d="M283.43,813.39c101.9,0,185.2,13,185.2,72.7s-82,41.3-184,41.3-185.2,18.5-185.2-41.3S181.53,813.39,283.43,813.39Z"/><path class="cls-5" d="M283.43,802.19c101.9,0,185.2,13,185.2,72.7s-82,41.3-184,41.3-185.2,18.5-185.2-41.3S181.53,802.19,283.43,802.19Z"/><path class="cls-12" d="M440,694s53.4,17.4,55.2,9.9-44-11.8-44-11.8l-3.8-4.4Z"/><path class="cls-4" d="M353.13,705.79c11.2,11.2,74.5,13,74.5,13L440,694c-26.7,7.4-75.7-9.9-75.7-9.9S342,694.59,353.13,705.79Z"/><path class="cls-11" d="M353.13,705.79c11.2,11.2,74.5,13,74.5,13L440,694c-26.7,7.4-75.7-9.9-75.7-9.9S342,694.59,353.13,705.79Z"/><circle class="cls-12" cx="397.57" cy="518.1" r="32.9" transform="translate(-177.53 827.54) rotate(-80.78)"/><path class="cls-12" d="M375.13,534.09c2.8-.7,7.8,1.1,10.8,1.3,4,.2,8.1.1,12.1,0l22.2-.6c-2.2,7-6.7,13-10.3,19.4s-6.2,14-4.2,21a538.16,538.16,0,0,1-56.5-8.4,54.34,54.34,0,0,0,15.9-11.9,27.89,27.89,0,0,0,4.3-5.9C372,543.69,369.13,535.49,375.13,534.09Z"/><path class="cls-7" d="M344.43,694l13.7,47.8s60.2,10.5,102.4,1.9,41,37.2,41,37.2l18,89.4s9.9,14.9,9.9,21.1,6.2,16.8,6.2,16.8c.6,12.4-42.8,9.3-41,0s-5-16.1-5-16.1l-13-29.8c-14.9-27.3-17.4-55.2-18-65.2s-27.9,3.1-27.9,3.1-50.3,13-117.9,5.6-36.6-80-36.6-80l18.6-22.3Z"/><path class="cls-11" d="M344.43,694l13.7,47.8s60.2,10.5,102.4,1.9,41,37.2,41,37.2l18,89.4s9.9,14.9,9.9,21.1,6.2,16.8,6.2,16.8c.6,12.4-42.8,9.3-41,0s-5-16.1-5-16.1l-13-29.8c-14.9-27.3-17.4-55.2-18-65.2s-27.9,3.1-27.9,3.1-50.3,13-117.9,5.6-36.6-80-36.6-80l18.6-22.3Z"/><path class="cls-7" d="M367.43,718.19q37.35-7.2,73.8-18c36.6-11.2,50.9,9.9,50.9,9.9l50.3,49,50.3,45.9c3.1,23-27.3,16.1-32.3,16.1s-13.7-12.4-13.7-12.4c-13-4.3-45.3-27.9-45.3-27.9s-.6-5-6.7-25.6-37.3-4.8-37.3-4.8-62.7,29.8-72.6,40.3-52.1,11.2-84.4,8.1-24.2-73.2-24.2-73.2c31.6-45.3,88.4-24,88.4-24Z"/><path class="cls-4" d="M538,905.59c4.3-2.5,6.2,3.7,6.2,3.7l17.4,8.1s19.2-2.5,23,7.4-21.7,14.9-27.9,14.3-31,2.5-31,2.5-21.1,2.5-31-1.2,1.9-33.5,1.9-33.5C521.33,917.39,533.73,908.09,538,905.59Z"/><path class="cls-4" d="M596.43,805.09c5,8.7,17.4,8.7,17.4,8.7,16.8-.5,18.8,2.6,18.8,4.1a9,9,0,0,0,.2,2.3c2.6,11.5-14.3,17.2-20.3,17.8-6.2.6-22.3,5-43.4,7.4s-8.1-26.7-8.1-26.7C577.83,828.69,596.43,805.09,596.43,805.09Z"/><path class="cls-4" d="M401.53,636.89c1.9,31-24.8,39.1-24.8,39.1s-.6,10.5-5.6,13-8.7,17.4-8.7,17.4l-86.3,19.2s24.8-127.2,62.1-155.1,81.9,0,81.9,0S399.73,605.89,401.53,636.89Z"/><path class="cls-4" d="M389.13,609.59s25.4,72,29.2,84.4,21.7,13,31,6.8-6.2-43.4-6.2-43.4l-7.4-31c-1.9-39.1-15.5-54.6-15.5-54.6h-23Z"/><path class="cls-7" d="M386.93,481.59c2.3-6.4,10.1-9.3,16.8-8.2s12.4,5.3,17.6,9.6c26.3,22.2,46.4,55.7,41,89.7a7.45,7.45,0,0,0-5,2.6,25.54,25.54,0,0,0,7.5,8.8l-13.1.1,2.2,10.6c-19.5-6.7-33.6-25.7-53.8-29.3-12.2-2.2-24.6,1.7-36.4,5.6l-37.6,12.3,22.3-20a61.1,61.1,0,0,1-20,.6c14.8-6,20.8-23.5,23.9-39.2s5.4-33,17.3-43.7a33.22,33.22,0,0,1,34.4-5.6"/></svg>