<svg id="f1248760-b706-401a-9a88-490bc0db237b" xmlns="http://www.w3.org/2000/svg" viewBox="0 0 1000 1000"><defs><style>.cls-1,.cls-3{fill:#c4dcef;}.cls-1{opacity:0.5;}.cls-1,.cls-5,.cls-6,.cls-8{isolation:isolate;}.cls-2{fill:#b1cee0;}.cls-4,.cls-6{fill:#82b2d6;}.cls-5{fill:#20618d;opacity:0.25;}.cls-6{opacity:0.3;}.cls-7{fill:#1f628d;}.cls-8{opacity:0.1;}.cls-9{fill:#76b3da;}.cls-10{fill:#ffb9b9;}.cls-11{fill:#2f2e41;}.cls-12{fill:#f2f2f2;}</style></defs><title>narrator</title><path class="cls-1" d="M598.67,112.83c159.8,122.2,186.1,345.5,58.8,498.9s-515.1,252.4-519.9,56.4c-4.7-197.3-110.5-382.1-58.7-498.9C158.87-11.17,439-9.27,598.67,112.83Z"/><path class="cls-2" d="M263.37,389.73l2.7,55.3c11,14.7,22.8,31.4,34.5,49.7l1.7-84.3.9.6c-13.5-9.7-27.3-17.1-40.7-21.8Z"/><path class="cls-2" d="M264.17,442.53l-2.6-53.5c-15.1-5.1-29.7-6.8-43.1-4.5-.7.1-1.4.3-2.1.4C219.87,388.53,239.67,410,264.17,442.53Z"/><path class="cls-2" d="M385.87,508.43l.9.8c-3.7-6.9-7.5-13.5-11.6-20l-24.9,98.1-.4-.4c1.8,4.3,3.5,8.6,5.1,12.8Z"/><path class="cls-2" d="M347.87,452.63l.9.7a262.94,262.94,0,0,0-44.6-41.7l-1.7,85.9q16.35,25.8,29.2,50.8Z"/><path class="cls-2" d="M167.07,479.53a221.21,221.21,0,0,0,8.5,42.7l148.6,15.3c-7.8-14.3-15.8-27.7-23.5-40l-133.2-16.9Z"/><path class="cls-2" d="M181,538.23l-.4-1.2,150.5,13.4c-1.8-3.6-3.7-7.1-5.5-10.5l-149.2-15.4-.4-1.2C177.47,528.23,179.17,533.23,181,538.23Z"/><path class="cls-2" d="M373.37,487.23l.9.8a322.23,322.23,0,0,0-24.7-33.6l-16.4,97c5.7,11.1,10.8,22.1,15.4,33Z"/><path class="cls-2" d="M370.27,649.33q9,38.85,6.7,73.1c8.4-17.9,40.4-92.2,28.4-161.4Z"/><path class="cls-2" d="M208.57,590.53a313.71,313.71,0,0,0,25.9,30.5l-.4-1.3L368,647.23a373.52,373.52,0,0,0-13-42.6Z"/><path class="cls-2" d="M263,443.43c-26.5-35.1-47.4-57.3-47.7-57.6l.3-.7c-20.1,4.6-34.3,18.3-42.1,38.1Z"/><path class="cls-2" d="M356.17,603c.5,1.3,1,2.6,1.5,4a369.25,369.25,0,0,1,11.7,38.4l34.9-87.4.9.9a144.21,144.21,0,0,0-11.1-35.2c-2.1-4.4-4.2-8.7-6.5-13Z"/><path class="cls-2" d="M299.07,495.13c-11.6-18.1-23.3-34.6-34.2-49.1l-91.6-20.7-.3-1.2c-5.7,15.1-7.8,33.6-6.1,54.2Z"/><path class="cls-2" d="M368.57,649.53l-132.9-27.3c55.9,57.4,134,101.3,139,104.1C377.07,701,374.37,675.13,368.57,649.53Z"/><path class="cls-2" d="M354.07,602.33h0a495.44,495.44,0,0,0-21.8-49.5l-150.8-13.4c2.6,6.8,5.5,13.6,8.7,20.6a176.4,176.4,0,0,0,16.7,28.1Z"/><path class="cls-2" d="M595.27,588.93l-38.6,39.7c-3.2,18-7.4,38.2-12.7,59.2l62.8-56.3.2,1.1c-2.2-16.5-6.2-31.6-11.9-44.6Z"/><path class="cls-2" d="M557.17,625.43l37.4-38.4c-6.5-14.5-15.3-26.4-26.1-34.5-.6-.4-1.1-.8-1.7-1.2C566.37,556.33,564.17,585.43,557.17,625.43Z"/><path class="cls-2" d="M592.07,759.43v1.2c2.5-7.4,4.8-14.7,6.7-22.2l-88.7,48.8v-.6c-1.9,4.3-3.9,8.4-5.9,12.5Z"/><path class="cls-2" d="M606.87,693.63l.1,1.2a260.15,260.15,0,0,0,0-61.1l-64,57.4q-7.65,29.55-17.1,56Z"/><path class="cls-2" d="M463.87,579.83a221.8,221.8,0,0,0-25.4,35.4l90.3,119c5.2-15.4,9.5-30.5,13.1-44.5l-78.6-108.9Z"/><path class="cls-2" d="M430.47,630.13l.6-1.1L524,748.13c1.4-3.8,2.7-7.5,3.9-11.2l-90.6-119.5.6-1.1C435.37,620.73,432.87,625.33,430.47,630.13Z"/><path class="cls-2" d="M599.17,735.83V737a316.81,316.81,0,0,0,7.7-40.9l-82.1,54.3c-4.3,11.8-8.8,23-13.6,33.8Z"/><path class="cls-2" d="M478.47,844.23c-14.8,22-31.2,40.4-48.8,54.8,18.8-6.1,94.9-33.4,137.3-89.4Z"/><path class="cls-2" d="M411.07,685.93a293.79,293.79,0,0,0-4.5,39.8l.7-1.2,71.2,116.6a360.39,360.39,0,0,0,22.2-38.6Z"/><path class="cls-2" d="M555.77,625.23c7.5-43.3,9.5-73.8,9.5-74.2l.8-.3c-17.1-11.6-36.8-12.6-56.6-4.8Z"/><path class="cls-2" d="M502.67,802.33c-.6,1.3-1.3,2.5-1.9,3.8a374.32,374.32,0,0,1-20.1,34.8l87.7-34.2v1.2a141.64,141.64,0,0,0,18.1-32.2c1.8-4.5,3.5-9,5.1-13.6Z"/><path class="cls-2" d="M542.57,687c5.3-20.8,9.4-40.7,12.6-58.5l-47.4-81.1.6-1c-14.9,6.1-29.9,17.2-43.8,32.6Z"/><path class="cls-2" d="M477.17,843.13l-70.7-115.7c-3.8,80,17.4,167.1,18.8,172.7C445.37,884.53,462.47,864.83,477.17,843.13Z"/><path class="cls-2" d="M501.77,800.23h0a505.28,505.28,0,0,0,21.3-49.7l-93.2-119.3c-3.2,6.5-6.2,13.3-9.1,20.4a182.08,182.08,0,0,0-9.2,31.4Z"/><path class="cls-2" d="M126.77,619.43l38.1,40.2c17.9,3.9,37.8,8.9,58.6,15.1l-53.8-65,1.1-.2a164.93,164.93,0,0,0-45.1,10.1Z"/><path class="cls-2" d="M161.67,658.93,124.77,620c-14.8,5.9-27,14.2-35.5,24.7-.4.5-.9,1.1-1.3,1.7C92.87,646.93,122,650.33,161.67,658.93Z"/><path class="cls-2" d="M297,629.53l1.2.1c-7.3-2.8-14.5-5.4-21.9-7.6l45.1,90.6h-.6c4.2,2.1,8.3,4.2,12.3,6.4Z"/><path class="cls-2" d="M231.77,612H233a259.73,259.73,0,0,0-61-2.5l54.8,66.2q29.25,8.85,55.3,19.4Z"/><path class="cls-2" d="M112.27,750.33a216.8,216.8,0,0,0,34.3,26.8l122.6-85.4c-15.2-5.8-30-10.7-43.9-14.9l-112,74.1Z"/><path class="cls-2" d="M161.17,785.73l-1.1-.6,122.7-88c-3.7-1.5-7.4-3-11-4.4l-123.1,85.7-1.1-.6C152,780.53,156.47,783.13,161.17,785.73Z"/><path class="cls-2" d="M273.67,621.53h1.2a314,314,0,0,0-40.6-9.3l50.9,84.2c11.6,4.7,22.6,9.7,33.2,14.9Z"/><path class="cls-2" d="M377.07,746.43c21.4,15.7,39.1,32.8,52.8,51-5.3-19.1-29.5-96.2-83.7-140.8Z"/><path class="cls-2" d="M216.17,807.43a292.16,292.16,0,0,0,39.5,6.1l-1.1-.7L374,746.33a368,368,0,0,0-37.7-23.8Z"/><path class="cls-2" d="M161.37,660.43c-43-9.3-73.3-12.4-73.7-12.5l-.2-.8c-12.3,16.6-14.1,36.2-7.1,56.4Z"/><path class="cls-2" d="M336.17,720.63c1.2.7,2.5,1.4,3.7,2a352.22,352.22,0,0,1,33.9,21.5l-30.6-89,1.2.1a145.3,145.3,0,0,0-31.4-19.4c-4.4-2-8.9-3.9-13.4-5.6Z"/><path class="cls-2" d="M222.57,676c-20.6-6.1-40.3-11-57.9-14.9l-82.9,44.1-1-.7c5.5,15.1,16,30.5,30.8,45.1Z"/><path class="cls-2" d="M375.87,747.73l-118.5,66c79.8,7,167.7-10.7,173.3-11.8C416,781.23,397.07,763.23,375.87,747.73Z"/><path class="cls-2" d="M334.07,721.33h0a495.42,495.42,0,0,0-48.8-23.3l-123,88.2c6.4,3.5,13,6.8,20,9.9a179.27,179.27,0,0,0,31,10.4Z"/><rect class="cls-3" x="391.57" y="193.43" width="543.8" height="610.8"/><rect class="cls-3" x="391.57" y="147.53" width="543.8" height="52.2"/><circle class="cls-4" cx="429.17" cy="170.53" r="8.9"/><circle class="cls-4" cx="454.57" cy="170.53" r="8.9"/><circle class="cls-4" cx="480.07" cy="170.53" r="8.9"/><rect class="cls-5" x="391.57" y="193.43" width="543.8" height="6.4"/><rect class="cls-6" x="480.77" y="253.23" width="158.6" height="169.4"/><rect class="cls-4" x="491.47" y="241.43" width="158.6" height="169.4"/><rect class="cls-6" x="677.47" y="253.23" width="158.6" height="169.4"/><rect class="cls-4" x="688.17" y="241.43" width="158.6" height="169.4"/><rect class="cls-4" x="470.57" y="440.13" width="393.5" height="13"/><rect class="cls-4" x="470.57" y="473.33" width="393.5" height="13"/><rect class="cls-4" x="470.57" y="506.53" width="393.5" height="13"/><rect class="cls-4" x="470.57" y="539.63" width="393.5" height="13"/><rect class="cls-4" x="470.57" y="572.83" width="393.5" height="13"/><rect class="cls-4" x="470.57" y="606.03" width="393.5" height="13"/><rect class="cls-4" x="470.57" y="639.23" width="393.5" height="13"/><rect class="cls-4" x="470.57" y="672.33" width="393.5" height="13"/><rect class="cls-4" x="470.57" y="705.53" width="393.5" height="13"/><rect class="cls-4" x="470.57" y="738.73" width="393.5" height="13"/><path class="cls-4" d="M623.37,162.93v11.5h-1.8v-.5a4.05,4.05,0,0,1-.9.5,3.59,3.59,0,0,1-1.1.2,3.83,3.83,0,0,1-1.9-.5,4.07,4.07,0,0,1-1.2-1.4,5.2,5.2,0,0,1,0-4,3.33,3.33,0,0,1,1.2-1.4,3,3,0,0,1,1.9-.5,3.61,3.61,0,0,1,2,.6v-4.3h1.8Zm-2.3,9.4a3,3,0,0,0,.5-1.8,3.45,3.45,0,0,0-.5-1.8,1.68,1.68,0,0,0-1.4-.6,1.51,1.51,0,0,0-1.4.7,3.14,3.14,0,0,0,0,3.4,1.75,1.75,0,0,0,1.4.7A1.56,1.56,0,0,0,621.07,172.33Z"/><path class="cls-4" d="M625.17,173.93a2.35,2.35,0,0,1-.6-1.7,1.86,1.86,0,0,1,.7-1.6,4.61,4.61,0,0,1,1.7-.9,6.8,6.8,0,0,1,1.9-.3,1.1,1.1,0,0,0-1.3-1.3,3.4,3.4,0,0,0-1,.1,7.6,7.6,0,0,0-1.1.4l-.2-1.5a7.22,7.22,0,0,1,2.8-.7,2.82,2.82,0,0,1,2.1.7,3.17,3.17,0,0,1,.7,2.3v2.1c0,.4,0,.7.1.8s.1.3.2.3.2.1.4.1h.2l-.2,1.6h-.7a3.59,3.59,0,0,1-1.1-.2,4.35,4.35,0,0,1-.7-.6,1.7,1.7,0,0,1-1,.6,3,3,0,0,1-1.3.2A1.5,1.5,0,0,1,625.17,173.93Zm3-1c.2-.1.5-.2.6-.4v-1.7a3.77,3.77,0,0,0-1.6.4,1,1,0,0,0-.7,1,1.45,1.45,0,0,0,.2.7,1.55,1.55,0,0,0,.8.2A6.37,6.37,0,0,0,628.17,172.93Z"/><path class="cls-4" d="M638.67,167.53a4,4,0,0,1,.7,2.6v4.3h-1.9v-4.2a2.54,2.54,0,0,0-.4-1.6,1.36,1.36,0,0,0-1.2-.5,1.51,1.51,0,0,0-1.4.7v5.5h-1.9v-7.6h1.8v.5a3.72,3.72,0,0,1,2-.7A3.11,3.11,0,0,1,638.67,167.53Z"/><path class="cls-4" d="M642,173.93a2.39,2.39,0,0,1-.5-1.4v-4.2h-1.1l.2-1.6h.9V165l1.9-.2v1.9h1.7v1.6h-1.7v3.5c0,.4,0,.7.1.8a.27.27,0,0,0,.3.3,5.38,5.38,0,0,0,.8.1h.5l-.2,1.6h-1.4A2.63,2.63,0,0,1,642,173.93Z"/><path class="cls-4" d="M646.27,166.73h1.8v.8a2.18,2.18,0,0,1,.9-.7,2.28,2.28,0,0,1,1.1-.3h.3l-.1,1.9a1.48,1.48,0,0,0-.7-.1,2.92,2.92,0,0,0-.9.2,1,1,0,0,0-.6.5v5.2h-1.9v-7.5Z"/><path class="cls-4" d="M658,166.73v7.6h-1.8v-.5a2,2,0,0,1-.8.4,3.1,3.1,0,0,1-3.4-.8,4.55,4.55,0,0,1-.8-2.7v-4.1h1.9v4.1a2.54,2.54,0,0,0,.4,1.6,1.36,1.36,0,0,0,1.2.5,1.68,1.68,0,0,0,1.4-.6v-5.6H658v.1Z"/><path class="cls-4" d="M662.07,173.83l-3.2-7.1H661l2,4.9,2-4.9h2.1l-4.8,11.3h-1.9Z"/><path class="cls-4" d="M669.27,174a3.39,3.39,0,0,1-1.4-1.5,4.55,4.55,0,0,1-.5-2,4.48,4.48,0,0,1,.4-2,3,3,0,0,1,1.3-1.4,3.32,3.32,0,0,1,2-.5,3.42,3.42,0,0,1,1.8.4,2.54,2.54,0,0,1,1.1,1.2,4.71,4.71,0,0,1,.4,1.7,3.4,3.4,0,0,1-.1,1h-4.9a2.19,2.19,0,0,0,.8,1.5,2.46,2.46,0,0,0,1.5.5,4.65,4.65,0,0,0,2.3-.6l.1,1.6a3.58,3.58,0,0,1-1.1.4,5.9,5.9,0,0,1-1.4.2A4.9,4.9,0,0,1,669.27,174Zm3.2-4.3a2.28,2.28,0,0,0-.3-1.1,1.23,1.23,0,0,0-1-.5,1.5,1.5,0,0,0-1.1.4,2,2,0,0,0-.6,1.1h3Z"/><path class="cls-4" d="M681.67,167.53a4,4,0,0,1,.7,2.6v4.3h-1.9v-4.2a2.54,2.54,0,0,0-.4-1.6,1.36,1.36,0,0,0-1.2-.5,1.51,1.51,0,0,0-1.4.7v5.5h-1.9v-7.6h1.8v.5a3.72,3.72,0,0,1,2-.7A3.11,3.11,0,0,1,681.67,167.53Z"/><path class="cls-4" d="M684,172.33h2v2.1h-2Z"/><path class="cls-4" d="M688.87,174a3.76,3.76,0,0,1-1.4-1.4,4.25,4.25,0,0,1,0-4,3.16,3.16,0,0,1,1.4-1.4,4,4,0,0,1,2.2-.5,3.94,3.94,0,0,1,2,.5l-.2,1.5a3.29,3.29,0,0,0-1.7-.4,2.06,2.06,0,0,0-1.7.7,2.71,2.71,0,0,0,0,3.4,2.06,2.06,0,0,0,1.7.7,3.37,3.37,0,0,0,1.7-.5l.2,1.6a2.93,2.93,0,0,1-1,.3,4.87,4.87,0,0,1-1.2.1A6.64,6.64,0,0,1,688.87,174Z"/><path class="cls-4" d="M695.77,174a4.67,4.67,0,0,1-1.4-1.4,4.25,4.25,0,0,1,0-4,4,4,0,0,1,1.4-1.5,3.64,3.64,0,0,1,2.1-.5,4.65,4.65,0,0,1,2.1.5,4.06,4.06,0,0,1,1.4,1.5,4.25,4.25,0,0,1,0,4A3.16,3.16,0,0,1,700,174a3.64,3.64,0,0,1-2.1.5A4.65,4.65,0,0,1,695.77,174Zm3.6-1.7a2.31,2.31,0,0,0,.5-1.7,3.45,3.45,0,0,0-.5-1.8,2,2,0,0,0-1.5-.7,1.8,1.8,0,0,0-1.5.7,2.43,2.43,0,0,0-.5,1.8,2.86,2.86,0,0,0,.5,1.7,2,2,0,0,0,1.5.7A2.63,2.63,0,0,0,699.37,172.33Z"/><path class="cls-4" d="M714,167.53a4,4,0,0,1,.7,2.6v4.2h-1.9v-4.1a3.23,3.23,0,0,0-.3-1.6,1.46,1.46,0,0,0-2.2,0,2,2,0,0,0-.4,1.4v4.2H708v-4a2.36,2.36,0,0,0-.4-1.6,1.29,1.29,0,0,0-1.1-.5,1.8,1.8,0,0,0-1.5.7v5.5h-1.9v-7.6h1.6l.1.6a3.6,3.6,0,0,1,2.2-.7,2.53,2.53,0,0,1,2.2,1.1,3.92,3.92,0,0,1,1-.8,3.19,3.19,0,0,1,1.4-.3A3,3,0,0,1,714,167.53Z"/><path class="cls-7" d="M698.07,926.83c0,25.7-138.8,46.5-310,46.5s-310-20.8-310-46.5c0-18.2,69.6-33.9,171-41.6,41.8-3.2,89.1-4.9,139-4.9,20.5,0,40.6.3,60,.9C590.57,885.43,698.07,904.23,698.07,926.83Z"/><ellipse class="cls-8" cx="348.07" cy="921.83" rx="119" ry="14.5"/><ellipse class="cls-7" cx="347.57" cy="812.33" rx="112.5" ry="120"/><rect class="cls-4" x="313.07" y="883.33" width="70" height="64"/><polygon class="cls-9" points="474.57 898.93 470.57 920.93 496.57 924.93 513.57 914.93 512.57 898.93 474.57 898.93"/><path class="cls-10" d="M343.57,485.83s-2,23-7,24,11,41,11,41h24l19-5-9-22s-12-16-3-29S343.57,485.83,343.57,485.83Z"/><path class="cls-8" d="M343.57,485.83s-2,23-7,24,11,41,11,41h24l19-5-9-22s-12-16-3-29S343.57,485.83,343.57,485.83Z"/><path class="cls-11" d="M293.57,661.83s-26,50-5,60,26,9,26,12-4,2-2,7-4,25,2,37,4,21,4,21,0,1,2,5,3,7,2,9-7,15-1,18,37,5,40,0-3-8,0-11,5-4,3-6-4-27-4-27,5-29,3-33-5-8-3-11,4-2,5-6,3-13,3-13l11-1,26,5s29,32,61,42c0,0,9,9,12,9s3,0,2,2-4,2-2,4,5-1,3,2-4,3-2,5-1,13-1,14-9,95-6,97,45,8,48,0-2-18-2-18,15-120,11-128-18-44-93-67c0,0-21-4-21-7s-2-22-6-23-27-2-27-2l-29,9-40-7Z"/><path class="cls-11" d="M328.57,829.83l-5,18s-4,29,1,36c3.9,5.5,10.9,12.2,23.9,13.4a16.06,16.06,0,0,0,16.8-11.1c.1-.4.2-.9.3-1.3,0-2-3-26-3-26l-5-25-1-7Z"/><path class="cls-11" d="M474.57,915.83s-5-5-6,0-5,26,2,27,74,11,81,7,20-10,12-13-31-12-31-12-13-17-15-18-13,1-18,5S474.57,915.83,474.57,915.83Z"/><circle class="cls-10" cx="367.57" cy="475.83" r="31"/><path class="cls-9" d="M364.57,545.83l-12-13-13.3-26s-9.7-3-11.7,2-38,21-38,21,9,84,5,92-11,40-5,43,34,0,43,4,35,4,42-1,9-9,16-6c6,2.6,19.9-84.8,23.9-110.8a11.77,11.77,0,0,0-4.9-11.5c-9-6.3-25.1-17.1-28-15.7C377.57,525.83,364.57,545.83,364.57,545.83Z"/><path class="cls-9" d="M407.57,541.83h0a11.83,11.83,0,0,1,8.9,10.2l8.1,72.8s-20,43-30,14S407.57,541.83,407.57,541.83Z"/><path class="cls-9" d="M405.57,631.83l22-6s4,28,8,28-14,16-23,14-22-9-23-14,9-26,9-26Z"/><path class="cls-11" d="M344.17,489.23c2.1-4.6,1.7-10.1,3.5-14.9a17.65,17.65,0,0,1,22.7-10.6,16.84,16.84,0,0,1,4.2,2.2c2.2,1.6,4.5,3.8,7.2,3.5,2.9-.3,5.6-3.6,8.3-2.4,3,1.3,2.2,6.7,5.2,8,1.6.7,3.5-.4,4.4-1.8a12,12,0,0,0,1.3-5c.4-4.3.8-8.8-1.1-12.6a22.19,22.19,0,0,1-2-4.1,13.61,13.61,0,0,1-.4-4c0-5-.4-10.2-2.9-14.6-2.8-4.8-8-7.9-13.4-9.2s-11.1-1.1-16.6-.7c-9.2.8-18.7,2.4-25.9,8.1a10.3,10.3,0,0,0-2.5,2.6,13.16,13.16,0,0,0-1.3,3.8,79.52,79.52,0,0,1-7,18.3,39.25,39.25,0,0,0-3.6,7.8,10,10,0,0,0,.9,8.3c1.3,1.9,3.4,3,5,4.5s2.4,4.6,4.2,5.7c1.6,1,3.5.3,5.1,1.4C341.57,485,341.77,488.13,344.17,489.23Z"/><path class="cls-12" d="M369.57,560.83l3-6s44,13,53,25c0,0,22-14,34-12l12,2-37,33-47-4Z"/><path class="cls-7" d="M367.57,554.83l-41,57,59,29s5.5,3,9.8,0l39.2-18,37-53-37,19s-4-8-12-4Z"/><path class="cls-10" d="M430.57,655.83l8-21s18-23,8-34-21,32-21,32Z"/><path class="cls-10" d="M338.27,652.53l17.5-14.2s27.1-10.9,24-25.4-34.2,17.1-34.2,17.1Z"/><path class="cls-8" d="M295.07,551.33h-1s-15.5-18.5-18.5,6.5-13,108,13,111,44.5-12.5,44.5-12.5,19-29,12-29c-3.4,0-12.6-1.5-21-1-9,.6-17,3.1-16.5.5C308.57,621.83,323.07,558.33,295.07,551.33Z"/><path class="cls-9" d="M293.57,531.83l-4-2s-16,3-19,28-13,108,13,111,61-4,61-4,7-38,0-38-43,5-42,0S321.57,538.83,293.57,531.83Z"/><polygon class="cls-9" points="416.07 644.43 427.07 627.43 434.07 655.43 416.07 663.43 416.07 644.43"/></svg>