<?xml version="1.0" encoding="utf-8"?>
<!-- Generator: Adobe Illustrator 23.0.3, SVG Export Plug-In . SVG Version: 6.00 Build 0)  -->
<svg version="1.1" id="Layer_1" xmlns="http://www.w3.org/2000/svg" xmlns:xlink="http://www.w3.org/1999/xlink" x="0px" y="0px"
	 viewBox="0 0 1000 1000" style="enable-background:new 0 0 1000 1000;" xml:space="preserve">
<style type="text/css">
	.st0{fill:#0B7BCE;}
	.st1{opacity:0.1;fill:#159EE9;enable-background:new    ;}
	.st2{opacity:0.1;fill:#0B7BCE;enable-background:new    ;}
	.st3{fill:#D50F25;}
	.st4{fill:#3DB366;}
	.st5{opacity:0.1;fill:#010101;enable-background:new    ;}
	.st6{fill:#333333;}
	.st7{opacity:0.1;fill:#3DB366;enable-background:new    ;}
	.st8{fill:#AF6F7A;}
	.st9{fill:#A8A7A7;}
	.st10{opacity:0.2;enable-background:new    ;}
	.st11{fill:#FF7590;}
	.st12{fill:#FFCAC0;}
	.st13{opacity:0.1;enable-background:new    ;}
	.st14{fill:#494457;}
	.st15{fill:#362133;}
	.st16{fill:#FFBF00;}
	.st17{fill:#BB7684;}
	.st18{opacity:0.1;}
</style>
<ellipse class="st0" cx="480.9" cy="933.1" rx="446.6" ry="58.8"/>
<path class="st1" d="M999.1,557.9c0,17.2-2,34.3-6,50.9c-3.2,13.5-7.8,26.7-13.7,39.2c-1,2.1-2,4.2-3.1,6.2c0,24.9-7,49.3-20.3,70.3
	c-0.5,0.8-1,1.5-1.5,2.3c-58.8,90.4-163.6,139.3-270.3,127.6c-7.1-0.8-14.3-0.9-21.5-0.7l-257,10.3c-30.3,0-274.6-88.1-300.2-104.1
	c-20.9-13-38.7-30.5-52-51.2c-17.3-26.7-26.5-58-26.4-90c-2.8-5.1-5.4-10.3-7.7-15.7c-7.6-17.4-12.8-35.7-15.5-54.5
	c-1.5-10.3-2.2-20.7-2.2-31.1C1.7,459,24.4,407,59.8,373.2C86.2,348,119.6,333,156,333c3,0,6,0.1,9,0.3c1.6-3.3,3.3-6.5,5.1-9.8
	c48.6-88.9,143.9-153.8,257.4-169.1c17.2-2.3,34.5-3.5,51.8-3.5c10.9,0,21.6,0.4,32.2,1.3l0,0c71.4,5.9,136.4,31.3,188.4,70.2
	c1.6,1.2,3.1,2.3,4.6,3.5c22.2-14.7,47.7-23.2,74.9-23.2c4.6,0,9.3,0.2,13.9,0.7c66.7,7.1,121.2,64.9,136.3,141
	c2.8,14.1,4.2,28.4,4.2,42.7c0,6.5-0.3,12.9-0.9,19.3c5,4.1,9.7,8.6,14.1,13.3C978.9,453.6,999.1,502.9,999.1,557.9z"/>
<path class="st2" d="M104.6,759.3c3.8,2.4,7.7,4.6,11.7,6.6L510,530l5.2,9.6L285.9,783.7h58l191.3-213.6l7,6.1l6,283.7l56.2-3.6
	l2.3-251.3h16.6l115.2,254.9l47-12.3l-81.1-271.3l7-6.1l183.1,204.4c13.3-5.4,25.7-13,36.5-22.5L731.4,539.6l5.2-9.6L974,672.3
	c0.9-6.2,1.3-12.5,1.3-18.8c1.1-2,2.1-4.1,3.1-6.2c5.9-12.6,10.5-25.7,13.7-39.2c0.7-3,1.4-6.1,2-9.2l-257.6-97.6v-23.5l253.9,21.9
	c-8.6-31.5-24.2-59.2-44.5-80.6l-0.3-0.3l-209.1,41.7v-22.7l190.9-98.7c-8.4-37.7-26.5-70.7-51-94.8l-165,184.2l-7-6.1l48.9-218
	c-17.8,3.6-34.7,10.6-49.7,20.7c-1.5-1.2-3.1-2.4-4.6-3.5c-3.4-2.6-6.9-5.1-10.5-7.5l-65.1,179.6h-16.6L546,156.1
	c-11.6-2.1-23.4-3.6-35.4-4.6l0,0c-9.7-0.8-19.5-1.2-29.4-1.3l61.1,272.3l-7,6.1l-217.6-243c-46.7,22.1-87.1,53.5-117.9,91.5
	L510,437.6v22.7L60.7,370.7c-0.6,0.5-1.2,1.1-1.7,1.6C23.5,406.1,0.8,458.1,0.8,516.5c0,1.7,0,3.4,0.1,5L510,477.7v23.5L38.1,680
	C51.2,712.8,74.5,740.7,104.6,759.3L104.6,759.3z"/>
<circle class="st3" cx="682" cy="478.9" r="138.6"/>
<g>
	<path class="st4" d="M892.9,691.4c0-38.4-35.3-69.6-78.9-69.6c-43.6,0-78.9,31.2-78.9,69.6c-43.6,0-78.9,31.2-78.9,69.6
		s35.3,69.6,78.9,69.6c13.7,0,27.2-3.2,39.5-9.3c24.8,12.4,54.1,12.4,78.9,0c12.2,6.2,25.8,9.4,39.5,9.3c43.6,0,78.9-31.2,78.9-69.6
		S936.5,691.4,892.9,691.4z"/>
	<path class="st5" d="M892.9,691.4c0-38.4-35.3-69.6-78.9-69.6c-43.6,0-78.9,31.2-78.9,69.6c-43.6,0-78.9,31.2-78.9,69.6
		s35.3,69.6,78.9,69.6c13.7,0,27.2-3.2,39.5-9.3c24.8,12.4,54.1,12.4,78.9,0c12.2,6.2,25.8,9.4,39.5,9.3c43.6,0,78.9-31.2,78.9-69.6
		S936.5,691.4,892.9,691.4z"/>
	<path class="st4" d="M706.4,339c0-9.7-1.8-19.2-5.2-28.3c41.2-14.6,62.7-59.8,48.1-100.9c-11.2-31.6-41-52.7-74.5-52.7
		c0-43.7-35.4-79.1-79.1-79c-36.6,0-68.4,25.1-76.9,60.7c-0.7,0-1.4,0-2.2,0c0-43.7-35.3-79.1-79-79.1c-38,0-70.7,27-77.8,64.4
		c-34.3-27-84-21-111,13.3C238,151.3,232,168.5,232,186.2c-43.7,0.1-79,35.5-78.9,79.2c0,26.6,13.4,51.4,35.7,66
		c-1,5.1-1.5,10.3-1.5,15.5c-43.7,0-79.1,35.4-79.1,79c0,43.7,35.4,79.1,79,79.1c13.9,0,27.6-3.7,39.6-10.6
		c24.5,14.1,54.6,14.1,79.1,0c30.1,17.4,68,13.1,93.4-10.6c1.4,0,2.7,0.1,4.1,0.1c13.9,0,27.5-3.6,39.5-10.6
		c17.7,10.2,38.6,13.2,58.4,8.3c25.3,18.7,59.3,20.6,86.5,4.8c24.5,14.1,54.6,14.1,79.1,0c37.8,21.8,86.2,8.9,108-28.9
		s8.9-86.2-28.9-108C734,342.6,720.3,338.9,706.4,339L706.4,339z M345.3,346.9c0-3.4-0.2-6.8-0.7-10.2c2-0.9,4-1.9,6-3.1
		c3.2,1.8,6.4,3.5,9.8,4.8c-3.9,2.5-7.6,5.4-11,8.5C348.1,346.9,346.7,346.9,345.3,346.9z"/>
	<path class="st4" d="M670.4,556.8c-0.6-39.3-33-70.8-72.3-70.2c-38.5,0.6-69.6,31.7-70.2,70.2c-39.3,0-71.3,31.9-71.3,71.2
		s31.9,71.3,71.2,71.3c12.5,0,24.8-3.3,35.7-9.6c22,12.7,49.2,12.7,71.2,0c34.1,19.7,77.6,8,97.3-26.1s8-77.6-26.1-97.3
		C695.1,560.1,682.9,556.8,670.4,556.8z"/>
	<path class="st5" d="M670.4,556.8c-0.6-39.3-33-70.8-72.3-70.2c-38.5,0.6-69.6,31.7-70.2,70.2c-39.3,0-71.3,31.9-71.3,71.2
		s31.9,71.3,71.2,71.3c12.5,0,24.8-3.3,35.7-9.6c22,12.7,49.2,12.7,71.2,0c34.1,19.7,77.6,8,97.3-26.1s8-77.6-26.1-97.3
		C695.1,560.1,682.9,556.8,670.4,556.8z"/>
	<path class="st5" d="M706.4,339c0-9.7-1.8-19.2-5.2-28.3c41.2-14.6,62.7-59.8,48.1-100.9c-11.2-31.6-41-52.7-74.5-52.7
		c0-43.7-35.4-79.1-79.1-79c-36.6,0-68.4,25.1-76.9,60.7c-0.7,0-1.4,0-2.2,0c0-43.7-35.3-79.1-79-79.1c-38,0-70.7,27-77.8,64.4
		c-34.3-27-84-21-111,13.3C238,151.3,232,168.5,232,186.2c-43.7,0.1-79,35.5-78.9,79.2c0,26.6,13.4,51.4,35.7,66
		c-1,5.1-1.5,10.3-1.5,15.5c-43.7,0-79.1,35.4-79.1,79c0,43.7,35.4,79.1,79,79.1c13.9,0,27.6-3.7,39.6-10.6
		c24.5,14.1,54.6,14.1,79.1,0c30.1,17.4,68,13.1,93.4-10.6c1.4,0,2.7,0.1,4.1,0.1c13.9,0,27.5-3.6,39.5-10.6
		c17.7,10.2,38.6,13.2,58.4,8.3c25.3,18.7,59.3,20.6,86.5,4.8c24.5,14.1,54.6,14.1,79.1,0c37.8,21.8,86.2,8.9,108-28.9
		s8.9-86.2-28.9-108C734,342.6,720.3,338.9,706.4,339L706.4,339z M345.3,346.9c0-3.4-0.2-6.8-0.7-10.2c2-0.9,4-1.9,6-3.1
		c3.2,1.8,6.4,3.5,9.8,4.8c-3.9,2.5-7.6,5.4-11,8.5C348.1,346.9,346.7,346.9,345.3,346.9z"/>
	<path class="st6" d="M646.4,727.7c-6.2-2.4-12.4-4.9-18.9-5.8c-0.7,0-1.3-0.1-2-0.2c0-0.7,0-1.3,0.1-2c0.4-8,2.8-16.4,8.5-22.2
		c5.6-5.8,13.5-8.7,17.1-15.5c-13.4-3.9-27.3-6-41.3-6.2c-3.6,0-7.3,0-10.3,2c-3.7,2.4-5.2,6.8-6.4,11.1c-3.7,14-6.2,27.7-10.4,41.3
		l-1.1,0.3c-15,3.2-33.8,0.7-40.7-12.8c1.7-6.8,3.9-13.5,6.4-20c8-20,20.4-38.1,32.6-55.9c7.9-11.6,15.8-23.2,23.7-34.7
		c-11.8-3.6-23.9-6.5-36-8.7c-2.6-0.5-5.5-0.9-7.6,0.6c-1.5,1.2-2.5,2.9-3.1,4.7c-11.6,28.5-25.9,59.7-29.9,91.1
		c-2.3-1.2-4.6-2.3-7-3.3l-37.4-16c-2-0.7-3.8-1.8-5.2-3.3c-3.4-4.2,0-11,5-13.2c5-2.3,10.6-1.6,16.1-2.1s11.5-2.5,13.5-7.5
		c2.4-5.8-2.1-12.4-7.6-15.4s-11.9-3.9-17.7-6.4c-9-4.2-15.5-12.4-17.5-22.1l-8.9-0.4c11.8-11.3,24-22.1,38-30.4
		c6.8-4,14-7.4,20.3-12.1c16.9-13,25.7-33.9,23.2-55c-0.8-6.1-2.5-12.3-0.6-18.1c1.6-4.7,5.2-8.3,8.8-11.8l32.3-30.9
		c-20.6-4.7-41.7-6.8-62.8-6.2c-5.3,0.2-10.9,0.5-15.6,2.9c-8.7,4.4-12.9,14.4-16.3,23.6c-2.6,6.5-4.7,13.1-6.3,19.9
		c-2.4,11.4-2,24-8.5,33.7c-5.1,7.7-13.6,12.2-21.3,17.4c-21.8,14.8-38.1,36.5-46.3,61.5c-0.5,1.6-1.4,3.7-2.4,6
		c-18.9,1.6-37.5,5.2-55,12.6c-22,9.3-41.3,24-60.2,38.6c-20.8,16.1-42.7,34.1-50,59.4c-8.1,28.1,4.4,58.9,24.5,80.2
		c16.4,17.4,37.3,29.6,58.3,40.6c13.7,7.2,16,5.7,28.1-3.9l32.4-26c9.3-7.4,18.7-15,25-25.1c8.7-13.8,10.8-31.4,21.3-43.9
		c14.4-17.1,43.7-18.6,59.8-2.9c4.6,4.5,8.6,10.4,14.9,11.9c3.1,0.7,6.4,0.3,9.2,1.6c5.3,2.5,6.2,9.7,8,15.2
		c5.2,14.9,23,22.7,38.6,20.5s29.1-12.4,39.7-24.1c2.9-3.2,5.7-6.6,9.7-8.5c3.1-1.4,6.5-2.1,10-2.1c11.4-0.5,22.8,2,32.9,7.3
		c9.5,4.8,17.7,12,27.6,15.8c19.7,7.4,41.6,0.4,60.9-8L646.4,727.7z"/>
	<path class="st5" d="M646.4,727.7c-6.2-2.4-12.4-4.9-18.9-5.8c-0.7,0-1.3-0.1-2-0.2c0-0.7,0-1.3,0.1-2c0.4-8,2.8-16.4,8.5-22.2
		c5.6-5.8,13.5-8.7,17.1-15.5c-13.4-3.9-27.3-6-41.3-6.2c-3.6,0-7.3,0-10.3,2c-3.7,2.4-5.2,6.8-6.4,11.1c-3.7,14-6.2,27.7-10.4,41.3
		l-1.1,0.3c-15,3.2-33.8,0.7-40.7-12.8c1.7-6.8,3.9-13.5,6.4-20c8-20,20.4-38.1,32.6-55.9c7.9-11.6,15.8-23.2,23.7-34.7
		c-11.8-3.6-23.9-6.5-36-8.7c-2.6-0.5-5.5-0.9-7.6,0.6c-1.5,1.2-2.5,2.9-3.1,4.7c-11.6,28.5-25.9,59.7-29.9,91.1
		c-2.3-1.2-4.6-2.3-7-3.3l-37.4-16c-2-0.7-3.8-1.8-5.2-3.3c-3.4-4.2,0-11,5-13.2c5-2.3,10.6-1.6,16.1-2.1s11.5-2.5,13.5-7.5
		c2.4-5.8-2.1-12.4-7.6-15.4s-11.9-3.9-17.7-6.4c-9-4.2-15.5-12.4-17.5-22.1l-8.9-0.4c11.8-11.3,24-22.1,38-30.4
		c6.8-4,14-7.4,20.3-12.1c16.9-13,25.7-33.9,23.2-55c-0.8-6.1-2.5-12.3-0.6-18.1c1.6-4.7,5.2-8.3,8.8-11.8l32.3-30.9
		c-20.6-4.7-41.7-6.8-62.8-6.2c-5.3,0.2-10.9,0.5-15.6,2.9c-8.7,4.4-12.9,14.4-16.3,23.6c-2.6,6.5-4.7,13.1-6.3,19.9
		c-2.4,11.4-2,24-8.5,33.7c-5.1,7.7-13.6,12.2-21.3,17.4c-21.8,14.8-38.1,36.5-46.3,61.5c-0.5,1.6-1.4,3.7-2.4,6
		c-18.9,1.6-37.5,5.2-55,12.6c-22,9.3-41.3,24-60.2,38.6c-20.8,16.1-42.7,34.1-50,59.4c-8.1,28.1,4.4,58.9,24.5,80.2
		c16.4,17.4,37.3,29.6,58.3,40.6c13.7,7.2,16,5.7,28.1-3.9l32.4-26c9.3-7.4,18.7-15,25-25.1c8.7-13.8,10.8-31.4,21.3-43.9
		c14.4-17.1,43.7-18.6,59.8-2.9c4.6,4.5,8.6,10.4,14.9,11.9c3.1,0.7,6.4,0.3,9.2,1.6c5.3,2.5,6.2,9.7,8,15.2
		c5.2,14.9,23,22.7,38.6,20.5s29.1-12.4,39.7-24.1c2.9-3.2,5.7-6.6,9.7-8.5c3.1-1.4,6.5-2.1,10-2.1c11.4-0.5,22.8,2,32.9,7.3
		c9.5,4.8,17.7,12,27.6,15.8c19.7,7.4,41.6,0.4,60.9-8L646.4,727.7z"/>
	<path class="st4" d="M383.2,530.3c0-39.6-41.7-71.7-93.2-71.7s-93.2,32-93.2,71.7c-51.5,0-93.2,32.1-93.2,71.7s41.7,71.6,93.2,71.6
		c16,0.1,31.9-3.2,46.6-9.7c29.7,12.8,63.4,12.8,93.2,0c14.7,6.4,30.5,9.7,46.6,9.7c51.5,0,93.2-32.1,93.2-71.6
		S434.7,530.3,383.2,530.3z"/>
	<path class="st5" d="M383.2,530.3c0-39.6-41.7-71.7-93.2-71.7s-93.2,32-93.2,71.7c-51.5,0-93.2,32.1-93.2,71.7s41.7,71.6,93.2,71.6
		c16,0.1,31.9-3.2,46.6-9.7c29.7,12.8,63.4,12.8,93.2,0c14.7,6.4,30.5,9.7,46.6,9.7c51.5,0,93.2-32.1,93.2-71.6
		S434.7,530.3,383.2,530.3z"/>
	<path class="st6" d="M583,935.1l-53.4-24.6c-4.3-2-9-4.4-10.4-9c-0.5-2.5-0.5-5,0-7.4c1.3-12.8-1.5-25.6-7.9-36.7
		c-4-6.9-9.4-13.1-11.8-20.7c-5.1-16.1,4.8-33.1,5.3-50.1c0.5-16.5-8-32.4-20.3-43.6c-3.6-3.3-7.6-6.4-10.4-10.4
		c-8.3-11.6-4.8-27.4-0.9-41.3l1-0.9c0.8-0.7,0.2-3.9-1.2-8.6c15.4-4.1,30-11,42.9-20.4c4.1-3,8-6.2,12.9-8.1
		c6.6-2.7,14.2-2.4,20.8-4.8c12.5-4.7,19.4-17.7,25.2-29.7c13.8-28.3,27.8-57.6,29.5-89c-11.3-8.7-25-13.8-39.3-14.4
		c-2.4-0.1-5.1,0-6.6,1.9c-0.9,1.2-1.4,2.6-1.6,4c-4.9,22.4-13.3,44-24.9,63.8c-4.7,8.3-10.4,16-17,22.8c-8,8-17.9,14.1-27.7,20
		c-8.2,5-19.1,9.9-28.4,15.6c-6.4-16.6-12.3-31.7-11.6-34c8.1-25.3,8.4-52.3,0.9-77.8c-1.9-6.3-4.3-12.5-4.8-19.1s0.7-13,1.2-19.6
		c1-13-1-26-0.9-39c0.1-17.6,4-35,7.8-52.2c-10.7-1.9-21.6-2.5-32.4-1.7c-2.1,0-4.2,0.6-6.1,1.6c-2.7,1.8-3.7,5.1-4.6,8.2
		c-7.2,24-20.2,45.9-27.9,69.8c-7.7,23.8-9.4,51.8,5,72.3c5.1,7.3,12.2,13.9,13.4,22.7c0.6,4.7-0.6,9.4-1.9,13.9
		c-2.2,8.2,32.8,95.9,34.7,104c0,0.2,0.1,0.4,0.2,0.6c-1.1,0.2-2.2,0.5-3.3,0.7c-1.5,22.8-10.3,44.5-25.1,61.9
		c-2-5.6-3.4-11.4-4.2-17.3c-1.2-8.9-1.1-18-3.8-26.5c-4.1-12.7-14.1-22.4-22.8-32.5c-15.7-18.2-28-39-36.5-61.5
		c-6.6,2.4-13.3,4.4-20.1,5.9c-3.6,0.8-16.1,0.8-18.1,4.1c-3,4.8,10.5,27.3,13.2,32.5c9.4,18.2,25.3,32.4,34.6,50.6
		c3.9,8.1,7.1,16.5,9.6,25.1c5.1,16.1,10.2,32.2,14.1,48.6c-4.7,4.8-8.4,10.7-12.4,16.2c-14.2,19.3-33,34.8-54.7,45.1
		c-2.6,1.2-5.5,2.6-6.6,5.2c-0.2,0.5-0.3,0.9-0.4,1.4c-8.9-6.2-17.1-13.2-22.9-22.3c-2.5-4-4.6-8.4-7.3-12.3
		c-9.3-13-25.6-18.5-39-27.4c-5.6-3.7-10.9-8.2-17.1-10.8c-6.8-2.9-14.4-3.4-21.8-3.9c-6.1-0.4-29.4-5.3-32.3,0.2
		c-4.3,7.7,9.2,18.9,14.6,21.6c9,4.5,19.2,5.6,28.6,9.2c8.5,3.5,16.3,8.3,23.3,14.2c3,2.2,5.7,5,7.9,8c2.3,3.6,3.4,7.9,5.3,11.7
		c6.2,12.3,19.8,17.9,31.8,25.1c-3.2,0.1-6.4,0.9-9.3,2.1c-9,4.1-13.2,14.2-19,22.2c-5.2,7.1-12.1,12.7-17.9,19.3
		c-5.8,6.6-10.6,14.9-10.1,23.6c0.3,5.6,2.5,11.6-0.4,16.3c6.8,2.9,15.1,6.4,22.5,7.3c7.3,0.9,15.3-0.5,20.8-5.5
		c1.7-1.8,3.5-3.5,5.5-5.1c4.7-3.1,11-2.2,16,0.3s9.1,6.5,13.6,9.8c13.2,9.3,29.7,12.5,45.4,8.8c3.2-0.8,7.8-1.4,6.8-4.5
		c-13.9-6.5-23-20.2-23.5-35.5c10.3-2,20.9,1.9,27.5,10.1c-4.5,0.2-7.4,6.2-4.8,9.9c17.3-0.3,33.4-9.1,43.1-23.4
		c11.5-4.7,24.7,0.8,29.4,12.3c1.3,3.1,1.8,6.4,1.7,9.7l23.3,11.5c3.7,1.8,7.5,3.7,11.6,3.4s8.2-3.6,7.9-7.6
		c-0.4-4.7-5.9-9.4-2.9-12.9c5.5,2.4,9.7,7.3,15.3,9.4s13.9-0.7,13.6-6.7c-0.2-2-1-3.9-2.2-5.5c-6.3-9.6-14.7-17.6-24.5-23.6
		c-0.7-5.3,11.3-11,14.9-7.1l29.5,32.5c2.3,2.8,5,5.2,8,7.2c10.5,6.1,23.7,0,35.9,0c13.2,0,26.6,7.5,38.9,2.7
		c3.2-1.2,6.4-4.3,5.5-7.6C587.6,937.4,585.2,936.1,583,935.1z"/>
	<path class="st4" d="M662.7,329.4c0-8-1.5-16-4.3-23.5c34.2-12.1,52.1-49.7,40-84c-9.3-26.2-34.1-43.8-62-43.8
		c0-36.3-29.5-65.7-65.8-65.7c-30.4,0-56.8,20.9-63.9,50.4c-0.6,0-1.2,0-1.8,0c0.2-36.3-29.1-65.9-65.5-66
		c-31.8-0.1-59.2,22.5-64.9,53.8c-28.5-22.4-69.9-17.5-92.3,11.1c-9.1,11.6-14.1,25.9-14.1,40.6c-36.3,0-65.7,29.5-65.7,65.8
		c0,22.2,11.2,42.8,29.7,55c-0.8,4.2-1.3,8.6-1.3,12.9c-36.3,0-65.8,29.4-65.8,65.7s29.4,65.8,65.7,65.8c11.6,0,23-3,33-8.8
		c20.3,11.8,45.4,11.8,65.8,0c25,14.5,56.5,10.9,77.6-8.8c1.1,0,2.3,0.1,3.4,0.1c11.5,0,22.9-3,32.9-8.8c14.7,8.5,32.2,11,48.7,6.9
		c21,15.6,49.3,17.2,72,4.1c20.3,11.8,45.4,11.8,65.8,0c31.4,18.2,71.7,7.4,89.8-24.1c18.2-31.4,7.4-71.7-24.1-89.8
		C685.6,332.5,674.3,329.4,662.7,329.4L662.7,329.4z M362.4,336c0-2.8-0.2-5.6-0.6-8.5c1.6-0.8,3.3-1.6,4.9-2.6
		c2.6,1.5,5.4,2.8,8.2,4c-3.2,2.1-6.3,4.5-9.1,7.1C364.7,336,363.6,336,362.4,336z"/>
	<path class="st4" d="M886.3,693.3c0-36.3-33.4-65.8-74.5-65.8s-74.5,29.4-74.5,65.8c-41.2,0-74.5,29.4-74.5,65.8
		s33.4,65.8,74.5,65.8c12.9,0,25.7-3,37.3-8.9c23.4,11.8,51.1,11.8,74.5,0c11.5,5.8,24.3,8.9,37.3,8.8c41.2,0,74.5-29.4,74.5-65.8
		S927.5,693.3,886.3,693.3z"/>
	<path class="st4" d="M662.7,559.6c0.6-36.3-28.4-66.2-64.7-66.8c-36.3-0.6-66.2,28.4-66.8,64.7c0,0.7,0,1.4,0,2.1
		c-36.3,0-65.7,29.5-65.7,65.8s29.5,65.7,65.8,65.7c11.5,0,22.8-3,32.8-8.8c20.3,11.7,45.4,11.7,65.8,0
		c31.4,18.2,71.7,7.4,89.8-24.1c18.2-31.4,7.4-71.7-24.1-89.8C685.6,562.7,674.3,559.6,662.7,559.6L662.7,559.6z"/>
	<path class="st4" d="M375.6,533.3c0-36.3-38.3-65.8-85.5-65.8s-85.5,29.4-85.5,65.8c-47.2,0-85.5,29.4-85.5,65.8
		c0,36.3,38.3,65.8,85.5,65.8c14.7,0.1,29.3-2.9,42.7-8.8c27.3,11.8,58.2,11.8,85.5,0c13.5,5.9,28,8.9,42.7,8.8
		c47.2,0,85.5-29.4,85.5-65.8C461.1,562.7,422.8,533.3,375.6,533.3z"/>
	<path class="st4" d="M215.6,726.2c0.6-38.7-30.3-70.6-69.1-71.2c-38.7-0.6-70.6,30.3-71.2,69.1c0,0.7,0,1.4,0,2.1
		c-38.7,0-70.2,31.4-70.2,70.1c0,38.7,31.4,70.2,70.1,70.2c12.3,0,24.5-3.2,35.2-9.4c21.7,12.5,48.4,12.5,70.1,0
		c33.5,19.4,76.4,7.9,95.8-25.7c19.4-33.5,7.9-76.4-25.7-95.8C239.9,729.4,227.9,726.2,215.6,726.2z"/>
	<path class="st5" d="M215.6,726.2c0.6-38.7-30.3-70.6-69.1-71.2c-38.7-0.6-70.6,30.3-71.2,69.1c0,0.7,0,1.4,0,2.1
		c-38.7,0-70.2,31.4-70.2,70.1c0,38.7,31.4,70.2,70.1,70.2c12.3,0,24.5-3.2,35.2-9.4c21.7,12.5,48.4,12.5,70.1,0
		c33.5,19.4,76.4,7.9,95.8-25.7c19.4-33.5,7.9-76.4-25.7-95.8C239.9,729.4,227.9,726.2,215.6,726.2z"/>
	<path class="st4" d="M211.2,728.4c0.6-36.3-28.4-66.2-64.7-66.8S80.2,690,79.7,726.3c0,0.7,0,1.4,0,2.1
		c-36.3,0-65.7,29.4-65.7,65.8c0,36.3,29.4,65.7,65.8,65.7c11.5,0,22.9-3,32.9-8.8c20.4,11.7,45.4,11.7,65.8,0
		c31.4,18.2,71.7,7.4,89.8-24.1c18.2-31.4,7.4-71.7-24.1-89.8C234.1,731.4,222.7,728.4,211.2,728.4L211.2,728.4z"/>
	<path class="st5" d="M417.2,193.5c31.7,0,58.6,23.3,63,54.7c5-34.7-19-67-53.8-72c-34.7-5-67,19-72,53.8c-0.5,3.2-0.7,6.4-0.7,9.5
		c0,2.9,0.2,5.9,0.6,8.8C358.7,216.9,385.5,193.6,417.2,193.5z"/>
	<path class="st5" d="M547.7,307c28.8,13.2,43.5,45.7,34.4,76.1c18.9-29.6,10.2-68.9-19.4-87.8c-29.6-18.9-68.9-10.2-87.8,19.4
		c-1.6,2.5-3,5-4.2,7.7s-2.2,5.4-3.1,8.2C484.7,303.8,518.9,293.8,547.7,307z"/>
	<path class="st5" d="M361.4,355.2c28.8,13.2,43.5,45.7,34.4,76.1c1.6-2.5,3-5.1,4.2-7.7c14.5-32,0.3-69.6-31.6-84.1
		c-31.8-14.4-69.2-0.5-83.9,31.1c-1.2,2.7-2.2,5.4-3.1,8.2C298.5,352.1,332.6,342,361.4,355.2z"/>
	<path class="st5" d="M295.3,558.9c14.3,12.5,17.1,33.7,6.7,49.5c1.3-1.1,2.6-2.4,3.8-3.7c13.9-15.8,12.3-39.9-3.5-53.7
		c-15.8-13.9-39.9-12.3-53.7,3.5l0,0c-1.2,1.3-2.2,2.7-3.2,4.2C259.6,546.3,281,546.3,295.3,558.9z"/>
	<path class="st5" d="M893.6,734.2c14.3,12.5,17.1,33.6,6.7,49.5c1.3-1.1,2.6-2.4,3.7-3.7c13.9-15.8,12.3-39.9-3.5-53.7
		s-39.9-12.3-53.7,3.5c-1.2,1.3-2.2,2.7-3.2,4.2C858,721.6,879.4,721.7,893.6,734.2z"/>
	<path class="st5" d="M147.5,733.7c15.2-11.4,36.5-9.8,49.9,3.7c-0.8-1.5-1.8-3-2.8-4.4c-12.9-16.6-36.8-19.6-53.4-6.7
		c-16.2,12.6-19.5,35.7-7.5,52.3c1.1,1.4,2.2,2.7,3.4,4C127.9,765.9,132.3,745.1,147.5,733.7z"/>
	<path class="st5" d="M590.3,591.2c15.2-11.4,36.5-9.8,49.9,3.7c-0.8-1.5-1.8-3-2.8-4.4c-12.3-17.1-36.1-20.9-53.1-8.6
		c-17.1,12.3-20.9,36.1-8.6,53.1c0.3,0.4,0.6,0.8,0.8,1.1c1.1,1.4,2.2,2.7,3.4,4C570.6,623.5,575.1,602.6,590.3,591.2z"/>
	<path class="st4" d="M521.2,876.1c-4.2-3.2-3.7-11-3.7-11s7.4-2.4,11.6,0.8c4.2,3.3,5.9,8.2,3.7,11
		C530.6,879.8,525.4,879.4,521.2,876.1z"/>
	<path class="st4" d="M535.7,961.5c-4.2-3.2-3.7-11-3.7-11s7.4-2.4,11.6,0.8c4.2,3.3,5.9,8.2,3.7,11S539.9,964.7,535.7,961.5z"/>
	<path class="st4" d="M521.2,969.5c-4.2-3.2-3.7-11-3.7-11s7.4-2.4,11.6,0.8c4.2,3.3,5.9,8.2,3.7,11
		C530.6,973.2,525.4,972.8,521.2,969.5z"/>
	<path class="st4" d="M621,906.7c-4.2-3.2-3.7-11-3.7-11s7.4-2.4,11.6,0.8s5.9,8.2,3.7,11S625.3,910,621,906.7z"/>
	<path class="st4" d="M206.2,657.8c3.3-4.2,11-3.6,11-3.6s2.4,7.4-1,11.6s-8.3,5.8-11,3.6C202.4,667.1,202.9,661.9,206.2,657.8z"/>
	<circle class="st7" cx="254.7" cy="307.6" r="40.2"/>
	<path class="st8" d="M881.6,773.7l10.1,1.7c2.1,0.4,3.8,1.9,4.3,4c0.7,3,0.3,6.8-6.4,7c-10.9,0.2-8.7-2.9-8.7-2.9s-5.4,0-5.7-4.2
		c-0.2-3,2-5.5,5-5.7C880.7,773.6,881.2,773.6,881.6,773.7z"/>
</g>
<g>
	<path class="st9" d="M135.8,972.9c13.2,5.8,74,2.9,118.8-5.8c44.9-8.6-21.2-57.5-26.5-71.9s-52.8,5.8-63.4,17.3
		c-10.6,11.5-50.2,20.1-50.2,20.1S122.6,967.2,135.8,972.9z"/>
	<path class="st10" d="M269.8,951.5c1.4,7.4-2.3,13.2-15.3,15.7c-44.9,8.6-105.6,11.5-118.8,5.8c-13.2-5.8-21.2-40.3-21.2-40.3
		l1.3-0.3c2.8,9.8,9.8,30.8,19.8,35.2c13.2,5.8,74,2.9,118.8-5.8C264.2,960,268.7,956.3,269.8,951.5z"/>
</g>
<g>
	<g>
		
			<rect x="799.8" y="624.3" transform="matrix(0.9854 -0.17 0.17 0.9854 -96.0267 146.8007)" class="st11" width="18.5" height="19.5"/>
		<path class="st12" d="M814.3,851.5c-0.2,8.3-1.5,14.9-5.3,19.4c-3.8,4.4-8.3,15.4-8.3,15.4c2.2,13.1-0.6,17.7-0.6,17.7l-3.4,1.6
			l-8.8,1.5c0,0-2.3-4.1-3.1-6.7c-0.3-0.9,0.1-2.4,0.7-4.2c2.2-6.3,3-13,2.5-19.6l-0.3-3.9c-4.9-23.9,3.3-33.3,6.9-36.3
			c1-0.8,1.6-2.1,1.5-3.4l0,0l-0.5-7l23.9-2.9c0,0-0.1,2.2,1.6,6.9c0.4,1,0.8,2,1.3,3.2C825.7,840,814.3,850.9,814.3,851.5z"/>
		<path class="st12" d="M851.6,827.9c-0.2,3.7-0.7,7.3-1.6,10.8c-0.7,3.2-0.9,6.5-0.4,9.7c0,0.1,0,0.2,0.1,0.3
			c1.3,9.6,1,19.3-1,28.7c-2,9.3-4.6,21.4-5.6,24.1c-1.6,4.4,0.9,10.9,0.9,10.9l-13.5,1.4l-3.6-22.5c-4.2-15.8-1.6-31.5,0-38.6
			c0.7-2.9,0.8-5.8,0.4-8.8l-1.9-15l-0.6-4.4c0,0,23-7.4,25.9-2.4C851.5,823.4,851.7,825.5,851.6,827.9z"/>
		<path class="st13" d="M821.3,829.8l-25,3.1l-0.5-7l23.9-2.9C819.7,823,819.5,825.2,821.3,829.8z"/>
		<path class="st13" d="M851.6,827.9l-26.3,1l-0.6-4.4c0,0,23-7.4,25.9-2.4C851.5,823.4,851.7,825.5,851.6,827.9z"/>
		<path class="st6" d="M857.2,779.7l-2.5,46.9l-31.1,1.2l-2.7-15.5l0.1,16.4l-36.8,4.5l-4.1-35.3c0.8-7.3,0.9-14.7,0.4-22
			c-0.7-8-0.3-28.1,0-37.6c0.1-3.1,0.1-5.1,0.1-5.1s64.8,2.2,69.7,6.2c0.8,0.7,1.6,2.3,2.3,4.5C855.8,754.7,857.2,779.7,857.2,779.7
			z"/>
		<path class="st13" d="M784.7,795.2c0,0,22.4-17.1,28.8-15.5L784.7,795.2z"/>
		<path class="st13" d="M790.9,750.7c0,0,23.1,12,24.5,16.1L790.9,750.7z"/>
		<path class="st13" d="M794.6,805.2c0,0,14.7-3.2,20.1-0.2L794.6,805.2z"/>
		<path class="st13" d="M818.3,784c0,0,11,21.8,9,28.6c-2,6.8-6.4-0.4-6.4-0.4L818.3,784z"/>
		<path class="st14" d="M829.1,905.6c0,0-6.7,2.2-2.6,18.8c4.2,16.6,6.5,19.2,9.1,19c2.6-0.2,15.4,0.7,13.7-5.4s-4.7-19.7-4.2-22
			c0.5-2.2,1-8-2.4-8.8l-0.1,3.4c0,0-7.8-5-11,0.2c-0.4-1.1-0.8-2.1-1.4-3.1C829.6,906.7,828.6,906.3,829.1,905.6z"/>
		<path class="st12" d="M920.3,677.8c0,0-1.4,1.2-3.6,2.7c-3.3,2.3-8.3,5.5-12.2,6.5c-6.4,1.7-8.4,2.7-16.8-1.4
			c-6.4-3.1-17-7.2-21.6-8.9l-2-0.8l-0.2-0.1l0-0.1l1.8-10.1l11.1-8.6l3.5,2.1l10.4,6.2c0,0,1.8,2,4.1,1.5s14.6-1.6,14.6-1.6l2.4,0
			l5,0L920.3,677.8z"/>
		<path class="st13" d="M920.3,677.8c0,0-1.4,1.2-3.6,2.7c-2.7-0.8-6.1-2.7-5.6-6.8c0.5-3.7,0.3-6.5,0.8-8.6l5,0L920.3,677.8z"/>
		<path class="st12" d="M915.7,661.1c0,0,13-6.3,14.8,10.4c1.8,16.7-10.3,9.5-10.3,9.5s-9.4-0.8-8.6-7.4
			C912.5,667.1,911.3,663.4,915.7,661.1z"/>
		<path class="st12" d="M764.6,632.1l-13.2,8.5l-0.2,0.1l-0.2,0l-1-0.3c-4-1.2-17.8-5.3-26.4-7.7c-10.2-2.8-9.5-7.4-9.5-7.4
			l-9.3-45.9l-3.8-7.9c0,0-6.6-27.8,5.9-37.2c12.4-9.4,11.8,39.9,11.8,39.9l2.8,9.7c1.8,6.2,4.1,12.3,7,18.1c0.9,1.9,1.7,3.9,2.2,6
			c1.6,6.6,4.6,5.6,4.6,5.6c5.1-0.1,10.2,0.7,15,2.4c1.8,0.6,3.5,1.3,5.2,2.2L764.6,632.1z"/>
		<path class="st12" d="M819.2,645.4l-12.4,0.8c0,0,2.7-6,3.4-11.4c0.1-0.8,0.2-1.5,0.2-2.3c0-2.1-0.4-4-1.6-5.2
			c-4.5-4.6,19-16.2,19-16.2c0.2,3,0.6,5.9,1.2,8.8c0.4,2,1,4,1.7,5.9c1.5,3.9,3.6,7.5,6.8,9C846.1,638.8,819.2,645.4,819.2,645.4z"
			/>
		<path class="st13" d="M819.2,645.4l-12.4,0.8c0,0,2.7-6,3.4-11.4c1.7,1.8,2.2,1.6,4.3,1.7c0,0,12.6-0.3,16.2-10.7
			c1.5,3.9,3.6,7.5,6.8,9C846.1,638.8,819.2,645.4,819.2,645.4z"/>
		<path class="st13" d="M866.2,676.7c0.1,0.4,0.1,0.7,0.2,1.1l-2.3-1.9l-0.2-0.2l1.8-10.1l11.1-8.6l3.5,2.1
			C876.4,661.6,865.1,669,866.2,676.7z"/>
		<path class="st13" d="M764.6,632.1l-13.2,8.5l-0.4,0.1l-1.1,0.3c0,0,0.1-0.2,0.1-0.6c0.7-3.1,3.8-18.1,0.2-24.4
			c1.8,0.6,3.5,1.3,5.2,2.2L764.6,632.1z"/>
		<path class="st13" d="M852.5,743.9c-5.6,0.5-62.1,4.9-68.6-2.4c-1-1.2-2.2-2.3-3.4-3.3c0.1-3.1,0.1-5.1,0.1-5.1s64.8,2.2,69.7,6.2
			C851.1,740.1,851.9,741.7,852.5,743.9z"/>
		<path class="st3" d="M814.5,637.1c0,0,12.7-0.3,16.3-10.9c0,0,10,5.7,15.4,5.4s35,26.1,35,26.1s-18.4,9.7-15.4,19.5l-11.1-9.1
			c0,0-4.6,0.6-6.4,14.1c0,0-3.6,8.2,1.1,31.3c4.6,23.2,3.5,29,3.5,29s-62.2,5.3-69.1-2.3c-6.9-7.7-7.1-3.3-7.1-3.3
			s-3.7-16.2-0.3-30.4c3.4-14.2-4.4-51.9-4.4-51.9s-2.6-18.8-20.8-13.9c0,0,4.6-19.4-0.1-25.7c0,0,11.1,1.1,18.7-0.2
			c4.6-0.8,9.4-0.5,13.9,0.8c2.5,0.7,4.8,1.8,6.3,3.2c4.4,4.4,9.9,1.1,9.9,1.1c2.3,4.4,4.9,8.5,7.8,12.5c0.3,0.4,0.6,0.8,1,1.2
			c0.5,0.6,1,1.1,1.4,1.6C811.9,637.2,812.4,637.1,814.5,637.1z"/>
		<path class="st13" d="M828.9,619.8c-0.5,1.1-1.1,2.1-1.8,3.1c-3.4,5-8.7,8.3-14.6,9.3c-0.8,0.1-1.5,0.2-2.3,0.3
			c0-2.1-0.4-4-1.6-5.2c-4.5-4.6,19-16.2,19-16.2C827.9,614,828.3,616.9,828.9,619.8z"/>
		<path class="st12" d="M830.7,605.8c2.1,12.2-6.1,23.7-18.2,25.8c-12.2,2.1-23.7-6.1-25.8-18.2c-2.1-12.2,6.1-23.7,18.2-25.8
			c12.1-2.1,23.7,6,25.8,18.1C830.7,605.7,830.7,605.8,830.7,605.8z"/>
		<path class="st13" d="M850.3,654.3l3,14.7c0,0,5.7-6.4,5-11.5C857.6,652.4,850.3,654.3,850.3,654.3z"/>
		<path class="st13" d="M799.7,678.2c0,0,21.4,20.8,31.9,21.4C842.1,700.3,804.9,685.2,799.7,678.2z"/>
		<path class="st13" d="M818.5,677.5c0,0,11.5,9.2,18.7,9.4L818.5,677.5z"/>
		<path class="st13" d="M789.3,710.8c0,0,20.6,14.3,30.9,13.6L789.3,710.8z"/>
		<path class="st13" d="M830.7,605.8c1,5.8-0.3,11.7-3.6,16.5l-2.7-1.1c-1-0.3-1.9-0.9-2.7-1.6c-1-1.2-1.1-2.9-1.3-4.5
			c-0.4-3.3-2-6.7-4.9-8.3c-4.7-2.6-11.1,0.4-15.9-2.2c-1.2-0.7-2.2-1.5-3.2-2.5l-4.9-4.6c-0.3-0.3-0.6-0.5-1-0.9
			c7.2-10,21.2-12.3,31.2-5.1C826.4,594.9,829.7,600.1,830.7,605.8L830.7,605.8z"/>
		<path class="st15" d="M790.5,583.7c1.7-1.8,4-3.1,6-4.5c2-1.5,3.7-3.2,5.8-4.6s4.5-2.3,7-1.9c5.2,0.8,8.3,7.4,13.5,7.7
			c0.9,0.1,1.8-0.1,2.7-0.1c3.4,0.1,6.7,1.6,8.9,4.2c2.2,2.6,3.6,5.8,4.2,9.1c0.4,1.9,0.4,3.8,0.1,5.6c-0.8,4.4-4.1,7.8-6,11.8
			c-1.8,3.8-2.4,8.1-1.6,12.3l-6.8-2.8c-1-0.3-1.9-0.9-2.7-1.6c-1-1.2-1.1-2.9-1.3-4.5c-0.4-3.3-2-6.7-4.9-8.3
			c-4.8-2.6-11.1,0.4-15.9-2.2c-1.2-0.7-2.2-1.5-3.2-2.5l-4.9-4.6c-1.1-1-3-2.2-3.6-3.5C786.4,590.4,788.6,585.8,790.5,583.7z"/>
		<path class="st13" d="M824.8,619.8c-1-0.3-1.9-0.9-2.7-1.6c-1-1.2-1.1-2.9-1.3-4.5c-0.4-3.3-2-6.7-4.9-8.3
			c-4.7-2.6-11.1,0.4-15.9-2.2c-1.2-0.7-2.2-1.5-3.2-2.5l-4.9-4.6c-1.1-1-3-2.2-3.6-3.5c-1.1-2.3,0.1-5.8,1.6-8.1
			c-1.8,2.3-3.4,6.3-2.2,8.9c0.6,1.3,2.5,2.5,3.6,3.5l4.9,4.6c0.9,1,2,1.8,3.2,2.5c4.8,2.6,11.2-0.5,15.9,2.2c2.9,1.6,4.4,5,4.9,8.3
			c0.2,1.6,0.3,3.3,1.3,4.5c0.8,0.8,1.7,1.3,2.7,1.6l6.8,2.8c-0.1-0.4-0.1-0.7-0.2-1.1L824.8,619.8z"/>
		<path class="st14" d="M785.3,896.9c0,0-5.9,2.3-1.8,18.9s6.5,19.2,9.1,19c2.6-0.2,15.4,0.7,13.7-5.4c-1.7-6.1-4.7-19.7-4.2-22
			c0.5-2.2,2.8-8.5-0.6-9.3l-2,3.8c0,0-7.8-5-11,0.2C788.5,902.1,784.1,898.7,785.3,896.9z"/>
		<path class="st13" d="M790.9,906.7c1.4,0.4,2.8,1,4.2,1.4c1.4,0.5,2.9,0.5,4.4,0.3c0.6-0.1,1.2-0.4,1.6-0.9"/>
		<path class="st13" d="M834.1,916.2c0.9,0.6,1.7,1.4,2.7,1.9c1.4,0.6,3,0.4,4.6,0.2c0.3,0,0.5-0.1,0.7-0.2c0.2-0.2,0.4-0.5,0.6-0.7
			l0.6-1.2"/>
	</g>
	<g>
		<path class="st12" d="M655.4,670.9c0,0-2.9-27.2,8.3-20.5s3.5,18.6,3.5,18.6l-2.6,8.4L655.4,670.9z"/>
		<path class="st12" d="M673.3,583.8l6.4-6.3c0,0,12.2-35.2,24.4-26.2c12.1,9-15.4,31.9-15.4,31.9l-7.3,8.5L673.3,583.8z"/>
		<path class="st16" d="M579.9,723.1l-0.3,7.2c0,0,5.9,10.2,8.3,11c2.4,0.7,2.2-21.6,2.2-21.6L579.9,723.1z"/>
		<path class="st13" d="M579.9,723.1l-0.3,7.2c0,0,5.9,10.2,8.3,11c2.4,0.7,2.2-21.6,2.2-21.6L579.9,723.1z"/>
		<polygon class="st12" points="589.7,715.2 590.1,741.9 619.8,741.9 617.5,726.3 		"/>
		<path class="st0" d="M596.6,781.8l1.4,8.5l17.4,38.5c0,0,7.9,12.1,1.5,22.4s-13,26.2-14,35.9c-1.1,9.7-9.5,19.2-9.5,19.2l18.3,7.8
			c0,0,1.3-15.2,6.4-22.4c5.1-7.1,21.5-38.5,21.5-38.5s5.2-4.7,4-18.6c-1.2-13.9-1.1-23.7-1.1-23.7l-1.8-22.2L596.6,781.8z"/>
		<path class="st13" d="M596.6,781.8l1.4,8.5l17.4,38.5c0,0,7.9,12.1,1.5,22.4s-13,26.2-14,35.9c-1.1,9.7-9.5,19.2-9.5,19.2
			l18.3,7.8c0,0,1.3-15.2,6.4-22.4c5.1-7.1,21.5-38.5,21.5-38.5s5.2-4.7,4-18.6c-1.2-13.9-1.1-23.7-1.1-23.7l-1.8-22.2L596.6,781.8z
			"/>
		<path class="st6" d="M594.9,905c0,0-19.6,6-13.1,15.8c6.5,9.8,27.6,28.4,36.1,27.8c8.5-0.6,5.1-6.9,5.1-6.9l-7.1-7
			c0,0-1.3-14.9-0.7-19.3s-6.1-6.4-6.9-3.8C607.3,914.1,594.9,905,594.9,905z"/>
		<path class="st0" d="M607.2,730.5l-15.5,1.7c-2.9,0.3-5,2.8-5,5.7c0.2,6.2,0.3,16.1-0.6,17.9c-1.3,2.7-5.2,21.6,11.8,34.5
			l23.1,7.3l-37,2.7l1.2,20.5l5.7-3.2l70.2,3.2c0,0,19.9-2,6.4-23.6s-42.3-42.8-42.3-42.8l-0.3-16.8l-2.1-4.9L607.2,730.5z"/>
		<path class="st13" d="M626.5,797.3c5.1-2.2,10.9-2.2,16,0H626.5z"/>
		<path class="st6" d="M585.8,800.2c0,0-22.9-3.3-23,1.1s3.2,46.8,14.2,44s6.3-16.9,6.3-16.9l8.2-7.9c0,0,0.8-4.4-4.6-3.9
			L585.8,800.2z"/>
		<path class="st16" d="M623.7,681.1l9,10.3c0,0,3.9,4.9,8.6-2.6s13.4-20.8,13.4-20.8s9.7,8.5,12.2,6.8c2.6-1.7-23.5,35.5-23.5,35.5
			s-8.3,12.2-20.7-2.2l-3.6-1.7L623.7,681.1z"/>
		<path class="st13" d="M623.7,681.1l9,10.3c0,0,3.9,4.9,8.6-2.6s13.4-20.8,13.4-20.8s9.7,8.5,12.2,6.8c2.6-1.7-23.5,35.5-23.5,35.5
			s-8.3,12.2-20.7-2.2l-3.6-1.7L623.7,681.1z"/>
		<circle class="st12" cx="596" cy="620.3" r="18.8"/>
		<path class="st13" d="M596,630.4c0,0-16.2,7.7-14.3,21.1c1.9,13.4,2.2,30.3,2.2,30.3s7.4,10.9-2.4,31.6c0,0-6.2,10.5-2.1,18.2
			c0,0,4.6-12.1,16.5-3.2c11.9,8.9,31.1,13.1,31.1,13.1s-9.9-43.4-3.8-49.5c0,0,10.5-15.6,1-25.5c-9.6-9.9-4.8-19.2-4.8-19.2
			l30.8-16.5c0,0,6.5,0.1,15.2-13.5c5.7-8.7,11.9-17,18.6-24.9c0,0-6.6-9.9-12.8-10.6c0,0-2.5,2.6-4.2,9.5
			c-0.9,3.7-7.1,9.8-12.6,14.8c-4,3.5-7.8,7.2-11.6,10.9c-2.8,2.7-9.1,6.6-22.8,8.8C597.5,629.3,596,630.4,596,630.4z"/>
		<path class="st16" d="M596,629.1c0,0-16.2,7.7-14.3,21.1c1.9,13.4,2.2,30.3,2.2,30.3s7.4,10.9-2.4,31.6c0,0-6.2,10.5-2.1,18.2
			c0,0,4.6-12.1,16.5-3.2c11.9,8.9,31.1,13.1,31.1,13.1s-9.9-43.4-3.8-49.5c0,0,10.5-15.6,1-25.5c-9.6-9.9-4.8-19.2-4.8-19.2
			l30.8-16.5c0,0,6.5,0.1,15.2-13.5c5.7-8.7,11.9-17,18.6-24.9c0,0-6.6-9.9-12.8-10.6c0,0-2.5,2.6-4.2,9.5
			c-0.9,3.7-7.1,9.8-12.6,14.8c-4,3.5-7.8,7.2-11.6,10.9c-2.8,2.7-9.1,6.6-22.8,8.8C597.5,628,596,629.1,596,629.1z"/>
		<path class="st13" d="M610,709.4c0,0,12.6,18.5,12.9,21.7C622.9,731.1,620.9,711.2,610,709.4z"/>
		<path class="st13" d="M593.5,647c0,0,8.8,10.5,21.4,1.7C607.8,651.1,600.1,650.5,593.5,647z"/>
		<path class="st13" d="M600.3,600.6c-0.2-1-0.7-1.8-1.4-2.6c-2.9-3.6-6-7.3-10.3-9.1c-5.9-2.2-12.5-0.3-16.3,4.6
			c-1.5,2.1-2.5,4.6-3.8,6.8c-2.5,4.1-6.3,7.3-10.4,9.8c-2.5,1.5-5.1,2.8-7.4,4.5c-8.5,6.2-12.4,17.8-10.3,28.1
			c0.9,4.5,2.9,9,2.4,13.6c-0.4,3.6-2.3,6.8-4.2,9.8c-1.9,3-4,6.1-4.7,9.6c-0.8,3.5,0,7.6,2.9,9.7c1.1,0.8,2.4,1.3,3.3,2.2
			c0.6,0.7,1.1,1.5,1.5,2.4c3.1,5.7,8.3,9.8,14.6,11.5c2.7,0.7,6.4,0.5,7.4-2.2c0.1-0.5,0.3-0.9,0.5-1.3c0.9-1.3,2.9-0.6,4.3,0.2
			c3.2,1.7,6.7,2.7,10.3,3c1.4,0.2,2.9,0,4.2-0.5c1.1-0.6,2.1-1.4,2.8-2.5c3.4-4.4,4.3-10.1,4.9-15.6c0.4-3.6,0.6-7.2,0-10.7
			c-1.1-5.7-4.5-10.9-4-16.7c0.5-6.1,5.5-11.1,6.3-17.2c0.4-3.2-0.4-6.4-2.2-9.1c-0.7-0.8-1.2-1.7-1.7-2.7c-0.4-1-0.2-2.2,0.5-2.9
			c0.4-0.3,0.9-0.5,1.3-0.6c4.1-1.6,6.3-5.7,6.6-9.9c0.1-1.6,0-3.1,0.4-4.6C598.5,605.8,600.6,603.1,600.3,600.6z"/>
		<path class="st17" d="M599,600.6c-0.2-1-0.7-1.8-1.4-2.6c-2.9-3.6-6-7.3-10.3-9.1c-5.9-2.2-12.5-0.3-16.3,4.6
			c-1.5,2.1-2.5,4.6-3.8,6.8c-2.5,4.1-6.3,7.3-10.4,9.8c-2.5,1.5-5.1,2.8-7.4,4.5c-8.5,6.2-12.4,17.8-10.3,28.1
			c0.9,4.5,2.9,9,2.4,13.6c-0.4,3.6-2.3,6.8-4.2,9.8c-1.9,3-4,6.1-4.7,9.6c-0.8,3.5,0,7.6,2.9,9.7c1.1,0.8,2.4,1.3,3.3,2.2
			c0.6,0.7,1.1,1.5,1.5,2.4c3.1,5.7,8.3,9.8,14.6,11.5c2.7,0.7,6.4,0.5,7.4-2.2c0.1-0.5,0.3-0.9,0.5-1.3c0.9-1.3,2.9-0.6,4.3,0.2
			c3.2,1.7,6.7,2.7,10.3,3c1.4,0.2,2.9,0,4.2-0.5c1.1-0.6,2.1-1.4,2.8-2.5c3.4-4.4,4.3-10.1,4.9-15.6c0.4-3.6,0.6-7.2,0-10.7
			c-1.1-5.7-4.5-10.9-4-16.7c0.5-6.1,5.5-11.1,6.3-17.2c0.4-3.2-0.4-6.4-2.2-9.1c-0.7-0.8-1.2-1.7-1.7-2.7c-0.4-1-0.2-2.2,0.5-2.9
			c0.4-0.3,0.9-0.5,1.3-0.6c4.1-1.6,6.3-5.7,6.6-9.9c0.1-1.6,0-3.1,0.4-4.6C597.2,605.8,599.4,603.1,599,600.6z"/>
		<g class="st18">
			<path d="M560.9,698c-0.2,0.4-0.4,0.9-0.5,1.3c-0.6,1.6-2.1,2.3-3.9,2.5c2.4,0.2,5-0.3,5.8-2.5c0.1-0.5,0.3-0.9,0.5-1.3
				c0.2-0.2,0.4-0.4,0.6-0.5C562.5,697.2,561.5,697.2,560.9,698z"/>
			<path d="M599,600.6c-0.2-1-0.7-1.8-1.4-2.6c-2.9-3.6-6-7.3-10.3-9.1c-1.9-0.7-3.9-1-5.9-0.9c1.4,0.1,2.7,0.4,4,0.9
				c4.3,1.7,7.4,5.4,10.3,9.1c0.7,0.7,1.2,1.6,1.4,2.6c0.4,2.6-1.8,5.2-2.5,7.6c-0.5,1.6-0.3,3-0.4,4.6c-0.3,4.2-2.5,8.3-6.6,9.9
				c-0.5,0.1-0.9,0.4-1.3,0.6c-0.8,0.8-1,1.9-0.5,2.9c0.5,1,1,1.9,1.7,2.7c1.8,2.6,2.6,5.9,2.2,9.1c-0.8,6.1-5.7,11.1-6.3,17.2
				c-0.5,5.7,2.9,11,4,16.7c0.7,3.5,0.4,7.2,0,10.7c-0.6,5.5-1.5,11.2-4.9,15.6c-0.7,1-1.7,1.9-2.8,2.5c-0.7,0.3-1.4,0.5-2.1,0.5
				c1.4,0.2,2.7,0,4-0.5c1.1-0.6,2.1-1.4,2.9-2.4c3.4-4.4,4.3-10.1,4.9-15.6c0.4-3.6,0.6-7.2,0-10.7c-1.1-5.7-4.5-10.9-4-16.7
				c0.5-6.1,5.5-11.1,6.3-17.2c0.4-3.2-0.4-6.4-2.2-9.1c-0.7-0.8-1.2-1.7-1.7-2.7c-0.5-1-0.3-2.2,0.5-2.9c0.4-0.3,0.9-0.5,1.3-0.6
				c4.1-1.6,6.3-5.7,6.6-9.9c0.1-1.6,0-3.1,0.4-4.6C597.3,605.8,599.4,603.1,599,600.6z"/>
		</g>
		<path class="st13" d="M574.9,826c2.2,2.4,5.7,3.4,8.8,2.4"/>
		<path class="st13" d="M615.8,935.2c-1.2,1-2.8,1.4-4.4,1.1"/>
	</g>
</g>
</svg>
