<?xml version="1.0" encoding="utf-8"?>
<!-- Generator: Adobe Illustrator 23.0.3, SVG Export Plug-In . SVG Version: 6.00 Build 0)  -->
<svg version="1.1" id="Layer_1" xmlns="http://www.w3.org/2000/svg" xmlns:xlink="http://www.w3.org/1999/xlink" x="0px" y="0px"
	 viewBox="0 0 1000 1000" style="enable-background:new 0 0 1000 1000;" xml:space="preserve">
<style type="text/css">
	.st0{fill:#0B7BCE;}
	.st1{opacity:0.1;fill:#159EE9;enable-background:new    ;}
	.st2{fill:#3DB366;}
	.st3{opacity:0.5;fill:none;stroke:#15723A;stroke-miterlimit:10;}
	.st4{opacity:0.1;}
	.st5{fill:#333333;}
	.st6{opacity:0.1;fill:#010101;enable-background:new    ;}
	.st7{fill:#FEBF10;}
	.st8{fill:#FBCAC1;}
	.st9{fill:#423F57;}
	.st10{fill:#D42028;}
	.st11{opacity:0.1;fill:#020202;enable-background:new    ;}
	.st12{fill:#E2E7F5;}
	.st13{fill:#020202;}
</style>
<ellipse class="st0" cx="490.4" cy="934.2" rx="296.9" ry="29.4"/>
<path class="st1" d="M291,126.3c32.9-37.3,84.4-45,131.3-42c147.4,9.3,280.4,100.2,395.5,202.8c41.7,37.2,82.7,77.3,109.7,128.5
	c55.1,104.2,38.7,248.7-37.8,334.5c-26,29.2-57.6,51.6-90,71.5c-57.6,35.3-119.8,63.6-185.2,71.7c-46.6,5.8-93.8,1.1-140.2-6.9
	C344.7,864,217.5,814.3,111,729.5C64.2,692.3,20.1,646.1,0.9,585.9c-19.3-60.2-7-136.4,40.8-172.1c19.7-14.7,43.3-21.4,66.5-27.6
	c34-9.2,68.6-18.3,99.3-37c31.7-19.3,69.2-56.7,63-99.4C263.6,203.9,258.2,163.6,291,126.3z"/>
<g>
	<g>
		<path class="st2" d="M420.9,737c-54.7,83.9-39.7,190.5-39.7,190.5s103.6-29.3,158.3-113.2c54.7-83.9,39.7-190.5,39.7-190.5
			S475.6,653.1,420.9,737z"/>
		<circle class="st2" cx="257.2" cy="831.6" r="13.5"/>
		<path class="st2" d="M257.2,890.5c0,0-1.9-41.5-41.5-36.7"/>
		<circle class="st2" cx="486.1" cy="503.8" r="18.6"/>
		<path class="st2" d="M486.1,579.4c0,0-2.7-57.1-57-50.4"/>
	</g>
	<path class="st2" d="M380.9,926.5c0,0-1.3-0.2-3.8-0.7c-2-0.4-4.6-1-7.9-1.7c-29.4-6.9-107.5-30.3-158.5-91.9
		c-63.9-77.1-61.2-184.7-61.2-184.7s97.7,15.9,162.1,85.1c2.8,3,5.5,6.1,8.1,9.2c55.6,67.1,60.8,157.3,61.2,179.6
		C381,924.7,380.9,926.5,380.9,926.5z"/>
	<path class="st3" d="M341.5,737c54.7,83.9,39.7,190.5,39.7,190.5s-103.6-29.3-158.3-113.2s-39.7-190.5-39.7-190.5
		S286.8,653.1,341.5,737z"/>
	<g class="st4">
		<path class="st5" d="M420.9,737c-54.7,83.9-39.7,190.5-39.7,190.5s103.6-29.3,158.3-113.2c54.7-83.9,39.7-190.5,39.7-190.5
			S475.6,653.1,420.9,737z"/>
		<circle class="st5" cx="257.2" cy="831.6" r="13.5"/>
		<path class="st5" d="M257.2,890.5c0,0-1.9-41.5-41.5-36.7"/>
		<circle class="st5" cx="486.1" cy="503.8" r="18.6"/>
		<path class="st5" d="M486.1,579.4c0,0-2.7-57.1-57-50.4"/>
	</g>
	<path class="st6" d="M380.9,921.4c-1.4,1.7-2.7,3.2-3.8,4.4c-2.3,2.6-3.6,4-3.6,4s-1.6-2-4.3-5.8c-14.8-20.6-62.3-93.8-58.6-178.4
		c0.2-4.4,0.5-8.8,1-13.2c2.8,3,5.5,6.1,8.1,9.2C375.3,808.8,380.5,899.1,380.9,921.4z"/>
	<path class="st2" d="M462,751.8c-4.3,100-78.6,178-78.6,178s-67.2-84.1-62.9-184.2s78.6-178,78.6-178S466.3,651.8,462,751.8z"/>
	<line class="st3" x1="383.4" y1="927" x2="399.8" y2="571.7"/>
	<line class="st3" x1="257.2" y1="927.1" x2="257.2" y2="831.6"/>
	<line class="st3" x1="486.1" y1="771.2" x2="486.1" y2="503.8"/>
</g>
<g>
	<path class="st7" d="M701.6,679.5c-1.1,7.5,3.4,14.6,10.6,16.8c-0.4,2.1-2.6,3.2-4.1,4.7c-2.1,2.1-3.2,5.1-5.7,6.7
		c-2.8,1.7-6.4,1.1-9.6,0.3c-0.3,0-0.6-0.2-0.7-0.4c-0.1-0.1-0.1-0.2-0.1-0.3c-1.1-3.8-1.7-8-0.7-11.8c0.9-3.3,3-6.1,4.6-9
		C697.7,683.5,697.9,680.4,701.6,679.5z"/>
	<path class="st8" d="M651.9,637.7c-1.1,0.9-2.3,1.5-3.6,1.9l-6.2,2.2c-3.3,1.2-6.8,2.4-10.4,2c-2-0.2-10.4-1.5-11.7-3
		c-1.9-2.4,4.9-5.9,7.2-7.9c0.5-0.4,1-0.8,1.5-1.3c0.9-1.1,0.8-2.5,0.6-3.9c-0.4-3.4-0.6-6.8-0.5-10.2c0.1-0.8,0.2-1.6,0.3-2.4
		c0.9-4,4.6-2.5,7.5-1.5c3.5,1.1,6.9,2.6,10.2,4.4c1,0.5,1.9,1.2,2.5,2.1c1.3,1.9,0.8,4.5,0.6,6.9c-0.2,1.9-0.2,3.7,1,5.1
		c0.6,0.5,1.1,1.1,1.6,1.7C653.3,635.2,653,636.8,651.9,637.7z"/>
	<path class="st8" d="M566.9,575.1c0.9-3.8,1.1-7.8,2.1-11.6c0.7-2.5,1.6-4.9,2.7-7.3l3.8-8.9c0.4-1.1,1-2,1.8-2.7
		c0.9-0.6,1.9-0.8,3-0.8c3.7-0.1,7.7,1,10.2,3.8c2.6,2.8,3.4,7.2,1.3,10.4c-2.4,3.8-7.7,4.6-10.9,7.8c-2,2-3,4.9-3.6,7.7
		c-1.6,7.3-1.1,14.9-1.5,22.3c-0.2,2.3-0.6,5-2.6,6.2c-1.2,0.6-2.5,0.9-3.9,0.8l-5.7,0.1c-1,0-4.4,0.6-5.1-0.1
		c-1.1-1.3,1.4-7.5,1.9-8.9c1-3.1,2.3-6.1,3.5-9.2C565,581.7,566.9,578.1,566.9,575.1z"/>
	<path class="st9" d="M684.5,847.9c-1.3,5-5.3,8.9-7.3,13.7c-3,7.2-1.7,15.9-6,22.4c-1.4,2-3.1,3.7-5,5.2c-1.1,0.9-2.2,1.7-3.5,2.3
		c-1.3,0.7-2.8,0.9-4.2,0.5c-1.8-0.6-2.9-2.6-3.1-4.5c-0.1-0.6-0.1-1.3,0-1.9c0.2-1.3,0.5-2.6,0.9-3.8c1-3.5,2.1-7,3.1-10.6
		c0.6-1.9,1.1-3.9,1.3-5.9c0.1-2.2-1.3-5-0.7-7.1c0.3-0.9,1.3-1.7,1.7-2.5c0.7-1.1,1.2-2.3,1.5-3.6c0.7-2.4,1.2-5,2.7-7.1
		c1-1.2,2.1-2.3,3.4-3.2c0.9-0.8,2-1.4,3.2-1.8c1.2-0.2,2.3-0.1,3.5,0.2c1.5,0.3,2.9,0.7,4.3,1.2h0.1c1.7,0.6,3.6,1.6,4.1,3.3
		C684.8,845.9,684.7,846.9,684.5,847.9z"/>
	<path class="st9" d="M776.8,741.2c-0.1,1.3-0.2,2.8-1.3,3.7c-0.9,0.6-2,0.8-3.1,0.7h-0.2c-3.1,0-6.3-0.2-9.2,0.8
		c-2.2,0.7-4.3,2.1-6.6,2.4c-3.2,0.4-6.2-1.4-9.1-2.9c-2.7-1.4-5.4-2.7-8.2-3.9c-1.8-0.8-5.6-1.2-6.5-3.3c-0.3-1-0.6-1.9-0.8-2.9
		c-0.1-0.4-0.3-0.9-0.5-1.3c-0.5-0.9-0.9-1.9-1-2.9c0-1,0.4-2,1-2.8c1.4-1.7,3.5-2.7,5.7-2.9s4.4-0.1,6.5,0.3l21.4,3.1
		c1.6,0.2,3.3,0.5,4.9,0.9c1.5,0.3,3,0.9,4.2,1.9C776.8,734.1,777,737.9,776.8,741.2z"/>
	<path class="st10" d="M758.1,746.7c-2.6,5.5-0.7,12-1.2,18.1c-0.4,3.4-1.2,6.8-2.3,10c-1,3.2-2,6.5-3.3,9.6
		c-1.1,2.6-2.4,5.2-3.4,7.9c-1.6,4.2-2.6,9-5.8,12.2c-1.5,7.1-3.4,14.9-9.2,19.2c-5.1,3.8-12.2,3.9-18.1,1.6
		c-5.9-2.3-10.7-6.6-15-11.3c-4.2-4.7-8-9.8-12.6-14.1c-2.6-2.5-5.4-4.7-8.3-6.8c-2.9-2.1-6-4.1-9.1-6c-1.9-1.3-4-2.2-6.3-2.7
		c-1.8-0.4-3.8,0-5.3,1c-0.4,0.2-0.7,0.5-1,0.9c-0.8,1.1-1.4,2.3-1.7,3.6c-3.6,9.5-13.4,14.4-21.2,20.9l-7.1,5.9c-1,0.8-2,2-1.6,3.2
		c0.3,0.6,0.9,1,1.5,1.3c4.2,2,9,2.9,12.4,6c1.3,1.1,2.4,2.7,4.1,2.7c0.9-0.1,1.8-0.2,2.6-0.6c2.6-0.7,5.5-0.2,7.6,1.5
		c0.6,0.6,1.3,1.1,2.1,1.4c0.6,0.2,1.3,0.2,2,0.1c1.8-0.1,3.8-0.3,5.5,0.5s3,2.8,5,2.9c0.9,0.1,2.1-0.2,3-0.2c0.5,0,1,0.3,1.3,0.7
		c0.2,0.5,0.3,1,0.4,1.5c0.4,1.2,1.6,2,2.3,3c1.2,1.5,1.4,3.6,1.3,5.6c-0.4,6.1-3.1,11.8-7.6,16c-1.3,1.3-2.9,2.2-4.7,2.6
		c-1.8,0.4-3.7-0.4-4.6-2.1c-0.2-0.7-0.5-1.3-0.9-1.9c-1.4-1.5-4.5,0.1-5.8-1.5c-0.8-1-0.2-2.7-1-3.7c-0.8-1.1-2.6-0.9-4-0.9
		c-1.7-0.1-3.2-0.9-4.8-1.3c-2.6-0.7-5.3-0.4-8-0.6c-2.2-0.2-4.4-0.5-6.6-1l-11-2.3c-7-1.4-14.1-2.9-20.8-5.4
		c-2.6-1-5.1-2.2-6.9-4.3c-1.5-1.8-2.4-4-2.7-6.3c-1.6-9.3,6.8-17.2,7.8-26.5c0.4-3.4,1.7-6.6,3-9.8c2.4-5.6,4.7-11.3,7.1-17
		c0.4-1.1,0.9-2.1,1.5-3c1-1.2,2.1-2.3,3.4-3.3c3.3-3,5.7-6.9,6.8-11.1c0.1-0.5,0.3-0.9,0.6-1.3c0.3-0.3,0.6-0.5,1-0.7
		c1.3-0.8,1.8-2.4,1.3-3.9c1.1-0.1,2-1,2.1-2.1c-0.1-0.5,0-0.9,0.1-1.4c0.2-0.5,0.7-0.7,1-1.1c0.5-0.7,0.3-1.6,0.2-2.4
		c-0.1-0.5-0.1-1,0-1.6c0.2-1.8,1-3.6,2.3-4.9c2.1-2,5-1.5,7.9-2c2.9-0.6,5.6-1.5,8.3-2.7c7.5-3,15.5-4.8,23.5-5.4
		c8.1-0.6,16.3,0.7,23.8,3.8c1.1,0.4,2.1,1,3.1,1.7c0.7,0.5,1.2,1.2,1.6,1.9c0.3,0.9,0.7,1.8,1.2,2.7c0.9,1.3,2.7,1.7,3.7,2.9
		s1.1,3.2,1.9,4.7c1.2,2.1,4,3.1,4.8,5.4c0.3,0.7,0.3,1.5,0.5,2.3c0.5,1.9,1.9,3.4,3.1,4.9c4.6,5.4,7.5,12.1,8.4,19.1
		c0.3-4.4,3.2-8.3,6.9-10.7c1-0.7,2.2-1.4,2.4-2.6c0.3-1.5-1.2-2.8-1.1-4.3c0.1-0.7,0.4-1.4,0.9-2c1.7-2.4,3.5-4.7,5.4-6.8
		c1.1-1.2,2.3-2.6,1.8-4.2c-0.3-1.2-1.5-1.8-2.2-2.8c-0.8-1.2-0.7-2.8,0.1-4c0.6-0.8,1.6-1.4,1.9-2.4c0.3-1.2-0.4-2.4-0.2-3.6
		c0.3-1,0.9-1.8,1.8-2.3c1.2-1,2.5-1.9,3.9-2.6c2.3-0.9,4.8-0.5,7.3-0.2c4.1,0.6,8.6,1.4,10.9,4.8
		C758.4,741.2,759.1,744.4,758.1,746.7z"/>
	<path class="st11" d="M776.8,741.2c-0.1,1.3-0.2,2.8-1.3,3.7c-0.9,0.6-2,0.8-3.1,0.7h-0.2c0.4-1.8,2.6-2.8,2.9-4.7
		c0.1-1.1-0.2-2.3-1-3.2c-1.9-2.5-4.8-3.9-7.8-4.9c-8.4-2.9-17.4-3.5-26.1-2c-2.4,0.4-4.7,1.1-6.9,2.1c-0.7,0.5-1.4,0.9-2.1,1.5
		c-0.5-0.9-0.9-1.9-1-2.9c0-1,0.4-2,1-2.8c1.4-1.7,3.5-2.7,5.7-2.9s4.4-0.1,6.5,0.3l21.4,3.1c1.6,0.2,3.3,0.5,4.9,0.9
		c1.5,0.3,3,0.9,4.2,1.9C776.8,734.1,777,737.9,776.8,741.2z"/>
	<path class="st11" d="M684.5,847.9c-1.3,5-5.3,8.9-7.3,13.7c-3,7.2-1.7,15.9-6,22.4c-1.4,2-3.1,3.7-5,5.2c-1.1,0.9-2.2,1.7-3.5,2.3
		c-1.3,0.7-2.8,0.9-4.2,0.5c-1.8-0.6-2.9-2.6-3.1-4.5c-0.1-0.6-0.1-1.3,0-1.9l0.1,0.1c0.8,1.8,2,3.7,3.9,4.1c1.5,0.1,2.9-0.4,4-1.4
		c2.9-2.3,4.5-5.7,6.1-9c1.2-2.4,2.2-4.9,2.9-7.5c0.3-1.5,0.5-3,0.9-4.5c1.6-7.2,7.3-13,8.5-20.3c0.1-0.5,0.1-1,0.1-1.5
		c-0.2-0.7-0.4-1.3-0.7-1.9c-0.3-0.7-0.5-1.4-0.7-2.1c1.7,0.6,3.6,1.6,4.1,3.3C684.8,845.9,684.8,846.9,684.5,847.9z"/>
	<path class="st11" d="M671.3,835.4c-0.8,2.1-2.2,3.9-3.9,5.3c-2.5,1.9-5.4,3.1-8.4,3.6c-1.4,0.4-2.9,0.3-4.3-0.1
		c-1.9-0.7-3.3-2.5-5.3-3c-1.4-0.4-2.9,0-4.3-0.3c-2.6-0.4-4.5-2.3-6.6-3.9c-6.3-4.8-14.6-6.3-21-11.1c-0.3-0.2-0.5-0.4-0.7-0.7
		c-0.1-0.3-0.2-0.6-0.1-1c0-2.9,0.7-5.7,1.9-8.3c1-1.8,2.2-3.5,3.6-5.1c5.7-6.9,11.4-13.9,18.2-19.8c2.8-2.5,6-4.7,9.6-5.9
		c2-0.6,5.9-1.2,8.4-0.2c-0.4,0.2-0.7,0.5-1,0.9c-0.8,1.1-1.4,2.3-1.7,3.6c-3.7,9.5-13.4,14.4-21.3,20.9l-7.1,5.9
		c-1,0.8-2,2-1.6,3.2c0.3,0.6,0.9,1,1.5,1.3c4.2,2,9,2.9,12.4,6c1.3,1.1,2.4,2.7,4.1,2.7c0.9-0.1,1.8-0.2,2.6-0.6
		c2.6-0.7,5.5-0.2,7.6,1.5c0.6,0.6,1.3,1.1,2.1,1.4c0.6,0.2,1.3,0.2,2,0.1c1.8-0.1,3.8-0.3,5.5,0.5s3,2.8,5,2.9
		C669.3,835.7,670.4,835.3,671.3,835.4z"/>
	<path class="st7" d="M591.5,717.6c-1.6,1.1-3.4,2.3-4.1,4.1c-0.6,1.5-0.3,3.2-1,4.7s-2.2,2.5-2.5,4c-0.2,1.1,0.2,2.3,0,3.5
		c-0.2,0.6-0.4,1.2-0.5,1.8c-0.1,1.3,1,2.3,2.1,3.1c4.7,3,10.5,3.7,15.8,1.7c2.3-0.9,4.4-2.3,6.6-3.4c2.2-1.2,4.6-1.9,7.1-1.7
		c1.4,0.2,2.8,0.7,4.2,0.9c1.4,0.3,2.9-0.2,4-1.2c0.4-0.6,0.7-1.3,0.9-2.1c1.2-4.8,0.7-9.8-0.5-14.6c-1.1-4.8-2.9-9.4-4.1-14.2
		c-0.9-3.5-1.5-7.2-3-10.5s-3.9-6.5-7.3-7.7c-0.3-0.1-0.6-0.2-0.9-0.1c-0.2,0.1-0.4,0.2-0.6,0.4c-2.7,2.9-4.7,6.3-6,10
		c-1.4,4.2-1.7,8.6-3,12.7c-0.5,1.7-1.2,4.1-2.6,5.4C595,715.8,593,716.6,591.5,717.6z"/>
	<path class="st11" d="M624.2,733c-0.1,0.7-0.5,1.4-0.9,2.1c-1,1-2.5,1.5-4,1.2c-1.4-0.2-2.8-0.7-4.2-0.9c-2.5-0.1-5,0.5-7.1,1.7
		c-2.2,1.1-4.3,2.5-6.6,3.4c-3.4,1.3-7,1.5-10.5,0.6c-1.9-0.5-3.6-1.2-5.2-2.3c-1.1-0.7-2.2-1.7-2.1-3.1c0.1-0.6,0.3-1.2,0.5-1.8
		c0.2-1.1-0.2-2.3,0-3.5c0.3-1.6,1.8-2.6,2.5-4s0.4-3.2,1-4.7c0.7-1.8,2.4-3,4.1-4.1c1.6-1.1,3.6-1.9,4.9-3.2
		c0.2-0.2,0.3-0.4,0.5-0.6c1-1.5,1.7-3.1,2.1-4.8c1.3-4.2,1.6-8.6,3-12.8c1.2-3.7,3.3-7.2,6-10c0.1-0.2,0.3-0.3,0.6-0.4
		c0.3-0.1,0.6,0,0.9,0.1c3.4,1.3,5.8,4.4,7.3,7.7s2.1,6.9,3,10.5c1.2,4.8,3,9.4,4.1,14.2S625.4,728.2,624.2,733z"/>
	<path class="st11" d="M650.1,627.1c-8.5,2.7-17.6-1.4-21.2-9.6c0.1-0.8,0.2-1.6,0.3-2.4c0.9-4,4.6-2.5,7.5-1.5
		c3.5,1.1,6.9,2.6,10.2,4.4c1,0.5,1.9,1.2,2.5,2.1C650.8,622.1,650.3,624.7,650.1,627.1z"/>
	<circle class="st8" cx="644.8" cy="609.7" r="17.4"/>
	<path class="st11" d="M691.9,739.4c0,1.4-2,1.9-3.4,1.8c-5.2-0.3-10.3-1.7-15.5-1.3c-6.5,0.6-12.5,4.2-19,4.5
		c-2.5,0.1-5.1-0.2-7.6,0.2c-3.2,0.6-6.1,2.6-9.4,2.8c-2.8,0.2-5.6-0.8-8.5-0.7c-2,0.1-3.9,0.7-5.7,1.6c0.2-1.8,1-3.6,2.3-4.9
		c2.1-2,5-1.5,7.9-2c2.9-0.6,5.6-1.5,8.3-2.7c7.5-3,15.5-4.8,23.5-5.4c8.1-0.6,16.3,0.6,23.8,3.8c1.1,0.4,2.1,1,3.1,1.7
		C691.9,739.1,691.9,739.3,691.9,739.4z"/>
	<path class="st12" d="M636.8,641.4l-7-2.6l-3-1.1c-1.2-0.5-2.5-0.8-3.8-1c-3.4-0.3-6.6,2-8.4,4.9c-1.8,2.9-2.5,6.3-3.1,9.7
		c-0.8,4.6-1.5,9.2-2,13.8c-0.6,4.2-0.9,8.4-0.9,12.6c0.2,10.7,2.5,21.4,5,31.8c1.2,4.6,2.1,9.4,2.8,14.1c0.2,2,0.3,3.9,0.5,5.9
		c0.2,2.2,0.6,4.4,1,6.6l2.1,12.5c2.6-1.8,5.6-3.5,8.8-3.6c2.8-0.1,5.7,1,8.5,0.7c3.3-0.3,6.1-2.2,9.4-2.8c2.5-0.5,5-0.1,7.6-0.2
		c6.5-0.3,12.5-3.9,19-4.5c5.2-0.5,10.3,1,15.5,1.3c1.4,0.1,3.4-0.4,3.4-1.8c0-1-1-1.7-1.9-2.2c-4.1-2.5-8.1-5.3-11.8-8.4
		c-3.4-2.7-6.9-5.5-9.2-9.2c-5.7-8.8-3.7-20.7-8.6-30c-3.9-7.6,0-17.5,0-26c0-4.2,0-8.5-1-12.7c-0.6-2.3-1.4-4.6-2.3-6.8l-3.4-8.6
		c-0.1-0.2-0.2-0.5-0.4-0.7s-0.5-0.2-0.8-0.2c-2-0.1-4,0.5-5.6,1.8s-2.6,3.2-4.2,4.5C641.1,640.8,638.9,642.2,636.8,641.4z"/>
	<path class="st7" d="M648.1,636.4c0.6-2.4,1.2-4.9,2.7-6.7c1.6-1.9,4.5-2.8,6.5-1.5c2.3,1.5,2.4,5,4.4,6.9c1.7,1.7,4.3,1.8,6.7,2
		c4.2,0.4,8.4,1.4,12.4,2.9c0.8,0.2,1.5,0.7,2.1,1.2c1.1,1.2,0.9,3.1,1.4,4.7c0.7,2,2.8,3.2,3.6,5.2c0.9,2.2,0,4.6-0.7,6.9
		c-1.3,4-2.1,8.2-3.4,12.3c-1.3,4.1-3.1,8-6.1,11.1c-1.3,1.4-3.3,2.6-5,1.8L672,688c-0.2,1-0.2,2.1,0,3.1s1,1.9,2,2.1
		c0.1,0.7,0.9,1.1,1.6,1.5c2,1.4,2.5,4.1,1.1,6l0,0c-0.5,0.7-1.4,1.3-1.6,2.2c-0.4,1.3,0.5,2.6,1.7,3.3c1.1,0.7,2.5,1,3.6,1.7
		c2.4,1.4,3.7,4.1,4.5,6.7c0.6,2,1.1,4.1,2.6,5.6c0.6,0.5,1.3,1,1.8,1.5c0.9,1.1,1.5,2.5,1.6,4c0.2,1.8-0.2,3.7-1.1,5.2
		c-1.7,2.5-5,3.2-7.8,4.3c-4.6,1.9-8.4,5.3-12.5,8.2c-1.7,1.3-3.6,2.2-5.7,2.7c-2.8,0.4-5.6-0.9-8.4-1c-1.7,0-3.4,0.2-5,0.7
		l-5.2,1.1c0.3-4-1.9-8.1-3.2-11.9c-2.3-7.2-2.8-15-2.2-22.6s2.1-15.1,3.6-22.5c1.1-5.2,1-10.7,2.6-15.7c1.5-4.9,3.7-9.6,4.5-14.6
		C651.8,651.5,646.3,644.5,648.1,636.4z"/>
	<path class="st7" d="M687.6,652.5c0.5,0.9,0.8,1.8,1,2.8c0.4,1.5,1.2,2.9,2.2,4.1c0.9,0.8,1.6,1.6,2.3,2.6c0.8,1.5,0.5,3.4,0.9,5
		c0.4,1.8,1.7,3.4,1.9,5.2c0,0.5,0.1,1.1,0.1,1.6c0.6,2.1,3.7,2.6,4.3,4.7c0.5,1.4-0.3,2.8-0.2,4.3c0.1,0.4,0.1,0.9,0.1,1.4
		c-0.2,0.5-0.5,1-1,1.3c-2.9,2.7-4.9,6.3-5.7,10.2s-1.3,7.8-1.3,11.7l-3.4-4.5c-0.4-0.5-0.8-1-1.4-1.4c-0.4-0.3-0.9-0.4-1.4-0.7
		c-1.3-0.7-1.8-2.3-2.3-3.7c-1.4-3.8-3.4-7.4-6.1-10.5c-1.4-1.6-3-3.3-3.3-5.4c-0.1-1,0-1.9,0.2-2.9c0.9-5.7,1.8-11.5,4.6-16.6
		c1.3-2.4,3-4.5,4.2-6.9C684.2,653.3,685.4,649.2,687.6,652.5z"/>
	<path class="st7" d="M602,658c0,0.7-0.2,1.5-0.5,2.1c-0.7,0.8-1.7,1.1-2.7,0.9c-1-0.2-1.9-0.7-2.7-1.3c-2.4-1.5-4.8-3.1-7.3-4.6
		c-1.4-0.8-2.7-1.7-3.9-2.7c-1.9-1.6-3.6-3.4-5.1-5.4c-4.2-5.2-8-10.9-12.7-15.6c-1.3-1.3-2.6-2.6-3.8-3.9c-1.7-2-3.2-4.1-4.6-6.2
		c-1.4-2-2.8-4.2-2.5-6.6c0.1-1.4,0.8-2.6,1-4c0.2-1.3-0.3-3-1.6-3.4c-0.2,0-0.3-0.1-0.5-0.1c-0.3,0-0.5-0.1-0.8-0.2
		c-1.2-0.5-1-2.4-0.2-3.4c0.9-1,2.2-1.5,2.9-2.6c0.4-0.6,0.8-1.3,1.2-1.8c0.6-0.5,1.3-0.8,2-1c5-1.5,10.3-1.7,15.4-0.6
		c0.9,0.2,1.9,0.5,2.1,1.4c0.1,0.4,0.1,0.8,0,1.3c-0.4,1.7-0.6,3.5-0.7,5.2c0,0.4,0,0.7,0.1,1.1c0.4,3.7,2.8,6.8,5.1,9.7
		c2.8,3.4,5.6,6.8,8.4,10.2c1.5,2,3.2,3.8,5.1,5.4c1.7,1.4,4,2.6,5.3,4.5c1.1,1.5,0.7,3.5,0.9,5.3C602.3,647.1,602.3,652.5,602,658z
		"/>
	<path class="st8" d="M712.2,694.2c0.9-0.8,1.6-1.7,2.3-2.7c0.7-1.2,1.3-2.5,1.7-3.9l5-14.3c0.8-2.3,1.6-4.5,2.6-6.7
		c1-2.4,2.3-4.7,3.4-6.9c2.9-6,5.2-12.4,6.7-18.9c0.3-0.9,0.4-1.8,0.3-2.8c-0.2-1.5-1.4-2.7-2.5-3.7c-1.1-1.2-2.3-2.2-3.7-3.1
		c-1.4-0.9-3.1-1.1-4.6-0.7c-2.2,0.7-3.6,2.9-4.1,5.2s-0.3,4.6-0.5,6.9c-0.3,3.3-1.5,6.6-1.7,9.9c-0.1,1.9,0,3.9-0.2,5.8
		c-0.4,2.5-1.3,5-2.6,7.2c-2.8,5.3-6.6,10-11.2,13.8c-1.3,0.9-2.4,2-3.4,3.2c-0.8,1.2-1.4,2.6-1.6,4c-0.6,2.2-0.3,4.5,0.7,6.6
		c1.4,2.4,4.1,3.5,6.7,4C709,697.9,709.8,696.7,712.2,694.2z"/>
	<path class="st9" d="M644.9,584.5c1.5-2.9,4.6-4.6,7.9-4.3c3.3,0.6,5.9,3,6.8,6.1c0.4,1.3,0.6,2.7,1.3,3.8c1.1,1.7,3.1,2.2,4.6,3.4
		c1.8,1.7,2.9,4,2.9,6.5c0.1,2.5-0.3,5-1.2,7.3c-0.4,1-0.6,2-0.9,3.1c-0.2,1-0.2,2-0.3,3c-0.4,2.6-1.8,5-4,6.6
		c-0.3,0.2-0.7,0.4-1.1,0.4c-0.7-0.1-1.1-0.9-1.3-1.6c-1.4-4-1.1-8.9-3.6-12c-1.2-1.3-2.6-2.3-4.1-3.1c-0.6-0.4-1.4-0.7-2.1-0.8
		c-1.1,0.1-2.2,0.4-3,1.1c-1.8,1.2-3.9,2.1-6,2.7c-2.2,0.5-4.4,0-6.2-1.3c-1.2-1-2.1-2.5-3.4-3.2c-1.3-0.8-2.7-0.7-4-1.3
		c-3-1.3-4.4-4.8-3.2-7.8c0.2-0.5,0.4-0.9,0.7-1.3c0.9-1,2.2-1.6,2.9-2.8c1-1.5,0.9-3.5,1.4-5.3c0.6-2.3,2.2-4.2,4.4-5
		c2.1-0.7,4.5-0.2,6.2,1.3c0.9,0.8,1.6,1.8,2.4,2.6c1.7,1.6,4.1,2.3,6.4,1.7"/>
	<path class="st11" d="M659.2,712.3c-1,0.9-1.4,2.4-0.9,3.7c0.2,0.4,9.2-1.3,10.1-1.5c2.4-0.3,6.5-0.2,8.1-2.3
		c2.8-3.8-5.9-3-7.5-2.8C665.9,709.6,661.5,710,659.2,712.3z"/>
	<path class="st7" d="M577.7,600.3c-0.4,1.7-0.6,3.5-0.7,5.2c-2.6,0.5-5.3-0.3-7.8-1.2l-7.2-2.4c-0.9-0.6-2.1-0.4-2.7,0.5
		c-1.2,1.2-2.7,3.5-4.3,4.8c-0.3,0-0.5-0.1-0.8-0.2c-1.2-0.5-1-2.4-0.2-3.4s2.2-1.5,2.9-2.6c0.4-0.6,0.8-1.3,1.2-1.8
		c0.6-0.5,1.3-0.8,2-1c5-1.5,10.3-1.7,15.4-0.6c0.9,0.2,1.9,0.5,2.1,1.4C577.8,599.4,577.8,599.9,577.7,600.3z"/>
	<path class="st11" d="M577.7,600.3c-0.4,1.7-0.6,3.5-0.7,5.2c-2.6,0.5-5.3-0.3-7.8-1.2l-7.2-2.4c-0.9-0.6-2.1-0.4-2.7,0.5
		c-1.2,1.2-2.7,3.5-4.3,4.8c-0.3,0-0.5-0.1-0.8-0.2c-1.2-0.5-1-2.4-0.2-3.4s2.2-1.5,2.9-2.6c0.4-0.6,0.8-1.3,1.2-1.8
		c0.6-0.5,1.3-0.8,2-1c5-1.5,10.3-1.7,15.4-0.6c0.9,0.2,1.9,0.5,2.1,1.4C577.8,599.4,577.8,599.9,577.7,600.3z"/>
	<path class="st11" d="M643.4,765.1c1.3,0.4,2.6,1,3,2.3l-10.1-2.6l-5.2-1.3c-0.9-0.2-4.2-0.5-4.8-1.2c-0.9-1.1,2.2-0.3,2.8-0.3
		c1.7,0.3,3.4,0.5,5,0.8C637.3,763.4,640.3,764.4,643.4,765.1z"/>
	<path class="st11" d="M647.3,774c-0.9-0.6-3.4-0.5-4.4-0.8c-1.6-0.4-3.1-0.9-4.6-1.3c-3.1-1-6.2-2.2-9.4-2.9
		c-0.6-0.1-2.6-0.2-2.5-0.9s2-1,2.5-1c2.8-0.2,6.4,1.1,9,2.1C641.2,770.3,644.3,772,647.3,774z"/>
	<path class="st11" d="M640.9,757.2c-3.2-0.9-6.1-2.8-9.4-3.2c-0.9,0-1.7-0.2-2.4-0.7c-0.4-0.4-0.7-0.9-0.8-1.4
		c2.2-0.1,4.7,0.8,6.7,1.7c1.1,0.5,2.2,1,3.2,1.7C639,755.7,640.1,756.9,640.9,757.2z"/>
	<path class="st7" d="M624,629.7c-3.4,0.2-6.6,1.2-9.6,2.9c-1.9,1.1-3.9,2.6-6.2,2.3c-1.3-0.1-2.6-0.9-3.9-0.5
		c-0.7,0.3-1.4,0.7-2,1.2s-1.4,0.6-2.2,0.3l-0.9,12c-0.3,4.6-0.7,9.2,0.4,13.7c0.6,2.3,1.8,4.3,1.9,6.7c0.1,2.3-0.1,4.7,0.1,7
		c0.2,2.2,0.6,4.3,0.8,6.5c0.2,4.1-0.8,8.1-1.7,12.1c-1.5,5.9-2.4,11.8-5.2,17.1c-0.8,1.5-1.7,3-1.7,4.6c0,0.2,0,0.4,0.1,0.6
		c-0.9,0.5-1.7,0.9-2.4,1.4c-1.6,1.1-3.4,2.3-4.1,4.1c-0.5,1.5-0.3,3.2-1,4.7s-2.2,2.5-2.5,4c-0.2,1.1,0.2,2.3,0,3.5
		c-0.2,0.6-0.4,1.2-0.5,1.8c-0.1,1.3,1,2.4,2.1,3.1c1.6,1.1,3.4,1.8,5.2,2.3l5.2-20.6l0,0c4.7-8.7,8.7-17.9,11.7-27.3
		c0.9-3.1,2-6.1,3.4-9c1-1.6,1.9-3.3,2.6-5.1c0.8-2.2,0.9-4.6,1.3-6.9c0.5-2.7,1.1-5.3,2-7.9c0.9-2.8,2-5.6,2.2-8.5
		c0.3-4.2-1.2-8.6,0.4-12.5c0.7-1.4,1.6-2.8,2.6-4c2.2-2.7,4.3-5.6,6.5-8.4C627.7,629.7,625.7,629.6,624,629.7z"/>
	<g class="st4">
		<path class="st13" d="M648.5,581.6l-1.1,0.1l-0.1,0.1C647.7,581.8,648.1,581.7,648.5,581.6z"/>
		<path class="st13" d="M668.3,599.7c-0.2,1.7-0.6,3.4-1.1,5.1c-0.4,1-0.6,2-0.9,3.1c-0.2,1-0.2,2-0.3,3c-0.4,2.6-1.8,5-4,6.6
			c-0.3,0.2-0.7,0.4-1.1,0.4c-0.7-0.1-1.1-0.9-1.3-1.6c-1.4-4-1.1-8.9-3.6-12c-1.2-1.3-2.6-2.3-4.1-3.1c-0.6-0.4-1.4-0.7-2.1-0.8
			c-1.1,0.1-2.2,0.4-3,1.1c-1.8,1.2-3.9,2.1-6,2.7c-2.2,0.5-4.4,0-6.2-1.3c-1.2-1-2.1-2.5-3.4-3.2c-1.3-0.8-2.7-0.7-4-1.3
			c-1.7-0.7-2.9-2.1-3.4-3.9c0-0.1-0.1-0.2-0.1-0.3c-0.2,1-0.2,2,0.1,2.9c0.5,1.7,1.7,3.2,3.4,3.9c1.3,0.5,2.8,0.5,4,1.3
			c1.2,0.7,2.2,2.3,3.4,3.2c1.8,1.4,4,1.9,6.2,1.3c2.1-0.5,4.2-1.4,6-2.7c0.9-0.7,1.9-1.1,3-1.1c0.7,0.1,1.5,0.4,2.1,0.8
			c1.5,0.8,2.9,1.8,4.1,3.1c2.5,3.2,2.2,8,3.6,12c0.3,0.7,0.7,1.5,1.3,1.6c0.4,0,0.8-0.1,1.1-0.4c2.2-1.6,3.6-3.9,4-6.6
			c0.2-1,0.2-2,0.3-3c0.2-1,0.5-2.1,0.9-3.1c0.8-2.3,1.2-4.8,1.2-7.3C668.4,599.9,668.4,599.8,668.3,599.7z"/>
	</g>
</g>
</svg>
