<?xml version="1.0" encoding="utf-8"?>
<!-- Generator: Adobe Illustrator 23.0.4, SVG Export Plug-In . SVG Version: 6.00 Build 0)  -->
<svg version="1.1" id="Layer_1" xmlns="http://www.w3.org/2000/svg" xmlns:xlink="http://www.w3.org/1999/xlink" x="0px" y="0px"
	 viewBox="0 0 400 300" style="enable-background:new 0 0 400 300;" xml:space="preserve">
<style type="text/css">
	.st0{opacity:0.1;fill:#010101;enable-background:new    ;}
</style>
<path class="st0" d="M307.7,193.9c-6.6-40.5-22.1-69-40.2-69s-33.6,28.4-40.2,69H307.7z M224,237.5c0,10.1,0.5,19.7,1.5,29h84.1
	c1-9.3,1.5-19,1.5-29s-0.5-19.7-1.5-29h-84.1C224.5,217.7,224,227.4,224,237.5z M371.3,193.9c-13-30.8-39.2-54.6-71.7-64.2
	c11.1,15.3,18.7,38.4,22.7,64.2H371.3z M235.4,129.7c-32.4,9.6-58.7,33.4-71.6,64.2h49C216.7,168.1,224.3,145,235.4,129.7
	L235.4,129.7z M376.1,208.4h-52c1,9.5,1.5,19.3,1.5,29s-0.5,19.5-1.5,29h52c2.5-9.3,3.9-19,3.9-29S378.6,217.7,376.1,208.4
	L376.1,208.4z M209.4,237.5c0-9.8,0.5-19.5,1.5-29h-52c-2.5,9.3-3.9,19-3.9,29s1.5,19.7,3.9,29h52C210,257,209.4,247.2,209.4,237.5z
	 M227.4,281c6.6,40.5,22.1,69,40.2,69s33.6-28.4,40.2-69H227.4z M299.6,345.3c32.4-9.6,58.7-33.4,71.7-64.2h-49
	C318.3,306.9,310.7,329.9,299.6,345.3z M163.8,281c13,30.8,39.2,54.6,71.7,64.2c-11.1-15.3-18.7-38.4-22.7-64.2
	C212.8,281,163.8,281,163.8,281z"/>
</svg>
