<?xml version="1.0" encoding="utf-8"?>
<!-- Generator: Adobe Illustrator 23.0.3, SVG Export Plug-In . SVG Version: 6.00 Build 0)  -->
<svg version="1.1" id="Layer_1" xmlns="http://www.w3.org/2000/svg" xmlns:xlink="http://www.w3.org/1999/xlink" x="0px" y="0px"
	 viewBox="0 0 400 300" style="enable-background:new 0 0 400 300;" xml:space="preserve">
<style type="text/css">
	.st0{opacity:0.1;fill:#010101;}
</style>
<path class="st0" d="M248.78,199.04c42.53,0,77.04-34.51,77.04-77.04s-34.51-77.04-77.04-77.04s-77.04,34.51-77.04,77.04
	S206.25,199.04,248.78,199.04z M317.26,216.16h-29.48c-11.88,5.46-25.09,8.56-39,8.56s-27.07-3.1-39-8.56H180.3
	c-37.83,0-68.48,30.66-68.48,68.48v8.56c0,14.18,11.5,25.68,25.68,25.68h222.57c14.18,0,25.68-11.5,25.68-25.68v-8.56
	C385.74,246.81,355.09,216.16,317.26,216.16z"/>
</svg>
