<?xml version="1.0" encoding="utf-8"?>
<!-- Generator: Adobe Illustrator 23.0.3, SVG Export Plug-In . SVG Version: 6.00 Build 0)  -->
<svg version="1.1" id="Layer_1" xmlns="http://www.w3.org/2000/svg" xmlns:xlink="http://www.w3.org/1999/xlink" x="0px" y="0px"
	 viewBox="0 0 400 300" style="enable-background:new 0 0 400 300;" xml:space="preserve">
<style type="text/css">
	.st0{opacity:0.1;fill:#010101;enable-background:new    ;}
</style>
<path class="st0" d="M195,210.6h-18.2v-18.2c0-2.9-2.3-5.2-5.2-5.2h-5.2c-2.9,0-5.2,2.3-5.2,5.2v18.2H143c-2.9,0-5.2,2.3-5.2,5.2
	v5.2c0,2.9,2.3,5.2,5.2,5.2h18.2v18.2c0,2.9,2.3,5.2,5.2,5.2h5.2c2.9,0,5.2-2.3,5.2-5.2v-18.2H195c2.9,0,5.2-2.3,5.2-5.2v-5.2
	C200.2,213,197.8,210.6,195,210.6z"/>
<path class="st0" d="M284.8,230.6c31.3,0,56.8-25.4,56.8-56.8S316.1,117,284.8,117S228,142.4,228,173.8S253.4,230.6,284.8,230.6z
	 M335.3,243.2h-21.8c-8.8,4.1-18.5,6.3-28.8,6.3s-19.9-2.3-28.8-6.3h-21.7c-27.8,0-50.5,22.6-50.5,50.5v6.3c0,10.5,8.5,19,19,19
	h164.1c10.5,0,19-8.5,19-19v-6.3C385.7,265.8,363.2,243.2,335.3,243.2z"/>
</svg>
