<?xml version="1.0" encoding="utf-8"?>
<!-- Generator: Adobe Illustrator 23.0.4, SVG Export Plug-In . SVG Version: 6.00 Build 0)  -->
<svg version="1.1" id="Layer_1" xmlns="http://www.w3.org/2000/svg" xmlns:xlink="http://www.w3.org/1999/xlink" x="0px" y="0px"
	 viewBox="0 0 512 512" style="enable-background:new 0 0 512 512;" xml:space="preserve">
<path d="M256,8C119,8,8,119,8,256s111,248,248,248s248-111,248-248S393,8,256,8z M348,418.5c-14.3,14-34.4,21.5-58.1,21.5
	c-45.8,0-100.4-26.8-146-71.6c-71.6-70.3-94-158.4-51.1-200.6c14.3-14,34.4-21.5,58.1-21.5c32.7,0,69.9,13.7,105.1,37.8
	c-0.7,0.7-1.4,1.3-2.1,2c-8.5,8.4-15.2,17.1-20.7,25.7c-28.4-19-57.7-30-82.3-30c-14.1,0-25.1,3.7-32.6,11.1
	c-24.1,23.7-9.1,91.4,51.1,150.5c38.4,37.8,84.6,61.2,120.5,61.2c14.1,0,25.1-3.7,32.6-11.1c12-11.8,14.5-33.7,6.9-60
	c-5.1-17.4-14.1-35.4-26.2-52.9c8.8-5.3,17.6-12,26.2-20.4c0.7-0.6,1.3-1.4,2-2c15.1,21.4,26.4,43.7,32.7,65.5
	C375.6,363.3,369.9,397,348,418.5z M219.3,294.2c5.3,5.2,12.7,8.1,20.3,7.8c1.4-0.1,24.1-1.3,51-14.4c3.6,5.6,6.6,11.2,9.1,16.5
	c13.3,29.6,4,45.1-2.7,51.7c-4.3,4.2-12.1,9.3-24.7,9.3c-22.2,0-53-16.8-80.5-43.8c-16.9-16.6-30.3-34.9-37.8-51.7
	c-13.3-29.6-4-45.1,2.7-51.7c4.3-4.3,12.1-9.3,24.7-9.3c12.8,0,28.5,5.7,44.7,15.6c-13.4,26.4-14.5,48.7-14.6,50.1
	C211.1,281.6,213.9,288.9,219.3,294.2z M421.3,158.3L390,189.1c-2.1,2.1-5.2,3-8.1,2.4l-19.6-3.8c-8.8,17.9-26.1,40.6-45.6,59.9
	c-35,34.4-76,36.5-77.8,36.5c-2.5,0.1-5-0.8-6.8-2.6c-1.8-1.8-2.7-4.2-2.6-6.6c0.1-1.7,2.2-42.1,37.2-76.4
	c19.6-19.3,42.7-36.2,61-44.9l-3.9-19.3c-0.6-2.9,0.4-5.9,2.5-8l31.3-30.8c2.2-2.2,5.5-3.1,8.5-2.3c3,0.7,5.5,3,6.5,6l10.8,33.8
	l34.3,10.6c3,0.9,5.3,3.3,6.1,6.3C424.5,153,423.6,156.1,421.3,158.3z"/>
</svg>
