<?xml version="1.0" encoding="utf-8"?>
<!-- Generator: Adobe Illustrator 23.0.4, SVG Export Plug-In . SVG Version: 6.00 Build 0)  -->
<svg version="1.1" id="Layer_1" xmlns="http://www.w3.org/2000/svg" xmlns:xlink="http://www.w3.org/1999/xlink" x="0px" y="0px"
	 viewBox="0 0 512 512" style="enable-background:new 0 0 512 512;" xml:space="preserve">
<path d="M256,8C119,8,8,119,8,256s111,248,248,248s248-111,248-248S393,8,256,8z M389.3,60.8l15.5,46.4l46.5,15.5
	c12.1,4,15.7,19.4,6.7,28.4l-53.1,53.1c-4.6,4.6-11.4,6.2-17.6,4.1l-41.5-13.8l-75.6,75.6c-7.8,7.8-20.5,7.8-28.3,0
	c-7.8-7.8-7.8-20.5,0-28.3l75.6-75.6l-13.8-41.5c-2.1-6.2-0.4-13,4.1-17.6L360.9,54C369.9,45,385.3,48.6,389.3,60.8z M240.9,205
	c-22.1,6.6-38.3,26.8-38.3,51c0,29.5,24,53.4,53.4,53.4c24.2,0,44.4-16.2,51-38.3l46-46l5.3,1.8c2.7,9.3,4.5,19,4.5,29.1
	c0,59-47.8,106.8-106.8,106.8S149.2,315,149.2,256S197,149.2,256,149.2c10.2,0,19.8,1.9,29.1,4.5l1.8,5.3L240.9,205L240.9,205z
	 M256,463c-114.3,0-207-92.7-207-207S141.7,49,256,49c21.2,0,42.3,3.3,62.5,9.7l-29.6,29.6c-4.6,4.6-7.7,10.2-9.8,16
	c-7.5-1.1-15.2-1.9-23.1-1.9c-84.9,0-153.6,68.7-153.6,153.6c0,84.9,68.7,153.6,153.6,153.6c84.9,0,153.6-68.7,153.6-153.6
	c0-7.8-0.8-15.3-1.9-22.8c5.9-2.2,11.4-5.5,16-10.1l29.6-29.6c6.2,19.7,9.7,40.7,9.7,62.5C463,370.3,370.3,463,256,463z"/>
</svg>
