<?xml version="1.0" encoding="utf-8"?>
<!-- Generator: Adobe Illustrator 23.0.4, SVG Export Plug-In . SVG Version: 6.00 Build 0)  -->
<svg version="1.1" id="Layer_1" xmlns="http://www.w3.org/2000/svg" xmlns:xlink="http://www.w3.org/1999/xlink" x="0px" y="0px"
	 viewBox="0 0 512 512" style="enable-background:new 0 0 512 512;" xml:space="preserve">
<path d="M256,8C119,8,8,119,8,256s111,248,248,248s248-111,248-248S393,8,256,8z M145,394.8c0,5.1-4.2,9.2-9.2,9.2h-18.5
	c-5.1,0-9.2-4.2-9.2-9.2V126.5c0-10.2,8.3-18.5,18.5-18.5s18.5,8.3,18.5,18.5V394.8z M404,300c0,7.1-4.1,13.8-10.7,16.6
	c-101.6,44.2-122.4-39.9-229.8,13.4V126.7c121.1-54.7,112.9,34.2,211.9-16.3c13.1-6.6,28.6,0.9,28.6,15.4V300z"/>
</svg>
