<?xml version="1.0" encoding="utf-8"?>
<!-- Generator: Adobe Illustrator 23.0.4, SVG Export Plug-In . SVG Version: 6.00 Build 0)  -->
<svg version="1.1" id="Layer_1" xmlns="http://www.w3.org/2000/svg" xmlns:xlink="http://www.w3.org/1999/xlink" x="0px" y="0px"
	 viewBox="0 0 512 512" style="enable-background:new 0 0 512 512;" xml:space="preserve">
<path d="M256,8C119,8,8,119,8,256s111,248,248,248s248-111,248-248S393,8,256,8z M447,176.2h-89.7C350,128.9,336,86.6,315.7,58.6
	C375.2,76.2,423.3,119.8,447,176.2z M336.7,256c0,18.4-1,36.1-2.7,53.2H180c-1.7-17-2.7-34.7-2.7-53.2c0-18.4,1-36.1,2.7-53.2h154
	C335.7,219.9,336.7,237.6,336.7,256z M257,49.9c33.1,0,61.5,52.1,73.5,126.3H183.4C195.5,102,223.9,49.9,257,49.9z M198.2,58.6
	c-20.3,28.1-34.2,70.4-41.5,117.7H66.9C90.6,119.8,138.8,76.2,198.2,58.6z M50.9,256c0-18.4,2.7-36.1,7.1-53.2h95.3
	c-1.7,17.5-2.7,35.3-2.7,53.2s1,35.7,2.7,53.2H58C53.6,292.1,50.9,274.4,50.9,256z M66.9,335.8h89.7c7.3,47.3,21.3,89.6,41.6,117.7
	C138.8,435.8,90.7,392.2,66.9,335.8z M257,462.1c-33.1,0-61.5-52.1-73.5-126.3h147.1C318.5,410,290.1,462.1,257,462.1z M315.8,453.4
	c20.3-28.1,34.2-70.4,41.6-117.7h89.7C423.4,392.2,375.2,435.8,315.8,453.4z M360.6,309.2c1.7-17.5,2.7-35.3,2.7-53.2
	s-1-35.7-2.7-53.2h95.3h0c4.5,17,7.1,34.7,7.1,53.2s-2.6,36.1-7.1,53.2H360.6z"/>
</svg>
