<?xml version="1.0" encoding="utf-8"?>
<!-- Generator: Adobe Illustrator 23.0.4, SVG Export Plug-In . SVG Version: 6.00 Build 0)  -->
<svg version="1.1" id="Layer_1" xmlns="http://www.w3.org/2000/svg" xmlns:xlink="http://www.w3.org/1999/xlink" x="0px" y="0px"
	 viewBox="0 0 512 512" style="enable-background:new 0 0 512 512;" xml:space="preserve">
<g>
	<circle cx="256.5" cy="256.5" r="53.3"/>
	<path d="M256,8C119,8,8,119,8,256s111,248,248,248s248-111,248-248S393,8,256,8z M256.5,463C142.5,463,50,370.5,50,256.5
		S142.5,50,256.5,50S463,142.4,463,256.5S370.5,463,256.5,463z"/>
	<path d="M256.5,103.3c-84.7,0-153.2,68.5-153.2,153.2c0,84.7,68.5,153.2,153.2,153.2c84.7,0,153.2-68.5,153.2-153.2
		C409.7,171.8,341.2,103.3,256.5,103.3z M256.5,363.1c-58.9,0-106.6-47.7-106.6-106.6s47.7-106.6,106.6-106.6
		s106.6,47.7,106.6,106.6S315.4,363.1,256.5,363.1z"/>
</g>
</svg>
