<?xml version="1.0" encoding="utf-8"?>
<!-- Generator: Adobe Illustrator 23.0.3, SVG Export Plug-In . SVG Version: 6.00 Build 0)  -->
<svg version="1.1" id="Layer_1" xmlns="http://www.w3.org/2000/svg" xmlns:xlink="http://www.w3.org/1999/xlink" x="0px" y="0px"
	 viewBox="0 0 500 136.2" style="enable-background:new 0 0 500 136.2;" xml:space="preserve">
<style type="text/css">
	.st0{enable-background:new    ;}
	.st1{fill:#31628A;}
	.st2{fill:#C0D7EA;}
</style>
<g id="Logo" transform="translate(0 1)">
	<g class="st0">
		<path class="st1" d="M0,29.5h22.2c5.7,0,10.7,1.2,15.2,3.6c4.4,2.4,7.9,5.8,10.4,10.3c2.5,4.5,3.7,9.8,3.7,15.9
			c0,6.1-1.2,11.4-3.7,15.9c-2.5,4.5-6,7.9-10.4,10.3c-4.4,2.4-9.5,3.6-15.2,3.6H0V29.5z M22.2,79.2c5.7,0,10-1.8,13-5.3
			c3-3.5,4.5-8.4,4.5-14.7S38.2,48,35.2,44.5c-3-3.5-7.3-5.3-13-5.3H10.9v40.1H22.2z"/>
		<path class="st1" d="M90.9,74.8H69.3l-4.9,14.1H53.8L75,29.5h10.3l21.1,59.4H95.9L90.9,74.8z M84.8,8c-0.9-0.3-2.2-0.8-3.8-1.5
			c-0.3-0.1-1-0.4-2.2-0.9c-1.2-0.5-2.3-0.7-3.1-0.7c-1.9,0-2.8,1-2.8,3h-6.5C66.4,2,68.5-1,72.8-1c0.9,0,1.8,0.2,2.8,0.5
			c0.9,0.3,2.2,0.8,3.8,1.5c0.3,0.1,1,0.4,2.3,0.9c1.2,0.5,2.3,0.7,3.1,0.7c1.9,0,2.8-1,2.8-3h6.5c0,5.9-2.1,8.9-6.4,8.9
			C86.6,8.5,85.7,8.4,84.8,8z M69,19.4l11.2-7.8l11.2,7.8v6.3l-11.2-6.1L69,25.7V19.4z M87.6,65.3l-7.4-21.2l-7.5,21.2H87.6z"/>
		<path class="st1" d="M113.2,29.5h10.7l25.4,38.4V29.5h10.9v59.4h-8.9l-27.2-40.8v40.8h-10.9V29.5z"/>
		<path class="st1" d="M203.9,40h-16.8V29.5h44.5V40h-16.8v48.9h-10.9V40z"/>
		<path class="st1" d="M239.4,29.5h21.7c6.3,0,11.3,1.5,15,4.5c3.7,3,5.5,7.5,5.5,13.5c0,4.1-0.9,7.5-2.6,10.1
			c-1.8,2.6-4.2,4.7-7.5,6.3l13.4,25h-12.1l-11.5-22.1h-0.4h-10.6v22.1h-10.9V29.5z M258.2,57.8c8,0,12-3.2,12-9.7
			c0-3.1-0.9-5.5-2.7-7.1c-1.8-1.6-4.8-2.4-8.8-2.4h-8.4v19.2H258.2z"/>
		<path class="st1" d="M298.1,83c-4.1-4.7-6.2-11.3-6.2-19.6v-34h10.9v31.2c0,4.1,0.4,7.6,1.1,10.3c0.7,2.7,2.1,4.9,4.1,6.4
			c2,1.5,4.9,2.3,8.5,2.3c3.7,0,6.5-0.8,8.5-2.3c2-1.5,3.4-3.7,4.1-6.4c0.7-2.7,1.1-6.2,1.1-10.3V29.5h10.9v34
			c0,8.3-2.1,14.8-6.2,19.6c-4.1,4.7-10.3,7.1-18.4,7.1C308.3,90.1,302.2,87.8,298.1,83z"/>
		<path class="st1" d="M398.9,29.5l-20.9,35.4v24h-10.9v-24l-20.9-35.4h11.9l14.4,25.6l14.4-25.6H398.9z"/>
		<path class="st1" d="M404.8,29.5h38V40h-26.9v12.7h20.9v10.5h-20.9v15.2h27.8v10.5h-38.9V29.5z M413.5,19.4l11.2-7.8l11.2,7.8v6.3
			l-11.2-6.1l-11.2,6.1V19.4z M420.4,95.8h8.8v8.2h-8.8V95.8z"/>
		<path class="st1" d="M453,29.5h10.7l25.4,38.4V29.5H500v59.4h-8.9l-27.2-40.8v40.8H453V29.5z"/>
	</g>
	<g class="st0">
		<path class="st2" d="M0,116.8h2.6l6.3,9.5v-9.5h2.7v14.7H9.4l-6.7-10.1v10.1H0V116.8z"/>
		<path class="st2" d="M14.8,116.8h9.4v2.6h-6.6v3.1h5.2v2.6h-5.2v3.8h6.9v2.6h-9.6V116.8z M17,114.3l2.8-1.9l2.8,1.9v1.6l-2.8-1.5
			l-2.8,1.5V114.3z M20.1,110h2.2l1.1,2.7h-1.6L20.1,110z"/>
		<path class="st2" d="M26.7,116.8h2.6l6.3,9.5v-9.5h2.7v14.7h-2.2l-6.7-10.1v10.1h-2.7V116.8z"/>
		<path class="st2" d="M49.1,119.4H45v-2.6h11v2.6h-4.1v12.1h-2.7V119.4z"/>
		<path class="st2" d="M64.4,128H59l-1.2,3.5h-2.6l5.2-14.7H63l5.2,14.7h-2.6L64.4,128z M61.4,114.6c0.3-0.1,0.5-0.2,0.6-0.3
			c0.1-0.1,0.2-0.3,0.2-0.5c0-0.4-0.3-0.6-0.8-0.6c-0.4,0-0.8,0.1-1.3,0.4l-0.4-1.3c0.5-0.3,1.1-0.4,1.7-0.4c0.6,0,1.1,0.2,1.5,0.5
			c0.4,0.3,0.6,0.7,0.6,1.3c0,0.5-0.2,0.9-0.5,1.1c-0.3,0.3-0.8,0.5-1.4,0.6L61.4,114.6z M63.5,125.6l-1.8-5.2l-1.8,5.2H63.5z"/>
		<path class="st2" d="M69.8,116.8h2.6l6.3,9.5v-9.5h2.7v14.7h-2.2l-6.7-10.1v10.1h-2.7V116.8z"/>
		<path class="st2" d="M87.2,130.8c-1.1-0.6-2-1.5-2.5-2.7c-0.6-1.2-0.9-2.5-0.9-4c0-1.5,0.3-2.8,1-4c0.6-1.2,1.6-2,2.7-2.7
			c1.2-0.6,2.5-0.9,4-0.9c0.8,0,1.5,0.1,2.2,0.2c0.7,0.2,1.3,0.4,1.8,0.6l-0.3,2.6c-1.2-0.6-2.5-0.8-3.8-0.8c-1.6,0-2.7,0.5-3.5,1.4
			c-0.8,0.9-1.2,2.1-1.2,3.6c0,1.6,0.4,2.8,1.2,3.7c0.8,0.9,1.9,1.4,3.4,1.4c0.6,0,1.3-0.1,2-0.2v-2.6h-2v-2.2H96v6.5
			c-0.5,0.3-1.2,0.6-2.1,0.8c-0.8,0.2-1.7,0.3-2.7,0.3C89.6,131.7,88.3,131.4,87.2,130.8z"/>
		<path class="st2" d="M103.3,116.8h2.7v14.7h-2.7V116.8z M106.2,123.7l5.4-6.9h3.1l-5.5,6.9l5.5,7.8h-3.1L106.2,123.7z"/>
		<path class="st2" d="M116.4,116.8h9.4v2.6h-6.6v3.1h5.2v2.6h-5.2v3.8h6.9v2.6h-9.6V116.8z M118.6,114.3l2.8-1.9l2.8,1.9v1.6
			l-2.8-1.5l-2.8,1.5V114.3z M123.1,112.2c0.3-0.1,0.5-0.2,0.6-0.3c0.1-0.1,0.2-0.3,0.2-0.5c0-0.4-0.3-0.6-0.8-0.6
			c-0.4,0-0.8,0.1-1.3,0.4l-0.4-1.3c0.5-0.3,1.1-0.4,1.7-0.4c0.6,0,1.1,0.2,1.5,0.5c0.4,0.3,0.6,0.7,0.6,1.3c0,0.5-0.2,0.9-0.5,1.1
			c-0.3,0.3-0.8,0.5-1.4,0.6L123.1,112.2z"/>
		<path class="st2" d="M135.9,119.4h-4.1v-2.6h11v2.6h-4.1v12.1h-2.7V119.4z"/>
		<path class="st2" d="M144.7,116.8h5.4c1.6,0,2.8,0.4,3.7,1.1c0.9,0.7,1.4,1.9,1.4,3.3c0,1-0.2,1.9-0.6,2.5c-0.4,0.6-1,1.2-1.8,1.6
			l3.3,6.2h-3l-2.8-5.4H150h-2.6v5.4h-2.7V116.8z M149.3,123.7c2,0,3-0.8,3-2.4c0-0.8-0.2-1.4-0.7-1.8c-0.4-0.4-1.2-0.6-2.2-0.6
			h-2.1v4.7H149.3z"/>
		<path class="st2" d="M159.1,130c-1-1.2-1.5-2.8-1.5-4.8v-8.4h2.7v7.7c0,1,0.1,1.9,0.3,2.5c0.2,0.7,0.5,1.2,1,1.6
			c0.5,0.4,1.2,0.6,2.1,0.6c0.9,0,1.6-0.2,2.1-0.6c0.5-0.4,0.8-0.9,1-1.6c0.2-0.7,0.3-1.5,0.3-2.5v-7.7h2.7v8.4
			c0,2.1-0.5,3.7-1.5,4.8c-1,1.2-2.5,1.8-4.5,1.8C161.7,131.7,160.2,131.1,159.1,130z"/>
		<path class="st2" d="M184,116.8l-5.2,8.7v5.9h-2.7v-5.9l-5.2-8.7h2.9l3.6,6.3l3.6-6.3H184z"/>
		<path class="st2" d="M185.5,116.8h9.4v2.6h-6.6v3.1h5.2v2.6h-5.2v3.8h6.9v2.6h-9.6V116.8z M187.6,114.3l2.8-1.9l2.8,1.9v1.6
			l-2.8-1.5l-2.8,1.5V114.3z M189.3,133.1h2.2v2h-2.2V133.1z"/>
		<path class="st2" d="M197.4,116.8h2.6l6.3,9.5v-9.5h2.7v14.7h-2.2l-6.7-10.1v10.1h-2.7V116.8z"/>
		<path class="st2" d="M216.9,116.8h2.6l6.3,9.5v-9.5h2.7v14.7h-2.2l-6.7-10.1v10.1h-2.7V116.8z"/>
		<path class="st2" d="M231.7,116.8h2.7v5.8h6.7v-5.8h2.7v14.7h-2.7v-6.3h-6.7v6.3h-2.7V116.8z"/>
		<path class="st2" d="M254.6,128h-5.3l-1.2,3.5h-2.6l5.2-14.7h2.5l5.2,14.7h-2.6L254.6,128z M249.2,114l2.8-2.3l2.8,2.3v1.7
			l-2.8-1.7l-2.8,1.7V114z M253.8,125.6l-1.8-5.2l-1.8,5.2H253.8z M250.9,133.1h2.2v2h-2.2V133.1z"/>
		<path class="st2" d="M260.1,116.8h5.2c3.5,0,5.2,1.6,5.2,4.7c0,1.6-0.4,2.8-1.3,3.6c-0.9,0.8-2.2,1.2-3.8,1.2h-2.6v5.1h-2.7V116.8
			z M265.1,124.1c0.9,0,1.6-0.2,2.1-0.6c0.5-0.4,0.7-1.1,0.7-1.9c0-0.9-0.2-1.5-0.7-1.9c-0.5-0.4-1.2-0.6-2.1-0.6h-2.2v5.1H265.1z"
			/>
		<path class="st2" d="M288.7,116.8l-5.2,14.7h-2.5l-5.2-14.7h2.7l3.8,10.8l3.8-10.8H288.7z"/>
		<path class="st2" d="M297,128h-5.3l-1.2,3.5h-2.6l5.2-14.7h2.5l5.2,14.7h-2.6L297,128z M296.1,125.6l-1.8-5.2l-1.8,5.2H296.1z"/>
		<path class="st2" d="M302.5,116.8h2.7v14.7h-2.7V116.8z"/>
		<path class="st2" d="M316.6,123.9l-4.9-7.1h3l3.4,5l3.4-5h3l-4.9,7.1l5.1,7.5h-3l-3.6-5.3l-3.6,5.3h-3L316.6,123.9z"/>
		<path class="st2" d="M326.2,116.8h2.7v14.7h-2.7V116.8z M326.4,133.1h2.2v2h-2.2V133.1z"/>
		<path class="st2" d="M332.1,116.8h2.6l6.3,9.5v-9.5h2.7v14.7h-2.2l-6.7-10.1v10.1h-2.7V116.8z"/>
		<path class="st2" d="M351.6,116.8h2.6l6.3,9.5v-9.5h2.7v14.7H361l-6.7-10.1v10.1h-2.7V116.8z"/>
		<path class="st2" d="M366.5,116.8h2.7v5.8h6.7v-5.8h2.7v14.7h-2.7v-6.3h-6.7v6.3h-2.7V116.8z"/>
		<path class="st2" d="M389.4,128H384l-1.2,3.5h-2.6l5.2-14.7h2.5l5.2,14.7h-2.6L389.4,128z M383.9,114.3l2.8-1.9l2.8,1.9v1.6
			l-2.8-1.5l-2.8,1.5V114.3z M388.5,125.6l-1.8-5.2l-1.8,5.2H388.5z M389.7,110h2.4l-2.1,2.7h-1.7L389.7,110z"/>
		<path class="st2" d="M396.6,119.4h-4.1v-2.6h11v2.6h-4.1v12.1h-2.7V119.4z"/>
		<path class="st2" d="M421.4,116.8l-5.2,14.7h-2.5l-5.2-14.7h2.7l3.8,10.8l3.8-10.8H421.4z"/>
		<path class="st2" d="M423,116.8h2.7v14.7H423V116.8z"/>
		<path class="st2" d="M428.9,116.8h9.4v2.6h-6.6v3.1h5.2v2.6h-5.2v3.8h6.9v2.6h-9.6V116.8z M431.1,114.3l2.8-1.9l2.8,1.9v1.6
			l-2.8-1.5l-2.8,1.5V114.3z M432.8,133.1h2.2v2h-2.2V133.1z"/>
		<path class="st2" d="M443.7,119.4h-4.1v-2.6h11v2.6h-4.1v12.1h-2.7V119.4z"/>
		<path class="st2" d="M457.2,116.8h2.6l6.3,9.5v-9.5h2.7v14.7h-2.2l-6.7-10.1v10.1h-2.7V116.8z"/>
		<path class="st2" d="M479.6,128h-5.3l-1.2,3.5h-2.6l5.2-14.7h2.5l5.2,14.7h-2.6L479.6,128z M478.7,125.6l-1.8-5.2l-1.8,5.2H478.7z
			"/>
		<path class="st2" d="M497.2,131.4l-1.3-9.8l-3.8,6.7l-3.8-6.7l-1.3,9.8h-2.8l2-14.7h2.2l3.6,6.7l3.6-6.7h2.2l2,14.7H497.2z"/>
	</g>
</g>
</svg>
