<?xml version="1.0" encoding="utf-8"?>
<!-- Generator: Adobe Illustrator 23.0.3, SVG Export Plug-In . SVG Version: 6.00 Build 0)  -->
<svg version="1.1" id="Layer_1" xmlns="http://www.w3.org/2000/svg" xmlns:xlink="http://www.w3.org/1999/xlink" x="0px" y="0px"
	 viewBox="0 0 500 120.2" style="enable-background:new 0 0 500 120.2;" xml:space="preserve">
<style type="text/css">
	.st0{enable-background:new    ;}
	.st1{fill:#FFFFFF;}
</style>
<g id="Logo" transform="translate(0 1)">
	<g class="st0">
		<path class="st1" d="M0,29.4h22.2c5.7,0,10.7,1.2,15.2,3.6c4.4,2.4,7.9,5.8,10.4,10.3s3.7,9.8,3.7,15.9s-1.2,11.4-3.7,15.9
			s-6,7.9-10.4,10.3S27.9,89,22.2,89H0V29.4z M22.2,79.1c5.7,0,10-1.8,13-5.3s4.5-8.4,4.5-14.7s-1.5-11.2-4.5-14.7s-7.3-5.3-13-5.3
			H10.9v40.1h11.3V79.1z"/>
		<path class="st1" d="M90.9,74.7H69.3l-4.9,14.1H53.8L75,29.4h10.3l21.1,59.4H95.9L90.9,74.7z M84.8,7.9c-0.9-0.3-2.2-0.8-3.8-1.5
			c-0.3-0.1-1-0.4-2.2-0.9s-2.3-0.7-3.1-0.7c-1.9,0-2.8,1-2.8,3h-6.5c0-5.9,2.1-8.9,6.4-8.9c0.9,0,1.8,0.2,2.8,0.5
			c0.9,0.3,2.2,0.8,3.8,1.5c0.3,0.1,1,0.4,2.3,0.9c1.2,0.5,2.3,0.7,3.1,0.7c1.9,0,2.8-1,2.8-3h6.5c0,5.9-2.1,8.9-6.4,8.9
			C86.6,8.4,85.7,8.3,84.8,7.9z M69,19.3l11.2-7.8l11.2,7.8v6.3l-11.2-6.1L69,25.6V19.3z M87.6,65.2L80.2,44l-7.5,21.2H87.6z"/>
		<path class="st1" d="M113.2,29.4h10.7l25.4,38.4V29.4h10.9v59.4h-8.9L124.1,48v40.8h-10.9C113.2,88.8,113.2,29.4,113.2,29.4z"/>
		<path class="st1" d="M203.9,39.9h-16.8V29.4h44.5v10.5h-16.8v48.9h-10.9V39.9z"/>
		<path class="st1" d="M239.4,29.4h21.7c6.3,0,11.3,1.5,15,4.5s5.5,7.5,5.5,13.5c0,4.1-0.9,7.5-2.6,10.1c-1.8,2.6-4.2,4.7-7.5,6.3
			l13.4,25h-12.1l-11.5-22.1h-0.4h-10.6v22.1h-10.9V29.4z M258.2,57.7c8,0,12-3.2,12-9.7c0-3.1-0.9-5.5-2.7-7.1
			c-1.8-1.6-4.8-2.4-8.8-2.4h-8.4v19.2H258.2z"/>
		<path class="st1" d="M298.1,82.9c-4.1-4.7-6.2-11.3-6.2-19.6v-34h10.9v31.2c0,4.1,0.4,7.6,1.1,10.3s2.1,4.9,4.1,6.4
			s4.9,2.3,8.5,2.3c3.7,0,6.5-0.8,8.5-2.3s3.4-3.7,4.1-6.4c0.7-2.7,1.1-6.2,1.1-10.3V29.4h10.9v34c0,8.3-2.1,14.8-6.2,19.6
			c-4.1,4.7-10.3,7.1-18.4,7.1C308.3,90,302.2,87.7,298.1,82.9z"/>
		<path class="st1" d="M398.9,29.4L378,64.8v24h-10.9v-24l-20.9-35.4h11.9L372.5,55l14.4-25.6C386.9,29.4,398.9,29.4,398.9,29.4z"/>
		<path class="st1" d="M404.8,29.4h38v10.5h-26.9v12.7h20.9v10.5h-20.9v15.2h27.8v10.5h-38.9V29.4z M413.5,19.3l11.2-7.8l11.2,7.8
			v6.3l-11.2-6.1l-11.2,6.1V19.3z M420.4,95.7h8.8v8.2h-8.8V95.7z"/>
		<path class="st1" d="M453,29.4h10.7l25.4,38.4V29.4H500v59.4h-8.9L463.9,48v40.8H453V29.4z"/>
	</g>
</g>
</svg>
