<?xml version="1.0" encoding="utf-8"?>
<!-- Generator: Adobe Illustrator 23.0.3, SVG Export Plug-In . SVG Version: 6.00 Build 0)  -->
<svg version="1.1" id="Layer_1" xmlns="http://www.w3.org/2000/svg" xmlns:xlink="http://www.w3.org/1999/xlink" x="0px" y="0px"
	 viewBox="0 0 500 117.7" style="enable-background:new 0 0 500 117.7;" xml:space="preserve">
<style type="text/css">
	.st0{enable-background:new    ;}
	.st1{fill:#31628A;}
</style>
<g id="Logo" transform="translate(0 1)">
	<g class="st0">
		<path class="st1" d="M0,31.5h22.2c5.7,0,10.7,1.2,15.2,3.6c4.4,2.4,7.9,5.8,10.4,10.3s3.7,9.8,3.7,15.9s-1.2,11.4-3.7,15.9
			s-6,7.9-10.4,10.3s-9.5,3.6-15.2,3.6H0V31.5z M22.2,81.2c5.7,0,10-1.8,13-5.3s4.5-8.4,4.5-14.7S38.2,50,35.2,46.5s-7.3-5.3-13-5.3
			H10.9v40.1h11.3V81.2z"/>
		<path class="st1" d="M90.9,76.8H69.3l-4.9,14.1H53.8L75,31.5h10.3l21.1,59.4H95.9L90.9,76.8z M84.8,10c-0.9-0.3-2.2-0.8-3.8-1.5
			c-0.3-0.1-1-0.4-2.2-0.9s-2.3-0.7-3.1-0.7c-1.9,0-2.8,1-2.8,3h-6.5C66.4,4,68.5,1,72.8,1c0.9,0,1.8,0.2,2.8,0.5
			c0.9,0.3,2.2,0.8,3.8,1.5c0.3,0.1,1,0.4,2.3,0.9c1.2,0.5,2.3,0.7,3.1,0.7c1.9,0,2.8-1,2.8-3h6.5c0,5.9-2.1,8.9-6.4,8.9
			C86.6,10.5,85.7,10.4,84.8,10z M69,21.4l11.2-7.8l11.2,7.8v6.3l-11.2-6.1L69,27.7V21.4z M87.6,67.3l-7.4-21.2l-7.5,21.2H87.6z"/>
		<path class="st1" d="M113.2,31.5h10.7l25.4,38.4V31.5h10.9v59.4h-8.9l-27.2-40.8v40.8h-10.9C113.2,90.9,113.2,31.5,113.2,31.5z"/>
		<path class="st1" d="M203.9,42h-16.8V31.5h44.5V42h-16.8v48.9h-10.9V42z"/>
		<path class="st1" d="M239.4,31.5h21.7c6.3,0,11.3,1.5,15,4.5s5.5,7.5,5.5,13.5c0,4.1-0.9,7.5-2.6,10.1c-1.8,2.6-4.2,4.7-7.5,6.3
			l13.4,25h-12.1l-11.5-22.1h-0.4h-10.6v22.1h-10.9V31.5z M258.2,59.8c8,0,12-3.2,12-9.7c0-3.1-0.9-5.5-2.7-7.1
			c-1.8-1.6-4.8-2.4-8.8-2.4h-8.4v19.2H258.2z"/>
		<path class="st1" d="M298.1,85c-4.1-4.7-6.2-11.3-6.2-19.6v-34h10.9v31.2c0,4.1,0.4,7.6,1.1,10.3s2.1,4.9,4.1,6.4s4.9,2.3,8.5,2.3
			c3.7,0,6.5-0.8,8.5-2.3s3.4-3.7,4.1-6.4c0.7-2.7,1.1-6.2,1.1-10.3V31.5h10.9v34c0,8.3-2.1,14.8-6.2,19.6
			c-4.1,4.7-10.3,7.1-18.4,7.1C308.3,92.1,302.2,89.8,298.1,85z"/>
		<path class="st1" d="M398.9,31.5L378,66.9v24h-10.9v-24l-20.9-35.4h11.9l14.4,25.6l14.4-25.6C386.9,31.5,398.9,31.5,398.9,31.5z"
			/>
		<path class="st1" d="M404.8,31.5h38V42h-26.9v12.7h20.9v10.5h-20.9v15.2h27.8v10.5h-38.9V31.5z M413.5,21.4l11.2-7.8l11.2,7.8v6.3
			l-11.2-6.1l-11.2,6.1V21.4z M420.4,97.8h8.8v8.2h-8.8V97.8z"/>
		<path class="st1" d="M453,31.5h10.7l25.4,38.4V31.5H500v59.4h-8.9l-27.2-40.8v40.8H453V31.5z"/>
	</g>
</g>
</svg>
